G04 #@! TF.GenerationSoftware,KiCad,Pcbnew,(5.1.5)-3*
G04 #@! TF.CreationDate,2020-04-26T20:45:36-05:00*
G04 #@! TF.ProjectId,SolarBTSpeaker,536f6c61-7242-4545-9370-65616b65722e,1.0*
G04 #@! TF.SameCoordinates,Original*
G04 #@! TF.FileFunction,Legend,Top*
G04 #@! TF.FilePolarity,Positive*
%FSLAX46Y46*%
G04 Gerber Fmt 4.6, Leading zero omitted, Abs format (unit mm)*
G04 Created by KiCad (PCBNEW (5.1.5)-3) date 2020-04-26 20:45:36*
%MOMM*%
%LPD*%
G04 APERTURE LIST*
%ADD10C,0.250000*%
%ADD11C,0.050000*%
%ADD12C,0.120000*%
%ADD13C,0.150000*%
G04 APERTURE END LIST*
D10*
X167411333Y-119225380D02*
X167411333Y-118225380D01*
X167744666Y-118939666D01*
X168078000Y-118225380D01*
X168078000Y-119225380D01*
X168982761Y-119225380D02*
X168982761Y-118701571D01*
X168935142Y-118606333D01*
X168839904Y-118558714D01*
X168649428Y-118558714D01*
X168554190Y-118606333D01*
X168982761Y-119177761D02*
X168887523Y-119225380D01*
X168649428Y-119225380D01*
X168554190Y-119177761D01*
X168506571Y-119082523D01*
X168506571Y-118987285D01*
X168554190Y-118892047D01*
X168649428Y-118844428D01*
X168887523Y-118844428D01*
X168982761Y-118796809D01*
X169411333Y-119177761D02*
X169506571Y-119225380D01*
X169697047Y-119225380D01*
X169792285Y-119177761D01*
X169839904Y-119082523D01*
X169839904Y-119034904D01*
X169792285Y-118939666D01*
X169697047Y-118892047D01*
X169554190Y-118892047D01*
X169458952Y-118844428D01*
X169411333Y-118749190D01*
X169411333Y-118701571D01*
X169458952Y-118606333D01*
X169554190Y-118558714D01*
X169697047Y-118558714D01*
X169792285Y-118606333D01*
X170411333Y-119225380D02*
X170316095Y-119177761D01*
X170268476Y-119130142D01*
X170220857Y-119034904D01*
X170220857Y-118749190D01*
X170268476Y-118653952D01*
X170316095Y-118606333D01*
X170411333Y-118558714D01*
X170554190Y-118558714D01*
X170649428Y-118606333D01*
X170697047Y-118653952D01*
X170744666Y-118749190D01*
X170744666Y-119034904D01*
X170697047Y-119130142D01*
X170649428Y-119177761D01*
X170554190Y-119225380D01*
X170411333Y-119225380D01*
X171173238Y-118558714D02*
X171173238Y-119225380D01*
X171173238Y-118653952D02*
X171220857Y-118606333D01*
X171316095Y-118558714D01*
X171458952Y-118558714D01*
X171554190Y-118606333D01*
X171601809Y-118701571D01*
X171601809Y-119225380D01*
X172744666Y-118225380D02*
X172982761Y-119225380D01*
X173173238Y-118511095D01*
X173363714Y-119225380D01*
X173601809Y-118225380D01*
X173982761Y-119225380D02*
X173982761Y-118558714D01*
X173982761Y-118225380D02*
X173935142Y-118273000D01*
X173982761Y-118320619D01*
X174030380Y-118273000D01*
X173982761Y-118225380D01*
X173982761Y-118320619D01*
X174601809Y-119225380D02*
X174506571Y-119177761D01*
X174458952Y-119082523D01*
X174458952Y-118225380D01*
X175411333Y-119225380D02*
X175411333Y-118225380D01*
X175411333Y-119177761D02*
X175316095Y-119225380D01*
X175125619Y-119225380D01*
X175030380Y-119177761D01*
X174982761Y-119130142D01*
X174935142Y-119034904D01*
X174935142Y-118749190D01*
X174982761Y-118653952D01*
X175030380Y-118606333D01*
X175125619Y-118558714D01*
X175316095Y-118558714D01*
X175411333Y-118606333D01*
X176268476Y-119177761D02*
X176173238Y-119225380D01*
X175982761Y-119225380D01*
X175887523Y-119177761D01*
X175839904Y-119082523D01*
X175839904Y-118701571D01*
X175887523Y-118606333D01*
X175982761Y-118558714D01*
X176173238Y-118558714D01*
X176268476Y-118606333D01*
X176316095Y-118701571D01*
X176316095Y-118796809D01*
X175839904Y-118892047D01*
X177506571Y-118844428D02*
X178268476Y-118844428D01*
X179506571Y-118701571D02*
X179839904Y-118701571D01*
X179982761Y-119225380D02*
X179506571Y-119225380D01*
X179506571Y-118225380D01*
X179982761Y-118225380D01*
X180411333Y-119225380D02*
X180411333Y-118225380D01*
X180982761Y-119225380D01*
X180982761Y-118225380D01*
X181982761Y-118273000D02*
X181887523Y-118225380D01*
X181744666Y-118225380D01*
X181601809Y-118273000D01*
X181506571Y-118368238D01*
X181458952Y-118463476D01*
X181411333Y-118653952D01*
X181411333Y-118796809D01*
X181458952Y-118987285D01*
X181506571Y-119082523D01*
X181601809Y-119177761D01*
X181744666Y-119225380D01*
X181839904Y-119225380D01*
X181982761Y-119177761D01*
X182030380Y-119130142D01*
X182030380Y-118796809D01*
X181839904Y-118796809D01*
X183030380Y-119225380D02*
X182697047Y-118749190D01*
X182458952Y-119225380D02*
X182458952Y-118225380D01*
X182839904Y-118225380D01*
X182935142Y-118273000D01*
X182982761Y-118320619D01*
X183030380Y-118415857D01*
X183030380Y-118558714D01*
X182982761Y-118653952D01*
X182935142Y-118701571D01*
X182839904Y-118749190D01*
X182458952Y-118749190D01*
X183887523Y-118558714D02*
X183887523Y-119225380D01*
X183649428Y-118177761D02*
X183411333Y-118892047D01*
X184030380Y-118892047D01*
X184839904Y-118225380D02*
X184649428Y-118225380D01*
X184554190Y-118273000D01*
X184506571Y-118320619D01*
X184411333Y-118463476D01*
X184363714Y-118653952D01*
X184363714Y-119034904D01*
X184411333Y-119130142D01*
X184458952Y-119177761D01*
X184554190Y-119225380D01*
X184744666Y-119225380D01*
X184839904Y-119177761D01*
X184887523Y-119130142D01*
X184935142Y-119034904D01*
X184935142Y-118796809D01*
X184887523Y-118701571D01*
X184839904Y-118653952D01*
X184744666Y-118606333D01*
X184554190Y-118606333D01*
X184458952Y-118653952D01*
X184411333Y-118701571D01*
X184363714Y-118796809D01*
X185554190Y-118225380D02*
X185649428Y-118225380D01*
X185744666Y-118273000D01*
X185792285Y-118320619D01*
X185839904Y-118415857D01*
X185887523Y-118606333D01*
X185887523Y-118844428D01*
X185839904Y-119034904D01*
X185792285Y-119130142D01*
X185744666Y-119177761D01*
X185649428Y-119225380D01*
X185554190Y-119225380D01*
X185458952Y-119177761D01*
X185411333Y-119130142D01*
X185363714Y-119034904D01*
X185316095Y-118844428D01*
X185316095Y-118606333D01*
X185363714Y-118415857D01*
X185411333Y-118320619D01*
X185458952Y-118273000D01*
X185554190Y-118225380D01*
X187078000Y-118844428D02*
X187839904Y-118844428D01*
X188982761Y-118558714D02*
X189220857Y-119225380D01*
X189458952Y-118558714D01*
X190363714Y-119225380D02*
X189792285Y-119225380D01*
X190078000Y-119225380D02*
X190078000Y-118225380D01*
X189982761Y-118368238D01*
X189887523Y-118463476D01*
X189792285Y-118511095D01*
X190792285Y-119130142D02*
X190839904Y-119177761D01*
X190792285Y-119225380D01*
X190744666Y-119177761D01*
X190792285Y-119130142D01*
X190792285Y-119225380D01*
X191458952Y-118225380D02*
X191554190Y-118225380D01*
X191649428Y-118273000D01*
X191697047Y-118320619D01*
X191744666Y-118415857D01*
X191792285Y-118606333D01*
X191792285Y-118844428D01*
X191744666Y-119034904D01*
X191697047Y-119130142D01*
X191649428Y-119177761D01*
X191554190Y-119225380D01*
X191458952Y-119225380D01*
X191363714Y-119177761D01*
X191316095Y-119130142D01*
X191268476Y-119034904D01*
X191220857Y-118844428D01*
X191220857Y-118606333D01*
X191268476Y-118415857D01*
X191316095Y-118320619D01*
X191363714Y-118273000D01*
X191458952Y-118225380D01*
X163673238Y-120927761D02*
X163816095Y-120975380D01*
X164054190Y-120975380D01*
X164149428Y-120927761D01*
X164197047Y-120880142D01*
X164244666Y-120784904D01*
X164244666Y-120689666D01*
X164197047Y-120594428D01*
X164149428Y-120546809D01*
X164054190Y-120499190D01*
X163863714Y-120451571D01*
X163768476Y-120403952D01*
X163720857Y-120356333D01*
X163673238Y-120261095D01*
X163673238Y-120165857D01*
X163720857Y-120070619D01*
X163768476Y-120023000D01*
X163863714Y-119975380D01*
X164101809Y-119975380D01*
X164244666Y-120023000D01*
X164816095Y-120975380D02*
X164720857Y-120927761D01*
X164673238Y-120880142D01*
X164625619Y-120784904D01*
X164625619Y-120499190D01*
X164673238Y-120403952D01*
X164720857Y-120356333D01*
X164816095Y-120308714D01*
X164958952Y-120308714D01*
X165054190Y-120356333D01*
X165101809Y-120403952D01*
X165149428Y-120499190D01*
X165149428Y-120784904D01*
X165101809Y-120880142D01*
X165054190Y-120927761D01*
X164958952Y-120975380D01*
X164816095Y-120975380D01*
X165720857Y-120975380D02*
X165625619Y-120927761D01*
X165578000Y-120832523D01*
X165578000Y-119975380D01*
X166530380Y-120975380D02*
X166530380Y-120451571D01*
X166482761Y-120356333D01*
X166387523Y-120308714D01*
X166197047Y-120308714D01*
X166101809Y-120356333D01*
X166530380Y-120927761D02*
X166435142Y-120975380D01*
X166197047Y-120975380D01*
X166101809Y-120927761D01*
X166054190Y-120832523D01*
X166054190Y-120737285D01*
X166101809Y-120642047D01*
X166197047Y-120594428D01*
X166435142Y-120594428D01*
X166530380Y-120546809D01*
X167006571Y-120975380D02*
X167006571Y-120308714D01*
X167006571Y-120499190D02*
X167054190Y-120403952D01*
X167101809Y-120356333D01*
X167197047Y-120308714D01*
X167292285Y-120308714D01*
X168720857Y-120451571D02*
X168863714Y-120499190D01*
X168911333Y-120546809D01*
X168958952Y-120642047D01*
X168958952Y-120784904D01*
X168911333Y-120880142D01*
X168863714Y-120927761D01*
X168768476Y-120975380D01*
X168387523Y-120975380D01*
X168387523Y-119975380D01*
X168720857Y-119975380D01*
X168816095Y-120023000D01*
X168863714Y-120070619D01*
X168911333Y-120165857D01*
X168911333Y-120261095D01*
X168863714Y-120356333D01*
X168816095Y-120403952D01*
X168720857Y-120451571D01*
X168387523Y-120451571D01*
X169816095Y-120975380D02*
X169816095Y-120451571D01*
X169768476Y-120356333D01*
X169673238Y-120308714D01*
X169482761Y-120308714D01*
X169387523Y-120356333D01*
X169816095Y-120927761D02*
X169720857Y-120975380D01*
X169482761Y-120975380D01*
X169387523Y-120927761D01*
X169339904Y-120832523D01*
X169339904Y-120737285D01*
X169387523Y-120642047D01*
X169482761Y-120594428D01*
X169720857Y-120594428D01*
X169816095Y-120546809D01*
X170149428Y-120308714D02*
X170530380Y-120308714D01*
X170292285Y-119975380D02*
X170292285Y-120832523D01*
X170339904Y-120927761D01*
X170435142Y-120975380D01*
X170530380Y-120975380D01*
X170720857Y-120308714D02*
X171101809Y-120308714D01*
X170863714Y-119975380D02*
X170863714Y-120832523D01*
X170911333Y-120927761D01*
X171006571Y-120975380D01*
X171101809Y-120975380D01*
X171816095Y-120927761D02*
X171720857Y-120975380D01*
X171530380Y-120975380D01*
X171435142Y-120927761D01*
X171387523Y-120832523D01*
X171387523Y-120451571D01*
X171435142Y-120356333D01*
X171530380Y-120308714D01*
X171720857Y-120308714D01*
X171816095Y-120356333D01*
X171863714Y-120451571D01*
X171863714Y-120546809D01*
X171387523Y-120642047D01*
X172292285Y-120975380D02*
X172292285Y-120308714D01*
X172292285Y-120499190D02*
X172339904Y-120403952D01*
X172387523Y-120356333D01*
X172482761Y-120308714D01*
X172578000Y-120308714D01*
X172816095Y-120308714D02*
X173054190Y-120975380D01*
X173292285Y-120308714D02*
X173054190Y-120975380D01*
X172958952Y-121213476D01*
X172911333Y-121261095D01*
X172816095Y-121308714D01*
X175006571Y-120880142D02*
X174958952Y-120927761D01*
X174816095Y-120975380D01*
X174720857Y-120975380D01*
X174578000Y-120927761D01*
X174482761Y-120832523D01*
X174435142Y-120737285D01*
X174387523Y-120546809D01*
X174387523Y-120403952D01*
X174435142Y-120213476D01*
X174482761Y-120118238D01*
X174578000Y-120023000D01*
X174720857Y-119975380D01*
X174816095Y-119975380D01*
X174958952Y-120023000D01*
X175006571Y-120070619D01*
X175435142Y-120975380D02*
X175435142Y-119975380D01*
X175863714Y-120975380D02*
X175863714Y-120451571D01*
X175816095Y-120356333D01*
X175720857Y-120308714D01*
X175578000Y-120308714D01*
X175482761Y-120356333D01*
X175435142Y-120403952D01*
X176768476Y-120975380D02*
X176768476Y-120451571D01*
X176720857Y-120356333D01*
X176625619Y-120308714D01*
X176435142Y-120308714D01*
X176339904Y-120356333D01*
X176768476Y-120927761D02*
X176673238Y-120975380D01*
X176435142Y-120975380D01*
X176339904Y-120927761D01*
X176292285Y-120832523D01*
X176292285Y-120737285D01*
X176339904Y-120642047D01*
X176435142Y-120594428D01*
X176673238Y-120594428D01*
X176768476Y-120546809D01*
X177244666Y-120975380D02*
X177244666Y-120308714D01*
X177244666Y-120499190D02*
X177292285Y-120403952D01*
X177339904Y-120356333D01*
X177435142Y-120308714D01*
X177530380Y-120308714D01*
X178292285Y-120308714D02*
X178292285Y-121118238D01*
X178244666Y-121213476D01*
X178197047Y-121261095D01*
X178101809Y-121308714D01*
X177958952Y-121308714D01*
X177863714Y-121261095D01*
X178292285Y-120927761D02*
X178197047Y-120975380D01*
X178006571Y-120975380D01*
X177911333Y-120927761D01*
X177863714Y-120880142D01*
X177816095Y-120784904D01*
X177816095Y-120499190D01*
X177863714Y-120403952D01*
X177911333Y-120356333D01*
X178006571Y-120308714D01*
X178197047Y-120308714D01*
X178292285Y-120356333D01*
X179149428Y-120927761D02*
X179054190Y-120975380D01*
X178863714Y-120975380D01*
X178768476Y-120927761D01*
X178720857Y-120832523D01*
X178720857Y-120451571D01*
X178768476Y-120356333D01*
X178863714Y-120308714D01*
X179054190Y-120308714D01*
X179149428Y-120356333D01*
X179197047Y-120451571D01*
X179197047Y-120546809D01*
X178720857Y-120642047D01*
X179625619Y-120975380D02*
X179625619Y-120308714D01*
X179625619Y-120499190D02*
X179673238Y-120403952D01*
X179720857Y-120356333D01*
X179816095Y-120308714D01*
X179911333Y-120308714D01*
X181435142Y-120975380D02*
X181435142Y-120451571D01*
X181387523Y-120356333D01*
X181292285Y-120308714D01*
X181101809Y-120308714D01*
X181006571Y-120356333D01*
X181435142Y-120927761D02*
X181339904Y-120975380D01*
X181101809Y-120975380D01*
X181006571Y-120927761D01*
X180958952Y-120832523D01*
X180958952Y-120737285D01*
X181006571Y-120642047D01*
X181101809Y-120594428D01*
X181339904Y-120594428D01*
X181435142Y-120546809D01*
X181911333Y-120308714D02*
X181911333Y-120975380D01*
X181911333Y-120403952D02*
X181958952Y-120356333D01*
X182054190Y-120308714D01*
X182197047Y-120308714D01*
X182292285Y-120356333D01*
X182339904Y-120451571D01*
X182339904Y-120975380D01*
X183244666Y-120975380D02*
X183244666Y-119975380D01*
X183244666Y-120927761D02*
X183149428Y-120975380D01*
X182958952Y-120975380D01*
X182863714Y-120927761D01*
X182816095Y-120880142D01*
X182768476Y-120784904D01*
X182768476Y-120499190D01*
X182816095Y-120403952D01*
X182863714Y-120356333D01*
X182958952Y-120308714D01*
X183149428Y-120308714D01*
X183244666Y-120356333D01*
X184435142Y-120689666D02*
X184911333Y-120689666D01*
X184339904Y-120975380D02*
X184673238Y-119975380D01*
X185006571Y-120975380D01*
X185768476Y-120308714D02*
X185768476Y-120975380D01*
X185339904Y-120308714D02*
X185339904Y-120832523D01*
X185387523Y-120927761D01*
X185482761Y-120975380D01*
X185625619Y-120975380D01*
X185720857Y-120927761D01*
X185768476Y-120880142D01*
X186673238Y-120975380D02*
X186673238Y-119975380D01*
X186673238Y-120927761D02*
X186578000Y-120975380D01*
X186387523Y-120975380D01*
X186292285Y-120927761D01*
X186244666Y-120880142D01*
X186197047Y-120784904D01*
X186197047Y-120499190D01*
X186244666Y-120403952D01*
X186292285Y-120356333D01*
X186387523Y-120308714D01*
X186578000Y-120308714D01*
X186673238Y-120356333D01*
X187149428Y-120975380D02*
X187149428Y-120308714D01*
X187149428Y-119975380D02*
X187101809Y-120023000D01*
X187149428Y-120070619D01*
X187197047Y-120023000D01*
X187149428Y-119975380D01*
X187149428Y-120070619D01*
X187768476Y-120975380D02*
X187673238Y-120927761D01*
X187625619Y-120880142D01*
X187578000Y-120784904D01*
X187578000Y-120499190D01*
X187625619Y-120403952D01*
X187673238Y-120356333D01*
X187768476Y-120308714D01*
X187911333Y-120308714D01*
X188006571Y-120356333D01*
X188054190Y-120403952D01*
X188101809Y-120499190D01*
X188101809Y-120784904D01*
X188054190Y-120880142D01*
X188006571Y-120927761D01*
X187911333Y-120975380D01*
X187768476Y-120975380D01*
X189244666Y-120689666D02*
X189720857Y-120689666D01*
X189149428Y-120975380D02*
X189482761Y-119975380D01*
X189816095Y-120975380D01*
X190149428Y-120975380D02*
X190149428Y-120308714D01*
X190149428Y-120403952D02*
X190197047Y-120356333D01*
X190292285Y-120308714D01*
X190435142Y-120308714D01*
X190530380Y-120356333D01*
X190578000Y-120451571D01*
X190578000Y-120975380D01*
X190578000Y-120451571D02*
X190625619Y-120356333D01*
X190720857Y-120308714D01*
X190863714Y-120308714D01*
X190958952Y-120356333D01*
X191006571Y-120451571D01*
X191006571Y-120975380D01*
X191482761Y-120308714D02*
X191482761Y-121308714D01*
X191482761Y-120356333D02*
X191578000Y-120308714D01*
X191768476Y-120308714D01*
X191863714Y-120356333D01*
X191911333Y-120403952D01*
X191958952Y-120499190D01*
X191958952Y-120784904D01*
X191911333Y-120880142D01*
X191863714Y-120927761D01*
X191768476Y-120975380D01*
X191578000Y-120975380D01*
X191482761Y-120927761D01*
X192530380Y-120975380D02*
X192435142Y-120927761D01*
X192387523Y-120832523D01*
X192387523Y-119975380D01*
X192911333Y-120975380D02*
X192911333Y-120308714D01*
X192911333Y-119975380D02*
X192863714Y-120023000D01*
X192911333Y-120070619D01*
X192958952Y-120023000D01*
X192911333Y-119975380D01*
X192911333Y-120070619D01*
X193244666Y-120308714D02*
X193625619Y-120308714D01*
X193387523Y-120975380D02*
X193387523Y-120118238D01*
X193435142Y-120023000D01*
X193530380Y-119975380D01*
X193625619Y-119975380D01*
X193958952Y-120975380D02*
X193958952Y-120308714D01*
X193958952Y-119975380D02*
X193911333Y-120023000D01*
X193958952Y-120070619D01*
X194006571Y-120023000D01*
X193958952Y-119975380D01*
X193958952Y-120070619D01*
X194816095Y-120927761D02*
X194720857Y-120975380D01*
X194530380Y-120975380D01*
X194435142Y-120927761D01*
X194387523Y-120832523D01*
X194387523Y-120451571D01*
X194435142Y-120356333D01*
X194530380Y-120308714D01*
X194720857Y-120308714D01*
X194816095Y-120356333D01*
X194863714Y-120451571D01*
X194863714Y-120546809D01*
X194387523Y-120642047D01*
X195292285Y-120975380D02*
X195292285Y-120308714D01*
X195292285Y-120499190D02*
X195339904Y-120403952D01*
X195387523Y-120356333D01*
X195482761Y-120308714D01*
X195578000Y-120308714D01*
X159982761Y-122725380D02*
X159982761Y-121725380D01*
X160411333Y-122725380D02*
X160411333Y-122201571D01*
X160363714Y-122106333D01*
X160268476Y-122058714D01*
X160125619Y-122058714D01*
X160030380Y-122106333D01*
X159982761Y-122153952D01*
X160744666Y-122058714D02*
X161125619Y-122058714D01*
X160887523Y-121725380D02*
X160887523Y-122582523D01*
X160935142Y-122677761D01*
X161030380Y-122725380D01*
X161125619Y-122725380D01*
X161316095Y-122058714D02*
X161697047Y-122058714D01*
X161458952Y-121725380D02*
X161458952Y-122582523D01*
X161506571Y-122677761D01*
X161601809Y-122725380D01*
X161697047Y-122725380D01*
X162030380Y-122058714D02*
X162030380Y-123058714D01*
X162030380Y-122106333D02*
X162125619Y-122058714D01*
X162316095Y-122058714D01*
X162411333Y-122106333D01*
X162458952Y-122153952D01*
X162506571Y-122249190D01*
X162506571Y-122534904D01*
X162458952Y-122630142D01*
X162411333Y-122677761D01*
X162316095Y-122725380D01*
X162125619Y-122725380D01*
X162030380Y-122677761D01*
X162887523Y-122677761D02*
X162982761Y-122725380D01*
X163173238Y-122725380D01*
X163268476Y-122677761D01*
X163316095Y-122582523D01*
X163316095Y-122534904D01*
X163268476Y-122439666D01*
X163173238Y-122392047D01*
X163030380Y-122392047D01*
X162935142Y-122344428D01*
X162887523Y-122249190D01*
X162887523Y-122201571D01*
X162935142Y-122106333D01*
X163030380Y-122058714D01*
X163173238Y-122058714D01*
X163268476Y-122106333D01*
X163744666Y-122630142D02*
X163792285Y-122677761D01*
X163744666Y-122725380D01*
X163697047Y-122677761D01*
X163744666Y-122630142D01*
X163744666Y-122725380D01*
X163744666Y-122106333D02*
X163792285Y-122153952D01*
X163744666Y-122201571D01*
X163697047Y-122153952D01*
X163744666Y-122106333D01*
X163744666Y-122201571D01*
X164935142Y-121677761D02*
X164078000Y-122963476D01*
X165982761Y-121677761D02*
X165125619Y-122963476D01*
X166744666Y-122058714D02*
X166744666Y-122868238D01*
X166697047Y-122963476D01*
X166649428Y-123011095D01*
X166554190Y-123058714D01*
X166411333Y-123058714D01*
X166316095Y-123011095D01*
X166744666Y-122677761D02*
X166649428Y-122725380D01*
X166458952Y-122725380D01*
X166363714Y-122677761D01*
X166316095Y-122630142D01*
X166268476Y-122534904D01*
X166268476Y-122249190D01*
X166316095Y-122153952D01*
X166363714Y-122106333D01*
X166458952Y-122058714D01*
X166649428Y-122058714D01*
X166744666Y-122106333D01*
X167220857Y-122725380D02*
X167220857Y-122058714D01*
X167220857Y-121725380D02*
X167173238Y-121773000D01*
X167220857Y-121820619D01*
X167268476Y-121773000D01*
X167220857Y-121725380D01*
X167220857Y-121820619D01*
X167554190Y-122058714D02*
X167935142Y-122058714D01*
X167697047Y-121725380D02*
X167697047Y-122582523D01*
X167744666Y-122677761D01*
X167839904Y-122725380D01*
X167935142Y-122725380D01*
X168268476Y-122725380D02*
X168268476Y-121725380D01*
X168697047Y-122725380D02*
X168697047Y-122201571D01*
X168649428Y-122106333D01*
X168554190Y-122058714D01*
X168411333Y-122058714D01*
X168316095Y-122106333D01*
X168268476Y-122153952D01*
X169601809Y-122058714D02*
X169601809Y-122725380D01*
X169173238Y-122058714D02*
X169173238Y-122582523D01*
X169220857Y-122677761D01*
X169316095Y-122725380D01*
X169458952Y-122725380D01*
X169554190Y-122677761D01*
X169601809Y-122630142D01*
X170078000Y-122725380D02*
X170078000Y-121725380D01*
X170078000Y-122106333D02*
X170173238Y-122058714D01*
X170363714Y-122058714D01*
X170458952Y-122106333D01*
X170506571Y-122153952D01*
X170554190Y-122249190D01*
X170554190Y-122534904D01*
X170506571Y-122630142D01*
X170458952Y-122677761D01*
X170363714Y-122725380D01*
X170173238Y-122725380D01*
X170078000Y-122677761D01*
X170982761Y-122630142D02*
X171030380Y-122677761D01*
X170982761Y-122725380D01*
X170935142Y-122677761D01*
X170982761Y-122630142D01*
X170982761Y-122725380D01*
X171887523Y-122677761D02*
X171792285Y-122725380D01*
X171601809Y-122725380D01*
X171506571Y-122677761D01*
X171458952Y-122630142D01*
X171411333Y-122534904D01*
X171411333Y-122249190D01*
X171458952Y-122153952D01*
X171506571Y-122106333D01*
X171601809Y-122058714D01*
X171792285Y-122058714D01*
X171887523Y-122106333D01*
X172458952Y-122725380D02*
X172363714Y-122677761D01*
X172316095Y-122630142D01*
X172268476Y-122534904D01*
X172268476Y-122249190D01*
X172316095Y-122153952D01*
X172363714Y-122106333D01*
X172458952Y-122058714D01*
X172601809Y-122058714D01*
X172697047Y-122106333D01*
X172744666Y-122153952D01*
X172792285Y-122249190D01*
X172792285Y-122534904D01*
X172744666Y-122630142D01*
X172697047Y-122677761D01*
X172601809Y-122725380D01*
X172458952Y-122725380D01*
X173220857Y-122725380D02*
X173220857Y-122058714D01*
X173220857Y-122153952D02*
X173268476Y-122106333D01*
X173363714Y-122058714D01*
X173506571Y-122058714D01*
X173601809Y-122106333D01*
X173649428Y-122201571D01*
X173649428Y-122725380D01*
X173649428Y-122201571D02*
X173697047Y-122106333D01*
X173792285Y-122058714D01*
X173935142Y-122058714D01*
X174030380Y-122106333D01*
X174078000Y-122201571D01*
X174078000Y-122725380D01*
X175268476Y-121677761D02*
X174411333Y-122963476D01*
X175601809Y-122725380D02*
X175601809Y-122058714D01*
X175601809Y-122153952D02*
X175649428Y-122106333D01*
X175744666Y-122058714D01*
X175887523Y-122058714D01*
X175982761Y-122106333D01*
X176030380Y-122201571D01*
X176030380Y-122725380D01*
X176030380Y-122201571D02*
X176078000Y-122106333D01*
X176173238Y-122058714D01*
X176316095Y-122058714D01*
X176411333Y-122106333D01*
X176458952Y-122201571D01*
X176458952Y-122725380D01*
X176839904Y-122058714D02*
X177030380Y-122725380D01*
X177220857Y-122249190D01*
X177411333Y-122725380D01*
X177601809Y-122058714D01*
X177982761Y-122725380D02*
X177982761Y-122058714D01*
X177982761Y-121725380D02*
X177935142Y-121773000D01*
X177982761Y-121820619D01*
X178030380Y-121773000D01*
X177982761Y-121725380D01*
X177982761Y-121820619D01*
X178601809Y-122725380D02*
X178506571Y-122677761D01*
X178458952Y-122582523D01*
X178458952Y-121725380D01*
X179411333Y-122725380D02*
X179411333Y-121725380D01*
X179411333Y-122677761D02*
X179316095Y-122725380D01*
X179125619Y-122725380D01*
X179030380Y-122677761D01*
X178982761Y-122630142D01*
X178935142Y-122534904D01*
X178935142Y-122249190D01*
X178982761Y-122153952D01*
X179030380Y-122106333D01*
X179125619Y-122058714D01*
X179316095Y-122058714D01*
X179411333Y-122106333D01*
X180268476Y-122677761D02*
X180173238Y-122725380D01*
X179982761Y-122725380D01*
X179887523Y-122677761D01*
X179839904Y-122582523D01*
X179839904Y-122201571D01*
X179887523Y-122106333D01*
X179982761Y-122058714D01*
X180173238Y-122058714D01*
X180268476Y-122106333D01*
X180316095Y-122201571D01*
X180316095Y-122296809D01*
X179839904Y-122392047D01*
X181268476Y-122725380D02*
X180697047Y-122725380D01*
X180982761Y-122725380D02*
X180982761Y-121725380D01*
X180887523Y-121868238D01*
X180792285Y-121963476D01*
X180697047Y-122011095D01*
X181744666Y-122725380D02*
X181935142Y-122725380D01*
X182030380Y-122677761D01*
X182078000Y-122630142D01*
X182173238Y-122487285D01*
X182220857Y-122296809D01*
X182220857Y-121915857D01*
X182173238Y-121820619D01*
X182125619Y-121773000D01*
X182030380Y-121725380D01*
X181839904Y-121725380D01*
X181744666Y-121773000D01*
X181697047Y-121820619D01*
X181649428Y-121915857D01*
X181649428Y-122153952D01*
X181697047Y-122249190D01*
X181744666Y-122296809D01*
X181839904Y-122344428D01*
X182030380Y-122344428D01*
X182125619Y-122296809D01*
X182173238Y-122249190D01*
X182220857Y-122153952D01*
X182697047Y-122725380D02*
X182887523Y-122725380D01*
X182982761Y-122677761D01*
X183030380Y-122630142D01*
X183125619Y-122487285D01*
X183173238Y-122296809D01*
X183173238Y-121915857D01*
X183125619Y-121820619D01*
X183078000Y-121773000D01*
X182982761Y-121725380D01*
X182792285Y-121725380D01*
X182697047Y-121773000D01*
X182649428Y-121820619D01*
X182601809Y-121915857D01*
X182601809Y-122153952D01*
X182649428Y-122249190D01*
X182697047Y-122296809D01*
X182792285Y-122344428D01*
X182982761Y-122344428D01*
X183078000Y-122296809D01*
X183125619Y-122249190D01*
X183173238Y-122153952D01*
X183744666Y-122153952D02*
X183649428Y-122106333D01*
X183601809Y-122058714D01*
X183554190Y-121963476D01*
X183554190Y-121915857D01*
X183601809Y-121820619D01*
X183649428Y-121773000D01*
X183744666Y-121725380D01*
X183935142Y-121725380D01*
X184030380Y-121773000D01*
X184078000Y-121820619D01*
X184125619Y-121915857D01*
X184125619Y-121963476D01*
X184078000Y-122058714D01*
X184030380Y-122106333D01*
X183935142Y-122153952D01*
X183744666Y-122153952D01*
X183649428Y-122201571D01*
X183601809Y-122249190D01*
X183554190Y-122344428D01*
X183554190Y-122534904D01*
X183601809Y-122630142D01*
X183649428Y-122677761D01*
X183744666Y-122725380D01*
X183935142Y-122725380D01*
X184030380Y-122677761D01*
X184078000Y-122630142D01*
X184125619Y-122534904D01*
X184125619Y-122344428D01*
X184078000Y-122249190D01*
X184030380Y-122201571D01*
X183935142Y-122153952D01*
X185268476Y-121677761D02*
X184411333Y-122963476D01*
X185554190Y-122677761D02*
X185697047Y-122725380D01*
X185935142Y-122725380D01*
X186030380Y-122677761D01*
X186078000Y-122630142D01*
X186125619Y-122534904D01*
X186125619Y-122439666D01*
X186078000Y-122344428D01*
X186030380Y-122296809D01*
X185935142Y-122249190D01*
X185744666Y-122201571D01*
X185649428Y-122153952D01*
X185601809Y-122106333D01*
X185554190Y-122011095D01*
X185554190Y-121915857D01*
X185601809Y-121820619D01*
X185649428Y-121773000D01*
X185744666Y-121725380D01*
X185982761Y-121725380D01*
X186125619Y-121773000D01*
X186697047Y-122725380D02*
X186601809Y-122677761D01*
X186554190Y-122630142D01*
X186506571Y-122534904D01*
X186506571Y-122249190D01*
X186554190Y-122153952D01*
X186601809Y-122106333D01*
X186697047Y-122058714D01*
X186839904Y-122058714D01*
X186935142Y-122106333D01*
X186982761Y-122153952D01*
X187030380Y-122249190D01*
X187030380Y-122534904D01*
X186982761Y-122630142D01*
X186935142Y-122677761D01*
X186839904Y-122725380D01*
X186697047Y-122725380D01*
X187601809Y-122725380D02*
X187506571Y-122677761D01*
X187458952Y-122582523D01*
X187458952Y-121725380D01*
X188411333Y-122725380D02*
X188411333Y-122201571D01*
X188363714Y-122106333D01*
X188268476Y-122058714D01*
X188077999Y-122058714D01*
X187982761Y-122106333D01*
X188411333Y-122677761D02*
X188316095Y-122725380D01*
X188077999Y-122725380D01*
X187982761Y-122677761D01*
X187935142Y-122582523D01*
X187935142Y-122487285D01*
X187982761Y-122392047D01*
X188077999Y-122344428D01*
X188316095Y-122344428D01*
X188411333Y-122296809D01*
X188887523Y-122725380D02*
X188887523Y-122058714D01*
X188887523Y-122249190D02*
X188935142Y-122153952D01*
X188982761Y-122106333D01*
X189077999Y-122058714D01*
X189173238Y-122058714D01*
X189506571Y-122344428D02*
X190268476Y-122344428D01*
X191077999Y-122201571D02*
X191220857Y-122249190D01*
X191268476Y-122296809D01*
X191316095Y-122392047D01*
X191316095Y-122534904D01*
X191268476Y-122630142D01*
X191220857Y-122677761D01*
X191125619Y-122725380D01*
X190744666Y-122725380D01*
X190744666Y-121725380D01*
X191077999Y-121725380D01*
X191173238Y-121773000D01*
X191220857Y-121820619D01*
X191268476Y-121915857D01*
X191268476Y-122011095D01*
X191220857Y-122106333D01*
X191173238Y-122153952D01*
X191077999Y-122201571D01*
X190744666Y-122201571D01*
X191601809Y-121725380D02*
X192173238Y-121725380D01*
X191887523Y-122725380D02*
X191887523Y-121725380D01*
X192506571Y-122344428D02*
X193268476Y-122344428D01*
X193697047Y-122677761D02*
X193839904Y-122725380D01*
X194078000Y-122725380D01*
X194173238Y-122677761D01*
X194220857Y-122630142D01*
X194268476Y-122534904D01*
X194268476Y-122439666D01*
X194220857Y-122344428D01*
X194173238Y-122296809D01*
X194078000Y-122249190D01*
X193887523Y-122201571D01*
X193792285Y-122153952D01*
X193744666Y-122106333D01*
X193697047Y-122011095D01*
X193697047Y-121915857D01*
X193744666Y-121820619D01*
X193792285Y-121773000D01*
X193887523Y-121725380D01*
X194125619Y-121725380D01*
X194268476Y-121773000D01*
X194697047Y-122058714D02*
X194697047Y-123058714D01*
X194697047Y-122106333D02*
X194792285Y-122058714D01*
X194982761Y-122058714D01*
X195078000Y-122106333D01*
X195125619Y-122153952D01*
X195173238Y-122249190D01*
X195173238Y-122534904D01*
X195125619Y-122630142D01*
X195078000Y-122677761D01*
X194982761Y-122725380D01*
X194792285Y-122725380D01*
X194697047Y-122677761D01*
X195982761Y-122677761D02*
X195887523Y-122725380D01*
X195697047Y-122725380D01*
X195601809Y-122677761D01*
X195554190Y-122582523D01*
X195554190Y-122201571D01*
X195601809Y-122106333D01*
X195697047Y-122058714D01*
X195887523Y-122058714D01*
X195982761Y-122106333D01*
X196030380Y-122201571D01*
X196030380Y-122296809D01*
X195554190Y-122392047D01*
X196887523Y-122725380D02*
X196887523Y-122201571D01*
X196839904Y-122106333D01*
X196744666Y-122058714D01*
X196554190Y-122058714D01*
X196458952Y-122106333D01*
X196887523Y-122677761D02*
X196792285Y-122725380D01*
X196554190Y-122725380D01*
X196458952Y-122677761D01*
X196411333Y-122582523D01*
X196411333Y-122487285D01*
X196458952Y-122392047D01*
X196554190Y-122344428D01*
X196792285Y-122344428D01*
X196887523Y-122296809D01*
X197363714Y-122725380D02*
X197363714Y-121725380D01*
X197458952Y-122344428D02*
X197744666Y-122725380D01*
X197744666Y-122058714D02*
X197363714Y-122439666D01*
X198554190Y-122677761D02*
X198458952Y-122725380D01*
X198268476Y-122725380D01*
X198173238Y-122677761D01*
X198125619Y-122582523D01*
X198125619Y-122201571D01*
X198173238Y-122106333D01*
X198268476Y-122058714D01*
X198458952Y-122058714D01*
X198554190Y-122106333D01*
X198601809Y-122201571D01*
X198601809Y-122296809D01*
X198125619Y-122392047D01*
X199030380Y-122725380D02*
X199030380Y-122058714D01*
X199030380Y-122249190D02*
X199077999Y-122153952D01*
X199125619Y-122106333D01*
X199220857Y-122058714D01*
X199316095Y-122058714D01*
D11*
X88138000Y-72263000D02*
X208153000Y-72263000D01*
X88138000Y-124333000D02*
X88138000Y-72263000D01*
X208153000Y-124333000D02*
X88138000Y-124333000D01*
X208153000Y-72263000D02*
X208153000Y-124333000D01*
D12*
X185622000Y-107204252D02*
X185622000Y-106681748D01*
X184202000Y-107204252D02*
X184202000Y-106681748D01*
X114546748Y-107748000D02*
X115069252Y-107748000D01*
X114546748Y-109168000D02*
X115069252Y-109168000D01*
X115187252Y-89864000D02*
X114664748Y-89864000D01*
X115187252Y-88444000D02*
X114664748Y-88444000D01*
X115187252Y-90984000D02*
X114664748Y-90984000D01*
X115187252Y-92404000D02*
X114664748Y-92404000D01*
X115078252Y-101294000D02*
X114555748Y-101294000D01*
X115078252Y-99874000D02*
X114555748Y-99874000D01*
X115069252Y-101906000D02*
X114546748Y-101906000D01*
X115069252Y-103326000D02*
X114546748Y-103326000D01*
X171906000Y-87138252D02*
X171906000Y-86615748D01*
X170486000Y-87138252D02*
X170486000Y-86615748D01*
X168146252Y-89102000D02*
X167623748Y-89102000D01*
X168146252Y-87682000D02*
X167623748Y-87682000D01*
X147796000Y-108946000D02*
G75*
G03X147796000Y-108946000I-3270000J0D01*
G01*
X147756000Y-108946000D02*
X141296000Y-108946000D01*
X147756000Y-108986000D02*
X141296000Y-108986000D01*
X147756000Y-109026000D02*
X141296000Y-109026000D01*
X147754000Y-109066000D02*
X141298000Y-109066000D01*
X147753000Y-109106000D02*
X141299000Y-109106000D01*
X147750000Y-109146000D02*
X141302000Y-109146000D01*
X147748000Y-109186000D02*
X145566000Y-109186000D01*
X143486000Y-109186000D02*
X141304000Y-109186000D01*
X147744000Y-109226000D02*
X145566000Y-109226000D01*
X143486000Y-109226000D02*
X141308000Y-109226000D01*
X147741000Y-109266000D02*
X145566000Y-109266000D01*
X143486000Y-109266000D02*
X141311000Y-109266000D01*
X147737000Y-109306000D02*
X145566000Y-109306000D01*
X143486000Y-109306000D02*
X141315000Y-109306000D01*
X147732000Y-109346000D02*
X145566000Y-109346000D01*
X143486000Y-109346000D02*
X141320000Y-109346000D01*
X147727000Y-109386000D02*
X145566000Y-109386000D01*
X143486000Y-109386000D02*
X141325000Y-109386000D01*
X147721000Y-109426000D02*
X145566000Y-109426000D01*
X143486000Y-109426000D02*
X141331000Y-109426000D01*
X147715000Y-109466000D02*
X145566000Y-109466000D01*
X143486000Y-109466000D02*
X141337000Y-109466000D01*
X147708000Y-109506000D02*
X145566000Y-109506000D01*
X143486000Y-109506000D02*
X141344000Y-109506000D01*
X147701000Y-109546000D02*
X145566000Y-109546000D01*
X143486000Y-109546000D02*
X141351000Y-109546000D01*
X147693000Y-109586000D02*
X145566000Y-109586000D01*
X143486000Y-109586000D02*
X141359000Y-109586000D01*
X147685000Y-109626000D02*
X145566000Y-109626000D01*
X143486000Y-109626000D02*
X141367000Y-109626000D01*
X147676000Y-109667000D02*
X145566000Y-109667000D01*
X143486000Y-109667000D02*
X141376000Y-109667000D01*
X147667000Y-109707000D02*
X145566000Y-109707000D01*
X143486000Y-109707000D02*
X141385000Y-109707000D01*
X147657000Y-109747000D02*
X145566000Y-109747000D01*
X143486000Y-109747000D02*
X141395000Y-109747000D01*
X147647000Y-109787000D02*
X145566000Y-109787000D01*
X143486000Y-109787000D02*
X141405000Y-109787000D01*
X147636000Y-109827000D02*
X145566000Y-109827000D01*
X143486000Y-109827000D02*
X141416000Y-109827000D01*
X147624000Y-109867000D02*
X145566000Y-109867000D01*
X143486000Y-109867000D02*
X141428000Y-109867000D01*
X147612000Y-109907000D02*
X145566000Y-109907000D01*
X143486000Y-109907000D02*
X141440000Y-109907000D01*
X147600000Y-109947000D02*
X145566000Y-109947000D01*
X143486000Y-109947000D02*
X141452000Y-109947000D01*
X147587000Y-109987000D02*
X145566000Y-109987000D01*
X143486000Y-109987000D02*
X141465000Y-109987000D01*
X147573000Y-110027000D02*
X145566000Y-110027000D01*
X143486000Y-110027000D02*
X141479000Y-110027000D01*
X147559000Y-110067000D02*
X145566000Y-110067000D01*
X143486000Y-110067000D02*
X141493000Y-110067000D01*
X147544000Y-110107000D02*
X145566000Y-110107000D01*
X143486000Y-110107000D02*
X141508000Y-110107000D01*
X147528000Y-110147000D02*
X145566000Y-110147000D01*
X143486000Y-110147000D02*
X141524000Y-110147000D01*
X147512000Y-110187000D02*
X145566000Y-110187000D01*
X143486000Y-110187000D02*
X141540000Y-110187000D01*
X147496000Y-110227000D02*
X145566000Y-110227000D01*
X143486000Y-110227000D02*
X141556000Y-110227000D01*
X147478000Y-110267000D02*
X145566000Y-110267000D01*
X143486000Y-110267000D02*
X141574000Y-110267000D01*
X147460000Y-110307000D02*
X145566000Y-110307000D01*
X143486000Y-110307000D02*
X141592000Y-110307000D01*
X147442000Y-110347000D02*
X145566000Y-110347000D01*
X143486000Y-110347000D02*
X141610000Y-110347000D01*
X147422000Y-110387000D02*
X145566000Y-110387000D01*
X143486000Y-110387000D02*
X141630000Y-110387000D01*
X147402000Y-110427000D02*
X145566000Y-110427000D01*
X143486000Y-110427000D02*
X141650000Y-110427000D01*
X147382000Y-110467000D02*
X145566000Y-110467000D01*
X143486000Y-110467000D02*
X141670000Y-110467000D01*
X147360000Y-110507000D02*
X145566000Y-110507000D01*
X143486000Y-110507000D02*
X141692000Y-110507000D01*
X147338000Y-110547000D02*
X145566000Y-110547000D01*
X143486000Y-110547000D02*
X141714000Y-110547000D01*
X147316000Y-110587000D02*
X145566000Y-110587000D01*
X143486000Y-110587000D02*
X141736000Y-110587000D01*
X147292000Y-110627000D02*
X145566000Y-110627000D01*
X143486000Y-110627000D02*
X141760000Y-110627000D01*
X147268000Y-110667000D02*
X145566000Y-110667000D01*
X143486000Y-110667000D02*
X141784000Y-110667000D01*
X147242000Y-110707000D02*
X145566000Y-110707000D01*
X143486000Y-110707000D02*
X141810000Y-110707000D01*
X147216000Y-110747000D02*
X145566000Y-110747000D01*
X143486000Y-110747000D02*
X141836000Y-110747000D01*
X147190000Y-110787000D02*
X145566000Y-110787000D01*
X143486000Y-110787000D02*
X141862000Y-110787000D01*
X147162000Y-110827000D02*
X145566000Y-110827000D01*
X143486000Y-110827000D02*
X141890000Y-110827000D01*
X147133000Y-110867000D02*
X145566000Y-110867000D01*
X143486000Y-110867000D02*
X141919000Y-110867000D01*
X147104000Y-110907000D02*
X145566000Y-110907000D01*
X143486000Y-110907000D02*
X141948000Y-110907000D01*
X147074000Y-110947000D02*
X145566000Y-110947000D01*
X143486000Y-110947000D02*
X141978000Y-110947000D01*
X147042000Y-110987000D02*
X145566000Y-110987000D01*
X143486000Y-110987000D02*
X142010000Y-110987000D01*
X147010000Y-111027000D02*
X145566000Y-111027000D01*
X143486000Y-111027000D02*
X142042000Y-111027000D01*
X146976000Y-111067000D02*
X145566000Y-111067000D01*
X143486000Y-111067000D02*
X142076000Y-111067000D01*
X146942000Y-111107000D02*
X145566000Y-111107000D01*
X143486000Y-111107000D02*
X142110000Y-111107000D01*
X146906000Y-111147000D02*
X145566000Y-111147000D01*
X143486000Y-111147000D02*
X142146000Y-111147000D01*
X146869000Y-111187000D02*
X145566000Y-111187000D01*
X143486000Y-111187000D02*
X142183000Y-111187000D01*
X146831000Y-111227000D02*
X145566000Y-111227000D01*
X143486000Y-111227000D02*
X142221000Y-111227000D01*
X146791000Y-111267000D02*
X142261000Y-111267000D01*
X146750000Y-111307000D02*
X142302000Y-111307000D01*
X146708000Y-111347000D02*
X142344000Y-111347000D01*
X146663000Y-111387000D02*
X142389000Y-111387000D01*
X146618000Y-111427000D02*
X142434000Y-111427000D01*
X146570000Y-111467000D02*
X142482000Y-111467000D01*
X146521000Y-111507000D02*
X142531000Y-111507000D01*
X146470000Y-111547000D02*
X142582000Y-111547000D01*
X146416000Y-111587000D02*
X142636000Y-111587000D01*
X146360000Y-111627000D02*
X142692000Y-111627000D01*
X146302000Y-111667000D02*
X142750000Y-111667000D01*
X146240000Y-111707000D02*
X142812000Y-111707000D01*
X146176000Y-111747000D02*
X142876000Y-111747000D01*
X146107000Y-111787000D02*
X142945000Y-111787000D01*
X146035000Y-111827000D02*
X143017000Y-111827000D01*
X145958000Y-111867000D02*
X143094000Y-111867000D01*
X145876000Y-111907000D02*
X143176000Y-111907000D01*
X145788000Y-111947000D02*
X143264000Y-111947000D01*
X145691000Y-111987000D02*
X143361000Y-111987000D01*
X145585000Y-112027000D02*
X143467000Y-112027000D01*
X145466000Y-112067000D02*
X143586000Y-112067000D01*
X145328000Y-112107000D02*
X143724000Y-112107000D01*
X145159000Y-112147000D02*
X143893000Y-112147000D01*
X144928000Y-112187000D02*
X144124000Y-112187000D01*
X146365000Y-105445759D02*
X146365000Y-106075759D01*
X146680000Y-105760759D02*
X146050000Y-105760759D01*
X173196000Y-95230000D02*
G75*
G03X173196000Y-95230000I-3270000J0D01*
G01*
X173156000Y-95230000D02*
X166696000Y-95230000D01*
X173156000Y-95270000D02*
X166696000Y-95270000D01*
X173156000Y-95310000D02*
X166696000Y-95310000D01*
X173154000Y-95350000D02*
X166698000Y-95350000D01*
X173153000Y-95390000D02*
X166699000Y-95390000D01*
X173150000Y-95430000D02*
X166702000Y-95430000D01*
X173148000Y-95470000D02*
X170966000Y-95470000D01*
X168886000Y-95470000D02*
X166704000Y-95470000D01*
X173144000Y-95510000D02*
X170966000Y-95510000D01*
X168886000Y-95510000D02*
X166708000Y-95510000D01*
X173141000Y-95550000D02*
X170966000Y-95550000D01*
X168886000Y-95550000D02*
X166711000Y-95550000D01*
X173137000Y-95590000D02*
X170966000Y-95590000D01*
X168886000Y-95590000D02*
X166715000Y-95590000D01*
X173132000Y-95630000D02*
X170966000Y-95630000D01*
X168886000Y-95630000D02*
X166720000Y-95630000D01*
X173127000Y-95670000D02*
X170966000Y-95670000D01*
X168886000Y-95670000D02*
X166725000Y-95670000D01*
X173121000Y-95710000D02*
X170966000Y-95710000D01*
X168886000Y-95710000D02*
X166731000Y-95710000D01*
X173115000Y-95750000D02*
X170966000Y-95750000D01*
X168886000Y-95750000D02*
X166737000Y-95750000D01*
X173108000Y-95790000D02*
X170966000Y-95790000D01*
X168886000Y-95790000D02*
X166744000Y-95790000D01*
X173101000Y-95830000D02*
X170966000Y-95830000D01*
X168886000Y-95830000D02*
X166751000Y-95830000D01*
X173093000Y-95870000D02*
X170966000Y-95870000D01*
X168886000Y-95870000D02*
X166759000Y-95870000D01*
X173085000Y-95910000D02*
X170966000Y-95910000D01*
X168886000Y-95910000D02*
X166767000Y-95910000D01*
X173076000Y-95951000D02*
X170966000Y-95951000D01*
X168886000Y-95951000D02*
X166776000Y-95951000D01*
X173067000Y-95991000D02*
X170966000Y-95991000D01*
X168886000Y-95991000D02*
X166785000Y-95991000D01*
X173057000Y-96031000D02*
X170966000Y-96031000D01*
X168886000Y-96031000D02*
X166795000Y-96031000D01*
X173047000Y-96071000D02*
X170966000Y-96071000D01*
X168886000Y-96071000D02*
X166805000Y-96071000D01*
X173036000Y-96111000D02*
X170966000Y-96111000D01*
X168886000Y-96111000D02*
X166816000Y-96111000D01*
X173024000Y-96151000D02*
X170966000Y-96151000D01*
X168886000Y-96151000D02*
X166828000Y-96151000D01*
X173012000Y-96191000D02*
X170966000Y-96191000D01*
X168886000Y-96191000D02*
X166840000Y-96191000D01*
X173000000Y-96231000D02*
X170966000Y-96231000D01*
X168886000Y-96231000D02*
X166852000Y-96231000D01*
X172987000Y-96271000D02*
X170966000Y-96271000D01*
X168886000Y-96271000D02*
X166865000Y-96271000D01*
X172973000Y-96311000D02*
X170966000Y-96311000D01*
X168886000Y-96311000D02*
X166879000Y-96311000D01*
X172959000Y-96351000D02*
X170966000Y-96351000D01*
X168886000Y-96351000D02*
X166893000Y-96351000D01*
X172944000Y-96391000D02*
X170966000Y-96391000D01*
X168886000Y-96391000D02*
X166908000Y-96391000D01*
X172928000Y-96431000D02*
X170966000Y-96431000D01*
X168886000Y-96431000D02*
X166924000Y-96431000D01*
X172912000Y-96471000D02*
X170966000Y-96471000D01*
X168886000Y-96471000D02*
X166940000Y-96471000D01*
X172896000Y-96511000D02*
X170966000Y-96511000D01*
X168886000Y-96511000D02*
X166956000Y-96511000D01*
X172878000Y-96551000D02*
X170966000Y-96551000D01*
X168886000Y-96551000D02*
X166974000Y-96551000D01*
X172860000Y-96591000D02*
X170966000Y-96591000D01*
X168886000Y-96591000D02*
X166992000Y-96591000D01*
X172842000Y-96631000D02*
X170966000Y-96631000D01*
X168886000Y-96631000D02*
X167010000Y-96631000D01*
X172822000Y-96671000D02*
X170966000Y-96671000D01*
X168886000Y-96671000D02*
X167030000Y-96671000D01*
X172802000Y-96711000D02*
X170966000Y-96711000D01*
X168886000Y-96711000D02*
X167050000Y-96711000D01*
X172782000Y-96751000D02*
X170966000Y-96751000D01*
X168886000Y-96751000D02*
X167070000Y-96751000D01*
X172760000Y-96791000D02*
X170966000Y-96791000D01*
X168886000Y-96791000D02*
X167092000Y-96791000D01*
X172738000Y-96831000D02*
X170966000Y-96831000D01*
X168886000Y-96831000D02*
X167114000Y-96831000D01*
X172716000Y-96871000D02*
X170966000Y-96871000D01*
X168886000Y-96871000D02*
X167136000Y-96871000D01*
X172692000Y-96911000D02*
X170966000Y-96911000D01*
X168886000Y-96911000D02*
X167160000Y-96911000D01*
X172668000Y-96951000D02*
X170966000Y-96951000D01*
X168886000Y-96951000D02*
X167184000Y-96951000D01*
X172642000Y-96991000D02*
X170966000Y-96991000D01*
X168886000Y-96991000D02*
X167210000Y-96991000D01*
X172616000Y-97031000D02*
X170966000Y-97031000D01*
X168886000Y-97031000D02*
X167236000Y-97031000D01*
X172590000Y-97071000D02*
X170966000Y-97071000D01*
X168886000Y-97071000D02*
X167262000Y-97071000D01*
X172562000Y-97111000D02*
X170966000Y-97111000D01*
X168886000Y-97111000D02*
X167290000Y-97111000D01*
X172533000Y-97151000D02*
X170966000Y-97151000D01*
X168886000Y-97151000D02*
X167319000Y-97151000D01*
X172504000Y-97191000D02*
X170966000Y-97191000D01*
X168886000Y-97191000D02*
X167348000Y-97191000D01*
X172474000Y-97231000D02*
X170966000Y-97231000D01*
X168886000Y-97231000D02*
X167378000Y-97231000D01*
X172442000Y-97271000D02*
X170966000Y-97271000D01*
X168886000Y-97271000D02*
X167410000Y-97271000D01*
X172410000Y-97311000D02*
X170966000Y-97311000D01*
X168886000Y-97311000D02*
X167442000Y-97311000D01*
X172376000Y-97351000D02*
X170966000Y-97351000D01*
X168886000Y-97351000D02*
X167476000Y-97351000D01*
X172342000Y-97391000D02*
X170966000Y-97391000D01*
X168886000Y-97391000D02*
X167510000Y-97391000D01*
X172306000Y-97431000D02*
X170966000Y-97431000D01*
X168886000Y-97431000D02*
X167546000Y-97431000D01*
X172269000Y-97471000D02*
X170966000Y-97471000D01*
X168886000Y-97471000D02*
X167583000Y-97471000D01*
X172231000Y-97511000D02*
X170966000Y-97511000D01*
X168886000Y-97511000D02*
X167621000Y-97511000D01*
X172191000Y-97551000D02*
X167661000Y-97551000D01*
X172150000Y-97591000D02*
X167702000Y-97591000D01*
X172108000Y-97631000D02*
X167744000Y-97631000D01*
X172063000Y-97671000D02*
X167789000Y-97671000D01*
X172018000Y-97711000D02*
X167834000Y-97711000D01*
X171970000Y-97751000D02*
X167882000Y-97751000D01*
X171921000Y-97791000D02*
X167931000Y-97791000D01*
X171870000Y-97831000D02*
X167982000Y-97831000D01*
X171816000Y-97871000D02*
X168036000Y-97871000D01*
X171760000Y-97911000D02*
X168092000Y-97911000D01*
X171702000Y-97951000D02*
X168150000Y-97951000D01*
X171640000Y-97991000D02*
X168212000Y-97991000D01*
X171576000Y-98031000D02*
X168276000Y-98031000D01*
X171507000Y-98071000D02*
X168345000Y-98071000D01*
X171435000Y-98111000D02*
X168417000Y-98111000D01*
X171358000Y-98151000D02*
X168494000Y-98151000D01*
X171276000Y-98191000D02*
X168576000Y-98191000D01*
X171188000Y-98231000D02*
X168664000Y-98231000D01*
X171091000Y-98271000D02*
X168761000Y-98271000D01*
X170985000Y-98311000D02*
X168867000Y-98311000D01*
X170866000Y-98351000D02*
X168986000Y-98351000D01*
X170728000Y-98391000D02*
X169124000Y-98391000D01*
X170559000Y-98431000D02*
X169293000Y-98431000D01*
X170328000Y-98471000D02*
X169524000Y-98471000D01*
X171765000Y-91729759D02*
X171765000Y-92359759D01*
X172080000Y-92044759D02*
X171450000Y-92044759D01*
X175716000Y-93718748D02*
X175716000Y-94241252D01*
X174296000Y-93718748D02*
X174296000Y-94241252D01*
X176328000Y-93709748D02*
X176328000Y-94232252D01*
X177748000Y-93709748D02*
X177748000Y-94232252D01*
X155650000Y-106935748D02*
X155650000Y-107458252D01*
X154230000Y-106935748D02*
X154230000Y-107458252D01*
X178614000Y-82548252D02*
X178614000Y-82025748D01*
X180034000Y-82548252D02*
X180034000Y-82025748D01*
X176292252Y-82602000D02*
X175769748Y-82602000D01*
X176292252Y-84022000D02*
X175769748Y-84022000D01*
X198750000Y-92044759D02*
X198120000Y-92044759D01*
X198435000Y-91729759D02*
X198435000Y-92359759D01*
X196998000Y-98471000D02*
X196194000Y-98471000D01*
X197229000Y-98431000D02*
X195963000Y-98431000D01*
X197398000Y-98391000D02*
X195794000Y-98391000D01*
X197536000Y-98351000D02*
X195656000Y-98351000D01*
X197655000Y-98311000D02*
X195537000Y-98311000D01*
X197761000Y-98271000D02*
X195431000Y-98271000D01*
X197858000Y-98231000D02*
X195334000Y-98231000D01*
X197946000Y-98191000D02*
X195246000Y-98191000D01*
X198028000Y-98151000D02*
X195164000Y-98151000D01*
X198105000Y-98111000D02*
X195087000Y-98111000D01*
X198177000Y-98071000D02*
X195015000Y-98071000D01*
X198246000Y-98031000D02*
X194946000Y-98031000D01*
X198310000Y-97991000D02*
X194882000Y-97991000D01*
X198372000Y-97951000D02*
X194820000Y-97951000D01*
X198430000Y-97911000D02*
X194762000Y-97911000D01*
X198486000Y-97871000D02*
X194706000Y-97871000D01*
X198540000Y-97831000D02*
X194652000Y-97831000D01*
X198591000Y-97791000D02*
X194601000Y-97791000D01*
X198640000Y-97751000D02*
X194552000Y-97751000D01*
X198688000Y-97711000D02*
X194504000Y-97711000D01*
X198733000Y-97671000D02*
X194459000Y-97671000D01*
X198778000Y-97631000D02*
X194414000Y-97631000D01*
X198820000Y-97591000D02*
X194372000Y-97591000D01*
X198861000Y-97551000D02*
X194331000Y-97551000D01*
X195556000Y-97511000D02*
X194291000Y-97511000D01*
X198901000Y-97511000D02*
X197636000Y-97511000D01*
X195556000Y-97471000D02*
X194253000Y-97471000D01*
X198939000Y-97471000D02*
X197636000Y-97471000D01*
X195556000Y-97431000D02*
X194216000Y-97431000D01*
X198976000Y-97431000D02*
X197636000Y-97431000D01*
X195556000Y-97391000D02*
X194180000Y-97391000D01*
X199012000Y-97391000D02*
X197636000Y-97391000D01*
X195556000Y-97351000D02*
X194146000Y-97351000D01*
X199046000Y-97351000D02*
X197636000Y-97351000D01*
X195556000Y-97311000D02*
X194112000Y-97311000D01*
X199080000Y-97311000D02*
X197636000Y-97311000D01*
X195556000Y-97271000D02*
X194080000Y-97271000D01*
X199112000Y-97271000D02*
X197636000Y-97271000D01*
X195556000Y-97231000D02*
X194048000Y-97231000D01*
X199144000Y-97231000D02*
X197636000Y-97231000D01*
X195556000Y-97191000D02*
X194018000Y-97191000D01*
X199174000Y-97191000D02*
X197636000Y-97191000D01*
X195556000Y-97151000D02*
X193989000Y-97151000D01*
X199203000Y-97151000D02*
X197636000Y-97151000D01*
X195556000Y-97111000D02*
X193960000Y-97111000D01*
X199232000Y-97111000D02*
X197636000Y-97111000D01*
X195556000Y-97071000D02*
X193932000Y-97071000D01*
X199260000Y-97071000D02*
X197636000Y-97071000D01*
X195556000Y-97031000D02*
X193906000Y-97031000D01*
X199286000Y-97031000D02*
X197636000Y-97031000D01*
X195556000Y-96991000D02*
X193880000Y-96991000D01*
X199312000Y-96991000D02*
X197636000Y-96991000D01*
X195556000Y-96951000D02*
X193854000Y-96951000D01*
X199338000Y-96951000D02*
X197636000Y-96951000D01*
X195556000Y-96911000D02*
X193830000Y-96911000D01*
X199362000Y-96911000D02*
X197636000Y-96911000D01*
X195556000Y-96871000D02*
X193806000Y-96871000D01*
X199386000Y-96871000D02*
X197636000Y-96871000D01*
X195556000Y-96831000D02*
X193784000Y-96831000D01*
X199408000Y-96831000D02*
X197636000Y-96831000D01*
X195556000Y-96791000D02*
X193762000Y-96791000D01*
X199430000Y-96791000D02*
X197636000Y-96791000D01*
X195556000Y-96751000D02*
X193740000Y-96751000D01*
X199452000Y-96751000D02*
X197636000Y-96751000D01*
X195556000Y-96711000D02*
X193720000Y-96711000D01*
X199472000Y-96711000D02*
X197636000Y-96711000D01*
X195556000Y-96671000D02*
X193700000Y-96671000D01*
X199492000Y-96671000D02*
X197636000Y-96671000D01*
X195556000Y-96631000D02*
X193680000Y-96631000D01*
X199512000Y-96631000D02*
X197636000Y-96631000D01*
X195556000Y-96591000D02*
X193662000Y-96591000D01*
X199530000Y-96591000D02*
X197636000Y-96591000D01*
X195556000Y-96551000D02*
X193644000Y-96551000D01*
X199548000Y-96551000D02*
X197636000Y-96551000D01*
X195556000Y-96511000D02*
X193626000Y-96511000D01*
X199566000Y-96511000D02*
X197636000Y-96511000D01*
X195556000Y-96471000D02*
X193610000Y-96471000D01*
X199582000Y-96471000D02*
X197636000Y-96471000D01*
X195556000Y-96431000D02*
X193594000Y-96431000D01*
X199598000Y-96431000D02*
X197636000Y-96431000D01*
X195556000Y-96391000D02*
X193578000Y-96391000D01*
X199614000Y-96391000D02*
X197636000Y-96391000D01*
X195556000Y-96351000D02*
X193563000Y-96351000D01*
X199629000Y-96351000D02*
X197636000Y-96351000D01*
X195556000Y-96311000D02*
X193549000Y-96311000D01*
X199643000Y-96311000D02*
X197636000Y-96311000D01*
X195556000Y-96271000D02*
X193535000Y-96271000D01*
X199657000Y-96271000D02*
X197636000Y-96271000D01*
X195556000Y-96231000D02*
X193522000Y-96231000D01*
X199670000Y-96231000D02*
X197636000Y-96231000D01*
X195556000Y-96191000D02*
X193510000Y-96191000D01*
X199682000Y-96191000D02*
X197636000Y-96191000D01*
X195556000Y-96151000D02*
X193498000Y-96151000D01*
X199694000Y-96151000D02*
X197636000Y-96151000D01*
X195556000Y-96111000D02*
X193486000Y-96111000D01*
X199706000Y-96111000D02*
X197636000Y-96111000D01*
X195556000Y-96071000D02*
X193475000Y-96071000D01*
X199717000Y-96071000D02*
X197636000Y-96071000D01*
X195556000Y-96031000D02*
X193465000Y-96031000D01*
X199727000Y-96031000D02*
X197636000Y-96031000D01*
X195556000Y-95991000D02*
X193455000Y-95991000D01*
X199737000Y-95991000D02*
X197636000Y-95991000D01*
X195556000Y-95951000D02*
X193446000Y-95951000D01*
X199746000Y-95951000D02*
X197636000Y-95951000D01*
X195556000Y-95910000D02*
X193437000Y-95910000D01*
X199755000Y-95910000D02*
X197636000Y-95910000D01*
X195556000Y-95870000D02*
X193429000Y-95870000D01*
X199763000Y-95870000D02*
X197636000Y-95870000D01*
X195556000Y-95830000D02*
X193421000Y-95830000D01*
X199771000Y-95830000D02*
X197636000Y-95830000D01*
X195556000Y-95790000D02*
X193414000Y-95790000D01*
X199778000Y-95790000D02*
X197636000Y-95790000D01*
X195556000Y-95750000D02*
X193407000Y-95750000D01*
X199785000Y-95750000D02*
X197636000Y-95750000D01*
X195556000Y-95710000D02*
X193401000Y-95710000D01*
X199791000Y-95710000D02*
X197636000Y-95710000D01*
X195556000Y-95670000D02*
X193395000Y-95670000D01*
X199797000Y-95670000D02*
X197636000Y-95670000D01*
X195556000Y-95630000D02*
X193390000Y-95630000D01*
X199802000Y-95630000D02*
X197636000Y-95630000D01*
X195556000Y-95590000D02*
X193385000Y-95590000D01*
X199807000Y-95590000D02*
X197636000Y-95590000D01*
X195556000Y-95550000D02*
X193381000Y-95550000D01*
X199811000Y-95550000D02*
X197636000Y-95550000D01*
X195556000Y-95510000D02*
X193378000Y-95510000D01*
X199814000Y-95510000D02*
X197636000Y-95510000D01*
X195556000Y-95470000D02*
X193374000Y-95470000D01*
X199818000Y-95470000D02*
X197636000Y-95470000D01*
X199820000Y-95430000D02*
X193372000Y-95430000D01*
X199823000Y-95390000D02*
X193369000Y-95390000D01*
X199824000Y-95350000D02*
X193368000Y-95350000D01*
X199826000Y-95310000D02*
X193366000Y-95310000D01*
X199826000Y-95270000D02*
X193366000Y-95270000D01*
X199826000Y-95230000D02*
X193366000Y-95230000D01*
X199866000Y-95230000D02*
G75*
G03X199866000Y-95230000I-3270000J0D01*
G01*
X192480000Y-93709748D02*
X192480000Y-94232252D01*
X191060000Y-93709748D02*
X191060000Y-94232252D01*
X189028000Y-93709748D02*
X189028000Y-94232252D01*
X190448000Y-93709748D02*
X190448000Y-94232252D01*
X159773252Y-107240000D02*
X159250748Y-107240000D01*
X159773252Y-108660000D02*
X159250748Y-108660000D01*
X176328000Y-88629748D02*
X176328000Y-89152252D01*
X177748000Y-88629748D02*
X177748000Y-89152252D01*
X181916000Y-104377748D02*
X181916000Y-104900252D01*
X183336000Y-104377748D02*
X183336000Y-104900252D01*
X181662000Y-88121748D02*
X181662000Y-88644252D01*
X183082000Y-88121748D02*
X183082000Y-88644252D01*
X178256000Y-104395748D02*
X178256000Y-104918252D01*
X176836000Y-104395748D02*
X176836000Y-104918252D01*
X186742000Y-82557252D02*
X186742000Y-82034748D01*
X188162000Y-82557252D02*
X188162000Y-82034748D01*
X190483748Y-84022000D02*
X191006252Y-84022000D01*
X190483748Y-82602000D02*
X191006252Y-82602000D01*
X185114000Y-88121748D02*
X185114000Y-88644252D01*
X183694000Y-88121748D02*
X183694000Y-88644252D01*
X180796000Y-104395748D02*
X180796000Y-104918252D01*
X179376000Y-104395748D02*
X179376000Y-104918252D01*
X188774000Y-88647748D02*
X188774000Y-89170252D01*
X190194000Y-88647748D02*
X190194000Y-89170252D01*
X152522000Y-112110759D02*
X151892000Y-112110759D01*
X152207000Y-111795759D02*
X152207000Y-112425759D01*
X150770000Y-118537000D02*
X149966000Y-118537000D01*
X151001000Y-118497000D02*
X149735000Y-118497000D01*
X151170000Y-118457000D02*
X149566000Y-118457000D01*
X151308000Y-118417000D02*
X149428000Y-118417000D01*
X151427000Y-118377000D02*
X149309000Y-118377000D01*
X151533000Y-118337000D02*
X149203000Y-118337000D01*
X151630000Y-118297000D02*
X149106000Y-118297000D01*
X151718000Y-118257000D02*
X149018000Y-118257000D01*
X151800000Y-118217000D02*
X148936000Y-118217000D01*
X151877000Y-118177000D02*
X148859000Y-118177000D01*
X151949000Y-118137000D02*
X148787000Y-118137000D01*
X152018000Y-118097000D02*
X148718000Y-118097000D01*
X152082000Y-118057000D02*
X148654000Y-118057000D01*
X152144000Y-118017000D02*
X148592000Y-118017000D01*
X152202000Y-117977000D02*
X148534000Y-117977000D01*
X152258000Y-117937000D02*
X148478000Y-117937000D01*
X152312000Y-117897000D02*
X148424000Y-117897000D01*
X152363000Y-117857000D02*
X148373000Y-117857000D01*
X152412000Y-117817000D02*
X148324000Y-117817000D01*
X152460000Y-117777000D02*
X148276000Y-117777000D01*
X152505000Y-117737000D02*
X148231000Y-117737000D01*
X152550000Y-117697000D02*
X148186000Y-117697000D01*
X152592000Y-117657000D02*
X148144000Y-117657000D01*
X152633000Y-117617000D02*
X148103000Y-117617000D01*
X149328000Y-117577000D02*
X148063000Y-117577000D01*
X152673000Y-117577000D02*
X151408000Y-117577000D01*
X149328000Y-117537000D02*
X148025000Y-117537000D01*
X152711000Y-117537000D02*
X151408000Y-117537000D01*
X149328000Y-117497000D02*
X147988000Y-117497000D01*
X152748000Y-117497000D02*
X151408000Y-117497000D01*
X149328000Y-117457000D02*
X147952000Y-117457000D01*
X152784000Y-117457000D02*
X151408000Y-117457000D01*
X149328000Y-117417000D02*
X147918000Y-117417000D01*
X152818000Y-117417000D02*
X151408000Y-117417000D01*
X149328000Y-117377000D02*
X147884000Y-117377000D01*
X152852000Y-117377000D02*
X151408000Y-117377000D01*
X149328000Y-117337000D02*
X147852000Y-117337000D01*
X152884000Y-117337000D02*
X151408000Y-117337000D01*
X149328000Y-117297000D02*
X147820000Y-117297000D01*
X152916000Y-117297000D02*
X151408000Y-117297000D01*
X149328000Y-117257000D02*
X147790000Y-117257000D01*
X152946000Y-117257000D02*
X151408000Y-117257000D01*
X149328000Y-117217000D02*
X147761000Y-117217000D01*
X152975000Y-117217000D02*
X151408000Y-117217000D01*
X149328000Y-117177000D02*
X147732000Y-117177000D01*
X153004000Y-117177000D02*
X151408000Y-117177000D01*
X149328000Y-117137000D02*
X147704000Y-117137000D01*
X153032000Y-117137000D02*
X151408000Y-117137000D01*
X149328000Y-117097000D02*
X147678000Y-117097000D01*
X153058000Y-117097000D02*
X151408000Y-117097000D01*
X149328000Y-117057000D02*
X147652000Y-117057000D01*
X153084000Y-117057000D02*
X151408000Y-117057000D01*
X149328000Y-117017000D02*
X147626000Y-117017000D01*
X153110000Y-117017000D02*
X151408000Y-117017000D01*
X149328000Y-116977000D02*
X147602000Y-116977000D01*
X153134000Y-116977000D02*
X151408000Y-116977000D01*
X149328000Y-116937000D02*
X147578000Y-116937000D01*
X153158000Y-116937000D02*
X151408000Y-116937000D01*
X149328000Y-116897000D02*
X147556000Y-116897000D01*
X153180000Y-116897000D02*
X151408000Y-116897000D01*
X149328000Y-116857000D02*
X147534000Y-116857000D01*
X153202000Y-116857000D02*
X151408000Y-116857000D01*
X149328000Y-116817000D02*
X147512000Y-116817000D01*
X153224000Y-116817000D02*
X151408000Y-116817000D01*
X149328000Y-116777000D02*
X147492000Y-116777000D01*
X153244000Y-116777000D02*
X151408000Y-116777000D01*
X149328000Y-116737000D02*
X147472000Y-116737000D01*
X153264000Y-116737000D02*
X151408000Y-116737000D01*
X149328000Y-116697000D02*
X147452000Y-116697000D01*
X153284000Y-116697000D02*
X151408000Y-116697000D01*
X149328000Y-116657000D02*
X147434000Y-116657000D01*
X153302000Y-116657000D02*
X151408000Y-116657000D01*
X149328000Y-116617000D02*
X147416000Y-116617000D01*
X153320000Y-116617000D02*
X151408000Y-116617000D01*
X149328000Y-116577000D02*
X147398000Y-116577000D01*
X153338000Y-116577000D02*
X151408000Y-116577000D01*
X149328000Y-116537000D02*
X147382000Y-116537000D01*
X153354000Y-116537000D02*
X151408000Y-116537000D01*
X149328000Y-116497000D02*
X147366000Y-116497000D01*
X153370000Y-116497000D02*
X151408000Y-116497000D01*
X149328000Y-116457000D02*
X147350000Y-116457000D01*
X153386000Y-116457000D02*
X151408000Y-116457000D01*
X149328000Y-116417000D02*
X147335000Y-116417000D01*
X153401000Y-116417000D02*
X151408000Y-116417000D01*
X149328000Y-116377000D02*
X147321000Y-116377000D01*
X153415000Y-116377000D02*
X151408000Y-116377000D01*
X149328000Y-116337000D02*
X147307000Y-116337000D01*
X153429000Y-116337000D02*
X151408000Y-116337000D01*
X149328000Y-116297000D02*
X147294000Y-116297000D01*
X153442000Y-116297000D02*
X151408000Y-116297000D01*
X149328000Y-116257000D02*
X147282000Y-116257000D01*
X153454000Y-116257000D02*
X151408000Y-116257000D01*
X149328000Y-116217000D02*
X147270000Y-116217000D01*
X153466000Y-116217000D02*
X151408000Y-116217000D01*
X149328000Y-116177000D02*
X147258000Y-116177000D01*
X153478000Y-116177000D02*
X151408000Y-116177000D01*
X149328000Y-116137000D02*
X147247000Y-116137000D01*
X153489000Y-116137000D02*
X151408000Y-116137000D01*
X149328000Y-116097000D02*
X147237000Y-116097000D01*
X153499000Y-116097000D02*
X151408000Y-116097000D01*
X149328000Y-116057000D02*
X147227000Y-116057000D01*
X153509000Y-116057000D02*
X151408000Y-116057000D01*
X149328000Y-116017000D02*
X147218000Y-116017000D01*
X153518000Y-116017000D02*
X151408000Y-116017000D01*
X149328000Y-115976000D02*
X147209000Y-115976000D01*
X153527000Y-115976000D02*
X151408000Y-115976000D01*
X149328000Y-115936000D02*
X147201000Y-115936000D01*
X153535000Y-115936000D02*
X151408000Y-115936000D01*
X149328000Y-115896000D02*
X147193000Y-115896000D01*
X153543000Y-115896000D02*
X151408000Y-115896000D01*
X149328000Y-115856000D02*
X147186000Y-115856000D01*
X153550000Y-115856000D02*
X151408000Y-115856000D01*
X149328000Y-115816000D02*
X147179000Y-115816000D01*
X153557000Y-115816000D02*
X151408000Y-115816000D01*
X149328000Y-115776000D02*
X147173000Y-115776000D01*
X153563000Y-115776000D02*
X151408000Y-115776000D01*
X149328000Y-115736000D02*
X147167000Y-115736000D01*
X153569000Y-115736000D02*
X151408000Y-115736000D01*
X149328000Y-115696000D02*
X147162000Y-115696000D01*
X153574000Y-115696000D02*
X151408000Y-115696000D01*
X149328000Y-115656000D02*
X147157000Y-115656000D01*
X153579000Y-115656000D02*
X151408000Y-115656000D01*
X149328000Y-115616000D02*
X147153000Y-115616000D01*
X153583000Y-115616000D02*
X151408000Y-115616000D01*
X149328000Y-115576000D02*
X147150000Y-115576000D01*
X153586000Y-115576000D02*
X151408000Y-115576000D01*
X149328000Y-115536000D02*
X147146000Y-115536000D01*
X153590000Y-115536000D02*
X151408000Y-115536000D01*
X153592000Y-115496000D02*
X147144000Y-115496000D01*
X153595000Y-115456000D02*
X147141000Y-115456000D01*
X153596000Y-115416000D02*
X147140000Y-115416000D01*
X153598000Y-115376000D02*
X147138000Y-115376000D01*
X153598000Y-115336000D02*
X147138000Y-115336000D01*
X153598000Y-115296000D02*
X147138000Y-115296000D01*
X153638000Y-115296000D02*
G75*
G03X153638000Y-115296000I-3270000J0D01*
G01*
X162274000Y-115296000D02*
G75*
G03X162274000Y-115296000I-3270000J0D01*
G01*
X162234000Y-115296000D02*
X155774000Y-115296000D01*
X162234000Y-115336000D02*
X155774000Y-115336000D01*
X162234000Y-115376000D02*
X155774000Y-115376000D01*
X162232000Y-115416000D02*
X155776000Y-115416000D01*
X162231000Y-115456000D02*
X155777000Y-115456000D01*
X162228000Y-115496000D02*
X155780000Y-115496000D01*
X162226000Y-115536000D02*
X160044000Y-115536000D01*
X157964000Y-115536000D02*
X155782000Y-115536000D01*
X162222000Y-115576000D02*
X160044000Y-115576000D01*
X157964000Y-115576000D02*
X155786000Y-115576000D01*
X162219000Y-115616000D02*
X160044000Y-115616000D01*
X157964000Y-115616000D02*
X155789000Y-115616000D01*
X162215000Y-115656000D02*
X160044000Y-115656000D01*
X157964000Y-115656000D02*
X155793000Y-115656000D01*
X162210000Y-115696000D02*
X160044000Y-115696000D01*
X157964000Y-115696000D02*
X155798000Y-115696000D01*
X162205000Y-115736000D02*
X160044000Y-115736000D01*
X157964000Y-115736000D02*
X155803000Y-115736000D01*
X162199000Y-115776000D02*
X160044000Y-115776000D01*
X157964000Y-115776000D02*
X155809000Y-115776000D01*
X162193000Y-115816000D02*
X160044000Y-115816000D01*
X157964000Y-115816000D02*
X155815000Y-115816000D01*
X162186000Y-115856000D02*
X160044000Y-115856000D01*
X157964000Y-115856000D02*
X155822000Y-115856000D01*
X162179000Y-115896000D02*
X160044000Y-115896000D01*
X157964000Y-115896000D02*
X155829000Y-115896000D01*
X162171000Y-115936000D02*
X160044000Y-115936000D01*
X157964000Y-115936000D02*
X155837000Y-115936000D01*
X162163000Y-115976000D02*
X160044000Y-115976000D01*
X157964000Y-115976000D02*
X155845000Y-115976000D01*
X162154000Y-116017000D02*
X160044000Y-116017000D01*
X157964000Y-116017000D02*
X155854000Y-116017000D01*
X162145000Y-116057000D02*
X160044000Y-116057000D01*
X157964000Y-116057000D02*
X155863000Y-116057000D01*
X162135000Y-116097000D02*
X160044000Y-116097000D01*
X157964000Y-116097000D02*
X155873000Y-116097000D01*
X162125000Y-116137000D02*
X160044000Y-116137000D01*
X157964000Y-116137000D02*
X155883000Y-116137000D01*
X162114000Y-116177000D02*
X160044000Y-116177000D01*
X157964000Y-116177000D02*
X155894000Y-116177000D01*
X162102000Y-116217000D02*
X160044000Y-116217000D01*
X157964000Y-116217000D02*
X155906000Y-116217000D01*
X162090000Y-116257000D02*
X160044000Y-116257000D01*
X157964000Y-116257000D02*
X155918000Y-116257000D01*
X162078000Y-116297000D02*
X160044000Y-116297000D01*
X157964000Y-116297000D02*
X155930000Y-116297000D01*
X162065000Y-116337000D02*
X160044000Y-116337000D01*
X157964000Y-116337000D02*
X155943000Y-116337000D01*
X162051000Y-116377000D02*
X160044000Y-116377000D01*
X157964000Y-116377000D02*
X155957000Y-116377000D01*
X162037000Y-116417000D02*
X160044000Y-116417000D01*
X157964000Y-116417000D02*
X155971000Y-116417000D01*
X162022000Y-116457000D02*
X160044000Y-116457000D01*
X157964000Y-116457000D02*
X155986000Y-116457000D01*
X162006000Y-116497000D02*
X160044000Y-116497000D01*
X157964000Y-116497000D02*
X156002000Y-116497000D01*
X161990000Y-116537000D02*
X160044000Y-116537000D01*
X157964000Y-116537000D02*
X156018000Y-116537000D01*
X161974000Y-116577000D02*
X160044000Y-116577000D01*
X157964000Y-116577000D02*
X156034000Y-116577000D01*
X161956000Y-116617000D02*
X160044000Y-116617000D01*
X157964000Y-116617000D02*
X156052000Y-116617000D01*
X161938000Y-116657000D02*
X160044000Y-116657000D01*
X157964000Y-116657000D02*
X156070000Y-116657000D01*
X161920000Y-116697000D02*
X160044000Y-116697000D01*
X157964000Y-116697000D02*
X156088000Y-116697000D01*
X161900000Y-116737000D02*
X160044000Y-116737000D01*
X157964000Y-116737000D02*
X156108000Y-116737000D01*
X161880000Y-116777000D02*
X160044000Y-116777000D01*
X157964000Y-116777000D02*
X156128000Y-116777000D01*
X161860000Y-116817000D02*
X160044000Y-116817000D01*
X157964000Y-116817000D02*
X156148000Y-116817000D01*
X161838000Y-116857000D02*
X160044000Y-116857000D01*
X157964000Y-116857000D02*
X156170000Y-116857000D01*
X161816000Y-116897000D02*
X160044000Y-116897000D01*
X157964000Y-116897000D02*
X156192000Y-116897000D01*
X161794000Y-116937000D02*
X160044000Y-116937000D01*
X157964000Y-116937000D02*
X156214000Y-116937000D01*
X161770000Y-116977000D02*
X160044000Y-116977000D01*
X157964000Y-116977000D02*
X156238000Y-116977000D01*
X161746000Y-117017000D02*
X160044000Y-117017000D01*
X157964000Y-117017000D02*
X156262000Y-117017000D01*
X161720000Y-117057000D02*
X160044000Y-117057000D01*
X157964000Y-117057000D02*
X156288000Y-117057000D01*
X161694000Y-117097000D02*
X160044000Y-117097000D01*
X157964000Y-117097000D02*
X156314000Y-117097000D01*
X161668000Y-117137000D02*
X160044000Y-117137000D01*
X157964000Y-117137000D02*
X156340000Y-117137000D01*
X161640000Y-117177000D02*
X160044000Y-117177000D01*
X157964000Y-117177000D02*
X156368000Y-117177000D01*
X161611000Y-117217000D02*
X160044000Y-117217000D01*
X157964000Y-117217000D02*
X156397000Y-117217000D01*
X161582000Y-117257000D02*
X160044000Y-117257000D01*
X157964000Y-117257000D02*
X156426000Y-117257000D01*
X161552000Y-117297000D02*
X160044000Y-117297000D01*
X157964000Y-117297000D02*
X156456000Y-117297000D01*
X161520000Y-117337000D02*
X160044000Y-117337000D01*
X157964000Y-117337000D02*
X156488000Y-117337000D01*
X161488000Y-117377000D02*
X160044000Y-117377000D01*
X157964000Y-117377000D02*
X156520000Y-117377000D01*
X161454000Y-117417000D02*
X160044000Y-117417000D01*
X157964000Y-117417000D02*
X156554000Y-117417000D01*
X161420000Y-117457000D02*
X160044000Y-117457000D01*
X157964000Y-117457000D02*
X156588000Y-117457000D01*
X161384000Y-117497000D02*
X160044000Y-117497000D01*
X157964000Y-117497000D02*
X156624000Y-117497000D01*
X161347000Y-117537000D02*
X160044000Y-117537000D01*
X157964000Y-117537000D02*
X156661000Y-117537000D01*
X161309000Y-117577000D02*
X160044000Y-117577000D01*
X157964000Y-117577000D02*
X156699000Y-117577000D01*
X161269000Y-117617000D02*
X156739000Y-117617000D01*
X161228000Y-117657000D02*
X156780000Y-117657000D01*
X161186000Y-117697000D02*
X156822000Y-117697000D01*
X161141000Y-117737000D02*
X156867000Y-117737000D01*
X161096000Y-117777000D02*
X156912000Y-117777000D01*
X161048000Y-117817000D02*
X156960000Y-117817000D01*
X160999000Y-117857000D02*
X157009000Y-117857000D01*
X160948000Y-117897000D02*
X157060000Y-117897000D01*
X160894000Y-117937000D02*
X157114000Y-117937000D01*
X160838000Y-117977000D02*
X157170000Y-117977000D01*
X160780000Y-118017000D02*
X157228000Y-118017000D01*
X160718000Y-118057000D02*
X157290000Y-118057000D01*
X160654000Y-118097000D02*
X157354000Y-118097000D01*
X160585000Y-118137000D02*
X157423000Y-118137000D01*
X160513000Y-118177000D02*
X157495000Y-118177000D01*
X160436000Y-118217000D02*
X157572000Y-118217000D01*
X160354000Y-118257000D02*
X157654000Y-118257000D01*
X160266000Y-118297000D02*
X157742000Y-118297000D01*
X160169000Y-118337000D02*
X157839000Y-118337000D01*
X160063000Y-118377000D02*
X157945000Y-118377000D01*
X159944000Y-118417000D02*
X158064000Y-118417000D01*
X159806000Y-118457000D02*
X158202000Y-118457000D01*
X159637000Y-118497000D02*
X158371000Y-118497000D01*
X159406000Y-118537000D02*
X158602000Y-118537000D01*
X160843000Y-111795759D02*
X160843000Y-112425759D01*
X161158000Y-112110759D02*
X160528000Y-112110759D01*
X187199748Y-104596000D02*
X187722252Y-104596000D01*
X187199748Y-103176000D02*
X187722252Y-103176000D01*
X188968748Y-101144000D02*
X189491252Y-101144000D01*
X188968748Y-102564000D02*
X189491252Y-102564000D01*
X196036000Y-87120252D02*
X196036000Y-86597748D01*
X194616000Y-87120252D02*
X194616000Y-86597748D01*
X198357748Y-87682000D02*
X198880252Y-87682000D01*
X198357748Y-89102000D02*
X198880252Y-89102000D01*
X187654000Y-106681748D02*
X187654000Y-107204252D01*
X186234000Y-106681748D02*
X186234000Y-107204252D01*
X118253000Y-87048000D02*
X118253000Y-81608000D01*
X118013000Y-87048000D02*
X118013000Y-81608000D01*
X118133000Y-87048000D02*
X118133000Y-81608000D01*
X109028000Y-84328000D02*
X109938000Y-84328000D01*
X120588000Y-84328000D02*
X119678000Y-84328000D01*
X109938000Y-87048000D02*
X119678000Y-87048000D01*
X109938000Y-81608000D02*
X109938000Y-87048000D01*
X119678000Y-81608000D02*
X109938000Y-81608000D01*
X119678000Y-87048000D02*
X119678000Y-81608000D01*
X104584000Y-102580000D02*
X104428000Y-102580000D01*
X106900000Y-102580000D02*
X106744000Y-102580000D01*
X104584163Y-105181130D02*
G75*
G02X104584000Y-103099039I1079837J1041130D01*
G01*
X106743837Y-105181130D02*
G75*
G03X106744000Y-103099039I-1079837J1041130D01*
G01*
X104585392Y-105812335D02*
G75*
G02X104428484Y-102580000I1078608J1672335D01*
G01*
X106742608Y-105812335D02*
G75*
G03X106899516Y-102580000I-1078608J1672335D01*
G01*
X111568608Y-105812335D02*
G75*
G03X111725516Y-102580000I-1078608J1672335D01*
G01*
X109411392Y-105812335D02*
G75*
G02X109254484Y-102580000I1078608J1672335D01*
G01*
X111569837Y-105181130D02*
G75*
G03X111570000Y-103099039I-1079837J1041130D01*
G01*
X109410163Y-105181130D02*
G75*
G02X109410000Y-103099039I1079837J1041130D01*
G01*
X111726000Y-102580000D02*
X111570000Y-102580000D01*
X109410000Y-102580000D02*
X109254000Y-102580000D01*
X149650000Y-86286000D02*
X149650000Y-80846000D01*
X149650000Y-80846000D02*
X139910000Y-80846000D01*
X139910000Y-80846000D02*
X139910000Y-86286000D01*
X139910000Y-86286000D02*
X149650000Y-86286000D01*
X150560000Y-83566000D02*
X149650000Y-83566000D01*
X139000000Y-83566000D02*
X139910000Y-83566000D01*
X148105000Y-86286000D02*
X148105000Y-80846000D01*
X147985000Y-86286000D02*
X147985000Y-80846000D01*
X148225000Y-86286000D02*
X148225000Y-80846000D01*
X173788000Y-86606748D02*
X173788000Y-87129252D01*
X175208000Y-86606748D02*
X175208000Y-87129252D01*
X182574000Y-83803748D02*
X182574000Y-84326252D01*
X181154000Y-83803748D02*
X181154000Y-84326252D01*
X184202000Y-83803748D02*
X184202000Y-84326252D01*
X185622000Y-83803748D02*
X185622000Y-84326252D01*
X192734000Y-86606748D02*
X192734000Y-87129252D01*
X191314000Y-86606748D02*
X191314000Y-87129252D01*
X175574000Y-103886000D02*
X172914000Y-103886000D01*
X175574000Y-103886000D02*
X175574000Y-98746000D01*
X175574000Y-98746000D02*
X172914000Y-98746000D01*
X172914000Y-103886000D02*
X172914000Y-98746000D01*
X172914000Y-106486000D02*
X172914000Y-105156000D01*
X174244000Y-106486000D02*
X172914000Y-106486000D01*
X152026000Y-96073000D02*
G75*
G03X152026000Y-96073000I-7500000J0D01*
G01*
X115078252Y-106628000D02*
X114555748Y-106628000D01*
X115078252Y-105208000D02*
X114555748Y-105208000D01*
X119109748Y-113232000D02*
X119632252Y-113232000D01*
X119109748Y-111812000D02*
X119632252Y-111812000D01*
X110742252Y-111050000D02*
X110219748Y-111050000D01*
X110742252Y-112470000D02*
X110219748Y-112470000D01*
X112470000Y-90930252D02*
X112470000Y-90407748D01*
X111050000Y-90930252D02*
X111050000Y-90407748D01*
X128761748Y-95302000D02*
X129284252Y-95302000D01*
X128761748Y-96722000D02*
X129284252Y-96722000D01*
X106478000Y-115060252D02*
X106478000Y-114537748D01*
X107898000Y-115060252D02*
X107898000Y-114537748D01*
X106374000Y-108187748D02*
X106374000Y-108710252D01*
X104954000Y-108187748D02*
X104954000Y-108710252D01*
X109780000Y-108187748D02*
X109780000Y-108710252D01*
X111200000Y-108187748D02*
X111200000Y-108710252D01*
X167632748Y-86816000D02*
X168155252Y-86816000D01*
X167632748Y-85396000D02*
X168155252Y-85396000D01*
X175751748Y-81736000D02*
X176274252Y-81736000D01*
X175751748Y-80316000D02*
X176274252Y-80316000D01*
X191024252Y-81736000D02*
X190501748Y-81736000D01*
X191024252Y-80316000D02*
X190501748Y-80316000D01*
X176328000Y-99076252D02*
X176328000Y-98553748D01*
X177748000Y-99076252D02*
X177748000Y-98553748D01*
X171906000Y-101108252D02*
X171906000Y-100585748D01*
X170486000Y-101108252D02*
X170486000Y-100585748D01*
X198898252Y-86816000D02*
X198375748Y-86816000D01*
X198898252Y-85396000D02*
X198375748Y-85396000D01*
X166318000Y-100567748D02*
X166318000Y-101090252D01*
X164898000Y-100567748D02*
X164898000Y-101090252D01*
X111962000Y-95750748D02*
X111962000Y-96273252D01*
X110542000Y-95750748D02*
X110542000Y-96273252D01*
X121678000Y-98412000D02*
X122878000Y-98412000D01*
X121678000Y-97212000D02*
X121678000Y-98412000D01*
X126178000Y-88912000D02*
X126178000Y-90112000D01*
X121978000Y-88912000D02*
X126178000Y-88912000D01*
X121978000Y-90112000D02*
X121978000Y-88912000D01*
X126178000Y-98112000D02*
X126178000Y-96912000D01*
X121978000Y-98112000D02*
X126178000Y-98112000D01*
X121978000Y-96912000D02*
X121978000Y-98112000D01*
X134366000Y-106874000D02*
X135696000Y-106874000D01*
X135696000Y-106874000D02*
X135696000Y-108204000D01*
X135696000Y-109474000D02*
X135696000Y-114614000D01*
X133036000Y-114614000D02*
X135696000Y-114614000D01*
X133036000Y-109474000D02*
X133036000Y-114614000D01*
X133036000Y-109474000D02*
X135696000Y-109474000D01*
D13*
X113056000Y-95564000D02*
X113056000Y-96714000D01*
X116306000Y-94789000D02*
X116306000Y-96714000D01*
D12*
X113958000Y-113467000D02*
X113958000Y-111767000D01*
X115658000Y-113317000D02*
X115658000Y-111767000D01*
X115764000Y-121018000D02*
X115764000Y-116218000D01*
X120964000Y-121018000D02*
X120964000Y-115418000D01*
X115122000Y-121018000D02*
X115122000Y-115418000D01*
X109922000Y-121018000D02*
X109922000Y-116218000D01*
X156942000Y-96292000D02*
X156942000Y-89947000D01*
X162082000Y-95837000D02*
X162082000Y-89947000D01*
X159766000Y-104414000D02*
X161716000Y-104414000D01*
X159766000Y-104414000D02*
X157816000Y-104414000D01*
X159766000Y-99294000D02*
X161716000Y-99294000D01*
X159766000Y-99294000D02*
X156316000Y-99294000D01*
X188348000Y-95758000D02*
X188348000Y-93448000D01*
X188348000Y-93448000D02*
X188073000Y-93448000D01*
X188348000Y-95758000D02*
X188348000Y-98068000D01*
X188348000Y-98068000D02*
X188073000Y-98068000D01*
X178428000Y-95758000D02*
X178428000Y-93448000D01*
X178428000Y-93448000D02*
X178703000Y-93448000D01*
X178428000Y-95758000D02*
X178428000Y-98068000D01*
X178428000Y-98068000D02*
X178703000Y-98068000D01*
X178703000Y-98068000D02*
X178703000Y-99358000D01*
X119441000Y-93599000D02*
G75*
G03X119441000Y-93599000I-950000J0D01*
G01*
X119568000Y-100584000D02*
G75*
G03X119568000Y-100584000I-950000J0D01*
G01*
X108138000Y-118618000D02*
G75*
G03X108138000Y-118618000I-950000J0D01*
G01*
X124902000Y-120142000D02*
G75*
G03X124902000Y-120142000I-950000J0D01*
G01*
X159192000Y-83566000D02*
G75*
G03X159192000Y-83566000I-950000J0D01*
G01*
X156144000Y-97028000D02*
G75*
G03X156144000Y-97028000I-950000J0D01*
G01*
X192720000Y-98044000D02*
G75*
G03X192720000Y-98044000I-950000J0D01*
G01*
D13*
X183761142Y-107386380D02*
X183427809Y-106910190D01*
X183189714Y-107386380D02*
X183189714Y-106386380D01*
X183570666Y-106386380D01*
X183665904Y-106434000D01*
X183713523Y-106481619D01*
X183761142Y-106576857D01*
X183761142Y-106719714D01*
X183713523Y-106814952D01*
X183665904Y-106862571D01*
X183570666Y-106910190D01*
X183189714Y-106910190D01*
X184713523Y-107386380D02*
X184142095Y-107386380D01*
X184427809Y-107386380D02*
X184427809Y-106386380D01*
X184332571Y-106529238D01*
X184237333Y-106624476D01*
X184142095Y-106672095D01*
X185618285Y-106386380D02*
X185142095Y-106386380D01*
X185094476Y-106862571D01*
X185142095Y-106814952D01*
X185237333Y-106767333D01*
X185475428Y-106767333D01*
X185570666Y-106814952D01*
X185618285Y-106862571D01*
X185665904Y-106957809D01*
X185665904Y-107195904D01*
X185618285Y-107291142D01*
X185570666Y-107338761D01*
X185475428Y-107386380D01*
X185237333Y-107386380D01*
X185142095Y-107338761D01*
X185094476Y-107291142D01*
X115165142Y-108624666D02*
X115212761Y-108672285D01*
X115260380Y-108815142D01*
X115260380Y-108910380D01*
X115212761Y-109053238D01*
X115117523Y-109148476D01*
X115022285Y-109196095D01*
X114831809Y-109243714D01*
X114688952Y-109243714D01*
X114498476Y-109196095D01*
X114403238Y-109148476D01*
X114308000Y-109053238D01*
X114260380Y-108910380D01*
X114260380Y-108815142D01*
X114308000Y-108672285D01*
X114355619Y-108624666D01*
X115260380Y-107672285D02*
X115260380Y-108243714D01*
X115260380Y-107958000D02*
X114260380Y-107958000D01*
X114403238Y-108053238D01*
X114498476Y-108148476D01*
X114546095Y-108243714D01*
X115283142Y-89320666D02*
X115330761Y-89368285D01*
X115378380Y-89511142D01*
X115378380Y-89606380D01*
X115330761Y-89749238D01*
X115235523Y-89844476D01*
X115140285Y-89892095D01*
X114949809Y-89939714D01*
X114806952Y-89939714D01*
X114616476Y-89892095D01*
X114521238Y-89844476D01*
X114426000Y-89749238D01*
X114378380Y-89606380D01*
X114378380Y-89511142D01*
X114426000Y-89368285D01*
X114473619Y-89320666D01*
X114473619Y-88939714D02*
X114426000Y-88892095D01*
X114378380Y-88796857D01*
X114378380Y-88558761D01*
X114426000Y-88463523D01*
X114473619Y-88415904D01*
X114568857Y-88368285D01*
X114664095Y-88368285D01*
X114806952Y-88415904D01*
X115378380Y-88987333D01*
X115378380Y-88368285D01*
X115038142Y-91860666D02*
X115085761Y-91908285D01*
X115133380Y-92051142D01*
X115133380Y-92146380D01*
X115085761Y-92289238D01*
X114990523Y-92384476D01*
X114895285Y-92432095D01*
X114704809Y-92479714D01*
X114561952Y-92479714D01*
X114371476Y-92432095D01*
X114276238Y-92384476D01*
X114181000Y-92289238D01*
X114133380Y-92146380D01*
X114133380Y-92051142D01*
X114181000Y-91908285D01*
X114228619Y-91860666D01*
X114133380Y-91527333D02*
X114133380Y-90908285D01*
X114514333Y-91241619D01*
X114514333Y-91098761D01*
X114561952Y-91003523D01*
X114609571Y-90955904D01*
X114704809Y-90908285D01*
X114942904Y-90908285D01*
X115038142Y-90955904D01*
X115085761Y-91003523D01*
X115133380Y-91098761D01*
X115133380Y-91384476D01*
X115085761Y-91479714D01*
X115038142Y-91527333D01*
X115174142Y-100750666D02*
X115221761Y-100798285D01*
X115269380Y-100941142D01*
X115269380Y-101036380D01*
X115221761Y-101179238D01*
X115126523Y-101274476D01*
X115031285Y-101322095D01*
X114840809Y-101369714D01*
X114697952Y-101369714D01*
X114507476Y-101322095D01*
X114412238Y-101274476D01*
X114317000Y-101179238D01*
X114269380Y-101036380D01*
X114269380Y-100941142D01*
X114317000Y-100798285D01*
X114364619Y-100750666D01*
X114602714Y-99893523D02*
X115269380Y-99893523D01*
X114221761Y-100131619D02*
X114936047Y-100369714D01*
X114936047Y-99750666D01*
X115165142Y-102782666D02*
X115212761Y-102830285D01*
X115260380Y-102973142D01*
X115260380Y-103068380D01*
X115212761Y-103211238D01*
X115117523Y-103306476D01*
X115022285Y-103354095D01*
X114831809Y-103401714D01*
X114688952Y-103401714D01*
X114498476Y-103354095D01*
X114403238Y-103306476D01*
X114308000Y-103211238D01*
X114260380Y-103068380D01*
X114260380Y-102973142D01*
X114308000Y-102830285D01*
X114355619Y-102782666D01*
X114260380Y-101877904D02*
X114260380Y-102354095D01*
X114736571Y-102401714D01*
X114688952Y-102354095D01*
X114641333Y-102258857D01*
X114641333Y-102020761D01*
X114688952Y-101925523D01*
X114736571Y-101877904D01*
X114831809Y-101830285D01*
X115069904Y-101830285D01*
X115165142Y-101877904D01*
X115212761Y-101925523D01*
X115260380Y-102020761D01*
X115260380Y-102258857D01*
X115212761Y-102354095D01*
X115165142Y-102401714D01*
X171029333Y-87234142D02*
X170981714Y-87281761D01*
X170838857Y-87329380D01*
X170743619Y-87329380D01*
X170600761Y-87281761D01*
X170505523Y-87186523D01*
X170457904Y-87091285D01*
X170410285Y-86900809D01*
X170410285Y-86757952D01*
X170457904Y-86567476D01*
X170505523Y-86472238D01*
X170600761Y-86377000D01*
X170743619Y-86329380D01*
X170838857Y-86329380D01*
X170981714Y-86377000D01*
X171029333Y-86424619D01*
X171886476Y-86329380D02*
X171696000Y-86329380D01*
X171600761Y-86377000D01*
X171553142Y-86424619D01*
X171457904Y-86567476D01*
X171410285Y-86757952D01*
X171410285Y-87138904D01*
X171457904Y-87234142D01*
X171505523Y-87281761D01*
X171600761Y-87329380D01*
X171791238Y-87329380D01*
X171886476Y-87281761D01*
X171934095Y-87234142D01*
X171981714Y-87138904D01*
X171981714Y-86900809D01*
X171934095Y-86805571D01*
X171886476Y-86757952D01*
X171791238Y-86710333D01*
X171600761Y-86710333D01*
X171505523Y-86757952D01*
X171457904Y-86805571D01*
X171410285Y-86900809D01*
X167718333Y-90273142D02*
X167670714Y-90320761D01*
X167527857Y-90368380D01*
X167432619Y-90368380D01*
X167289761Y-90320761D01*
X167194523Y-90225523D01*
X167146904Y-90130285D01*
X167099285Y-89939809D01*
X167099285Y-89796952D01*
X167146904Y-89606476D01*
X167194523Y-89511238D01*
X167289761Y-89416000D01*
X167432619Y-89368380D01*
X167527857Y-89368380D01*
X167670714Y-89416000D01*
X167718333Y-89463619D01*
X168051666Y-89368380D02*
X168718333Y-89368380D01*
X168289761Y-90368380D01*
X149283142Y-109112666D02*
X149330761Y-109160285D01*
X149378380Y-109303142D01*
X149378380Y-109398380D01*
X149330761Y-109541238D01*
X149235523Y-109636476D01*
X149140285Y-109684095D01*
X148949809Y-109731714D01*
X148806952Y-109731714D01*
X148616476Y-109684095D01*
X148521238Y-109636476D01*
X148426000Y-109541238D01*
X148378380Y-109398380D01*
X148378380Y-109303142D01*
X148426000Y-109160285D01*
X148473619Y-109112666D01*
X148806952Y-108541238D02*
X148759333Y-108636476D01*
X148711714Y-108684095D01*
X148616476Y-108731714D01*
X148568857Y-108731714D01*
X148473619Y-108684095D01*
X148426000Y-108636476D01*
X148378380Y-108541238D01*
X148378380Y-108350761D01*
X148426000Y-108255523D01*
X148473619Y-108207904D01*
X148568857Y-108160285D01*
X148616476Y-108160285D01*
X148711714Y-108207904D01*
X148759333Y-108255523D01*
X148806952Y-108350761D01*
X148806952Y-108541238D01*
X148854571Y-108636476D01*
X148902190Y-108684095D01*
X148997428Y-108731714D01*
X149187904Y-108731714D01*
X149283142Y-108684095D01*
X149330761Y-108636476D01*
X149378380Y-108541238D01*
X149378380Y-108350761D01*
X149330761Y-108255523D01*
X149283142Y-108207904D01*
X149187904Y-108160285D01*
X148997428Y-108160285D01*
X148902190Y-108207904D01*
X148854571Y-108255523D01*
X148806952Y-108350761D01*
X169759333Y-91543142D02*
X169711714Y-91590761D01*
X169568857Y-91638380D01*
X169473619Y-91638380D01*
X169330761Y-91590761D01*
X169235523Y-91495523D01*
X169187904Y-91400285D01*
X169140285Y-91209809D01*
X169140285Y-91066952D01*
X169187904Y-90876476D01*
X169235523Y-90781238D01*
X169330761Y-90686000D01*
X169473619Y-90638380D01*
X169568857Y-90638380D01*
X169711714Y-90686000D01*
X169759333Y-90733619D01*
X170235523Y-91638380D02*
X170426000Y-91638380D01*
X170521238Y-91590761D01*
X170568857Y-91543142D01*
X170664095Y-91400285D01*
X170711714Y-91209809D01*
X170711714Y-90828857D01*
X170664095Y-90733619D01*
X170616476Y-90686000D01*
X170521238Y-90638380D01*
X170330761Y-90638380D01*
X170235523Y-90686000D01*
X170187904Y-90733619D01*
X170140285Y-90828857D01*
X170140285Y-91066952D01*
X170187904Y-91162190D01*
X170235523Y-91209809D01*
X170330761Y-91257428D01*
X170521238Y-91257428D01*
X170616476Y-91209809D01*
X170664095Y-91162190D01*
X170711714Y-91066952D01*
X173347142Y-91797142D02*
X173299523Y-91844761D01*
X173156666Y-91892380D01*
X173061428Y-91892380D01*
X172918571Y-91844761D01*
X172823333Y-91749523D01*
X172775714Y-91654285D01*
X172728095Y-91463809D01*
X172728095Y-91320952D01*
X172775714Y-91130476D01*
X172823333Y-91035238D01*
X172918571Y-90940000D01*
X173061428Y-90892380D01*
X173156666Y-90892380D01*
X173299523Y-90940000D01*
X173347142Y-90987619D01*
X174299523Y-91892380D02*
X173728095Y-91892380D01*
X174013809Y-91892380D02*
X174013809Y-90892380D01*
X173918571Y-91035238D01*
X173823333Y-91130476D01*
X173728095Y-91178095D01*
X174918571Y-90892380D02*
X175013809Y-90892380D01*
X175109047Y-90940000D01*
X175156666Y-90987619D01*
X175204285Y-91082857D01*
X175251904Y-91273333D01*
X175251904Y-91511428D01*
X175204285Y-91701904D01*
X175156666Y-91797142D01*
X175109047Y-91844761D01*
X175013809Y-91892380D01*
X174918571Y-91892380D01*
X174823333Y-91844761D01*
X174775714Y-91797142D01*
X174728095Y-91701904D01*
X174680476Y-91511428D01*
X174680476Y-91273333D01*
X174728095Y-91082857D01*
X174775714Y-90987619D01*
X174823333Y-90940000D01*
X174918571Y-90892380D01*
X176395142Y-91797142D02*
X176347523Y-91844761D01*
X176204666Y-91892380D01*
X176109428Y-91892380D01*
X175966571Y-91844761D01*
X175871333Y-91749523D01*
X175823714Y-91654285D01*
X175776095Y-91463809D01*
X175776095Y-91320952D01*
X175823714Y-91130476D01*
X175871333Y-91035238D01*
X175966571Y-90940000D01*
X176109428Y-90892380D01*
X176204666Y-90892380D01*
X176347523Y-90940000D01*
X176395142Y-90987619D01*
X177347523Y-91892380D02*
X176776095Y-91892380D01*
X177061809Y-91892380D02*
X177061809Y-90892380D01*
X176966571Y-91035238D01*
X176871333Y-91130476D01*
X176776095Y-91178095D01*
X178299904Y-91892380D02*
X177728476Y-91892380D01*
X178014190Y-91892380D02*
X178014190Y-90892380D01*
X177918952Y-91035238D01*
X177823714Y-91130476D01*
X177728476Y-91178095D01*
X156947142Y-107839857D02*
X156994761Y-107887476D01*
X157042380Y-108030333D01*
X157042380Y-108125571D01*
X156994761Y-108268428D01*
X156899523Y-108363666D01*
X156804285Y-108411285D01*
X156613809Y-108458904D01*
X156470952Y-108458904D01*
X156280476Y-108411285D01*
X156185238Y-108363666D01*
X156090000Y-108268428D01*
X156042380Y-108125571D01*
X156042380Y-108030333D01*
X156090000Y-107887476D01*
X156137619Y-107839857D01*
X157042380Y-106887476D02*
X157042380Y-107458904D01*
X157042380Y-107173190D02*
X156042380Y-107173190D01*
X156185238Y-107268428D01*
X156280476Y-107363666D01*
X156328095Y-107458904D01*
X156137619Y-106506523D02*
X156090000Y-106458904D01*
X156042380Y-106363666D01*
X156042380Y-106125571D01*
X156090000Y-106030333D01*
X156137619Y-105982714D01*
X156232857Y-105935095D01*
X156328095Y-105935095D01*
X156470952Y-105982714D01*
X157042380Y-106554142D01*
X157042380Y-105935095D01*
X180840142Y-81510142D02*
X180792523Y-81557761D01*
X180649666Y-81605380D01*
X180554428Y-81605380D01*
X180411571Y-81557761D01*
X180316333Y-81462523D01*
X180268714Y-81367285D01*
X180221095Y-81176809D01*
X180221095Y-81033952D01*
X180268714Y-80843476D01*
X180316333Y-80748238D01*
X180411571Y-80653000D01*
X180554428Y-80605380D01*
X180649666Y-80605380D01*
X180792523Y-80653000D01*
X180840142Y-80700619D01*
X181792523Y-81605380D02*
X181221095Y-81605380D01*
X181506809Y-81605380D02*
X181506809Y-80605380D01*
X181411571Y-80748238D01*
X181316333Y-80843476D01*
X181221095Y-80891095D01*
X182125857Y-80605380D02*
X182744904Y-80605380D01*
X182411571Y-80986333D01*
X182554428Y-80986333D01*
X182649666Y-81033952D01*
X182697285Y-81081571D01*
X182744904Y-81176809D01*
X182744904Y-81414904D01*
X182697285Y-81510142D01*
X182649666Y-81557761D01*
X182554428Y-81605380D01*
X182268714Y-81605380D01*
X182173476Y-81557761D01*
X182125857Y-81510142D01*
X172585142Y-83669142D02*
X172537523Y-83716761D01*
X172394666Y-83764380D01*
X172299428Y-83764380D01*
X172156571Y-83716761D01*
X172061333Y-83621523D01*
X172013714Y-83526285D01*
X171966095Y-83335809D01*
X171966095Y-83192952D01*
X172013714Y-83002476D01*
X172061333Y-82907238D01*
X172156571Y-82812000D01*
X172299428Y-82764380D01*
X172394666Y-82764380D01*
X172537523Y-82812000D01*
X172585142Y-82859619D01*
X173537523Y-83764380D02*
X172966095Y-83764380D01*
X173251809Y-83764380D02*
X173251809Y-82764380D01*
X173156571Y-82907238D01*
X173061333Y-83002476D01*
X172966095Y-83050095D01*
X174394666Y-83097714D02*
X174394666Y-83764380D01*
X174156571Y-82716761D02*
X173918476Y-83431047D01*
X174537523Y-83431047D01*
X195953142Y-91543142D02*
X195905523Y-91590761D01*
X195762666Y-91638380D01*
X195667428Y-91638380D01*
X195524571Y-91590761D01*
X195429333Y-91495523D01*
X195381714Y-91400285D01*
X195334095Y-91209809D01*
X195334095Y-91066952D01*
X195381714Y-90876476D01*
X195429333Y-90781238D01*
X195524571Y-90686000D01*
X195667428Y-90638380D01*
X195762666Y-90638380D01*
X195905523Y-90686000D01*
X195953142Y-90733619D01*
X196905523Y-91638380D02*
X196334095Y-91638380D01*
X196619809Y-91638380D02*
X196619809Y-90638380D01*
X196524571Y-90781238D01*
X196429333Y-90876476D01*
X196334095Y-90924095D01*
X197810285Y-90638380D02*
X197334095Y-90638380D01*
X197286476Y-91114571D01*
X197334095Y-91066952D01*
X197429333Y-91019333D01*
X197667428Y-91019333D01*
X197762666Y-91066952D01*
X197810285Y-91114571D01*
X197857904Y-91209809D01*
X197857904Y-91447904D01*
X197810285Y-91543142D01*
X197762666Y-91590761D01*
X197667428Y-91638380D01*
X197429333Y-91638380D01*
X197334095Y-91590761D01*
X197286476Y-91543142D01*
X192143142Y-92051142D02*
X192095523Y-92098761D01*
X191952666Y-92146380D01*
X191857428Y-92146380D01*
X191714571Y-92098761D01*
X191619333Y-92003523D01*
X191571714Y-91908285D01*
X191524095Y-91717809D01*
X191524095Y-91574952D01*
X191571714Y-91384476D01*
X191619333Y-91289238D01*
X191714571Y-91194000D01*
X191857428Y-91146380D01*
X191952666Y-91146380D01*
X192095523Y-91194000D01*
X192143142Y-91241619D01*
X193095523Y-92146380D02*
X192524095Y-92146380D01*
X192809809Y-92146380D02*
X192809809Y-91146380D01*
X192714571Y-91289238D01*
X192619333Y-91384476D01*
X192524095Y-91432095D01*
X193952666Y-91146380D02*
X193762190Y-91146380D01*
X193666952Y-91194000D01*
X193619333Y-91241619D01*
X193524095Y-91384476D01*
X193476476Y-91574952D01*
X193476476Y-91955904D01*
X193524095Y-92051142D01*
X193571714Y-92098761D01*
X193666952Y-92146380D01*
X193857428Y-92146380D01*
X193952666Y-92098761D01*
X194000285Y-92051142D01*
X194047904Y-91955904D01*
X194047904Y-91717809D01*
X194000285Y-91622571D01*
X193952666Y-91574952D01*
X193857428Y-91527333D01*
X193666952Y-91527333D01*
X193571714Y-91574952D01*
X193524095Y-91622571D01*
X193476476Y-91717809D01*
X189095142Y-92051142D02*
X189047523Y-92098761D01*
X188904666Y-92146380D01*
X188809428Y-92146380D01*
X188666571Y-92098761D01*
X188571333Y-92003523D01*
X188523714Y-91908285D01*
X188476095Y-91717809D01*
X188476095Y-91574952D01*
X188523714Y-91384476D01*
X188571333Y-91289238D01*
X188666571Y-91194000D01*
X188809428Y-91146380D01*
X188904666Y-91146380D01*
X189047523Y-91194000D01*
X189095142Y-91241619D01*
X190047523Y-92146380D02*
X189476095Y-92146380D01*
X189761809Y-92146380D02*
X189761809Y-91146380D01*
X189666571Y-91289238D01*
X189571333Y-91384476D01*
X189476095Y-91432095D01*
X190380857Y-91146380D02*
X191047523Y-91146380D01*
X190618952Y-92146380D01*
X158869142Y-109957142D02*
X158821523Y-110004761D01*
X158678666Y-110052380D01*
X158583428Y-110052380D01*
X158440571Y-110004761D01*
X158345333Y-109909523D01*
X158297714Y-109814285D01*
X158250095Y-109623809D01*
X158250095Y-109480952D01*
X158297714Y-109290476D01*
X158345333Y-109195238D01*
X158440571Y-109100000D01*
X158583428Y-109052380D01*
X158678666Y-109052380D01*
X158821523Y-109100000D01*
X158869142Y-109147619D01*
X159821523Y-110052380D02*
X159250095Y-110052380D01*
X159535809Y-110052380D02*
X159535809Y-109052380D01*
X159440571Y-109195238D01*
X159345333Y-109290476D01*
X159250095Y-109338095D01*
X160392952Y-109480952D02*
X160297714Y-109433333D01*
X160250095Y-109385714D01*
X160202476Y-109290476D01*
X160202476Y-109242857D01*
X160250095Y-109147619D01*
X160297714Y-109100000D01*
X160392952Y-109052380D01*
X160583428Y-109052380D01*
X160678666Y-109100000D01*
X160726285Y-109147619D01*
X160773904Y-109242857D01*
X160773904Y-109290476D01*
X160726285Y-109385714D01*
X160678666Y-109433333D01*
X160583428Y-109480952D01*
X160392952Y-109480952D01*
X160297714Y-109528571D01*
X160250095Y-109576190D01*
X160202476Y-109671428D01*
X160202476Y-109861904D01*
X160250095Y-109957142D01*
X160297714Y-110004761D01*
X160392952Y-110052380D01*
X160583428Y-110052380D01*
X160678666Y-110004761D01*
X160726285Y-109957142D01*
X160773904Y-109861904D01*
X160773904Y-109671428D01*
X160726285Y-109576190D01*
X160678666Y-109528571D01*
X160583428Y-109480952D01*
X176395142Y-89257142D02*
X176347523Y-89304761D01*
X176204666Y-89352380D01*
X176109428Y-89352380D01*
X175966571Y-89304761D01*
X175871333Y-89209523D01*
X175823714Y-89114285D01*
X175776095Y-88923809D01*
X175776095Y-88780952D01*
X175823714Y-88590476D01*
X175871333Y-88495238D01*
X175966571Y-88400000D01*
X176109428Y-88352380D01*
X176204666Y-88352380D01*
X176347523Y-88400000D01*
X176395142Y-88447619D01*
X177347523Y-89352380D02*
X176776095Y-89352380D01*
X177061809Y-89352380D02*
X177061809Y-88352380D01*
X176966571Y-88495238D01*
X176871333Y-88590476D01*
X176776095Y-88638095D01*
X177823714Y-89352380D02*
X178014190Y-89352380D01*
X178109428Y-89304761D01*
X178157047Y-89257142D01*
X178252285Y-89114285D01*
X178299904Y-88923809D01*
X178299904Y-88542857D01*
X178252285Y-88447619D01*
X178204666Y-88400000D01*
X178109428Y-88352380D01*
X177918952Y-88352380D01*
X177823714Y-88400000D01*
X177776095Y-88447619D01*
X177728476Y-88542857D01*
X177728476Y-88780952D01*
X177776095Y-88876190D01*
X177823714Y-88923809D01*
X177918952Y-88971428D01*
X178109428Y-88971428D01*
X178204666Y-88923809D01*
X178252285Y-88876190D01*
X178299904Y-88780952D01*
X181983142Y-104996142D02*
X181935523Y-105043761D01*
X181792666Y-105091380D01*
X181697428Y-105091380D01*
X181554571Y-105043761D01*
X181459333Y-104948523D01*
X181411714Y-104853285D01*
X181364095Y-104662809D01*
X181364095Y-104519952D01*
X181411714Y-104329476D01*
X181459333Y-104234238D01*
X181554571Y-104139000D01*
X181697428Y-104091380D01*
X181792666Y-104091380D01*
X181935523Y-104139000D01*
X181983142Y-104186619D01*
X182364095Y-104186619D02*
X182411714Y-104139000D01*
X182506952Y-104091380D01*
X182745047Y-104091380D01*
X182840285Y-104139000D01*
X182887904Y-104186619D01*
X182935523Y-104281857D01*
X182935523Y-104377095D01*
X182887904Y-104519952D01*
X182316476Y-105091380D01*
X182935523Y-105091380D01*
X183554571Y-104091380D02*
X183649809Y-104091380D01*
X183745047Y-104139000D01*
X183792666Y-104186619D01*
X183840285Y-104281857D01*
X183887904Y-104472333D01*
X183887904Y-104710428D01*
X183840285Y-104900904D01*
X183792666Y-104996142D01*
X183745047Y-105043761D01*
X183649809Y-105091380D01*
X183554571Y-105091380D01*
X183459333Y-105043761D01*
X183411714Y-104996142D01*
X183364095Y-104900904D01*
X183316476Y-104710428D01*
X183316476Y-104472333D01*
X183364095Y-104281857D01*
X183411714Y-104186619D01*
X183459333Y-104139000D01*
X183554571Y-104091380D01*
X181221142Y-88740142D02*
X181173523Y-88787761D01*
X181030666Y-88835380D01*
X180935428Y-88835380D01*
X180792571Y-88787761D01*
X180697333Y-88692523D01*
X180649714Y-88597285D01*
X180602095Y-88406809D01*
X180602095Y-88263952D01*
X180649714Y-88073476D01*
X180697333Y-87978238D01*
X180792571Y-87883000D01*
X180935428Y-87835380D01*
X181030666Y-87835380D01*
X181173523Y-87883000D01*
X181221142Y-87930619D01*
X181602095Y-87930619D02*
X181649714Y-87883000D01*
X181744952Y-87835380D01*
X181983047Y-87835380D01*
X182078285Y-87883000D01*
X182125904Y-87930619D01*
X182173523Y-88025857D01*
X182173523Y-88121095D01*
X182125904Y-88263952D01*
X181554476Y-88835380D01*
X182173523Y-88835380D01*
X183125904Y-88835380D02*
X182554476Y-88835380D01*
X182840190Y-88835380D02*
X182840190Y-87835380D01*
X182744952Y-87978238D01*
X182649714Y-88073476D01*
X182554476Y-88121095D01*
X176903142Y-105023142D02*
X176855523Y-105070761D01*
X176712666Y-105118380D01*
X176617428Y-105118380D01*
X176474571Y-105070761D01*
X176379333Y-104975523D01*
X176331714Y-104880285D01*
X176284095Y-104689809D01*
X176284095Y-104546952D01*
X176331714Y-104356476D01*
X176379333Y-104261238D01*
X176474571Y-104166000D01*
X176617428Y-104118380D01*
X176712666Y-104118380D01*
X176855523Y-104166000D01*
X176903142Y-104213619D01*
X177284095Y-104213619D02*
X177331714Y-104166000D01*
X177426952Y-104118380D01*
X177665047Y-104118380D01*
X177760285Y-104166000D01*
X177807904Y-104213619D01*
X177855523Y-104308857D01*
X177855523Y-104404095D01*
X177807904Y-104546952D01*
X177236476Y-105118380D01*
X177855523Y-105118380D01*
X178236476Y-104213619D02*
X178284095Y-104166000D01*
X178379333Y-104118380D01*
X178617428Y-104118380D01*
X178712666Y-104166000D01*
X178760285Y-104213619D01*
X178807904Y-104308857D01*
X178807904Y-104404095D01*
X178760285Y-104546952D01*
X178188857Y-105118380D01*
X178807904Y-105118380D01*
X184650142Y-81510142D02*
X184602523Y-81557761D01*
X184459666Y-81605380D01*
X184364428Y-81605380D01*
X184221571Y-81557761D01*
X184126333Y-81462523D01*
X184078714Y-81367285D01*
X184031095Y-81176809D01*
X184031095Y-81033952D01*
X184078714Y-80843476D01*
X184126333Y-80748238D01*
X184221571Y-80653000D01*
X184364428Y-80605380D01*
X184459666Y-80605380D01*
X184602523Y-80653000D01*
X184650142Y-80700619D01*
X185031095Y-80700619D02*
X185078714Y-80653000D01*
X185173952Y-80605380D01*
X185412047Y-80605380D01*
X185507285Y-80653000D01*
X185554904Y-80700619D01*
X185602523Y-80795857D01*
X185602523Y-80891095D01*
X185554904Y-81033952D01*
X184983476Y-81605380D01*
X185602523Y-81605380D01*
X185935857Y-80605380D02*
X186554904Y-80605380D01*
X186221571Y-80986333D01*
X186364428Y-80986333D01*
X186459666Y-81033952D01*
X186507285Y-81081571D01*
X186554904Y-81176809D01*
X186554904Y-81414904D01*
X186507285Y-81510142D01*
X186459666Y-81557761D01*
X186364428Y-81605380D01*
X186078714Y-81605380D01*
X185983476Y-81557761D01*
X185935857Y-81510142D01*
X193159142Y-83669142D02*
X193111523Y-83716761D01*
X192968666Y-83764380D01*
X192873428Y-83764380D01*
X192730571Y-83716761D01*
X192635333Y-83621523D01*
X192587714Y-83526285D01*
X192540095Y-83335809D01*
X192540095Y-83192952D01*
X192587714Y-83002476D01*
X192635333Y-82907238D01*
X192730571Y-82812000D01*
X192873428Y-82764380D01*
X192968666Y-82764380D01*
X193111523Y-82812000D01*
X193159142Y-82859619D01*
X193540095Y-82859619D02*
X193587714Y-82812000D01*
X193682952Y-82764380D01*
X193921047Y-82764380D01*
X194016285Y-82812000D01*
X194063904Y-82859619D01*
X194111523Y-82954857D01*
X194111523Y-83050095D01*
X194063904Y-83192952D01*
X193492476Y-83764380D01*
X194111523Y-83764380D01*
X194968666Y-83097714D02*
X194968666Y-83764380D01*
X194730571Y-82716761D02*
X194492476Y-83431047D01*
X195111523Y-83431047D01*
X184523142Y-88740142D02*
X184475523Y-88787761D01*
X184332666Y-88835380D01*
X184237428Y-88835380D01*
X184094571Y-88787761D01*
X183999333Y-88692523D01*
X183951714Y-88597285D01*
X183904095Y-88406809D01*
X183904095Y-88263952D01*
X183951714Y-88073476D01*
X183999333Y-87978238D01*
X184094571Y-87883000D01*
X184237428Y-87835380D01*
X184332666Y-87835380D01*
X184475523Y-87883000D01*
X184523142Y-87930619D01*
X184904095Y-87930619D02*
X184951714Y-87883000D01*
X185046952Y-87835380D01*
X185285047Y-87835380D01*
X185380285Y-87883000D01*
X185427904Y-87930619D01*
X185475523Y-88025857D01*
X185475523Y-88121095D01*
X185427904Y-88263952D01*
X184856476Y-88835380D01*
X185475523Y-88835380D01*
X186380285Y-87835380D02*
X185904095Y-87835380D01*
X185856476Y-88311571D01*
X185904095Y-88263952D01*
X185999333Y-88216333D01*
X186237428Y-88216333D01*
X186332666Y-88263952D01*
X186380285Y-88311571D01*
X186427904Y-88406809D01*
X186427904Y-88644904D01*
X186380285Y-88740142D01*
X186332666Y-88787761D01*
X186237428Y-88835380D01*
X185999333Y-88835380D01*
X185904095Y-88787761D01*
X185856476Y-88740142D01*
X179443142Y-105014142D02*
X179395523Y-105061761D01*
X179252666Y-105109380D01*
X179157428Y-105109380D01*
X179014571Y-105061761D01*
X178919333Y-104966523D01*
X178871714Y-104871285D01*
X178824095Y-104680809D01*
X178824095Y-104537952D01*
X178871714Y-104347476D01*
X178919333Y-104252238D01*
X179014571Y-104157000D01*
X179157428Y-104109380D01*
X179252666Y-104109380D01*
X179395523Y-104157000D01*
X179443142Y-104204619D01*
X179824095Y-104204619D02*
X179871714Y-104157000D01*
X179966952Y-104109380D01*
X180205047Y-104109380D01*
X180300285Y-104157000D01*
X180347904Y-104204619D01*
X180395523Y-104299857D01*
X180395523Y-104395095D01*
X180347904Y-104537952D01*
X179776476Y-105109380D01*
X180395523Y-105109380D01*
X181252666Y-104109380D02*
X181062190Y-104109380D01*
X180966952Y-104157000D01*
X180919333Y-104204619D01*
X180824095Y-104347476D01*
X180776476Y-104537952D01*
X180776476Y-104918904D01*
X180824095Y-105014142D01*
X180871714Y-105061761D01*
X180966952Y-105109380D01*
X181157428Y-105109380D01*
X181252666Y-105061761D01*
X181300285Y-105014142D01*
X181347904Y-104918904D01*
X181347904Y-104680809D01*
X181300285Y-104585571D01*
X181252666Y-104537952D01*
X181157428Y-104490333D01*
X180966952Y-104490333D01*
X180871714Y-104537952D01*
X180824095Y-104585571D01*
X180776476Y-104680809D01*
X188841142Y-89266142D02*
X188793523Y-89313761D01*
X188650666Y-89361380D01*
X188555428Y-89361380D01*
X188412571Y-89313761D01*
X188317333Y-89218523D01*
X188269714Y-89123285D01*
X188222095Y-88932809D01*
X188222095Y-88789952D01*
X188269714Y-88599476D01*
X188317333Y-88504238D01*
X188412571Y-88409000D01*
X188555428Y-88361380D01*
X188650666Y-88361380D01*
X188793523Y-88409000D01*
X188841142Y-88456619D01*
X189222095Y-88456619D02*
X189269714Y-88409000D01*
X189364952Y-88361380D01*
X189603047Y-88361380D01*
X189698285Y-88409000D01*
X189745904Y-88456619D01*
X189793523Y-88551857D01*
X189793523Y-88647095D01*
X189745904Y-88789952D01*
X189174476Y-89361380D01*
X189793523Y-89361380D01*
X190126857Y-88361380D02*
X190793523Y-88361380D01*
X190364952Y-89361380D01*
X155125142Y-115938857D02*
X155172761Y-115986476D01*
X155220380Y-116129333D01*
X155220380Y-116224571D01*
X155172761Y-116367428D01*
X155077523Y-116462666D01*
X154982285Y-116510285D01*
X154791809Y-116557904D01*
X154648952Y-116557904D01*
X154458476Y-116510285D01*
X154363238Y-116462666D01*
X154268000Y-116367428D01*
X154220380Y-116224571D01*
X154220380Y-116129333D01*
X154268000Y-115986476D01*
X154315619Y-115938857D01*
X154315619Y-115557904D02*
X154268000Y-115510285D01*
X154220380Y-115415047D01*
X154220380Y-115176952D01*
X154268000Y-115081714D01*
X154315619Y-115034095D01*
X154410857Y-114986476D01*
X154506095Y-114986476D01*
X154648952Y-115034095D01*
X155220380Y-115605523D01*
X155220380Y-114986476D01*
X154648952Y-114415047D02*
X154601333Y-114510285D01*
X154553714Y-114557904D01*
X154458476Y-114605523D01*
X154410857Y-114605523D01*
X154315619Y-114557904D01*
X154268000Y-114510285D01*
X154220380Y-114415047D01*
X154220380Y-114224571D01*
X154268000Y-114129333D01*
X154315619Y-114081714D01*
X154410857Y-114034095D01*
X154458476Y-114034095D01*
X154553714Y-114081714D01*
X154601333Y-114129333D01*
X154648952Y-114224571D01*
X154648952Y-114415047D01*
X154696571Y-114510285D01*
X154744190Y-114557904D01*
X154839428Y-114605523D01*
X155029904Y-114605523D01*
X155125142Y-114557904D01*
X155172761Y-114510285D01*
X155220380Y-114415047D01*
X155220380Y-114224571D01*
X155172761Y-114129333D01*
X155125142Y-114081714D01*
X155029904Y-114034095D01*
X154839428Y-114034095D01*
X154744190Y-114081714D01*
X154696571Y-114129333D01*
X154648952Y-114224571D01*
X163761142Y-115938857D02*
X163808761Y-115986476D01*
X163856380Y-116129333D01*
X163856380Y-116224571D01*
X163808761Y-116367428D01*
X163713523Y-116462666D01*
X163618285Y-116510285D01*
X163427809Y-116557904D01*
X163284952Y-116557904D01*
X163094476Y-116510285D01*
X162999238Y-116462666D01*
X162904000Y-116367428D01*
X162856380Y-116224571D01*
X162856380Y-116129333D01*
X162904000Y-115986476D01*
X162951619Y-115938857D01*
X162951619Y-115557904D02*
X162904000Y-115510285D01*
X162856380Y-115415047D01*
X162856380Y-115176952D01*
X162904000Y-115081714D01*
X162951619Y-115034095D01*
X163046857Y-114986476D01*
X163142095Y-114986476D01*
X163284952Y-115034095D01*
X163856380Y-115605523D01*
X163856380Y-114986476D01*
X163856380Y-114510285D02*
X163856380Y-114319809D01*
X163808761Y-114224571D01*
X163761142Y-114176952D01*
X163618285Y-114081714D01*
X163427809Y-114034095D01*
X163046857Y-114034095D01*
X162951619Y-114081714D01*
X162904000Y-114129333D01*
X162856380Y-114224571D01*
X162856380Y-114415047D01*
X162904000Y-114510285D01*
X162951619Y-114557904D01*
X163046857Y-114605523D01*
X163284952Y-114605523D01*
X163380190Y-114557904D01*
X163427809Y-114510285D01*
X163475428Y-114415047D01*
X163475428Y-114224571D01*
X163427809Y-114129333D01*
X163380190Y-114081714D01*
X163284952Y-114034095D01*
X187818142Y-104528857D02*
X187865761Y-104576476D01*
X187913380Y-104719333D01*
X187913380Y-104814571D01*
X187865761Y-104957428D01*
X187770523Y-105052666D01*
X187675285Y-105100285D01*
X187484809Y-105147904D01*
X187341952Y-105147904D01*
X187151476Y-105100285D01*
X187056238Y-105052666D01*
X186961000Y-104957428D01*
X186913380Y-104814571D01*
X186913380Y-104719333D01*
X186961000Y-104576476D01*
X187008619Y-104528857D01*
X186913380Y-104195523D02*
X186913380Y-103576476D01*
X187294333Y-103909809D01*
X187294333Y-103766952D01*
X187341952Y-103671714D01*
X187389571Y-103624095D01*
X187484809Y-103576476D01*
X187722904Y-103576476D01*
X187818142Y-103624095D01*
X187865761Y-103671714D01*
X187913380Y-103766952D01*
X187913380Y-104052666D01*
X187865761Y-104147904D01*
X187818142Y-104195523D01*
X186913380Y-102957428D02*
X186913380Y-102862190D01*
X186961000Y-102766952D01*
X187008619Y-102719333D01*
X187103857Y-102671714D01*
X187294333Y-102624095D01*
X187532428Y-102624095D01*
X187722904Y-102671714D01*
X187818142Y-102719333D01*
X187865761Y-102766952D01*
X187913380Y-102862190D01*
X187913380Y-102957428D01*
X187865761Y-103052666D01*
X187818142Y-103100285D01*
X187722904Y-103147904D01*
X187532428Y-103195523D01*
X187294333Y-103195523D01*
X187103857Y-103147904D01*
X187008619Y-103100285D01*
X186961000Y-103052666D01*
X186913380Y-102957428D01*
X189596142Y-102496857D02*
X189643761Y-102544476D01*
X189691380Y-102687333D01*
X189691380Y-102782571D01*
X189643761Y-102925428D01*
X189548523Y-103020666D01*
X189453285Y-103068285D01*
X189262809Y-103115904D01*
X189119952Y-103115904D01*
X188929476Y-103068285D01*
X188834238Y-103020666D01*
X188739000Y-102925428D01*
X188691380Y-102782571D01*
X188691380Y-102687333D01*
X188739000Y-102544476D01*
X188786619Y-102496857D01*
X188691380Y-102163523D02*
X188691380Y-101544476D01*
X189072333Y-101877809D01*
X189072333Y-101734952D01*
X189119952Y-101639714D01*
X189167571Y-101592095D01*
X189262809Y-101544476D01*
X189500904Y-101544476D01*
X189596142Y-101592095D01*
X189643761Y-101639714D01*
X189691380Y-101734952D01*
X189691380Y-102020666D01*
X189643761Y-102115904D01*
X189596142Y-102163523D01*
X189691380Y-100592095D02*
X189691380Y-101163523D01*
X189691380Y-100877809D02*
X188691380Y-100877809D01*
X188834238Y-100973047D01*
X188929476Y-101068285D01*
X188977095Y-101163523D01*
X194810142Y-87225142D02*
X194762523Y-87272761D01*
X194619666Y-87320380D01*
X194524428Y-87320380D01*
X194381571Y-87272761D01*
X194286333Y-87177523D01*
X194238714Y-87082285D01*
X194191095Y-86891809D01*
X194191095Y-86748952D01*
X194238714Y-86558476D01*
X194286333Y-86463238D01*
X194381571Y-86368000D01*
X194524428Y-86320380D01*
X194619666Y-86320380D01*
X194762523Y-86368000D01*
X194810142Y-86415619D01*
X195143476Y-86320380D02*
X195762523Y-86320380D01*
X195429190Y-86701333D01*
X195572047Y-86701333D01*
X195667285Y-86748952D01*
X195714904Y-86796571D01*
X195762523Y-86891809D01*
X195762523Y-87129904D01*
X195714904Y-87225142D01*
X195667285Y-87272761D01*
X195572047Y-87320380D01*
X195286333Y-87320380D01*
X195191095Y-87272761D01*
X195143476Y-87225142D01*
X196143476Y-86415619D02*
X196191095Y-86368000D01*
X196286333Y-86320380D01*
X196524428Y-86320380D01*
X196619666Y-86368000D01*
X196667285Y-86415619D01*
X196714904Y-86510857D01*
X196714904Y-86606095D01*
X196667285Y-86748952D01*
X196095857Y-87320380D01*
X196714904Y-87320380D01*
X197985142Y-90400142D02*
X197937523Y-90447761D01*
X197794666Y-90495380D01*
X197699428Y-90495380D01*
X197556571Y-90447761D01*
X197461333Y-90352523D01*
X197413714Y-90257285D01*
X197366095Y-90066809D01*
X197366095Y-89923952D01*
X197413714Y-89733476D01*
X197461333Y-89638238D01*
X197556571Y-89543000D01*
X197699428Y-89495380D01*
X197794666Y-89495380D01*
X197937523Y-89543000D01*
X197985142Y-89590619D01*
X198318476Y-89495380D02*
X198937523Y-89495380D01*
X198604190Y-89876333D01*
X198747047Y-89876333D01*
X198842285Y-89923952D01*
X198889904Y-89971571D01*
X198937523Y-90066809D01*
X198937523Y-90304904D01*
X198889904Y-90400142D01*
X198842285Y-90447761D01*
X198747047Y-90495380D01*
X198461333Y-90495380D01*
X198366095Y-90447761D01*
X198318476Y-90400142D01*
X199270857Y-89495380D02*
X199889904Y-89495380D01*
X199556571Y-89876333D01*
X199699428Y-89876333D01*
X199794666Y-89923952D01*
X199842285Y-89971571D01*
X199889904Y-90066809D01*
X199889904Y-90304904D01*
X199842285Y-90400142D01*
X199794666Y-90447761D01*
X199699428Y-90495380D01*
X199413714Y-90495380D01*
X199318476Y-90447761D01*
X199270857Y-90400142D01*
X187317142Y-107291142D02*
X187269523Y-107338761D01*
X187126666Y-107386380D01*
X187031428Y-107386380D01*
X186888571Y-107338761D01*
X186793333Y-107243523D01*
X186745714Y-107148285D01*
X186698095Y-106957809D01*
X186698095Y-106814952D01*
X186745714Y-106624476D01*
X186793333Y-106529238D01*
X186888571Y-106434000D01*
X187031428Y-106386380D01*
X187126666Y-106386380D01*
X187269523Y-106434000D01*
X187317142Y-106481619D01*
X187650476Y-106386380D02*
X188269523Y-106386380D01*
X187936190Y-106767333D01*
X188079047Y-106767333D01*
X188174285Y-106814952D01*
X188221904Y-106862571D01*
X188269523Y-106957809D01*
X188269523Y-107195904D01*
X188221904Y-107291142D01*
X188174285Y-107338761D01*
X188079047Y-107386380D01*
X187793333Y-107386380D01*
X187698095Y-107338761D01*
X187650476Y-107291142D01*
X189126666Y-106719714D02*
X189126666Y-107386380D01*
X188888571Y-106338761D02*
X188650476Y-107053047D01*
X189269523Y-107053047D01*
X113307904Y-84780380D02*
X113307904Y-83780380D01*
X113546000Y-83780380D01*
X113688857Y-83828000D01*
X113784095Y-83923238D01*
X113831714Y-84018476D01*
X113879333Y-84208952D01*
X113879333Y-84351809D01*
X113831714Y-84542285D01*
X113784095Y-84637523D01*
X113688857Y-84732761D01*
X113546000Y-84780380D01*
X113307904Y-84780380D01*
X114831714Y-84780380D02*
X114260285Y-84780380D01*
X114546000Y-84780380D02*
X114546000Y-83780380D01*
X114450761Y-83923238D01*
X114355523Y-84018476D01*
X114260285Y-84066095D01*
X122166095Y-87380380D02*
X122166095Y-86380380D01*
X122737523Y-87380380D02*
X122308952Y-86808952D01*
X122737523Y-86380380D02*
X122166095Y-86951809D01*
X103655904Y-101544380D02*
X103655904Y-100544380D01*
X103894000Y-100544380D01*
X104036857Y-100592000D01*
X104132095Y-100687238D01*
X104179714Y-100782476D01*
X104227333Y-100972952D01*
X104227333Y-101115809D01*
X104179714Y-101306285D01*
X104132095Y-101401523D01*
X104036857Y-101496761D01*
X103894000Y-101544380D01*
X103655904Y-101544380D01*
X104608285Y-100639619D02*
X104655904Y-100592000D01*
X104751142Y-100544380D01*
X104989238Y-100544380D01*
X105084476Y-100592000D01*
X105132095Y-100639619D01*
X105179714Y-100734857D01*
X105179714Y-100830095D01*
X105132095Y-100972952D01*
X104560666Y-101544380D01*
X105179714Y-101544380D01*
X108481904Y-101544380D02*
X108481904Y-100544380D01*
X108720000Y-100544380D01*
X108862857Y-100592000D01*
X108958095Y-100687238D01*
X109005714Y-100782476D01*
X109053333Y-100972952D01*
X109053333Y-101115809D01*
X109005714Y-101306285D01*
X108958095Y-101401523D01*
X108862857Y-101496761D01*
X108720000Y-101544380D01*
X108481904Y-101544380D01*
X109386666Y-100544380D02*
X110005714Y-100544380D01*
X109672380Y-100925333D01*
X109815238Y-100925333D01*
X109910476Y-100972952D01*
X109958095Y-101020571D01*
X110005714Y-101115809D01*
X110005714Y-101353904D01*
X109958095Y-101449142D01*
X109910476Y-101496761D01*
X109815238Y-101544380D01*
X109529523Y-101544380D01*
X109434285Y-101496761D01*
X109386666Y-101449142D01*
X144041904Y-87738380D02*
X144041904Y-86738380D01*
X144280000Y-86738380D01*
X144422857Y-86786000D01*
X144518095Y-86881238D01*
X144565714Y-86976476D01*
X144613333Y-87166952D01*
X144613333Y-87309809D01*
X144565714Y-87500285D01*
X144518095Y-87595523D01*
X144422857Y-87690761D01*
X144280000Y-87738380D01*
X144041904Y-87738380D01*
X145470476Y-87071714D02*
X145470476Y-87738380D01*
X145232380Y-86690761D02*
X144994285Y-87405047D01*
X145613333Y-87405047D01*
X152138095Y-86618380D02*
X152138095Y-85618380D01*
X152709523Y-86618380D02*
X152280952Y-86046952D01*
X152709523Y-85618380D02*
X152138095Y-86189809D01*
X175950666Y-85780571D02*
X175617333Y-85780571D01*
X175617333Y-86304380D02*
X175617333Y-85304380D01*
X176093523Y-85304380D01*
X176807809Y-85780571D02*
X176950666Y-85828190D01*
X176998285Y-85875809D01*
X177045904Y-85971047D01*
X177045904Y-86113904D01*
X176998285Y-86209142D01*
X176950666Y-86256761D01*
X176855428Y-86304380D01*
X176474476Y-86304380D01*
X176474476Y-85304380D01*
X176807809Y-85304380D01*
X176903047Y-85352000D01*
X176950666Y-85399619D01*
X176998285Y-85494857D01*
X176998285Y-85590095D01*
X176950666Y-85685333D01*
X176903047Y-85732952D01*
X176807809Y-85780571D01*
X176474476Y-85780571D01*
X177998285Y-86304380D02*
X177426857Y-86304380D01*
X177712571Y-86304380D02*
X177712571Y-85304380D01*
X177617333Y-85447238D01*
X177522095Y-85542476D01*
X177426857Y-85590095D01*
X180268571Y-86177333D02*
X180268571Y-86510666D01*
X180792380Y-86510666D02*
X179792380Y-86510666D01*
X179792380Y-86034476D01*
X180268571Y-85320190D02*
X180316190Y-85177333D01*
X180363809Y-85129714D01*
X180459047Y-85082095D01*
X180601904Y-85082095D01*
X180697142Y-85129714D01*
X180744761Y-85177333D01*
X180792380Y-85272571D01*
X180792380Y-85653523D01*
X179792380Y-85653523D01*
X179792380Y-85320190D01*
X179840000Y-85224952D01*
X179887619Y-85177333D01*
X179982857Y-85129714D01*
X180078095Y-85129714D01*
X180173333Y-85177333D01*
X180220952Y-85224952D01*
X180268571Y-85320190D01*
X180268571Y-85653523D01*
X179887619Y-84701142D02*
X179840000Y-84653523D01*
X179792380Y-84558285D01*
X179792380Y-84320190D01*
X179840000Y-84224952D01*
X179887619Y-84177333D01*
X179982857Y-84129714D01*
X180078095Y-84129714D01*
X180220952Y-84177333D01*
X180792380Y-84748761D01*
X180792380Y-84129714D01*
X186364571Y-86177333D02*
X186364571Y-86510666D01*
X186888380Y-86510666D02*
X185888380Y-86510666D01*
X185888380Y-86034476D01*
X186364571Y-85320190D02*
X186412190Y-85177333D01*
X186459809Y-85129714D01*
X186555047Y-85082095D01*
X186697904Y-85082095D01*
X186793142Y-85129714D01*
X186840761Y-85177333D01*
X186888380Y-85272571D01*
X186888380Y-85653523D01*
X185888380Y-85653523D01*
X185888380Y-85320190D01*
X185936000Y-85224952D01*
X185983619Y-85177333D01*
X186078857Y-85129714D01*
X186174095Y-85129714D01*
X186269333Y-85177333D01*
X186316952Y-85224952D01*
X186364571Y-85320190D01*
X186364571Y-85653523D01*
X185888380Y-84748761D02*
X185888380Y-84129714D01*
X186269333Y-84463047D01*
X186269333Y-84320190D01*
X186316952Y-84224952D01*
X186364571Y-84177333D01*
X186459809Y-84129714D01*
X186697904Y-84129714D01*
X186793142Y-84177333D01*
X186840761Y-84224952D01*
X186888380Y-84320190D01*
X186888380Y-84605904D01*
X186840761Y-84701142D01*
X186793142Y-84748761D01*
X188904666Y-85780571D02*
X188571333Y-85780571D01*
X188571333Y-86304380D02*
X188571333Y-85304380D01*
X189047523Y-85304380D01*
X189761809Y-85780571D02*
X189904666Y-85828190D01*
X189952285Y-85875809D01*
X189999904Y-85971047D01*
X189999904Y-86113904D01*
X189952285Y-86209142D01*
X189904666Y-86256761D01*
X189809428Y-86304380D01*
X189428476Y-86304380D01*
X189428476Y-85304380D01*
X189761809Y-85304380D01*
X189857047Y-85352000D01*
X189904666Y-85399619D01*
X189952285Y-85494857D01*
X189952285Y-85590095D01*
X189904666Y-85685333D01*
X189857047Y-85732952D01*
X189761809Y-85780571D01*
X189428476Y-85780571D01*
X190857047Y-85637714D02*
X190857047Y-86304380D01*
X190618952Y-85256761D02*
X190380857Y-85971047D01*
X190999904Y-85971047D01*
X124880857Y-111942571D02*
X125023714Y-111990190D01*
X125071333Y-112037809D01*
X125118952Y-112133047D01*
X125118952Y-112275904D01*
X125071333Y-112371142D01*
X125023714Y-112418761D01*
X124928476Y-112466380D01*
X124547523Y-112466380D01*
X124547523Y-111466380D01*
X124880857Y-111466380D01*
X124976095Y-111514000D01*
X125023714Y-111561619D01*
X125071333Y-111656857D01*
X125071333Y-111752095D01*
X125023714Y-111847333D01*
X124976095Y-111894952D01*
X124880857Y-111942571D01*
X124547523Y-111942571D01*
X125499904Y-112180666D02*
X125976095Y-112180666D01*
X125404666Y-112466380D02*
X125738000Y-111466380D01*
X126071333Y-112466380D01*
X126261809Y-111466380D02*
X126833238Y-111466380D01*
X126547523Y-112466380D02*
X126547523Y-111466380D01*
X127166571Y-112085428D02*
X127928476Y-112085428D01*
X127547523Y-112466380D02*
X127547523Y-111704476D01*
X125642857Y-118546571D02*
X125785714Y-118594190D01*
X125833333Y-118641809D01*
X125880952Y-118737047D01*
X125880952Y-118879904D01*
X125833333Y-118975142D01*
X125785714Y-119022761D01*
X125690476Y-119070380D01*
X125309523Y-119070380D01*
X125309523Y-118070380D01*
X125642857Y-118070380D01*
X125738095Y-118118000D01*
X125785714Y-118165619D01*
X125833333Y-118260857D01*
X125833333Y-118356095D01*
X125785714Y-118451333D01*
X125738095Y-118498952D01*
X125642857Y-118546571D01*
X125309523Y-118546571D01*
X126261904Y-118784666D02*
X126738095Y-118784666D01*
X126166666Y-119070380D02*
X126500000Y-118070380D01*
X126833333Y-119070380D01*
X127023809Y-118070380D02*
X127595238Y-118070380D01*
X127309523Y-119070380D02*
X127309523Y-118070380D01*
X127928571Y-118689428D02*
X128690476Y-118689428D01*
X98401523Y-81938761D02*
X98544380Y-81986380D01*
X98782476Y-81986380D01*
X98877714Y-81938761D01*
X98925333Y-81891142D01*
X98972952Y-81795904D01*
X98972952Y-81700666D01*
X98925333Y-81605428D01*
X98877714Y-81557809D01*
X98782476Y-81510190D01*
X98592000Y-81462571D01*
X98496761Y-81414952D01*
X98449142Y-81367333D01*
X98401523Y-81272095D01*
X98401523Y-81176857D01*
X98449142Y-81081619D01*
X98496761Y-81034000D01*
X98592000Y-80986380D01*
X98830095Y-80986380D01*
X98972952Y-81034000D01*
X99544380Y-81986380D02*
X99449142Y-81938761D01*
X99401523Y-81843523D01*
X99401523Y-80986380D01*
X99925333Y-81986380D02*
X99925333Y-81319714D01*
X99925333Y-81510190D02*
X99972952Y-81414952D01*
X100020571Y-81367333D01*
X100115809Y-81319714D01*
X100211047Y-81319714D01*
X100544380Y-81986380D02*
X100544380Y-80986380D01*
X100925333Y-80986380D01*
X101020571Y-81034000D01*
X101068190Y-81081619D01*
X101115809Y-81176857D01*
X101115809Y-81319714D01*
X101068190Y-81414952D01*
X101020571Y-81462571D01*
X100925333Y-81510190D01*
X100544380Y-81510190D01*
X101544380Y-81319714D02*
X101544380Y-81986380D01*
X101544380Y-81414952D02*
X101592000Y-81367333D01*
X101687238Y-81319714D01*
X101830095Y-81319714D01*
X101925333Y-81367333D01*
X101972952Y-81462571D01*
X101972952Y-81986380D01*
X102592000Y-81986380D02*
X102496761Y-81938761D01*
X102449142Y-81843523D01*
X102449142Y-80986380D01*
X102972952Y-81605428D02*
X103734857Y-81605428D01*
X103353904Y-81986380D02*
X103353904Y-81224476D01*
X98147523Y-94130761D02*
X98290380Y-94178380D01*
X98528476Y-94178380D01*
X98623714Y-94130761D01*
X98671333Y-94083142D01*
X98718952Y-93987904D01*
X98718952Y-93892666D01*
X98671333Y-93797428D01*
X98623714Y-93749809D01*
X98528476Y-93702190D01*
X98338000Y-93654571D01*
X98242761Y-93606952D01*
X98195142Y-93559333D01*
X98147523Y-93464095D01*
X98147523Y-93368857D01*
X98195142Y-93273619D01*
X98242761Y-93226000D01*
X98338000Y-93178380D01*
X98576095Y-93178380D01*
X98718952Y-93226000D01*
X99290380Y-94178380D02*
X99195142Y-94130761D01*
X99147523Y-94035523D01*
X99147523Y-93178380D01*
X99671333Y-94178380D02*
X99671333Y-93511714D01*
X99671333Y-93702190D02*
X99718952Y-93606952D01*
X99766571Y-93559333D01*
X99861809Y-93511714D01*
X99957047Y-93511714D01*
X100290380Y-94178380D02*
X100290380Y-93178380D01*
X100671333Y-93178380D01*
X100766571Y-93226000D01*
X100814190Y-93273619D01*
X100861809Y-93368857D01*
X100861809Y-93511714D01*
X100814190Y-93606952D01*
X100766571Y-93654571D01*
X100671333Y-93702190D01*
X100290380Y-93702190D01*
X101290380Y-93511714D02*
X101290380Y-94178380D01*
X101290380Y-93606952D02*
X101338000Y-93559333D01*
X101433238Y-93511714D01*
X101576095Y-93511714D01*
X101671333Y-93559333D01*
X101718952Y-93654571D01*
X101718952Y-94178380D01*
X102338000Y-94178380D02*
X102242761Y-94130761D01*
X102195142Y-94035523D01*
X102195142Y-93178380D01*
X102718952Y-93797428D02*
X103480857Y-93797428D01*
X122071047Y-103338380D02*
X122071047Y-104147904D01*
X122118666Y-104243142D01*
X122166285Y-104290761D01*
X122261523Y-104338380D01*
X122452000Y-104338380D01*
X122547238Y-104290761D01*
X122594857Y-104243142D01*
X122642476Y-104147904D01*
X122642476Y-103338380D01*
X123071047Y-104290761D02*
X123213904Y-104338380D01*
X123452000Y-104338380D01*
X123547238Y-104290761D01*
X123594857Y-104243142D01*
X123642476Y-104147904D01*
X123642476Y-104052666D01*
X123594857Y-103957428D01*
X123547238Y-103909809D01*
X123452000Y-103862190D01*
X123261523Y-103814571D01*
X123166285Y-103766952D01*
X123118666Y-103719333D01*
X123071047Y-103624095D01*
X123071047Y-103528857D01*
X123118666Y-103433619D01*
X123166285Y-103386000D01*
X123261523Y-103338380D01*
X123499619Y-103338380D01*
X123642476Y-103386000D01*
X124404380Y-103814571D02*
X124547238Y-103862190D01*
X124594857Y-103909809D01*
X124642476Y-104005047D01*
X124642476Y-104147904D01*
X124594857Y-104243142D01*
X124547238Y-104290761D01*
X124452000Y-104338380D01*
X124071047Y-104338380D01*
X124071047Y-103338380D01*
X124404380Y-103338380D01*
X124499619Y-103386000D01*
X124547238Y-103433619D01*
X124594857Y-103528857D01*
X124594857Y-103624095D01*
X124547238Y-103719333D01*
X124499619Y-103766952D01*
X124404380Y-103814571D01*
X124071047Y-103814571D01*
X125071047Y-103957428D02*
X125832952Y-103957428D01*
X125452000Y-104338380D02*
X125452000Y-103576476D01*
X127913047Y-103338380D02*
X127913047Y-104147904D01*
X127960666Y-104243142D01*
X128008285Y-104290761D01*
X128103523Y-104338380D01*
X128294000Y-104338380D01*
X128389238Y-104290761D01*
X128436857Y-104243142D01*
X128484476Y-104147904D01*
X128484476Y-103338380D01*
X128913047Y-104290761D02*
X129055904Y-104338380D01*
X129294000Y-104338380D01*
X129389238Y-104290761D01*
X129436857Y-104243142D01*
X129484476Y-104147904D01*
X129484476Y-104052666D01*
X129436857Y-103957428D01*
X129389238Y-103909809D01*
X129294000Y-103862190D01*
X129103523Y-103814571D01*
X129008285Y-103766952D01*
X128960666Y-103719333D01*
X128913047Y-103624095D01*
X128913047Y-103528857D01*
X128960666Y-103433619D01*
X129008285Y-103386000D01*
X129103523Y-103338380D01*
X129341619Y-103338380D01*
X129484476Y-103386000D01*
X130246380Y-103814571D02*
X130389238Y-103862190D01*
X130436857Y-103909809D01*
X130484476Y-104005047D01*
X130484476Y-104147904D01*
X130436857Y-104243142D01*
X130389238Y-104290761D01*
X130294000Y-104338380D01*
X129913047Y-104338380D01*
X129913047Y-103338380D01*
X130246380Y-103338380D01*
X130341619Y-103386000D01*
X130389238Y-103433619D01*
X130436857Y-103528857D01*
X130436857Y-103624095D01*
X130389238Y-103719333D01*
X130341619Y-103766952D01*
X130246380Y-103814571D01*
X129913047Y-103814571D01*
X130913047Y-103957428D02*
X131674952Y-103957428D01*
X104568952Y-93432380D02*
X105140380Y-93432380D01*
X104854666Y-94432380D02*
X104854666Y-93432380D01*
X105473714Y-94432380D02*
X105473714Y-93432380D01*
X105902285Y-94432380D02*
X105902285Y-93908571D01*
X105854666Y-93813333D01*
X105759428Y-93765714D01*
X105616571Y-93765714D01*
X105521333Y-93813333D01*
X105473714Y-93860952D01*
X106378476Y-94432380D02*
X106378476Y-93765714D01*
X106378476Y-93860952D02*
X106426095Y-93813333D01*
X106521333Y-93765714D01*
X106664190Y-93765714D01*
X106759428Y-93813333D01*
X106807047Y-93908571D01*
X106807047Y-94432380D01*
X106807047Y-93908571D02*
X106854666Y-93813333D01*
X106949904Y-93765714D01*
X107092761Y-93765714D01*
X107188000Y-93813333D01*
X107235619Y-93908571D01*
X107235619Y-94432380D01*
X108283238Y-94337142D02*
X108235619Y-94384761D01*
X108092761Y-94432380D01*
X107997523Y-94432380D01*
X107854666Y-94384761D01*
X107759428Y-94289523D01*
X107711809Y-94194285D01*
X107664190Y-94003809D01*
X107664190Y-93860952D01*
X107711809Y-93670476D01*
X107759428Y-93575238D01*
X107854666Y-93480000D01*
X107997523Y-93432380D01*
X108092761Y-93432380D01*
X108235619Y-93480000D01*
X108283238Y-93527619D01*
X108711809Y-93765714D02*
X108711809Y-94765714D01*
X108711809Y-93813333D02*
X108807047Y-93765714D01*
X108997523Y-93765714D01*
X109092761Y-93813333D01*
X109140380Y-93860952D01*
X109188000Y-93956190D01*
X109188000Y-94241904D01*
X109140380Y-94337142D01*
X109092761Y-94384761D01*
X108997523Y-94432380D01*
X108807047Y-94432380D01*
X108711809Y-94384761D01*
X109759428Y-94432380D02*
X109664190Y-94384761D01*
X109616571Y-94289523D01*
X109616571Y-93432380D01*
X169426190Y-75906380D02*
X169616666Y-75906380D01*
X169711904Y-75954000D01*
X169807142Y-76049238D01*
X169854761Y-76239714D01*
X169854761Y-76573047D01*
X169807142Y-76763523D01*
X169711904Y-76858761D01*
X169616666Y-76906380D01*
X169426190Y-76906380D01*
X169330952Y-76858761D01*
X169235714Y-76763523D01*
X169188095Y-76573047D01*
X169188095Y-76239714D01*
X169235714Y-76049238D01*
X169330952Y-75954000D01*
X169426190Y-75906380D01*
X170283333Y-75906380D02*
X170283333Y-76715904D01*
X170330952Y-76811142D01*
X170378571Y-76858761D01*
X170473809Y-76906380D01*
X170664285Y-76906380D01*
X170759523Y-76858761D01*
X170807142Y-76811142D01*
X170854761Y-76715904D01*
X170854761Y-75906380D01*
X171188095Y-75906380D02*
X171759523Y-75906380D01*
X171473809Y-76906380D02*
X171473809Y-75906380D01*
X172569047Y-76906380D02*
X172092857Y-76906380D01*
X172092857Y-75906380D01*
X172902380Y-76525428D02*
X173664285Y-76525428D01*
X173283333Y-76906380D02*
X173283333Y-76144476D01*
X178062190Y-73874380D02*
X178252666Y-73874380D01*
X178347904Y-73922000D01*
X178443142Y-74017238D01*
X178490761Y-74207714D01*
X178490761Y-74541047D01*
X178443142Y-74731523D01*
X178347904Y-74826761D01*
X178252666Y-74874380D01*
X178062190Y-74874380D01*
X177966952Y-74826761D01*
X177871714Y-74731523D01*
X177824095Y-74541047D01*
X177824095Y-74207714D01*
X177871714Y-74017238D01*
X177966952Y-73922000D01*
X178062190Y-73874380D01*
X178919333Y-73874380D02*
X178919333Y-74683904D01*
X178966952Y-74779142D01*
X179014571Y-74826761D01*
X179109809Y-74874380D01*
X179300285Y-74874380D01*
X179395523Y-74826761D01*
X179443142Y-74779142D01*
X179490761Y-74683904D01*
X179490761Y-73874380D01*
X179824095Y-73874380D02*
X180395523Y-73874380D01*
X180109809Y-74874380D02*
X180109809Y-73874380D01*
X181205047Y-74874380D02*
X180728857Y-74874380D01*
X180728857Y-73874380D01*
X181538380Y-74493428D02*
X182300285Y-74493428D01*
X170632571Y-116530380D02*
X170156380Y-116530380D01*
X170156380Y-115530380D01*
X170965904Y-116530380D02*
X170965904Y-115530380D01*
X171442095Y-116530380D02*
X171442095Y-115530380D01*
X172013523Y-116530380D01*
X172013523Y-115530380D01*
X172489714Y-116149428D02*
X173251619Y-116149428D01*
X172870666Y-116530380D02*
X172870666Y-115768476D01*
X176728571Y-116530380D02*
X176252380Y-116530380D01*
X176252380Y-115530380D01*
X177061904Y-116530380D02*
X177061904Y-115530380D01*
X177538095Y-116530380D02*
X177538095Y-115530380D01*
X178109523Y-116530380D01*
X178109523Y-115530380D01*
X178585714Y-116149428D02*
X179347619Y-116149428D01*
X184570952Y-73874380D02*
X184761428Y-73874380D01*
X184856666Y-73922000D01*
X184951904Y-74017238D01*
X184999523Y-74207714D01*
X184999523Y-74541047D01*
X184951904Y-74731523D01*
X184856666Y-74826761D01*
X184761428Y-74874380D01*
X184570952Y-74874380D01*
X184475714Y-74826761D01*
X184380476Y-74731523D01*
X184332857Y-74541047D01*
X184332857Y-74207714D01*
X184380476Y-74017238D01*
X184475714Y-73922000D01*
X184570952Y-73874380D01*
X185428095Y-73874380D02*
X185428095Y-74683904D01*
X185475714Y-74779142D01*
X185523333Y-74826761D01*
X185618571Y-74874380D01*
X185809047Y-74874380D01*
X185904285Y-74826761D01*
X185951904Y-74779142D01*
X185999523Y-74683904D01*
X185999523Y-73874380D01*
X186332857Y-73874380D02*
X186904285Y-73874380D01*
X186618571Y-74874380D02*
X186618571Y-73874380D01*
X187809047Y-74874380D02*
X187475714Y-74398190D01*
X187237619Y-74874380D02*
X187237619Y-73874380D01*
X187618571Y-73874380D01*
X187713809Y-73922000D01*
X187761428Y-73969619D01*
X187809047Y-74064857D01*
X187809047Y-74207714D01*
X187761428Y-74302952D01*
X187713809Y-74350571D01*
X187618571Y-74398190D01*
X187237619Y-74398190D01*
X188237619Y-74493428D02*
X188999523Y-74493428D01*
X185618571Y-116530380D02*
X185285238Y-116054190D01*
X185047142Y-116530380D02*
X185047142Y-115530380D01*
X185428095Y-115530380D01*
X185523333Y-115578000D01*
X185570952Y-115625619D01*
X185618571Y-115720857D01*
X185618571Y-115863714D01*
X185570952Y-115958952D01*
X185523333Y-116006571D01*
X185428095Y-116054190D01*
X185047142Y-116054190D01*
X186047142Y-116530380D02*
X186047142Y-115530380D01*
X186523333Y-116530380D02*
X186523333Y-115530380D01*
X187094761Y-116530380D01*
X187094761Y-115530380D01*
X187570952Y-116149428D02*
X188332857Y-116149428D01*
X193206952Y-75906380D02*
X193397428Y-75906380D01*
X193492666Y-75954000D01*
X193587904Y-76049238D01*
X193635523Y-76239714D01*
X193635523Y-76573047D01*
X193587904Y-76763523D01*
X193492666Y-76858761D01*
X193397428Y-76906380D01*
X193206952Y-76906380D01*
X193111714Y-76858761D01*
X193016476Y-76763523D01*
X192968857Y-76573047D01*
X192968857Y-76239714D01*
X193016476Y-76049238D01*
X193111714Y-75954000D01*
X193206952Y-75906380D01*
X194064095Y-75906380D02*
X194064095Y-76715904D01*
X194111714Y-76811142D01*
X194159333Y-76858761D01*
X194254571Y-76906380D01*
X194445047Y-76906380D01*
X194540285Y-76858761D01*
X194587904Y-76811142D01*
X194635523Y-76715904D01*
X194635523Y-75906380D01*
X194968857Y-75906380D02*
X195540285Y-75906380D01*
X195254571Y-76906380D02*
X195254571Y-75906380D01*
X196445047Y-76906380D02*
X196111714Y-76430190D01*
X195873619Y-76906380D02*
X195873619Y-75906380D01*
X196254571Y-75906380D01*
X196349809Y-75954000D01*
X196397428Y-76001619D01*
X196445047Y-76096857D01*
X196445047Y-76239714D01*
X196397428Y-76334952D01*
X196349809Y-76382571D01*
X196254571Y-76430190D01*
X195873619Y-76430190D01*
X196873619Y-76525428D02*
X197635523Y-76525428D01*
X197254571Y-76906380D02*
X197254571Y-76144476D01*
X191714571Y-116530380D02*
X191381238Y-116054190D01*
X191143142Y-116530380D02*
X191143142Y-115530380D01*
X191524095Y-115530380D01*
X191619333Y-115578000D01*
X191666952Y-115625619D01*
X191714571Y-115720857D01*
X191714571Y-115863714D01*
X191666952Y-115958952D01*
X191619333Y-116006571D01*
X191524095Y-116054190D01*
X191143142Y-116054190D01*
X192143142Y-116530380D02*
X192143142Y-115530380D01*
X192619333Y-116530380D02*
X192619333Y-115530380D01*
X193190761Y-116530380D01*
X193190761Y-115530380D01*
X193666952Y-116149428D02*
X194428857Y-116149428D01*
X194047904Y-116530380D02*
X194047904Y-115768476D01*
X173315428Y-106688000D02*
X173220190Y-106640380D01*
X173077333Y-106640380D01*
X172934476Y-106688000D01*
X172839238Y-106783238D01*
X172791619Y-106878476D01*
X172744000Y-107068952D01*
X172744000Y-107211809D01*
X172791619Y-107402285D01*
X172839238Y-107497523D01*
X172934476Y-107592761D01*
X173077333Y-107640380D01*
X173172571Y-107640380D01*
X173315428Y-107592761D01*
X173363047Y-107545142D01*
X173363047Y-107211809D01*
X173172571Y-107211809D01*
X173744000Y-107354666D02*
X174220190Y-107354666D01*
X173648761Y-107640380D02*
X173982095Y-106640380D01*
X174315428Y-107640380D01*
X174648761Y-107640380D02*
X174648761Y-106640380D01*
X175124952Y-107640380D02*
X175124952Y-106640380D01*
X175696380Y-107640380D01*
X175696380Y-106640380D01*
X136342380Y-96178666D02*
X136342380Y-96654857D01*
X135342380Y-96654857D01*
X136342380Y-95321523D02*
X136342380Y-95892952D01*
X136342380Y-95607238D02*
X135342380Y-95607238D01*
X135485238Y-95702476D01*
X135580476Y-95797714D01*
X135628095Y-95892952D01*
X115269380Y-106084666D02*
X114793190Y-106418000D01*
X115269380Y-106656095D02*
X114269380Y-106656095D01*
X114269380Y-106275142D01*
X114317000Y-106179904D01*
X114364619Y-106132285D01*
X114459857Y-106084666D01*
X114602714Y-106084666D01*
X114697952Y-106132285D01*
X114745571Y-106179904D01*
X114793190Y-106275142D01*
X114793190Y-106656095D01*
X115269380Y-105132285D02*
X115269380Y-105703714D01*
X115269380Y-105418000D02*
X114269380Y-105418000D01*
X114412238Y-105513238D01*
X114507476Y-105608476D01*
X114555095Y-105703714D01*
X119204333Y-111324380D02*
X118871000Y-110848190D01*
X118632904Y-111324380D02*
X118632904Y-110324380D01*
X119013857Y-110324380D01*
X119109095Y-110372000D01*
X119156714Y-110419619D01*
X119204333Y-110514857D01*
X119204333Y-110657714D01*
X119156714Y-110752952D01*
X119109095Y-110800571D01*
X119013857Y-110848190D01*
X118632904Y-110848190D01*
X119585285Y-110419619D02*
X119632904Y-110372000D01*
X119728142Y-110324380D01*
X119966238Y-110324380D01*
X120061476Y-110372000D01*
X120109095Y-110419619D01*
X120156714Y-110514857D01*
X120156714Y-110610095D01*
X120109095Y-110752952D01*
X119537666Y-111324380D01*
X120156714Y-111324380D01*
X110314333Y-113862380D02*
X109981000Y-113386190D01*
X109742904Y-113862380D02*
X109742904Y-112862380D01*
X110123857Y-112862380D01*
X110219095Y-112910000D01*
X110266714Y-112957619D01*
X110314333Y-113052857D01*
X110314333Y-113195714D01*
X110266714Y-113290952D01*
X110219095Y-113338571D01*
X110123857Y-113386190D01*
X109742904Y-113386190D01*
X110647666Y-112862380D02*
X111266714Y-112862380D01*
X110933380Y-113243333D01*
X111076238Y-113243333D01*
X111171476Y-113290952D01*
X111219095Y-113338571D01*
X111266714Y-113433809D01*
X111266714Y-113671904D01*
X111219095Y-113767142D01*
X111171476Y-113814761D01*
X111076238Y-113862380D01*
X110790523Y-113862380D01*
X110695285Y-113814761D01*
X110647666Y-113767142D01*
X111466333Y-91121380D02*
X111133000Y-90645190D01*
X110894904Y-91121380D02*
X110894904Y-90121380D01*
X111275857Y-90121380D01*
X111371095Y-90169000D01*
X111418714Y-90216619D01*
X111466333Y-90311857D01*
X111466333Y-90454714D01*
X111418714Y-90549952D01*
X111371095Y-90597571D01*
X111275857Y-90645190D01*
X110894904Y-90645190D01*
X112323476Y-90454714D02*
X112323476Y-91121380D01*
X112085380Y-90073761D02*
X111847285Y-90788047D01*
X112466333Y-90788047D01*
X128856333Y-94814380D02*
X128523000Y-94338190D01*
X128284904Y-94814380D02*
X128284904Y-93814380D01*
X128665857Y-93814380D01*
X128761095Y-93862000D01*
X128808714Y-93909619D01*
X128856333Y-94004857D01*
X128856333Y-94147714D01*
X128808714Y-94242952D01*
X128761095Y-94290571D01*
X128665857Y-94338190D01*
X128284904Y-94338190D01*
X129761095Y-93814380D02*
X129284904Y-93814380D01*
X129237285Y-94290571D01*
X129284904Y-94242952D01*
X129380142Y-94195333D01*
X129618238Y-94195333D01*
X129713476Y-94242952D01*
X129761095Y-94290571D01*
X129808714Y-94385809D01*
X129808714Y-94623904D01*
X129761095Y-94719142D01*
X129713476Y-94766761D01*
X129618238Y-94814380D01*
X129380142Y-94814380D01*
X129284904Y-94766761D01*
X129237285Y-94719142D01*
X107021333Y-115251380D02*
X106688000Y-114775190D01*
X106449904Y-115251380D02*
X106449904Y-114251380D01*
X106830857Y-114251380D01*
X106926095Y-114299000D01*
X106973714Y-114346619D01*
X107021333Y-114441857D01*
X107021333Y-114584714D01*
X106973714Y-114679952D01*
X106926095Y-114727571D01*
X106830857Y-114775190D01*
X106449904Y-114775190D01*
X107878476Y-114251380D02*
X107688000Y-114251380D01*
X107592761Y-114299000D01*
X107545142Y-114346619D01*
X107449904Y-114489476D01*
X107402285Y-114679952D01*
X107402285Y-115060904D01*
X107449904Y-115156142D01*
X107497523Y-115203761D01*
X107592761Y-115251380D01*
X107783238Y-115251380D01*
X107878476Y-115203761D01*
X107926095Y-115156142D01*
X107973714Y-115060904D01*
X107973714Y-114822809D01*
X107926095Y-114727571D01*
X107878476Y-114679952D01*
X107783238Y-114632333D01*
X107592761Y-114632333D01*
X107497523Y-114679952D01*
X107449904Y-114727571D01*
X107402285Y-114822809D01*
X105497333Y-108901380D02*
X105164000Y-108425190D01*
X104925904Y-108901380D02*
X104925904Y-107901380D01*
X105306857Y-107901380D01*
X105402095Y-107949000D01*
X105449714Y-107996619D01*
X105497333Y-108091857D01*
X105497333Y-108234714D01*
X105449714Y-108329952D01*
X105402095Y-108377571D01*
X105306857Y-108425190D01*
X104925904Y-108425190D01*
X105830666Y-107901380D02*
X106497333Y-107901380D01*
X106068761Y-108901380D01*
X110323333Y-108901380D02*
X109990000Y-108425190D01*
X109751904Y-108901380D02*
X109751904Y-107901380D01*
X110132857Y-107901380D01*
X110228095Y-107949000D01*
X110275714Y-107996619D01*
X110323333Y-108091857D01*
X110323333Y-108234714D01*
X110275714Y-108329952D01*
X110228095Y-108377571D01*
X110132857Y-108425190D01*
X109751904Y-108425190D01*
X110894761Y-108329952D02*
X110799523Y-108282333D01*
X110751904Y-108234714D01*
X110704285Y-108139476D01*
X110704285Y-108091857D01*
X110751904Y-107996619D01*
X110799523Y-107949000D01*
X110894761Y-107901380D01*
X111085238Y-107901380D01*
X111180476Y-107949000D01*
X111228095Y-107996619D01*
X111275714Y-108091857D01*
X111275714Y-108139476D01*
X111228095Y-108234714D01*
X111180476Y-108282333D01*
X111085238Y-108329952D01*
X110894761Y-108329952D01*
X110799523Y-108377571D01*
X110751904Y-108425190D01*
X110704285Y-108520428D01*
X110704285Y-108710904D01*
X110751904Y-108806142D01*
X110799523Y-108853761D01*
X110894761Y-108901380D01*
X111085238Y-108901380D01*
X111180476Y-108853761D01*
X111228095Y-108806142D01*
X111275714Y-108710904D01*
X111275714Y-108520428D01*
X111228095Y-108425190D01*
X111180476Y-108377571D01*
X111085238Y-108329952D01*
X164933333Y-86558380D02*
X164600000Y-86082190D01*
X164361904Y-86558380D02*
X164361904Y-85558380D01*
X164742857Y-85558380D01*
X164838095Y-85606000D01*
X164885714Y-85653619D01*
X164933333Y-85748857D01*
X164933333Y-85891714D01*
X164885714Y-85986952D01*
X164838095Y-86034571D01*
X164742857Y-86082190D01*
X164361904Y-86082190D01*
X165409523Y-86558380D02*
X165600000Y-86558380D01*
X165695238Y-86510761D01*
X165742857Y-86463142D01*
X165838095Y-86320285D01*
X165885714Y-86129809D01*
X165885714Y-85748857D01*
X165838095Y-85653619D01*
X165790476Y-85606000D01*
X165695238Y-85558380D01*
X165504761Y-85558380D01*
X165409523Y-85606000D01*
X165361904Y-85653619D01*
X165314285Y-85748857D01*
X165314285Y-85986952D01*
X165361904Y-86082190D01*
X165409523Y-86129809D01*
X165504761Y-86177428D01*
X165695238Y-86177428D01*
X165790476Y-86129809D01*
X165838095Y-86082190D01*
X165885714Y-85986952D01*
X175370142Y-79828380D02*
X175036809Y-79352190D01*
X174798714Y-79828380D02*
X174798714Y-78828380D01*
X175179666Y-78828380D01*
X175274904Y-78876000D01*
X175322523Y-78923619D01*
X175370142Y-79018857D01*
X175370142Y-79161714D01*
X175322523Y-79256952D01*
X175274904Y-79304571D01*
X175179666Y-79352190D01*
X174798714Y-79352190D01*
X176322523Y-79828380D02*
X175751095Y-79828380D01*
X176036809Y-79828380D02*
X176036809Y-78828380D01*
X175941571Y-78971238D01*
X175846333Y-79066476D01*
X175751095Y-79114095D01*
X176941571Y-78828380D02*
X177036809Y-78828380D01*
X177132047Y-78876000D01*
X177179666Y-78923619D01*
X177227285Y-79018857D01*
X177274904Y-79209333D01*
X177274904Y-79447428D01*
X177227285Y-79637904D01*
X177179666Y-79733142D01*
X177132047Y-79780761D01*
X177036809Y-79828380D01*
X176941571Y-79828380D01*
X176846333Y-79780761D01*
X176798714Y-79733142D01*
X176751095Y-79637904D01*
X176703476Y-79447428D01*
X176703476Y-79209333D01*
X176751095Y-79018857D01*
X176798714Y-78923619D01*
X176846333Y-78876000D01*
X176941571Y-78828380D01*
X190111142Y-79954380D02*
X189777809Y-79478190D01*
X189539714Y-79954380D02*
X189539714Y-78954380D01*
X189920666Y-78954380D01*
X190015904Y-79002000D01*
X190063523Y-79049619D01*
X190111142Y-79144857D01*
X190111142Y-79287714D01*
X190063523Y-79382952D01*
X190015904Y-79430571D01*
X189920666Y-79478190D01*
X189539714Y-79478190D01*
X191063523Y-79954380D02*
X190492095Y-79954380D01*
X190777809Y-79954380D02*
X190777809Y-78954380D01*
X190682571Y-79097238D01*
X190587333Y-79192476D01*
X190492095Y-79240095D01*
X192015904Y-79954380D02*
X191444476Y-79954380D01*
X191730190Y-79954380D02*
X191730190Y-78954380D01*
X191634952Y-79097238D01*
X191539714Y-79192476D01*
X191444476Y-79240095D01*
X176395142Y-99258380D02*
X176061809Y-98782190D01*
X175823714Y-99258380D02*
X175823714Y-98258380D01*
X176204666Y-98258380D01*
X176299904Y-98306000D01*
X176347523Y-98353619D01*
X176395142Y-98448857D01*
X176395142Y-98591714D01*
X176347523Y-98686952D01*
X176299904Y-98734571D01*
X176204666Y-98782190D01*
X175823714Y-98782190D01*
X177347523Y-99258380D02*
X176776095Y-99258380D01*
X177061809Y-99258380D02*
X177061809Y-98258380D01*
X176966571Y-98401238D01*
X176871333Y-98496476D01*
X176776095Y-98544095D01*
X177728476Y-98353619D02*
X177776095Y-98306000D01*
X177871333Y-98258380D01*
X178109428Y-98258380D01*
X178204666Y-98306000D01*
X178252285Y-98353619D01*
X178299904Y-98448857D01*
X178299904Y-98544095D01*
X178252285Y-98686952D01*
X177680857Y-99258380D01*
X178299904Y-99258380D01*
X170553142Y-101290380D02*
X170219809Y-100814190D01*
X169981714Y-101290380D02*
X169981714Y-100290380D01*
X170362666Y-100290380D01*
X170457904Y-100338000D01*
X170505523Y-100385619D01*
X170553142Y-100480857D01*
X170553142Y-100623714D01*
X170505523Y-100718952D01*
X170457904Y-100766571D01*
X170362666Y-100814190D01*
X169981714Y-100814190D01*
X171505523Y-101290380D02*
X170934095Y-101290380D01*
X171219809Y-101290380D02*
X171219809Y-100290380D01*
X171124571Y-100433238D01*
X171029333Y-100528476D01*
X170934095Y-100576095D01*
X171838857Y-100290380D02*
X172457904Y-100290380D01*
X172124571Y-100671333D01*
X172267428Y-100671333D01*
X172362666Y-100718952D01*
X172410285Y-100766571D01*
X172457904Y-100861809D01*
X172457904Y-101099904D01*
X172410285Y-101195142D01*
X172362666Y-101242761D01*
X172267428Y-101290380D01*
X171981714Y-101290380D01*
X171886476Y-101242761D01*
X171838857Y-101195142D01*
X201160142Y-86685380D02*
X200826809Y-86209190D01*
X200588714Y-86685380D02*
X200588714Y-85685380D01*
X200969666Y-85685380D01*
X201064904Y-85733000D01*
X201112523Y-85780619D01*
X201160142Y-85875857D01*
X201160142Y-86018714D01*
X201112523Y-86113952D01*
X201064904Y-86161571D01*
X200969666Y-86209190D01*
X200588714Y-86209190D01*
X202112523Y-86685380D02*
X201541095Y-86685380D01*
X201826809Y-86685380D02*
X201826809Y-85685380D01*
X201731571Y-85828238D01*
X201636333Y-85923476D01*
X201541095Y-85971095D01*
X202969666Y-86018714D02*
X202969666Y-86685380D01*
X202731571Y-85637761D02*
X202493476Y-86352047D01*
X203112523Y-86352047D01*
X167710380Y-103114714D02*
X167234190Y-103448047D01*
X167710380Y-103686142D02*
X166710380Y-103686142D01*
X166710380Y-103305190D01*
X166758000Y-103209952D01*
X166805619Y-103162333D01*
X166900857Y-103114714D01*
X167043714Y-103114714D01*
X167138952Y-103162333D01*
X167186571Y-103209952D01*
X167234190Y-103305190D01*
X167234190Y-103686142D01*
X167662761Y-102733761D02*
X167710380Y-102638523D01*
X167710380Y-102448047D01*
X167662761Y-102352809D01*
X167567523Y-102305190D01*
X167519904Y-102305190D01*
X167424666Y-102352809D01*
X167377047Y-102448047D01*
X167377047Y-102590904D01*
X167329428Y-102686142D01*
X167234190Y-102733761D01*
X167186571Y-102733761D01*
X167091333Y-102686142D01*
X167043714Y-102590904D01*
X167043714Y-102448047D01*
X167091333Y-102352809D01*
X167662761Y-101495666D02*
X167710380Y-101590904D01*
X167710380Y-101781380D01*
X167662761Y-101876619D01*
X167567523Y-101924238D01*
X167186571Y-101924238D01*
X167091333Y-101876619D01*
X167043714Y-101781380D01*
X167043714Y-101590904D01*
X167091333Y-101495666D01*
X167186571Y-101448047D01*
X167281809Y-101448047D01*
X167377047Y-101924238D01*
X167043714Y-101019476D02*
X167710380Y-101019476D01*
X167138952Y-101019476D02*
X167091333Y-100971857D01*
X167043714Y-100876619D01*
X167043714Y-100733761D01*
X167091333Y-100638523D01*
X167186571Y-100590904D01*
X167710380Y-100590904D01*
X167662761Y-100162333D02*
X167710380Y-100067095D01*
X167710380Y-99876619D01*
X167662761Y-99781380D01*
X167567523Y-99733761D01*
X167519904Y-99733761D01*
X167424666Y-99781380D01*
X167377047Y-99876619D01*
X167377047Y-100019476D01*
X167329428Y-100114714D01*
X167234190Y-100162333D01*
X167186571Y-100162333D01*
X167091333Y-100114714D01*
X167043714Y-100019476D01*
X167043714Y-99876619D01*
X167091333Y-99781380D01*
X167662761Y-98924238D02*
X167710380Y-99019476D01*
X167710380Y-99209952D01*
X167662761Y-99305190D01*
X167567523Y-99352809D01*
X167186571Y-99352809D01*
X167091333Y-99305190D01*
X167043714Y-99209952D01*
X167043714Y-99019476D01*
X167091333Y-98924238D01*
X167186571Y-98876619D01*
X167281809Y-98876619D01*
X167377047Y-99352809D01*
X167710380Y-97924238D02*
X167710380Y-98495666D01*
X167710380Y-98209952D02*
X166710380Y-98209952D01*
X166853238Y-98305190D01*
X166948476Y-98400428D01*
X166996095Y-98495666D01*
X110688380Y-96916761D02*
X110212190Y-97250095D01*
X110688380Y-97488190D02*
X109688380Y-97488190D01*
X109688380Y-97107238D01*
X109736000Y-97012000D01*
X109783619Y-96964380D01*
X109878857Y-96916761D01*
X110021714Y-96916761D01*
X110116952Y-96964380D01*
X110164571Y-97012000D01*
X110212190Y-97107238D01*
X110212190Y-97488190D01*
X110021714Y-96631047D02*
X110021714Y-96250095D01*
X109688380Y-96488190D02*
X110545523Y-96488190D01*
X110640761Y-96440571D01*
X110688380Y-96345333D01*
X110688380Y-96250095D01*
X110688380Y-95916761D02*
X109688380Y-95916761D01*
X110688380Y-95488190D02*
X110164571Y-95488190D01*
X110069333Y-95535809D01*
X110021714Y-95631047D01*
X110021714Y-95773904D01*
X110069333Y-95869142D01*
X110116952Y-95916761D01*
X110688380Y-94488190D02*
X110688380Y-95059619D01*
X110688380Y-94773904D02*
X109688380Y-94773904D01*
X109831238Y-94869142D01*
X109926476Y-94964380D01*
X109974095Y-95059619D01*
X131627904Y-116458761D02*
X131770761Y-116506380D01*
X132008857Y-116506380D01*
X132104095Y-116458761D01*
X132151714Y-116411142D01*
X132199333Y-116315904D01*
X132199333Y-116220666D01*
X132151714Y-116125428D01*
X132104095Y-116077809D01*
X132008857Y-116030190D01*
X131818380Y-115982571D01*
X131723142Y-115934952D01*
X131675523Y-115887333D01*
X131627904Y-115792095D01*
X131627904Y-115696857D01*
X131675523Y-115601619D01*
X131723142Y-115554000D01*
X131818380Y-115506380D01*
X132056476Y-115506380D01*
X132199333Y-115554000D01*
X132532666Y-115506380D02*
X132770761Y-116506380D01*
X132961238Y-115792095D01*
X133151714Y-116506380D01*
X133389809Y-115506380D01*
X133532666Y-116601619D02*
X134294571Y-116601619D01*
X134485047Y-116220666D02*
X134961238Y-116220666D01*
X134389809Y-116506380D02*
X134723142Y-115506380D01*
X135056476Y-116506380D01*
X135389809Y-116506380D02*
X135389809Y-115506380D01*
X135723142Y-116220666D01*
X136056476Y-115506380D01*
X136056476Y-116506380D01*
X136532666Y-116506380D02*
X136532666Y-115506380D01*
X136913619Y-115506380D01*
X137008857Y-115554000D01*
X137056476Y-115601619D01*
X137104095Y-115696857D01*
X137104095Y-115839714D01*
X137056476Y-115934952D01*
X137008857Y-115982571D01*
X136913619Y-116030190D01*
X136532666Y-116030190D01*
X116332095Y-97242380D02*
X116332095Y-98051904D01*
X116379714Y-98147142D01*
X116427333Y-98194761D01*
X116522571Y-98242380D01*
X116713047Y-98242380D01*
X116808285Y-98194761D01*
X116855904Y-98147142D01*
X116903523Y-98051904D01*
X116903523Y-97242380D01*
X117903523Y-98242380D02*
X117332095Y-98242380D01*
X117617809Y-98242380D02*
X117617809Y-97242380D01*
X117522571Y-97385238D01*
X117427333Y-97480476D01*
X117332095Y-97528095D01*
X116038380Y-113283904D02*
X116847904Y-113283904D01*
X116943142Y-113236285D01*
X116990761Y-113188666D01*
X117038380Y-113093428D01*
X117038380Y-112902952D01*
X116990761Y-112807714D01*
X116943142Y-112760095D01*
X116847904Y-112712476D01*
X116038380Y-112712476D01*
X116133619Y-112283904D02*
X116086000Y-112236285D01*
X116038380Y-112141047D01*
X116038380Y-111902952D01*
X116086000Y-111807714D01*
X116133619Y-111760095D01*
X116228857Y-111712476D01*
X116324095Y-111712476D01*
X116466952Y-111760095D01*
X117038380Y-112331523D01*
X117038380Y-111712476D01*
X121216380Y-119379904D02*
X122025904Y-119379904D01*
X122121142Y-119332285D01*
X122168761Y-119284666D01*
X122216380Y-119189428D01*
X122216380Y-118998952D01*
X122168761Y-118903714D01*
X122121142Y-118856095D01*
X122025904Y-118808476D01*
X121216380Y-118808476D01*
X121216380Y-118427523D02*
X121216380Y-117808476D01*
X121597333Y-118141809D01*
X121597333Y-117998952D01*
X121644952Y-117903714D01*
X121692571Y-117856095D01*
X121787809Y-117808476D01*
X122025904Y-117808476D01*
X122121142Y-117856095D01*
X122168761Y-117903714D01*
X122216380Y-117998952D01*
X122216380Y-118284666D01*
X122168761Y-118379904D01*
X122121142Y-118427523D01*
X108672380Y-119379904D02*
X109481904Y-119379904D01*
X109577142Y-119332285D01*
X109624761Y-119284666D01*
X109672380Y-119189428D01*
X109672380Y-118998952D01*
X109624761Y-118903714D01*
X109577142Y-118856095D01*
X109481904Y-118808476D01*
X108672380Y-118808476D01*
X109005714Y-117903714D02*
X109672380Y-117903714D01*
X108624761Y-118141809D02*
X109339047Y-118379904D01*
X109339047Y-117760857D01*
X155464380Y-93653904D02*
X156273904Y-93653904D01*
X156369142Y-93606285D01*
X156416761Y-93558666D01*
X156464380Y-93463428D01*
X156464380Y-93272952D01*
X156416761Y-93177714D01*
X156369142Y-93130095D01*
X156273904Y-93082476D01*
X155464380Y-93082476D01*
X155464380Y-92130095D02*
X155464380Y-92606285D01*
X155940571Y-92653904D01*
X155892952Y-92606285D01*
X155845333Y-92511047D01*
X155845333Y-92272952D01*
X155892952Y-92177714D01*
X155940571Y-92130095D01*
X156035809Y-92082476D01*
X156273904Y-92082476D01*
X156369142Y-92130095D01*
X156416761Y-92177714D01*
X156464380Y-92272952D01*
X156464380Y-92511047D01*
X156416761Y-92606285D01*
X156369142Y-92653904D01*
X159004095Y-97906380D02*
X159004095Y-98715904D01*
X159051714Y-98811142D01*
X159099333Y-98858761D01*
X159194571Y-98906380D01*
X159385047Y-98906380D01*
X159480285Y-98858761D01*
X159527904Y-98811142D01*
X159575523Y-98715904D01*
X159575523Y-97906380D01*
X160480285Y-97906380D02*
X160289809Y-97906380D01*
X160194571Y-97954000D01*
X160146952Y-98001619D01*
X160051714Y-98144476D01*
X160004095Y-98334952D01*
X160004095Y-98715904D01*
X160051714Y-98811142D01*
X160099333Y-98858761D01*
X160194571Y-98906380D01*
X160385047Y-98906380D01*
X160480285Y-98858761D01*
X160527904Y-98811142D01*
X160575523Y-98715904D01*
X160575523Y-98477809D01*
X160527904Y-98382571D01*
X160480285Y-98334952D01*
X160385047Y-98287333D01*
X160194571Y-98287333D01*
X160099333Y-98334952D01*
X160051714Y-98382571D01*
X160004095Y-98477809D01*
X177040380Y-96519904D02*
X177849904Y-96519904D01*
X177945142Y-96472285D01*
X177992761Y-96424666D01*
X178040380Y-96329428D01*
X178040380Y-96138952D01*
X177992761Y-96043714D01*
X177945142Y-95996095D01*
X177849904Y-95948476D01*
X177040380Y-95948476D01*
X177040380Y-95567523D02*
X177040380Y-94900857D01*
X178040380Y-95329428D01*
X117038666Y-94956380D02*
X117372000Y-95956380D01*
X117705333Y-94956380D01*
X118372000Y-95432571D02*
X118514857Y-95480190D01*
X118562476Y-95527809D01*
X118610095Y-95623047D01*
X118610095Y-95765904D01*
X118562476Y-95861142D01*
X118514857Y-95908761D01*
X118419619Y-95956380D01*
X118038666Y-95956380D01*
X118038666Y-94956380D01*
X118372000Y-94956380D01*
X118467238Y-95004000D01*
X118514857Y-95051619D01*
X118562476Y-95146857D01*
X118562476Y-95242095D01*
X118514857Y-95337333D01*
X118467238Y-95384952D01*
X118372000Y-95432571D01*
X118038666Y-95432571D01*
X119038666Y-94956380D02*
X119038666Y-95765904D01*
X119086285Y-95861142D01*
X119133904Y-95908761D01*
X119229142Y-95956380D01*
X119419619Y-95956380D01*
X119514857Y-95908761D01*
X119562476Y-95861142D01*
X119610095Y-95765904D01*
X119610095Y-94956380D01*
X120038666Y-95908761D02*
X120181523Y-95956380D01*
X120419619Y-95956380D01*
X120514857Y-95908761D01*
X120562476Y-95861142D01*
X120610095Y-95765904D01*
X120610095Y-95670666D01*
X120562476Y-95575428D01*
X120514857Y-95527809D01*
X120419619Y-95480190D01*
X120229142Y-95432571D01*
X120133904Y-95384952D01*
X120086285Y-95337333D01*
X120038666Y-95242095D01*
X120038666Y-95146857D01*
X120086285Y-95051619D01*
X120133904Y-95004000D01*
X120229142Y-94956380D01*
X120467238Y-94956380D01*
X120610095Y-95004000D01*
X117879904Y-102262571D02*
X118022761Y-102310190D01*
X118070380Y-102357809D01*
X118118000Y-102453047D01*
X118118000Y-102595904D01*
X118070380Y-102691142D01*
X118022761Y-102738761D01*
X117927523Y-102786380D01*
X117546571Y-102786380D01*
X117546571Y-101786380D01*
X117879904Y-101786380D01*
X117975142Y-101834000D01*
X118022761Y-101881619D01*
X118070380Y-101976857D01*
X118070380Y-102072095D01*
X118022761Y-102167333D01*
X117975142Y-102214952D01*
X117879904Y-102262571D01*
X117546571Y-102262571D01*
X118498952Y-102500666D02*
X118975142Y-102500666D01*
X118403714Y-102786380D02*
X118737047Y-101786380D01*
X119070380Y-102786380D01*
X119260857Y-101786380D02*
X119832285Y-101786380D01*
X119546571Y-102786380D02*
X119546571Y-101786380D01*
X106068952Y-121007142D02*
X106021333Y-121054761D01*
X105878476Y-121102380D01*
X105783238Y-121102380D01*
X105640380Y-121054761D01*
X105545142Y-120959523D01*
X105497523Y-120864285D01*
X105449904Y-120673809D01*
X105449904Y-120530952D01*
X105497523Y-120340476D01*
X105545142Y-120245238D01*
X105640380Y-120150000D01*
X105783238Y-120102380D01*
X105878476Y-120102380D01*
X106021333Y-120150000D01*
X106068952Y-120197619D01*
X106688000Y-120102380D02*
X106878476Y-120102380D01*
X106973714Y-120150000D01*
X107068952Y-120245238D01*
X107116571Y-120435714D01*
X107116571Y-120769047D01*
X107068952Y-120959523D01*
X106973714Y-121054761D01*
X106878476Y-121102380D01*
X106688000Y-121102380D01*
X106592761Y-121054761D01*
X106497523Y-120959523D01*
X106449904Y-120769047D01*
X106449904Y-120435714D01*
X106497523Y-120245238D01*
X106592761Y-120150000D01*
X106688000Y-120102380D01*
X107545142Y-120102380D02*
X107545142Y-120911904D01*
X107592761Y-121007142D01*
X107640380Y-121054761D01*
X107735619Y-121102380D01*
X107926095Y-121102380D01*
X108021333Y-121054761D01*
X108068952Y-121007142D01*
X108116571Y-120911904D01*
X108116571Y-120102380D01*
X108449904Y-120102380D02*
X109021333Y-120102380D01*
X108735619Y-121102380D02*
X108735619Y-120102380D01*
X122261523Y-122626380D02*
X122261523Y-121626380D01*
X122499619Y-121626380D01*
X122642476Y-121674000D01*
X122737714Y-121769238D01*
X122785333Y-121864476D01*
X122832952Y-122054952D01*
X122832952Y-122197809D01*
X122785333Y-122388285D01*
X122737714Y-122483523D01*
X122642476Y-122578761D01*
X122499619Y-122626380D01*
X122261523Y-122626380D01*
X123452000Y-121626380D02*
X123642476Y-121626380D01*
X123737714Y-121674000D01*
X123832952Y-121769238D01*
X123880571Y-121959714D01*
X123880571Y-122293047D01*
X123832952Y-122483523D01*
X123737714Y-122578761D01*
X123642476Y-122626380D01*
X123452000Y-122626380D01*
X123356761Y-122578761D01*
X123261523Y-122483523D01*
X123213904Y-122293047D01*
X123213904Y-121959714D01*
X123261523Y-121769238D01*
X123356761Y-121674000D01*
X123452000Y-121626380D01*
X124309142Y-121626380D02*
X124309142Y-122435904D01*
X124356761Y-122531142D01*
X124404380Y-122578761D01*
X124499619Y-122626380D01*
X124690095Y-122626380D01*
X124785333Y-122578761D01*
X124832952Y-122531142D01*
X124880571Y-122435904D01*
X124880571Y-121626380D01*
X125213904Y-121626380D02*
X125785333Y-121626380D01*
X125499619Y-122626380D02*
X125499619Y-121626380D01*
X157622952Y-85768380D02*
X157051523Y-85768380D01*
X157337238Y-85768380D02*
X157337238Y-84768380D01*
X157242000Y-84911238D01*
X157146761Y-85006476D01*
X157051523Y-85054095D01*
X158003904Y-84863619D02*
X158051523Y-84816000D01*
X158146761Y-84768380D01*
X158384857Y-84768380D01*
X158480095Y-84816000D01*
X158527714Y-84863619D01*
X158575333Y-84958857D01*
X158575333Y-85054095D01*
X158527714Y-85196952D01*
X157956285Y-85768380D01*
X158575333Y-85768380D01*
X158861047Y-84768380D02*
X159194380Y-85768380D01*
X159527714Y-84768380D01*
X153741571Y-98861571D02*
X154074904Y-98861571D01*
X154217761Y-99385380D02*
X153741571Y-99385380D01*
X153741571Y-98385380D01*
X154217761Y-98385380D01*
X154551095Y-98385380D02*
X155217761Y-99385380D01*
X155217761Y-98385380D02*
X154551095Y-99385380D01*
X155455857Y-98385380D02*
X156027285Y-98385380D01*
X155741571Y-99385380D02*
X155741571Y-98385380D01*
X190333714Y-99988666D02*
X190809904Y-99988666D01*
X190238476Y-100274380D02*
X190571809Y-99274380D01*
X190905142Y-100274380D01*
X191238476Y-100274380D02*
X191238476Y-99274380D01*
X191571809Y-99988666D01*
X191905142Y-99274380D01*
X191905142Y-100274380D01*
X192381333Y-100274380D02*
X192381333Y-99274380D01*
X192762285Y-99274380D01*
X192857523Y-99322000D01*
X192905142Y-99369619D01*
X192952761Y-99464857D01*
X192952761Y-99607714D01*
X192905142Y-99702952D01*
X192857523Y-99750571D01*
X192762285Y-99798190D01*
X192381333Y-99798190D01*
X193143238Y-100369619D02*
X193905142Y-100369619D01*
X194667047Y-99322000D02*
X194571809Y-99274380D01*
X194428952Y-99274380D01*
X194286095Y-99322000D01*
X194190857Y-99417238D01*
X194143238Y-99512476D01*
X194095619Y-99702952D01*
X194095619Y-99845809D01*
X194143238Y-100036285D01*
X194190857Y-100131523D01*
X194286095Y-100226761D01*
X194428952Y-100274380D01*
X194524190Y-100274380D01*
X194667047Y-100226761D01*
X194714666Y-100179142D01*
X194714666Y-99845809D01*
X194524190Y-99845809D01*
X195143238Y-100274380D02*
X195143238Y-99274380D01*
X195714666Y-100274380D01*
X195714666Y-99274380D01*
X196190857Y-100274380D02*
X196190857Y-99274380D01*
X196428952Y-99274380D01*
X196571809Y-99322000D01*
X196667047Y-99417238D01*
X196714666Y-99512476D01*
X196762285Y-99702952D01*
X196762285Y-99845809D01*
X196714666Y-100036285D01*
X196667047Y-100131523D01*
X196571809Y-100226761D01*
X196428952Y-100274380D01*
X196190857Y-100274380D01*
M02*
