G04 #@! TF.GenerationSoftware,KiCad,Pcbnew,(5.1.5)-3*
G04 #@! TF.CreationDate,2020-04-26T18:29:29-05:00*
G04 #@! TF.ProjectId,SolarBTSpeaker,536f6c61-7242-4545-9370-65616b65722e,rev?*
G04 #@! TF.SameCoordinates,Original*
G04 #@! TF.FileFunction,Soldermask,Bot*
G04 #@! TF.FilePolarity,Negative*
%FSLAX46Y46*%
G04 Gerber Fmt 4.6, Leading zero omitted, Abs format (unit mm)*
G04 Created by KiCad (PCBNEW (5.1.5)-3) date 2020-04-26 18:29:29*
%MOMM*%
%LPD*%
G04 APERTURE LIST*
%ADD10C,0.050000*%
%ADD11C,0.150000*%
G04 APERTURE END LIST*
D10*
X69850000Y-40005000D02*
X189865000Y-40005000D01*
X69850000Y-92075000D02*
X69850000Y-40005000D01*
X189865000Y-92075000D02*
X69850000Y-92075000D01*
X189865000Y-40005000D02*
X189865000Y-92075000D01*
D11*
G36*
X185947787Y-83707462D02*
G01*
X186039667Y-83745520D01*
X186594029Y-83975144D01*
X187175631Y-84363758D01*
X187670242Y-84858369D01*
X188058856Y-85439971D01*
X188173541Y-85716845D01*
X188326538Y-86086213D01*
X188463000Y-86772256D01*
X188463000Y-87471744D01*
X188326538Y-88157787D01*
X188326537Y-88157789D01*
X188058856Y-88804029D01*
X187670242Y-89385631D01*
X187175631Y-89880242D01*
X186594029Y-90268856D01*
X186137068Y-90458135D01*
X185947787Y-90536538D01*
X185261744Y-90673000D01*
X184562256Y-90673000D01*
X183876213Y-90536538D01*
X183686932Y-90458135D01*
X183229971Y-90268856D01*
X182648369Y-89880242D01*
X182153758Y-89385631D01*
X181765144Y-88804029D01*
X181497463Y-88157789D01*
X181497462Y-88157787D01*
X181361000Y-87471744D01*
X181361000Y-86772256D01*
X181497462Y-86086213D01*
X181650459Y-85716845D01*
X181765144Y-85439971D01*
X182153758Y-84858369D01*
X182648369Y-84363758D01*
X183229971Y-83975144D01*
X183784333Y-83745520D01*
X183876213Y-83707462D01*
X184562256Y-83571000D01*
X185261744Y-83571000D01*
X185947787Y-83707462D01*
G37*
G36*
X76219787Y-83707462D02*
G01*
X76311667Y-83745520D01*
X76866029Y-83975144D01*
X77447631Y-84363758D01*
X77942242Y-84858369D01*
X78330856Y-85439971D01*
X78445541Y-85716845D01*
X78598538Y-86086213D01*
X78735000Y-86772256D01*
X78735000Y-87471744D01*
X78598538Y-88157787D01*
X78598537Y-88157789D01*
X78330856Y-88804029D01*
X77942242Y-89385631D01*
X77447631Y-89880242D01*
X76866029Y-90268856D01*
X76409068Y-90458135D01*
X76219787Y-90536538D01*
X75533744Y-90673000D01*
X74834256Y-90673000D01*
X74148213Y-90536538D01*
X73958932Y-90458135D01*
X73501971Y-90268856D01*
X72920369Y-89880242D01*
X72425758Y-89385631D01*
X72037144Y-88804029D01*
X71769463Y-88157789D01*
X71769462Y-88157787D01*
X71633000Y-87471744D01*
X71633000Y-86772256D01*
X71769462Y-86086213D01*
X71922459Y-85716845D01*
X72037144Y-85439971D01*
X72425758Y-84858369D01*
X72920369Y-84363758D01*
X73501971Y-83975144D01*
X74056333Y-83745520D01*
X74148213Y-83707462D01*
X74834256Y-83571000D01*
X75533744Y-83571000D01*
X76219787Y-83707462D01*
G37*
G36*
X108548326Y-81593578D02*
G01*
X108910586Y-81743631D01*
X108921631Y-81748206D01*
X109257596Y-81972690D01*
X109543310Y-82258404D01*
X109767794Y-82594369D01*
X109767795Y-82594371D01*
X109922422Y-82967674D01*
X110001250Y-83363968D01*
X110001250Y-83768032D01*
X109922422Y-84164326D01*
X109836477Y-84371815D01*
X109767794Y-84537631D01*
X109543310Y-84873596D01*
X109257596Y-85159310D01*
X108921631Y-85383794D01*
X108921630Y-85383795D01*
X108921629Y-85383795D01*
X108548326Y-85538422D01*
X108152032Y-85617250D01*
X107747968Y-85617250D01*
X107351674Y-85538422D01*
X106978371Y-85383795D01*
X106978370Y-85383795D01*
X106978369Y-85383794D01*
X106642404Y-85159310D01*
X106356690Y-84873596D01*
X106132206Y-84537631D01*
X106063523Y-84371815D01*
X105977578Y-84164326D01*
X105898750Y-83768032D01*
X105898750Y-83363968D01*
X105977578Y-82967674D01*
X106132205Y-82594371D01*
X106132206Y-82594369D01*
X106356690Y-82258404D01*
X106642404Y-81972690D01*
X106978369Y-81748206D01*
X106989414Y-81743631D01*
X107351674Y-81593578D01*
X107747968Y-81514750D01*
X108152032Y-81514750D01*
X108548326Y-81593578D01*
G37*
G36*
X132328228Y-83469703D02*
G01*
X132483100Y-83533853D01*
X132622481Y-83626985D01*
X132741015Y-83745519D01*
X132834147Y-83884900D01*
X132898297Y-84039772D01*
X132931000Y-84204184D01*
X132931000Y-84371816D01*
X132898297Y-84536228D01*
X132834147Y-84691100D01*
X132741015Y-84830481D01*
X132622481Y-84949015D01*
X132483100Y-85042147D01*
X132328228Y-85106297D01*
X132163816Y-85139000D01*
X131996184Y-85139000D01*
X131831772Y-85106297D01*
X131676900Y-85042147D01*
X131537519Y-84949015D01*
X131418985Y-84830481D01*
X131325853Y-84691100D01*
X131261703Y-84536228D01*
X131229000Y-84371816D01*
X131229000Y-84204184D01*
X131261703Y-84039772D01*
X131325853Y-83884900D01*
X131418985Y-83745519D01*
X131537519Y-83626985D01*
X131676900Y-83533853D01*
X131831772Y-83469703D01*
X131996184Y-83437000D01*
X132163816Y-83437000D01*
X132328228Y-83469703D01*
G37*
G36*
X140964228Y-83469703D02*
G01*
X141119100Y-83533853D01*
X141258481Y-83626985D01*
X141377015Y-83745519D01*
X141470147Y-83884900D01*
X141534297Y-84039772D01*
X141567000Y-84204184D01*
X141567000Y-84371816D01*
X141534297Y-84536228D01*
X141470147Y-84691100D01*
X141377015Y-84830481D01*
X141258481Y-84949015D01*
X141119100Y-85042147D01*
X140964228Y-85106297D01*
X140799816Y-85139000D01*
X140632184Y-85139000D01*
X140467772Y-85106297D01*
X140312900Y-85042147D01*
X140173519Y-84949015D01*
X140054985Y-84830481D01*
X139961853Y-84691100D01*
X139897703Y-84536228D01*
X139865000Y-84371816D01*
X139865000Y-84204184D01*
X139897703Y-84039772D01*
X139961853Y-83884900D01*
X140054985Y-83745519D01*
X140173519Y-83626985D01*
X140312900Y-83533853D01*
X140467772Y-83469703D01*
X140632184Y-83437000D01*
X140799816Y-83437000D01*
X140964228Y-83469703D01*
G37*
G36*
X154014326Y-78799578D02*
G01*
X154387629Y-78954205D01*
X154387631Y-78954206D01*
X154723596Y-79178690D01*
X155009310Y-79464404D01*
X155233794Y-79800369D01*
X155233795Y-79800371D01*
X155388422Y-80173674D01*
X155467250Y-80569968D01*
X155467250Y-80974032D01*
X155388422Y-81370326D01*
X155354267Y-81452784D01*
X155233794Y-81743631D01*
X155009310Y-82079596D01*
X154723596Y-82365310D01*
X154387631Y-82589794D01*
X154387630Y-82589795D01*
X154387629Y-82589795D01*
X154014326Y-82744422D01*
X153618032Y-82823250D01*
X153213968Y-82823250D01*
X152817674Y-82744422D01*
X152444371Y-82589795D01*
X152444370Y-82589795D01*
X152444369Y-82589794D01*
X152108404Y-82365310D01*
X151822690Y-82079596D01*
X151598206Y-81743631D01*
X151477733Y-81452784D01*
X151443578Y-81370326D01*
X151364750Y-80974032D01*
X151364750Y-80569968D01*
X151443578Y-80173674D01*
X151598205Y-79800371D01*
X151598206Y-79800369D01*
X151822690Y-79464404D01*
X152108404Y-79178690D01*
X152444369Y-78954206D01*
X152444371Y-78954205D01*
X152817674Y-78799578D01*
X153213968Y-78720750D01*
X153618032Y-78720750D01*
X154014326Y-78799578D01*
G37*
G36*
X160110326Y-78799578D02*
G01*
X160483629Y-78954205D01*
X160483631Y-78954206D01*
X160819596Y-79178690D01*
X161105310Y-79464404D01*
X161329794Y-79800369D01*
X161329795Y-79800371D01*
X161484422Y-80173674D01*
X161563250Y-80569968D01*
X161563250Y-80974032D01*
X161484422Y-81370326D01*
X161450267Y-81452784D01*
X161329794Y-81743631D01*
X161105310Y-82079596D01*
X160819596Y-82365310D01*
X160483631Y-82589794D01*
X160483630Y-82589795D01*
X160483629Y-82589795D01*
X160110326Y-82744422D01*
X159714032Y-82823250D01*
X159309968Y-82823250D01*
X158913674Y-82744422D01*
X158540371Y-82589795D01*
X158540370Y-82589795D01*
X158540369Y-82589794D01*
X158204404Y-82365310D01*
X157918690Y-82079596D01*
X157694206Y-81743631D01*
X157573733Y-81452784D01*
X157539578Y-81370326D01*
X157460750Y-80974032D01*
X157460750Y-80569968D01*
X157539578Y-80173674D01*
X157694205Y-79800371D01*
X157694206Y-79800369D01*
X157918690Y-79464404D01*
X158204404Y-79178690D01*
X158540369Y-78954206D01*
X158540371Y-78954205D01*
X158913674Y-78799578D01*
X159309968Y-78720750D01*
X159714032Y-78720750D01*
X160110326Y-78799578D01*
G37*
G36*
X169000326Y-78799578D02*
G01*
X169373629Y-78954205D01*
X169373631Y-78954206D01*
X169709596Y-79178690D01*
X169995310Y-79464404D01*
X170219794Y-79800369D01*
X170219795Y-79800371D01*
X170374422Y-80173674D01*
X170453250Y-80569968D01*
X170453250Y-80974032D01*
X170374422Y-81370326D01*
X170340267Y-81452784D01*
X170219794Y-81743631D01*
X169995310Y-82079596D01*
X169709596Y-82365310D01*
X169373631Y-82589794D01*
X169373630Y-82589795D01*
X169373629Y-82589795D01*
X169000326Y-82744422D01*
X168604032Y-82823250D01*
X168199968Y-82823250D01*
X167803674Y-82744422D01*
X167430371Y-82589795D01*
X167430370Y-82589795D01*
X167430369Y-82589794D01*
X167094404Y-82365310D01*
X166808690Y-82079596D01*
X166584206Y-81743631D01*
X166463733Y-81452784D01*
X166429578Y-81370326D01*
X166350750Y-80974032D01*
X166350750Y-80569968D01*
X166429578Y-80173674D01*
X166584205Y-79800371D01*
X166584206Y-79800369D01*
X166808690Y-79464404D01*
X167094404Y-79178690D01*
X167430369Y-78954206D01*
X167430371Y-78954205D01*
X167803674Y-78799578D01*
X168199968Y-78720750D01*
X168604032Y-78720750D01*
X169000326Y-78799578D01*
G37*
G36*
X175096326Y-78799578D02*
G01*
X175469629Y-78954205D01*
X175469631Y-78954206D01*
X175805596Y-79178690D01*
X176091310Y-79464404D01*
X176315794Y-79800369D01*
X176315795Y-79800371D01*
X176470422Y-80173674D01*
X176549250Y-80569968D01*
X176549250Y-80974032D01*
X176470422Y-81370326D01*
X176436267Y-81452784D01*
X176315794Y-81743631D01*
X176091310Y-82079596D01*
X175805596Y-82365310D01*
X175469631Y-82589794D01*
X175469630Y-82589795D01*
X175469629Y-82589795D01*
X175096326Y-82744422D01*
X174700032Y-82823250D01*
X174295968Y-82823250D01*
X173899674Y-82744422D01*
X173526371Y-82589795D01*
X173526370Y-82589795D01*
X173526369Y-82589794D01*
X173190404Y-82365310D01*
X172904690Y-82079596D01*
X172680206Y-81743631D01*
X172559733Y-81452784D01*
X172525578Y-81370326D01*
X172446750Y-80974032D01*
X172446750Y-80569968D01*
X172525578Y-80173674D01*
X172680205Y-79800371D01*
X172680206Y-79800369D01*
X172904690Y-79464404D01*
X173190404Y-79178690D01*
X173526369Y-78954206D01*
X173526371Y-78954205D01*
X173899674Y-78799578D01*
X174295968Y-78720750D01*
X174700032Y-78720750D01*
X175096326Y-78799578D01*
G37*
G36*
X141567000Y-82639000D02*
G01*
X139865000Y-82639000D01*
X139865000Y-80937000D01*
X141567000Y-80937000D01*
X141567000Y-82639000D01*
G37*
G36*
X132931000Y-82639000D02*
G01*
X131229000Y-82639000D01*
X131229000Y-80937000D01*
X132931000Y-80937000D01*
X132931000Y-82639000D01*
G37*
G36*
X116191512Y-80129927D02*
G01*
X116340812Y-80159624D01*
X116504784Y-80227544D01*
X116652354Y-80326147D01*
X116777853Y-80451646D01*
X116876456Y-80599216D01*
X116944376Y-80763188D01*
X116974073Y-80912488D01*
X116978949Y-80937000D01*
X116979000Y-80937259D01*
X116979000Y-81114741D01*
X116944376Y-81288812D01*
X116876456Y-81452784D01*
X116777853Y-81600354D01*
X116652354Y-81725853D01*
X116504784Y-81824456D01*
X116340812Y-81892376D01*
X116191512Y-81922073D01*
X116166742Y-81927000D01*
X115989258Y-81927000D01*
X115964488Y-81922073D01*
X115815188Y-81892376D01*
X115651216Y-81824456D01*
X115503646Y-81725853D01*
X115378147Y-81600354D01*
X115279544Y-81452784D01*
X115211624Y-81288812D01*
X115177000Y-81114741D01*
X115177000Y-80937259D01*
X115177052Y-80937000D01*
X115181927Y-80912488D01*
X115211624Y-80763188D01*
X115279544Y-80599216D01*
X115378147Y-80451646D01*
X115503646Y-80326147D01*
X115651216Y-80227544D01*
X115815188Y-80159624D01*
X115964488Y-80129927D01*
X115989258Y-80125000D01*
X116166742Y-80125000D01*
X116191512Y-80129927D01*
G37*
G36*
X116191512Y-77589927D02*
G01*
X116340812Y-77619624D01*
X116504784Y-77687544D01*
X116652354Y-77786147D01*
X116777853Y-77911646D01*
X116876456Y-78059216D01*
X116944376Y-78223188D01*
X116979000Y-78397259D01*
X116979000Y-78574741D01*
X116944376Y-78748812D01*
X116876456Y-78912784D01*
X116777853Y-79060354D01*
X116652354Y-79185853D01*
X116504784Y-79284456D01*
X116340812Y-79352376D01*
X116191512Y-79382073D01*
X116166742Y-79387000D01*
X115989258Y-79387000D01*
X115964488Y-79382073D01*
X115815188Y-79352376D01*
X115651216Y-79284456D01*
X115503646Y-79185853D01*
X115378147Y-79060354D01*
X115279544Y-78912784D01*
X115211624Y-78748812D01*
X115177000Y-78574741D01*
X115177000Y-78397259D01*
X115211624Y-78223188D01*
X115279544Y-78059216D01*
X115378147Y-77911646D01*
X115503646Y-77786147D01*
X115651216Y-77687544D01*
X115815188Y-77619624D01*
X115964488Y-77589927D01*
X115989258Y-77585000D01*
X116166742Y-77585000D01*
X116191512Y-77589927D01*
G37*
G36*
X126486228Y-77119703D02*
G01*
X126641100Y-77183853D01*
X126780481Y-77276985D01*
X126899015Y-77395519D01*
X126992147Y-77534900D01*
X127056297Y-77689772D01*
X127089000Y-77854184D01*
X127089000Y-78021816D01*
X127056297Y-78186228D01*
X126992147Y-78341100D01*
X126899015Y-78480481D01*
X126780481Y-78599015D01*
X126641100Y-78692147D01*
X126486228Y-78756297D01*
X126321816Y-78789000D01*
X126154184Y-78789000D01*
X125989772Y-78756297D01*
X125834900Y-78692147D01*
X125695519Y-78599015D01*
X125576985Y-78480481D01*
X125483853Y-78341100D01*
X125419703Y-78186228D01*
X125387000Y-78021816D01*
X125387000Y-77854184D01*
X125419703Y-77689772D01*
X125483853Y-77534900D01*
X125576985Y-77395519D01*
X125695519Y-77276985D01*
X125834900Y-77183853D01*
X125989772Y-77119703D01*
X126154184Y-77087000D01*
X126321816Y-77087000D01*
X126486228Y-77119703D01*
G37*
G36*
X108548326Y-74735578D02*
G01*
X108548329Y-74735579D01*
X108548328Y-74735579D01*
X108921631Y-74890206D01*
X109257596Y-75114690D01*
X109543310Y-75400404D01*
X109767794Y-75736369D01*
X109767795Y-75736371D01*
X109922422Y-76109674D01*
X110001250Y-76505968D01*
X110001250Y-76910032D01*
X109922422Y-77306326D01*
X109792650Y-77619624D01*
X109767794Y-77679631D01*
X109543310Y-78015596D01*
X109257596Y-78301310D01*
X108921631Y-78525794D01*
X108921630Y-78525795D01*
X108921629Y-78525795D01*
X108548326Y-78680422D01*
X108152032Y-78759250D01*
X107747968Y-78759250D01*
X107351674Y-78680422D01*
X106978371Y-78525795D01*
X106978370Y-78525795D01*
X106978369Y-78525794D01*
X106642404Y-78301310D01*
X106356690Y-78015596D01*
X106132206Y-77679631D01*
X106107350Y-77619624D01*
X105977578Y-77306326D01*
X105898750Y-76910032D01*
X105898750Y-76505968D01*
X105977578Y-76109674D01*
X106132205Y-75736371D01*
X106132206Y-75736369D01*
X106356690Y-75400404D01*
X106642404Y-75114690D01*
X106978369Y-74890206D01*
X107351672Y-74735579D01*
X107351671Y-74735579D01*
X107351674Y-74735578D01*
X107747968Y-74656750D01*
X108152032Y-74656750D01*
X108548326Y-74735578D01*
G37*
G36*
X116979000Y-76847000D02*
G01*
X115177000Y-76847000D01*
X115177000Y-75045000D01*
X116979000Y-75045000D01*
X116979000Y-76847000D01*
G37*
G36*
X127089000Y-76289000D02*
G01*
X125387000Y-76289000D01*
X125387000Y-74587000D01*
X127089000Y-74587000D01*
X127089000Y-76289000D01*
G37*
G36*
X92479395Y-72237546D02*
G01*
X92652466Y-72309234D01*
X92652467Y-72309235D01*
X92808227Y-72413310D01*
X92940690Y-72545773D01*
X92940691Y-72545775D01*
X93044766Y-72701534D01*
X93116454Y-72874605D01*
X93153000Y-73058333D01*
X93153000Y-73245667D01*
X93116454Y-73429395D01*
X93044766Y-73602466D01*
X93044765Y-73602467D01*
X92940690Y-73758227D01*
X92808227Y-73890690D01*
X92729818Y-73943081D01*
X92652466Y-73994766D01*
X92479395Y-74066454D01*
X92295667Y-74103000D01*
X92108333Y-74103000D01*
X91924605Y-74066454D01*
X91751534Y-73994766D01*
X91674182Y-73943081D01*
X91595773Y-73890690D01*
X91463310Y-73758227D01*
X91359235Y-73602467D01*
X91359234Y-73602466D01*
X91287546Y-73429395D01*
X91251000Y-73245667D01*
X91251000Y-73058333D01*
X91287546Y-72874605D01*
X91359234Y-72701534D01*
X91463309Y-72545775D01*
X91463310Y-72545773D01*
X91595773Y-72413310D01*
X91751533Y-72309235D01*
X91751534Y-72309234D01*
X91924605Y-72237546D01*
X92108333Y-72201000D01*
X92295667Y-72201000D01*
X92479395Y-72237546D01*
G37*
G36*
X87653395Y-72237546D02*
G01*
X87826466Y-72309234D01*
X87826467Y-72309235D01*
X87982227Y-72413310D01*
X88114690Y-72545773D01*
X88114691Y-72545775D01*
X88218766Y-72701534D01*
X88290454Y-72874605D01*
X88327000Y-73058333D01*
X88327000Y-73245667D01*
X88290454Y-73429395D01*
X88218766Y-73602466D01*
X88218765Y-73602467D01*
X88114690Y-73758227D01*
X87982227Y-73890690D01*
X87903818Y-73943081D01*
X87826466Y-73994766D01*
X87653395Y-74066454D01*
X87469667Y-74103000D01*
X87282333Y-74103000D01*
X87098605Y-74066454D01*
X86925534Y-73994766D01*
X86848182Y-73943081D01*
X86769773Y-73890690D01*
X86637310Y-73758227D01*
X86533235Y-73602467D01*
X86533234Y-73602466D01*
X86461546Y-73429395D01*
X86425000Y-73245667D01*
X86425000Y-73058333D01*
X86461546Y-72874605D01*
X86533234Y-72701534D01*
X86637309Y-72545775D01*
X86637310Y-72545773D01*
X86769773Y-72413310D01*
X86925533Y-72309235D01*
X86925534Y-72309234D01*
X87098605Y-72237546D01*
X87282333Y-72201000D01*
X87469667Y-72201000D01*
X87653395Y-72237546D01*
G37*
G36*
X156857000Y-73799000D02*
G01*
X155055000Y-73799000D01*
X155055000Y-71997000D01*
X156857000Y-71997000D01*
X156857000Y-73799000D01*
G37*
G36*
X88327000Y-71563000D02*
G01*
X86425000Y-71563000D01*
X86425000Y-69661000D01*
X88327000Y-69661000D01*
X88327000Y-71563000D01*
G37*
G36*
X93153000Y-71563000D02*
G01*
X91251000Y-71563000D01*
X91251000Y-69661000D01*
X93153000Y-69661000D01*
X93153000Y-71563000D01*
G37*
G36*
X156069512Y-69461927D02*
G01*
X156218812Y-69491624D01*
X156382784Y-69559544D01*
X156530354Y-69658147D01*
X156655853Y-69783646D01*
X156754456Y-69931216D01*
X156822376Y-70095188D01*
X156857000Y-70269259D01*
X156857000Y-70446741D01*
X156822376Y-70620812D01*
X156754456Y-70784784D01*
X156655853Y-70932354D01*
X156530354Y-71057853D01*
X156382784Y-71156456D01*
X156218812Y-71224376D01*
X156069512Y-71254073D01*
X156044742Y-71259000D01*
X155867258Y-71259000D01*
X155842488Y-71254073D01*
X155693188Y-71224376D01*
X155529216Y-71156456D01*
X155381646Y-71057853D01*
X155256147Y-70932354D01*
X155157544Y-70784784D01*
X155089624Y-70620812D01*
X155055000Y-70446741D01*
X155055000Y-70269259D01*
X155089624Y-70095188D01*
X155157544Y-69931216D01*
X155256147Y-69783646D01*
X155381646Y-69658147D01*
X155529216Y-69559544D01*
X155693188Y-69491624D01*
X155842488Y-69461927D01*
X155867258Y-69457000D01*
X156044742Y-69457000D01*
X156069512Y-69461927D01*
G37*
G36*
X126617487Y-68598996D02*
G01*
X126854253Y-68697068D01*
X126854255Y-68697069D01*
X127067339Y-68839447D01*
X127248553Y-69020661D01*
X127353903Y-69178328D01*
X127390932Y-69233747D01*
X127489004Y-69470513D01*
X127539000Y-69721861D01*
X127539000Y-69978139D01*
X127489004Y-70229487D01*
X127419288Y-70397795D01*
X127390931Y-70466255D01*
X127248553Y-70679339D01*
X127067339Y-70860553D01*
X126854255Y-71002931D01*
X126854254Y-71002932D01*
X126854253Y-71002932D01*
X126617487Y-71101004D01*
X126366139Y-71151000D01*
X126109861Y-71151000D01*
X125858513Y-71101004D01*
X125621747Y-71002932D01*
X125621746Y-71002932D01*
X125621745Y-71002931D01*
X125408661Y-70860553D01*
X125227447Y-70679339D01*
X125085069Y-70466255D01*
X125056712Y-70397795D01*
X124986996Y-70229487D01*
X124937000Y-69978139D01*
X124937000Y-69721861D01*
X124986996Y-69470513D01*
X125085068Y-69233747D01*
X125122098Y-69178328D01*
X125227447Y-69020661D01*
X125408661Y-68839447D01*
X125621745Y-68697069D01*
X125621747Y-68697068D01*
X125858513Y-68598996D01*
X126109861Y-68549000D01*
X126366139Y-68549000D01*
X126617487Y-68598996D01*
G37*
G36*
X106262326Y-66607578D02*
G01*
X106635629Y-66762205D01*
X106635631Y-66762206D01*
X106971596Y-66986690D01*
X107257310Y-67272404D01*
X107446260Y-67555189D01*
X107481795Y-67608371D01*
X107636422Y-67981674D01*
X107715250Y-68377968D01*
X107715250Y-68782032D01*
X107636422Y-69178326D01*
X107515395Y-69470512D01*
X107481794Y-69551631D01*
X107257310Y-69887596D01*
X106971596Y-70173310D01*
X106635631Y-70397794D01*
X106635630Y-70397795D01*
X106635629Y-70397795D01*
X106262326Y-70552422D01*
X105866032Y-70631250D01*
X105461968Y-70631250D01*
X105065674Y-70552422D01*
X104692371Y-70397795D01*
X104692370Y-70397795D01*
X104692369Y-70397794D01*
X104356404Y-70173310D01*
X104070690Y-69887596D01*
X103846206Y-69551631D01*
X103812605Y-69470512D01*
X103691578Y-69178326D01*
X103612750Y-68782032D01*
X103612750Y-68377968D01*
X103691578Y-67981674D01*
X103846205Y-67608371D01*
X103881740Y-67555189D01*
X104070690Y-67272404D01*
X104356404Y-66986690D01*
X104692369Y-66762206D01*
X104692371Y-66762205D01*
X105065674Y-66607578D01*
X105461968Y-66528750D01*
X105866032Y-66528750D01*
X106262326Y-66607578D01*
G37*
G36*
X112104326Y-66607578D02*
G01*
X112477629Y-66762205D01*
X112477631Y-66762206D01*
X112813596Y-66986690D01*
X113099310Y-67272404D01*
X113288260Y-67555189D01*
X113323795Y-67608371D01*
X113478422Y-67981674D01*
X113557250Y-68377968D01*
X113557250Y-68782032D01*
X113478422Y-69178326D01*
X113357395Y-69470512D01*
X113323794Y-69551631D01*
X113099310Y-69887596D01*
X112813596Y-70173310D01*
X112477631Y-70397794D01*
X112477630Y-70397795D01*
X112477629Y-70397795D01*
X112104326Y-70552422D01*
X111708032Y-70631250D01*
X111303968Y-70631250D01*
X110907674Y-70552422D01*
X110534371Y-70397795D01*
X110534370Y-70397795D01*
X110534369Y-70397794D01*
X110198404Y-70173310D01*
X109912690Y-69887596D01*
X109688206Y-69551631D01*
X109654605Y-69470512D01*
X109533578Y-69178326D01*
X109454750Y-68782032D01*
X109454750Y-68377968D01*
X109533578Y-67981674D01*
X109688205Y-67608371D01*
X109723740Y-67555189D01*
X109912690Y-67272404D01*
X110198404Y-66986690D01*
X110534369Y-66762206D01*
X110534371Y-66762205D01*
X110907674Y-66607578D01*
X111303968Y-66528750D01*
X111708032Y-66528750D01*
X112104326Y-66607578D01*
G37*
G36*
X156069512Y-66921927D02*
G01*
X156218812Y-66951624D01*
X156382784Y-67019544D01*
X156530354Y-67118147D01*
X156655853Y-67243646D01*
X156754456Y-67391216D01*
X156822376Y-67555188D01*
X156857000Y-67729259D01*
X156857000Y-67906741D01*
X156822376Y-68080812D01*
X156754456Y-68244784D01*
X156655853Y-68392354D01*
X156530354Y-68517853D01*
X156382784Y-68616456D01*
X156218812Y-68684376D01*
X156069512Y-68714073D01*
X156044742Y-68719000D01*
X155867258Y-68719000D01*
X155842488Y-68714073D01*
X155693188Y-68684376D01*
X155529216Y-68616456D01*
X155381646Y-68517853D01*
X155256147Y-68392354D01*
X155157544Y-68244784D01*
X155089624Y-68080812D01*
X155055000Y-67906741D01*
X155055000Y-67729259D01*
X155089624Y-67555188D01*
X155157544Y-67391216D01*
X155256147Y-67243646D01*
X155381646Y-67118147D01*
X155529216Y-67019544D01*
X155693188Y-66951624D01*
X155842488Y-66921927D01*
X155867258Y-66917000D01*
X156044742Y-66917000D01*
X156069512Y-66921927D01*
G37*
G36*
X89498326Y-62797578D02*
G01*
X89498329Y-62797579D01*
X89498328Y-62797579D01*
X89871631Y-62952206D01*
X90207596Y-63176690D01*
X90493310Y-63462404D01*
X90717794Y-63798369D01*
X90717795Y-63798371D01*
X90872422Y-64171674D01*
X90951250Y-64567968D01*
X90951250Y-64972032D01*
X90872422Y-65368326D01*
X90872421Y-65368328D01*
X90717794Y-65741631D01*
X90493310Y-66077596D01*
X90207596Y-66363310D01*
X89871631Y-66587794D01*
X89871630Y-66587795D01*
X89871629Y-66587795D01*
X89498326Y-66742422D01*
X89102032Y-66821250D01*
X88697968Y-66821250D01*
X88301674Y-66742422D01*
X87928371Y-66587795D01*
X87928370Y-66587795D01*
X87928369Y-66587794D01*
X87592404Y-66363310D01*
X87306690Y-66077596D01*
X87082206Y-65741631D01*
X86927579Y-65368328D01*
X86927578Y-65368326D01*
X86848750Y-64972032D01*
X86848750Y-64567968D01*
X86927578Y-64171674D01*
X87082205Y-63798371D01*
X87082206Y-63798369D01*
X87306690Y-63462404D01*
X87592404Y-63176690D01*
X87928369Y-62952206D01*
X88301672Y-62797579D01*
X88301671Y-62797579D01*
X88301674Y-62797578D01*
X88697968Y-62718750D01*
X89102032Y-62718750D01*
X89498326Y-62797578D01*
G37*
G36*
X151886228Y-63403703D02*
G01*
X152041100Y-63467853D01*
X152180481Y-63560985D01*
X152299015Y-63679519D01*
X152392147Y-63818900D01*
X152456297Y-63973772D01*
X152489000Y-64138184D01*
X152489000Y-64305816D01*
X152456297Y-64470228D01*
X152392147Y-64625100D01*
X152299015Y-64764481D01*
X152180481Y-64883015D01*
X152041100Y-64976147D01*
X151886228Y-65040297D01*
X151721816Y-65073000D01*
X151554184Y-65073000D01*
X151389772Y-65040297D01*
X151234900Y-64976147D01*
X151095519Y-64883015D01*
X150976985Y-64764481D01*
X150883853Y-64625100D01*
X150819703Y-64470228D01*
X150787000Y-64305816D01*
X150787000Y-64138184D01*
X150819703Y-63973772D01*
X150883853Y-63818900D01*
X150976985Y-63679519D01*
X151095519Y-63560985D01*
X151234900Y-63467853D01*
X151389772Y-63403703D01*
X151554184Y-63371000D01*
X151721816Y-63371000D01*
X151886228Y-63403703D01*
G37*
G36*
X178556228Y-63403703D02*
G01*
X178711100Y-63467853D01*
X178850481Y-63560985D01*
X178969015Y-63679519D01*
X179062147Y-63818900D01*
X179126297Y-63973772D01*
X179159000Y-64138184D01*
X179159000Y-64305816D01*
X179126297Y-64470228D01*
X179062147Y-64625100D01*
X178969015Y-64764481D01*
X178850481Y-64883015D01*
X178711100Y-64976147D01*
X178556228Y-65040297D01*
X178391816Y-65073000D01*
X178224184Y-65073000D01*
X178059772Y-65040297D01*
X177904900Y-64976147D01*
X177765519Y-64883015D01*
X177646985Y-64764481D01*
X177553853Y-64625100D01*
X177489703Y-64470228D01*
X177457000Y-64305816D01*
X177457000Y-64138184D01*
X177489703Y-63973772D01*
X177553853Y-63818900D01*
X177646985Y-63679519D01*
X177765519Y-63560985D01*
X177904900Y-63467853D01*
X178059772Y-63403703D01*
X178224184Y-63371000D01*
X178391816Y-63371000D01*
X178556228Y-63403703D01*
G37*
G36*
X107659059Y-63031860D02*
G01*
X107795732Y-63088472D01*
X107918735Y-63170660D01*
X108023340Y-63275265D01*
X108105528Y-63398268D01*
X108162140Y-63534941D01*
X108191000Y-63680033D01*
X108191000Y-63827967D01*
X108162140Y-63973059D01*
X108105528Y-64109732D01*
X108023340Y-64232735D01*
X107918735Y-64337340D01*
X107795732Y-64419528D01*
X107795731Y-64419529D01*
X107795730Y-64419529D01*
X107659059Y-64476140D01*
X107513968Y-64505000D01*
X107366032Y-64505000D01*
X107220941Y-64476140D01*
X107084270Y-64419529D01*
X107084269Y-64419529D01*
X107084268Y-64419528D01*
X106961265Y-64337340D01*
X106856660Y-64232735D01*
X106774472Y-64109732D01*
X106717860Y-63973059D01*
X106689000Y-63827967D01*
X106689000Y-63680033D01*
X106717860Y-63534941D01*
X106774472Y-63398268D01*
X106856660Y-63275265D01*
X106961265Y-63170660D01*
X107084268Y-63088472D01*
X107220941Y-63031860D01*
X107366032Y-63003000D01*
X107513968Y-63003000D01*
X107659059Y-63031860D01*
G37*
G36*
X104891000Y-64505000D02*
G01*
X103389000Y-64505000D01*
X103389000Y-63003000D01*
X104891000Y-63003000D01*
X104891000Y-64505000D01*
G37*
G36*
X179159000Y-62573000D02*
G01*
X177457000Y-62573000D01*
X177457000Y-60871000D01*
X179159000Y-60871000D01*
X179159000Y-62573000D01*
G37*
G36*
X152489000Y-62573000D02*
G01*
X150787000Y-62573000D01*
X150787000Y-60871000D01*
X152489000Y-60871000D01*
X152489000Y-62573000D01*
G37*
G36*
X107659059Y-60531860D02*
G01*
X107795732Y-60588472D01*
X107918735Y-60670660D01*
X108023340Y-60775265D01*
X108105528Y-60898268D01*
X108162140Y-61034941D01*
X108191000Y-61180033D01*
X108191000Y-61327967D01*
X108162140Y-61473059D01*
X108105528Y-61609732D01*
X108023340Y-61732735D01*
X107918735Y-61837340D01*
X107795732Y-61919528D01*
X107795731Y-61919529D01*
X107795730Y-61919529D01*
X107659059Y-61976140D01*
X107513968Y-62005000D01*
X107366032Y-62005000D01*
X107220941Y-61976140D01*
X107084270Y-61919529D01*
X107084269Y-61919529D01*
X107084268Y-61919528D01*
X106961265Y-61837340D01*
X106856660Y-61732735D01*
X106774472Y-61609732D01*
X106717860Y-61473059D01*
X106689000Y-61327967D01*
X106689000Y-61180033D01*
X106717860Y-61034941D01*
X106774472Y-60898268D01*
X106856660Y-60775265D01*
X106961265Y-60670660D01*
X107084268Y-60588472D01*
X107220941Y-60531860D01*
X107366032Y-60503000D01*
X107513968Y-60503000D01*
X107659059Y-60531860D01*
G37*
G36*
X104359059Y-60531860D02*
G01*
X104495732Y-60588472D01*
X104618735Y-60670660D01*
X104723340Y-60775265D01*
X104805528Y-60898268D01*
X104862140Y-61034941D01*
X104891000Y-61180033D01*
X104891000Y-61327967D01*
X104862140Y-61473059D01*
X104805528Y-61609732D01*
X104723340Y-61732735D01*
X104618735Y-61837340D01*
X104495732Y-61919528D01*
X104495731Y-61919529D01*
X104495730Y-61919529D01*
X104359059Y-61976140D01*
X104213968Y-62005000D01*
X104066032Y-62005000D01*
X103920941Y-61976140D01*
X103784270Y-61919529D01*
X103784269Y-61919529D01*
X103784268Y-61919528D01*
X103661265Y-61837340D01*
X103556660Y-61732735D01*
X103474472Y-61609732D01*
X103417860Y-61473059D01*
X103389000Y-61327967D01*
X103389000Y-61180033D01*
X103417860Y-61034941D01*
X103474472Y-60898268D01*
X103556660Y-60775265D01*
X103661265Y-60670660D01*
X103784268Y-60588472D01*
X103920941Y-60531860D01*
X104066032Y-60503000D01*
X104213968Y-60503000D01*
X104359059Y-60531860D01*
G37*
G36*
X89498326Y-56447578D02*
G01*
X89863884Y-56598997D01*
X89871631Y-56602206D01*
X90207596Y-56826690D01*
X90493310Y-57112404D01*
X90717794Y-57448369D01*
X90717795Y-57448371D01*
X90872422Y-57821674D01*
X90951250Y-58217968D01*
X90951250Y-58622032D01*
X90872422Y-59018326D01*
X90872421Y-59018328D01*
X90717794Y-59391631D01*
X90493310Y-59727596D01*
X90207596Y-60013310D01*
X89871631Y-60237794D01*
X89871630Y-60237795D01*
X89871629Y-60237795D01*
X89498326Y-60392422D01*
X89102032Y-60471250D01*
X88697968Y-60471250D01*
X88301674Y-60392422D01*
X87928371Y-60237795D01*
X87928370Y-60237795D01*
X87928369Y-60237794D01*
X87592404Y-60013310D01*
X87306690Y-59727596D01*
X87082206Y-59391631D01*
X86927579Y-59018328D01*
X86927578Y-59018326D01*
X86848750Y-58622032D01*
X86848750Y-58217968D01*
X86927578Y-57821674D01*
X87082205Y-57448371D01*
X87082206Y-57448369D01*
X87306690Y-57112404D01*
X87592404Y-56826690D01*
X87928369Y-56602206D01*
X87936116Y-56598997D01*
X88301674Y-56447578D01*
X88697968Y-56368750D01*
X89102032Y-56368750D01*
X89498326Y-56447578D01*
G37*
G36*
X83148326Y-56447578D02*
G01*
X83513884Y-56598997D01*
X83521631Y-56602206D01*
X83857596Y-56826690D01*
X84143310Y-57112404D01*
X84367794Y-57448369D01*
X84367795Y-57448371D01*
X84522422Y-57821674D01*
X84601250Y-58217968D01*
X84601250Y-58622032D01*
X84522422Y-59018326D01*
X84522421Y-59018328D01*
X84367794Y-59391631D01*
X84143310Y-59727596D01*
X83857596Y-60013310D01*
X83521631Y-60237794D01*
X83521630Y-60237795D01*
X83521629Y-60237795D01*
X83148326Y-60392422D01*
X82752032Y-60471250D01*
X82347968Y-60471250D01*
X81951674Y-60392422D01*
X81578371Y-60237795D01*
X81578370Y-60237795D01*
X81578369Y-60237794D01*
X81242404Y-60013310D01*
X80956690Y-59727596D01*
X80732206Y-59391631D01*
X80577579Y-59018328D01*
X80577578Y-59018326D01*
X80498750Y-58622032D01*
X80498750Y-58217968D01*
X80577578Y-57821674D01*
X80732205Y-57448371D01*
X80732206Y-57448369D01*
X80956690Y-57112404D01*
X81242404Y-56826690D01*
X81578369Y-56602206D01*
X81586116Y-56598997D01*
X81951674Y-56447578D01*
X82347968Y-56368750D01*
X82752032Y-56368750D01*
X83148326Y-56447578D01*
G37*
G36*
X104359059Y-58031860D02*
G01*
X104495732Y-58088472D01*
X104618735Y-58170660D01*
X104723340Y-58275265D01*
X104723341Y-58275267D01*
X104805529Y-58398270D01*
X104862140Y-58534941D01*
X104891000Y-58680032D01*
X104891000Y-58827968D01*
X104862140Y-58973059D01*
X104805528Y-59109732D01*
X104723340Y-59232735D01*
X104618735Y-59337340D01*
X104495732Y-59419528D01*
X104495731Y-59419529D01*
X104495730Y-59419529D01*
X104359059Y-59476140D01*
X104213968Y-59505000D01*
X104066032Y-59505000D01*
X103920941Y-59476140D01*
X103784270Y-59419529D01*
X103784269Y-59419529D01*
X103784268Y-59419528D01*
X103661265Y-59337340D01*
X103556660Y-59232735D01*
X103474472Y-59109732D01*
X103417860Y-58973059D01*
X103389000Y-58827968D01*
X103389000Y-58680032D01*
X103417860Y-58534941D01*
X103474471Y-58398270D01*
X103556659Y-58275267D01*
X103556660Y-58275265D01*
X103661265Y-58170660D01*
X103784268Y-58088472D01*
X103920941Y-58031860D01*
X104066032Y-58003000D01*
X104213968Y-58003000D01*
X104359059Y-58031860D01*
G37*
G36*
X107659059Y-58031860D02*
G01*
X107795732Y-58088472D01*
X107918735Y-58170660D01*
X108023340Y-58275265D01*
X108023341Y-58275267D01*
X108105529Y-58398270D01*
X108162140Y-58534941D01*
X108191000Y-58680032D01*
X108191000Y-58827968D01*
X108162140Y-58973059D01*
X108105528Y-59109732D01*
X108023340Y-59232735D01*
X107918735Y-59337340D01*
X107795732Y-59419528D01*
X107795731Y-59419529D01*
X107795730Y-59419529D01*
X107659059Y-59476140D01*
X107513968Y-59505000D01*
X107366032Y-59505000D01*
X107220941Y-59476140D01*
X107084270Y-59419529D01*
X107084269Y-59419529D01*
X107084268Y-59419528D01*
X106961265Y-59337340D01*
X106856660Y-59232735D01*
X106774472Y-59109732D01*
X106717860Y-58973059D01*
X106689000Y-58827968D01*
X106689000Y-58680032D01*
X106717860Y-58534941D01*
X106774471Y-58398270D01*
X106856659Y-58275267D01*
X106856660Y-58275265D01*
X106961265Y-58170660D01*
X107084268Y-58088472D01*
X107220941Y-58031860D01*
X107366032Y-58003000D01*
X107513968Y-58003000D01*
X107659059Y-58031860D01*
G37*
G36*
X126617487Y-56598996D02*
G01*
X126854253Y-56697068D01*
X126854255Y-56697069D01*
X127067339Y-56839447D01*
X127248553Y-57020661D01*
X127309854Y-57112404D01*
X127390932Y-57233747D01*
X127489004Y-57470513D01*
X127539000Y-57721861D01*
X127539000Y-57978139D01*
X127489004Y-58229487D01*
X127390932Y-58466253D01*
X127390931Y-58466255D01*
X127248553Y-58679339D01*
X127067339Y-58860553D01*
X126854255Y-59002931D01*
X126854254Y-59002932D01*
X126854253Y-59002932D01*
X126617487Y-59101004D01*
X126366139Y-59151000D01*
X126109861Y-59151000D01*
X125858513Y-59101004D01*
X125621747Y-59002932D01*
X125621746Y-59002932D01*
X125621745Y-59002931D01*
X125408661Y-58860553D01*
X125227447Y-58679339D01*
X125085069Y-58466255D01*
X125085068Y-58466253D01*
X124986996Y-58229487D01*
X124937000Y-57978139D01*
X124937000Y-57721861D01*
X124986996Y-57470513D01*
X125085068Y-57233747D01*
X125166147Y-57112404D01*
X125227447Y-57020661D01*
X125408661Y-56839447D01*
X125621745Y-56697069D01*
X125621747Y-56697068D01*
X125858513Y-56598996D01*
X126109861Y-56549000D01*
X126366139Y-56549000D01*
X126617487Y-56598996D01*
G37*
G36*
X83148326Y-50097578D02*
G01*
X83148329Y-50097579D01*
X83148328Y-50097579D01*
X83521631Y-50252206D01*
X83857596Y-50476690D01*
X84143310Y-50762404D01*
X84186085Y-50826422D01*
X84367795Y-51098371D01*
X84522422Y-51471674D01*
X84601250Y-51867968D01*
X84601250Y-52272032D01*
X84522422Y-52668326D01*
X84402021Y-52959000D01*
X84367794Y-53041631D01*
X84143310Y-53377596D01*
X83857596Y-53663310D01*
X83521631Y-53887794D01*
X83521630Y-53887795D01*
X83521629Y-53887795D01*
X83148326Y-54042422D01*
X82752032Y-54121250D01*
X82347968Y-54121250D01*
X81951674Y-54042422D01*
X81578371Y-53887795D01*
X81578370Y-53887795D01*
X81578369Y-53887794D01*
X81242404Y-53663310D01*
X80956690Y-53377596D01*
X80732206Y-53041631D01*
X80697979Y-52959000D01*
X80577578Y-52668326D01*
X80498750Y-52272032D01*
X80498750Y-51867968D01*
X80577578Y-51471674D01*
X80732205Y-51098371D01*
X80913915Y-50826422D01*
X80956690Y-50762404D01*
X81242404Y-50476690D01*
X81578369Y-50252206D01*
X81951672Y-50097579D01*
X81951671Y-50097579D01*
X81951674Y-50097578D01*
X82347968Y-50018750D01*
X82752032Y-50018750D01*
X83148326Y-50097578D01*
G37*
G36*
X89275256Y-50461298D02*
G01*
X89381579Y-50482447D01*
X89682042Y-50606903D01*
X89952451Y-50787585D01*
X90182415Y-51017549D01*
X90363097Y-51287958D01*
X90438754Y-51470609D01*
X90487553Y-51588422D01*
X90551000Y-51907389D01*
X90551000Y-52232611D01*
X90525571Y-52360449D01*
X90487553Y-52551579D01*
X90363097Y-52852042D01*
X90182415Y-53122451D01*
X89952451Y-53352415D01*
X89682042Y-53533097D01*
X89381579Y-53657553D01*
X89275256Y-53678702D01*
X89062611Y-53721000D01*
X88737389Y-53721000D01*
X88524744Y-53678702D01*
X88418421Y-53657553D01*
X88117958Y-53533097D01*
X87847549Y-53352415D01*
X87617585Y-53122451D01*
X87436903Y-52852042D01*
X87312447Y-52551579D01*
X87274429Y-52360449D01*
X87249000Y-52232611D01*
X87249000Y-51907389D01*
X87312447Y-51588422D01*
X87361247Y-51470609D01*
X87436903Y-51287958D01*
X87617585Y-51017549D01*
X87847549Y-50787585D01*
X88117958Y-50606903D01*
X88418421Y-50482447D01*
X88524744Y-50461298D01*
X88737389Y-50419000D01*
X89062611Y-50419000D01*
X89275256Y-50461298D01*
G37*
G36*
X105791000Y-53721000D02*
G01*
X102489000Y-53721000D01*
X102489000Y-50419000D01*
X105791000Y-50419000D01*
X105791000Y-53721000D01*
G37*
G36*
X119247256Y-49699298D02*
G01*
X119353579Y-49720447D01*
X119654042Y-49844903D01*
X119924451Y-50025585D01*
X120154415Y-50255549D01*
X120335097Y-50525958D01*
X120443467Y-50787585D01*
X120459553Y-50826422D01*
X120523000Y-51145389D01*
X120523000Y-51470611D01*
X120499566Y-51588421D01*
X120459553Y-51789579D01*
X120335097Y-52090042D01*
X120154415Y-52360451D01*
X119924451Y-52590415D01*
X119654042Y-52771097D01*
X119353579Y-52895553D01*
X119247256Y-52916702D01*
X119034611Y-52959000D01*
X118709389Y-52959000D01*
X118496744Y-52916702D01*
X118390421Y-52895553D01*
X118089958Y-52771097D01*
X117819549Y-52590415D01*
X117589585Y-52360451D01*
X117408903Y-52090042D01*
X117284447Y-51789579D01*
X117244434Y-51588421D01*
X117221000Y-51470611D01*
X117221000Y-51145389D01*
X117284447Y-50826422D01*
X117300534Y-50787585D01*
X117408903Y-50525958D01*
X117589585Y-50255549D01*
X117819549Y-50025585D01*
X118089958Y-49844903D01*
X118390421Y-49720447D01*
X118496744Y-49699298D01*
X118709389Y-49657000D01*
X119034611Y-49657000D01*
X119247256Y-49699298D01*
G37*
G36*
X135763000Y-52959000D02*
G01*
X132461000Y-52959000D01*
X132461000Y-49657000D01*
X135763000Y-49657000D01*
X135763000Y-52959000D01*
G37*
G36*
X153760326Y-45271578D02*
G01*
X154133629Y-45426205D01*
X154133631Y-45426206D01*
X154469596Y-45650690D01*
X154755310Y-45936404D01*
X154870738Y-46109155D01*
X154979795Y-46272371D01*
X155134422Y-46645674D01*
X155213250Y-47041968D01*
X155213250Y-47446032D01*
X155134422Y-47842326D01*
X155134421Y-47842328D01*
X154979794Y-48215631D01*
X154755310Y-48551596D01*
X154469596Y-48837310D01*
X154133631Y-49061794D01*
X154133630Y-49061795D01*
X154133629Y-49061795D01*
X153760326Y-49216422D01*
X153364032Y-49295250D01*
X152959968Y-49295250D01*
X152563674Y-49216422D01*
X152190371Y-49061795D01*
X152190370Y-49061795D01*
X152190369Y-49061794D01*
X151854404Y-48837310D01*
X151568690Y-48551596D01*
X151344206Y-48215631D01*
X151189579Y-47842328D01*
X151189578Y-47842326D01*
X151110750Y-47446032D01*
X151110750Y-47041968D01*
X151189578Y-46645674D01*
X151344205Y-46272371D01*
X151453262Y-46109155D01*
X151568690Y-45936404D01*
X151854404Y-45650690D01*
X152190369Y-45426206D01*
X152190371Y-45426205D01*
X152563674Y-45271578D01*
X152959968Y-45192750D01*
X153364032Y-45192750D01*
X153760326Y-45271578D01*
G37*
G36*
X177636326Y-45271578D02*
G01*
X178009629Y-45426205D01*
X178009631Y-45426206D01*
X178345596Y-45650690D01*
X178631310Y-45936404D01*
X178746738Y-46109155D01*
X178855795Y-46272371D01*
X179010422Y-46645674D01*
X179089250Y-47041968D01*
X179089250Y-47446032D01*
X179010422Y-47842326D01*
X179010421Y-47842328D01*
X178855794Y-48215631D01*
X178631310Y-48551596D01*
X178345596Y-48837310D01*
X178009631Y-49061794D01*
X178009630Y-49061795D01*
X178009629Y-49061795D01*
X177636326Y-49216422D01*
X177240032Y-49295250D01*
X176835968Y-49295250D01*
X176439674Y-49216422D01*
X176066371Y-49061795D01*
X176066370Y-49061795D01*
X176066369Y-49061794D01*
X175730404Y-48837310D01*
X175444690Y-48551596D01*
X175220206Y-48215631D01*
X175065579Y-47842328D01*
X175065578Y-47842326D01*
X174986750Y-47446032D01*
X174986750Y-47041968D01*
X175065578Y-46645674D01*
X175220205Y-46272371D01*
X175329262Y-46109155D01*
X175444690Y-45936404D01*
X175730404Y-45650690D01*
X176066369Y-45426206D01*
X176066371Y-45426205D01*
X176439674Y-45271578D01*
X176835968Y-45192750D01*
X177240032Y-45192750D01*
X177636326Y-45271578D01*
G37*
G36*
X185947787Y-41289462D02*
G01*
X185947790Y-41289463D01*
X185947789Y-41289463D01*
X186594029Y-41557144D01*
X187175631Y-41945758D01*
X187670242Y-42440369D01*
X188058856Y-43021971D01*
X188248135Y-43478932D01*
X188326538Y-43668213D01*
X188463000Y-44354256D01*
X188463000Y-45053744D01*
X188326538Y-45739787D01*
X188326537Y-45739789D01*
X188058856Y-46386029D01*
X187670242Y-46967631D01*
X187175631Y-47462242D01*
X186594029Y-47850856D01*
X186137068Y-48040135D01*
X185947787Y-48118538D01*
X185261744Y-48255000D01*
X184562256Y-48255000D01*
X183876213Y-48118538D01*
X183686932Y-48040135D01*
X183229971Y-47850856D01*
X182648369Y-47462242D01*
X182153758Y-46967631D01*
X181765144Y-46386029D01*
X181497463Y-45739789D01*
X181497462Y-45739787D01*
X181361000Y-45053744D01*
X181361000Y-44354256D01*
X181497462Y-43668213D01*
X181575865Y-43478932D01*
X181765144Y-43021971D01*
X182153758Y-42440369D01*
X182648369Y-41945758D01*
X183229971Y-41557144D01*
X183876211Y-41289463D01*
X183876210Y-41289463D01*
X183876213Y-41289462D01*
X184562256Y-41153000D01*
X185261744Y-41153000D01*
X185947787Y-41289462D01*
G37*
G36*
X76219787Y-41289462D02*
G01*
X76219790Y-41289463D01*
X76219789Y-41289463D01*
X76866029Y-41557144D01*
X77447631Y-41945758D01*
X77942242Y-42440369D01*
X78330856Y-43021971D01*
X78520135Y-43478932D01*
X78598538Y-43668213D01*
X78735000Y-44354256D01*
X78735000Y-45053744D01*
X78598538Y-45739787D01*
X78598537Y-45739789D01*
X78330856Y-46386029D01*
X77942242Y-46967631D01*
X77447631Y-47462242D01*
X76866029Y-47850856D01*
X76409068Y-48040135D01*
X76219787Y-48118538D01*
X75533744Y-48255000D01*
X74834256Y-48255000D01*
X74148213Y-48118538D01*
X73958932Y-48040135D01*
X73501971Y-47850856D01*
X72920369Y-47462242D01*
X72425758Y-46967631D01*
X72037144Y-46386029D01*
X71769463Y-45739789D01*
X71769462Y-45739787D01*
X71633000Y-45053744D01*
X71633000Y-44354256D01*
X71769462Y-43668213D01*
X71847865Y-43478932D01*
X72037144Y-43021971D01*
X72425758Y-42440369D01*
X72920369Y-41945758D01*
X73501971Y-41557144D01*
X74148211Y-41289463D01*
X74148210Y-41289463D01*
X74148213Y-41289462D01*
X74834256Y-41153000D01*
X75533744Y-41153000D01*
X76219787Y-41289462D01*
G37*
G36*
X162396326Y-43239578D02*
G01*
X162396329Y-43239579D01*
X162396328Y-43239579D01*
X162769631Y-43394206D01*
X163105596Y-43618690D01*
X163391310Y-43904404D01*
X163615794Y-44240369D01*
X163615795Y-44240371D01*
X163770422Y-44613674D01*
X163849250Y-45009968D01*
X163849250Y-45414032D01*
X163770422Y-45810326D01*
X163770421Y-45810328D01*
X163615794Y-46183631D01*
X163391310Y-46519596D01*
X163105596Y-46805310D01*
X162769631Y-47029794D01*
X162769630Y-47029795D01*
X162769629Y-47029795D01*
X162396326Y-47184422D01*
X162000032Y-47263250D01*
X161595968Y-47263250D01*
X161199674Y-47184422D01*
X160826371Y-47029795D01*
X160826370Y-47029795D01*
X160826369Y-47029794D01*
X160490404Y-46805310D01*
X160204690Y-46519596D01*
X159980206Y-46183631D01*
X159825579Y-45810328D01*
X159825578Y-45810326D01*
X159746750Y-45414032D01*
X159746750Y-45009968D01*
X159825578Y-44613674D01*
X159980205Y-44240371D01*
X159980206Y-44240369D01*
X160204690Y-43904404D01*
X160490404Y-43618690D01*
X160826369Y-43394206D01*
X161199672Y-43239579D01*
X161199671Y-43239579D01*
X161199674Y-43239578D01*
X161595968Y-43160750D01*
X162000032Y-43160750D01*
X162396326Y-43239578D01*
G37*
G36*
X169000326Y-43239578D02*
G01*
X169000329Y-43239579D01*
X169000328Y-43239579D01*
X169373631Y-43394206D01*
X169709596Y-43618690D01*
X169995310Y-43904404D01*
X170219794Y-44240369D01*
X170219795Y-44240371D01*
X170374422Y-44613674D01*
X170453250Y-45009968D01*
X170453250Y-45414032D01*
X170374422Y-45810326D01*
X170374421Y-45810328D01*
X170219794Y-46183631D01*
X169995310Y-46519596D01*
X169709596Y-46805310D01*
X169373631Y-47029794D01*
X169373630Y-47029795D01*
X169373629Y-47029795D01*
X169000326Y-47184422D01*
X168604032Y-47263250D01*
X168199968Y-47263250D01*
X167803674Y-47184422D01*
X167430371Y-47029795D01*
X167430370Y-47029795D01*
X167430369Y-47029794D01*
X167094404Y-46805310D01*
X166808690Y-46519596D01*
X166584206Y-46183631D01*
X166429579Y-45810328D01*
X166429578Y-45810326D01*
X166350750Y-45414032D01*
X166350750Y-45009968D01*
X166429578Y-44613674D01*
X166584205Y-44240371D01*
X166584206Y-44240369D01*
X166808690Y-43904404D01*
X167094404Y-43618690D01*
X167430369Y-43394206D01*
X167803672Y-43239579D01*
X167803671Y-43239579D01*
X167803674Y-43239578D01*
X168199968Y-43160750D01*
X168604032Y-43160750D01*
X169000326Y-43239578D01*
G37*
M02*
