M48
; DRILL file {KiCad (5.1.5)-3} date 4/26/2020 8:46:26 PM
; FORMAT={-:-/ absolute / inch / decimal}
; #@! TF.CreationDate,2020-04-26T20:46:26-05:00
; #@! TF.GenerationSoftware,Kicad,Pcbnew,(5.1.5)-3
FMAT,2
INCH
T1C0.0157
T2C0.0197
T3C0.0315
T4C0.0354
T5C0.0394
T6C0.0591
T7C0.0591
T8C0.0630
T9C0.1378
%
G90
G05
T1
X4.3Y-4.56
X4.36Y-3.88
X4.41Y-4.31
X4.46Y-4.49
X4.48Y-3.88
X4.51Y-4.1
X4.52Y-3.88
X4.64Y-4.51
X4.81Y-4.66
X6.2Y-3.88
X6.42Y-3.77
X7.13Y-3.98
X7.21Y-3.97
T2
X7.8967Y-4.7
X7.9269Y-4.6269
X7.9269Y-4.7731
X8.0Y-4.5967
X8.0Y-4.8033
X8.0731Y-4.6269
X8.0731Y-4.7731
X8.1033Y-4.7
X7.8967Y-3.03
X7.9269Y-2.9569
X7.9269Y-3.1031
X8.0Y-2.9267
X8.0Y-3.1333
X8.0731Y-2.9569
X8.0731Y-3.1031
X8.1033Y-3.03
X3.5767Y-4.7
X3.6069Y-4.6269
X3.6069Y-4.7731
X3.68Y-4.5967
X3.68Y-4.8033
X3.7531Y-4.6269
X3.7531Y-4.7731
X3.7833Y-4.7
X3.5767Y-3.03
X3.6069Y-2.9569
X3.6069Y-3.1031
X3.68Y-2.9267
X3.68Y-3.1333
X3.7531Y-2.9569
X3.7531Y-3.1031
X3.7833Y-3.03
T3
X5.92Y-4.49
X5.92Y-4.5884
X6.26Y-4.49
X6.26Y-4.5884
X6.69Y-3.7
X6.69Y-3.7984
X5.69Y-4.24
X5.69Y-4.3384
X7.74Y-3.7
X7.74Y-3.7984
T4
X4.82Y-3.5831
X4.82Y-3.6816
X4.9499Y-3.5831
X4.9499Y-3.6816
X4.9499Y-3.78
X4.16Y-4.05
X4.16Y-4.15
X4.35Y-4.05
X4.35Y-4.15
X4.82Y-3.78
T5
X5.29Y-4.26
X5.29Y-4.36
X5.29Y-4.46
X6.86Y-3.94
X6.86Y-4.04
X6.86Y-4.14
T6
X5.69Y-3.5476
X5.69Y-4.02
T7
X3.97Y-3.57
X7.69Y-3.13
X4.22Y-3.57
X7.35Y-4.45
X4.97Y-4.56
X6.75Y-3.13
X4.97Y-4.29
X6.76Y-4.45
X7.0Y-4.45
X7.35Y-3.05
X7.09Y-3.05
X4.22Y-3.82
X5.11Y-3.97
X4.88Y-3.97
X7.59Y-4.45
X3.97Y-3.32
T8
X4.22Y-3.32
X4.82Y-3.32
X5.4Y-3.29
X6.0Y-3.29
T9
X8.0Y-4.7
X8.0Y-3.03
X3.68Y-4.7
X3.68Y-3.03
T0
M30
