G04 #@! TF.GenerationSoftware,KiCad,Pcbnew,(5.1.5)-3*
G04 #@! TF.CreationDate,2020-04-26T18:29:28-05:00*
G04 #@! TF.ProjectId,SolarBTSpeaker,536f6c61-7242-4545-9370-65616b65722e,rev?*
G04 #@! TF.SameCoordinates,Original*
G04 #@! TF.FileFunction,Copper,L2,Bot*
G04 #@! TF.FilePolarity,Positive*
%FSLAX46Y46*%
G04 Gerber Fmt 4.6, Leading zero omitted, Abs format (unit mm)*
G04 Created by KiCad (PCBNEW (5.1.5)-3) date 2020-04-26 18:29:28*
%MOMM*%
%LPD*%
G04 APERTURE LIST*
%ADD10C,0.050000*%
%ADD11C,7.000000*%
%ADD12C,0.800000*%
%ADD13R,1.600000X1.600000*%
%ADD14C,1.600000*%
%ADD15O,3.200000X3.200000*%
%ADD16R,3.200000X3.200000*%
%ADD17C,1.800000*%
%ADD18R,1.800000X1.800000*%
%ADD19C,4.000500*%
%ADD20R,1.700000X1.700000*%
%ADD21O,1.700000X1.700000*%
%ADD22C,2.500000*%
%ADD23R,1.400000X1.400000*%
%ADD24C,1.400000*%
%ADD25C,0.500000*%
%ADD26C,2.500000*%
%ADD27C,1.500000*%
%ADD28C,3.500000*%
%ADD29C,0.800000*%
%ADD30C,0.250000*%
%ADD31C,0.150000*%
G04 APERTURE END LIST*
D10*
X69850000Y-40005000D02*
X189865000Y-40005000D01*
X69850000Y-92075000D02*
X69850000Y-40005000D01*
X189865000Y-92075000D02*
X69850000Y-92075000D01*
X189865000Y-40005000D02*
X189865000Y-92075000D01*
D11*
X184912000Y-44704000D03*
D12*
X187537000Y-44704000D03*
X186768155Y-46560155D03*
X184912000Y-47329000D03*
X183055845Y-46560155D03*
X182287000Y-44704000D03*
X183055845Y-42847845D03*
X184912000Y-42079000D03*
X186768155Y-42847845D03*
X186768155Y-85265845D03*
X184912000Y-84497000D03*
X183055845Y-85265845D03*
X182287000Y-87122000D03*
X183055845Y-88978155D03*
X184912000Y-89747000D03*
X186768155Y-88978155D03*
X187537000Y-87122000D03*
D11*
X184912000Y-87122000D03*
X75184000Y-87122000D03*
D12*
X77809000Y-87122000D03*
X77040155Y-88978155D03*
X75184000Y-89747000D03*
X73327845Y-88978155D03*
X72559000Y-87122000D03*
X73327845Y-85265845D03*
X75184000Y-84497000D03*
X77040155Y-85265845D03*
X77040155Y-42847845D03*
X75184000Y-42079000D03*
X73327845Y-42847845D03*
X72559000Y-44704000D03*
X73327845Y-46560155D03*
X75184000Y-47329000D03*
X77040155Y-46560155D03*
X77809000Y-44704000D03*
D11*
X75184000Y-44704000D03*
D13*
X126238000Y-75438000D03*
D14*
X126238000Y-77938000D03*
D13*
X151638000Y-61722000D03*
D14*
X151638000Y-64222000D03*
X178308000Y-64222000D03*
D13*
X178308000Y-61722000D03*
D14*
X132080000Y-84288000D03*
D13*
X132080000Y-81788000D03*
X140716000Y-81788000D03*
D14*
X140716000Y-84288000D03*
D15*
X88900000Y-52070000D03*
D16*
X104140000Y-52070000D03*
D17*
X87376000Y-73152000D03*
D18*
X87376000Y-70612000D03*
X92202000Y-70612000D03*
D17*
X92202000Y-73152000D03*
D16*
X134112000Y-51308000D03*
D15*
X118872000Y-51308000D03*
D19*
X107950000Y-76708000D03*
X107950000Y-83566000D03*
X82550000Y-52070000D03*
X82550000Y-58420000D03*
X105664000Y-68580000D03*
X111506000Y-68580000D03*
X88900000Y-64770000D03*
X88900000Y-58420000D03*
X153162000Y-47244000D03*
X161798000Y-45212000D03*
X153416000Y-80772000D03*
X159512000Y-80772000D03*
X168402000Y-45212000D03*
X168402000Y-80772000D03*
X177038000Y-47244000D03*
X174498000Y-80772000D03*
D20*
X155956000Y-72898000D03*
D21*
X155956000Y-70358000D03*
X155956000Y-67818000D03*
D22*
X126238000Y-69850000D03*
X126238000Y-57850000D03*
D23*
X104140000Y-63754000D03*
D24*
X104140000Y-61254000D03*
X104140000Y-58754000D03*
X107440000Y-63754000D03*
X107440000Y-61254000D03*
X107440000Y-58754000D03*
D21*
X116078000Y-81026000D03*
X116078000Y-78486000D03*
D20*
X116078000Y-75946000D03*
D12*
X96266000Y-71882000D03*
X93726000Y-77216000D03*
X164846000Y-68580000D03*
X92456000Y-66294000D03*
X95504000Y-66294000D03*
X162814000Y-68834000D03*
X103886000Y-86106000D03*
X99568000Y-82296000D03*
X94996000Y-81788000D03*
X90932000Y-83566000D03*
X96520000Y-66294000D03*
X139192000Y-66294000D03*
X144780000Y-63500000D03*
D25*
X96266000Y-71882000D02*
X93726000Y-74422000D01*
X93726000Y-74422000D02*
X93726000Y-77216000D01*
D26*
X148102000Y-61722000D02*
X151638000Y-61722000D01*
X151638000Y-61722000D02*
X154938000Y-61722000D01*
D27*
X134112000Y-72884000D02*
X134112000Y-54408000D01*
X134112000Y-54408000D02*
X134112000Y-51308000D01*
X140716000Y-79488000D02*
X134112000Y-72884000D01*
X140716000Y-81788000D02*
X140716000Y-79488000D01*
D26*
X164592000Y-61722000D02*
X178308000Y-61722000D01*
X154938000Y-61722000D02*
X164592000Y-61722000D01*
D25*
X164592000Y-61722000D02*
X164592000Y-68326000D01*
X164592000Y-68326000D02*
X164846000Y-68580000D01*
D28*
X134112000Y-51308000D02*
X139212000Y-51308000D01*
X139212000Y-52832000D02*
X148102000Y-61722000D01*
X139212000Y-51308000D02*
X139212000Y-52832000D01*
D29*
X104140000Y-52070000D02*
X104140000Y-58754000D01*
D30*
X91694000Y-66294000D02*
X87376000Y-70612000D01*
X92456000Y-66294000D02*
X91694000Y-66294000D01*
X95504000Y-66294000D02*
X94488000Y-66294000D01*
X94488000Y-66294000D02*
X92202000Y-68580000D01*
X92202000Y-68580000D02*
X92202000Y-70612000D01*
X161518000Y-70358000D02*
X161544000Y-70358000D01*
X155956000Y-70358000D02*
X161544000Y-70358000D01*
X162414001Y-69487999D02*
X161544000Y-70358000D01*
X162814000Y-68834000D02*
X162560000Y-69088000D01*
X162560000Y-69342000D02*
X162414001Y-69487999D01*
X162560000Y-69088000D02*
X162560000Y-69342000D01*
X103886000Y-86106000D02*
X100076000Y-82296000D01*
X100076000Y-82296000D02*
X99568000Y-82296000D01*
X94996000Y-81788000D02*
X92710000Y-81788000D01*
X92710000Y-81788000D02*
X90932000Y-83566000D01*
X96520000Y-66294000D02*
X100330000Y-62484000D01*
X106210000Y-62484000D02*
X107440000Y-61254000D01*
X100330000Y-62484000D02*
X106210000Y-62484000D01*
D25*
X139192000Y-66294000D02*
X141986000Y-63500000D01*
X141986000Y-63500000D02*
X144780000Y-63500000D01*
D31*
G36*
X189615001Y-91825000D02*
G01*
X70100000Y-91825000D01*
X70100000Y-86750195D01*
X71409000Y-86750195D01*
X71409000Y-87493805D01*
X71554071Y-88223127D01*
X71838638Y-88910133D01*
X72251766Y-89528422D01*
X72777578Y-90054234D01*
X73395867Y-90467362D01*
X74082873Y-90751929D01*
X74812195Y-90897000D01*
X75555805Y-90897000D01*
X76285127Y-90751929D01*
X76972133Y-90467362D01*
X77590422Y-90054234D01*
X78116234Y-89528422D01*
X78529362Y-88910133D01*
X78813929Y-88223127D01*
X78959000Y-87493805D01*
X78959000Y-86750195D01*
X78813929Y-86020873D01*
X78529362Y-85333867D01*
X78116234Y-84715578D01*
X77590422Y-84189766D01*
X76972133Y-83776638D01*
X76303106Y-83499518D01*
X90257000Y-83499518D01*
X90257000Y-83632482D01*
X90282940Y-83762890D01*
X90333823Y-83885732D01*
X90407693Y-83996287D01*
X90501713Y-84090307D01*
X90612268Y-84164177D01*
X90735110Y-84215060D01*
X90865518Y-84241000D01*
X90998482Y-84241000D01*
X91128890Y-84215060D01*
X91251732Y-84164177D01*
X91362287Y-84090307D01*
X91456307Y-83996287D01*
X91530177Y-83885732D01*
X91581060Y-83762890D01*
X91607000Y-83632482D01*
X91607000Y-83499518D01*
X91599893Y-83463792D01*
X92875685Y-82188000D01*
X94451456Y-82188000D01*
X94471693Y-82218287D01*
X94565713Y-82312307D01*
X94676268Y-82386177D01*
X94799110Y-82437060D01*
X94929518Y-82463000D01*
X95062482Y-82463000D01*
X95192890Y-82437060D01*
X95315732Y-82386177D01*
X95426287Y-82312307D01*
X95509076Y-82229518D01*
X98893000Y-82229518D01*
X98893000Y-82362482D01*
X98918940Y-82492890D01*
X98969823Y-82615732D01*
X99043693Y-82726287D01*
X99137713Y-82820307D01*
X99248268Y-82894177D01*
X99371110Y-82945060D01*
X99501518Y-82971000D01*
X99634482Y-82971000D01*
X99764890Y-82945060D01*
X99887732Y-82894177D01*
X99998287Y-82820307D01*
X100016455Y-82802140D01*
X103218107Y-86003792D01*
X103211000Y-86039518D01*
X103211000Y-86172482D01*
X103236940Y-86302890D01*
X103287823Y-86425732D01*
X103361693Y-86536287D01*
X103455713Y-86630307D01*
X103566268Y-86704177D01*
X103689110Y-86755060D01*
X103819518Y-86781000D01*
X103952482Y-86781000D01*
X104082890Y-86755060D01*
X104094635Y-86750195D01*
X181137000Y-86750195D01*
X181137000Y-87493805D01*
X181282071Y-88223127D01*
X181566638Y-88910133D01*
X181979766Y-89528422D01*
X182505578Y-90054234D01*
X183123867Y-90467362D01*
X183810873Y-90751929D01*
X184540195Y-90897000D01*
X185283805Y-90897000D01*
X186013127Y-90751929D01*
X186700133Y-90467362D01*
X187318422Y-90054234D01*
X187844234Y-89528422D01*
X188257362Y-88910133D01*
X188541929Y-88223127D01*
X188687000Y-87493805D01*
X188687000Y-86750195D01*
X188541929Y-86020873D01*
X188257362Y-85333867D01*
X187844234Y-84715578D01*
X187318422Y-84189766D01*
X186700133Y-83776638D01*
X186013127Y-83492071D01*
X185283805Y-83347000D01*
X184540195Y-83347000D01*
X183810873Y-83492071D01*
X183123867Y-83776638D01*
X182505578Y-84189766D01*
X181979766Y-84715578D01*
X181566638Y-85333867D01*
X181282071Y-86020873D01*
X181137000Y-86750195D01*
X104094635Y-86750195D01*
X104205732Y-86704177D01*
X104316287Y-86630307D01*
X104410307Y-86536287D01*
X104484177Y-86425732D01*
X104535060Y-86302890D01*
X104561000Y-86172482D01*
X104561000Y-86039518D01*
X104535060Y-85909110D01*
X104484177Y-85786268D01*
X104410307Y-85675713D01*
X104316287Y-85581693D01*
X104205732Y-85507823D01*
X104082890Y-85456940D01*
X103952482Y-85431000D01*
X103819518Y-85431000D01*
X103783792Y-85438107D01*
X101687592Y-83341907D01*
X105674750Y-83341907D01*
X105674750Y-83790093D01*
X105762187Y-84229666D01*
X105933700Y-84643735D01*
X106182698Y-85016387D01*
X106499613Y-85333302D01*
X106872265Y-85582300D01*
X107286334Y-85753813D01*
X107725907Y-85841250D01*
X108174093Y-85841250D01*
X108613666Y-85753813D01*
X109027735Y-85582300D01*
X109400387Y-85333302D01*
X109713026Y-85020663D01*
X131382692Y-85020663D01*
X131465469Y-85176362D01*
X131650588Y-85279181D01*
X131852209Y-85343911D01*
X132062584Y-85368062D01*
X132273628Y-85350707D01*
X132477231Y-85292512D01*
X132665569Y-85195714D01*
X132694531Y-85176362D01*
X132777308Y-85020663D01*
X140018692Y-85020663D01*
X140101469Y-85176362D01*
X140286588Y-85279181D01*
X140488209Y-85343911D01*
X140698584Y-85368062D01*
X140909628Y-85350707D01*
X141113231Y-85292512D01*
X141301569Y-85195714D01*
X141330531Y-85176362D01*
X141413308Y-85020663D01*
X140716000Y-84323355D01*
X140018692Y-85020663D01*
X132777308Y-85020663D01*
X132080000Y-84323355D01*
X131382692Y-85020663D01*
X109713026Y-85020663D01*
X109717302Y-85016387D01*
X109966300Y-84643735D01*
X110120864Y-84270584D01*
X130999938Y-84270584D01*
X131017293Y-84481628D01*
X131075488Y-84685231D01*
X131172286Y-84873569D01*
X131191638Y-84902531D01*
X131347337Y-84985308D01*
X132044645Y-84288000D01*
X132115355Y-84288000D01*
X132812663Y-84985308D01*
X132968362Y-84902531D01*
X133071181Y-84717412D01*
X133135911Y-84515791D01*
X133160062Y-84305416D01*
X133157198Y-84270584D01*
X139635938Y-84270584D01*
X139653293Y-84481628D01*
X139711488Y-84685231D01*
X139808286Y-84873569D01*
X139827638Y-84902531D01*
X139983337Y-84985308D01*
X140680645Y-84288000D01*
X140751355Y-84288000D01*
X141448663Y-84985308D01*
X141604362Y-84902531D01*
X141707181Y-84717412D01*
X141771911Y-84515791D01*
X141796062Y-84305416D01*
X141778707Y-84094372D01*
X141720512Y-83890769D01*
X141623714Y-83702431D01*
X141604362Y-83673469D01*
X141448663Y-83590692D01*
X140751355Y-84288000D01*
X140680645Y-84288000D01*
X139983337Y-83590692D01*
X139827638Y-83673469D01*
X139724819Y-83858588D01*
X139660089Y-84060209D01*
X139635938Y-84270584D01*
X133157198Y-84270584D01*
X133142707Y-84094372D01*
X133084512Y-83890769D01*
X132987714Y-83702431D01*
X132968362Y-83673469D01*
X132812663Y-83590692D01*
X132115355Y-84288000D01*
X132044645Y-84288000D01*
X131347337Y-83590692D01*
X131191638Y-83673469D01*
X131088819Y-83858588D01*
X131024089Y-84060209D01*
X130999938Y-84270584D01*
X110120864Y-84270584D01*
X110137813Y-84229666D01*
X110225250Y-83790093D01*
X110225250Y-83555337D01*
X131382692Y-83555337D01*
X132080000Y-84252645D01*
X132777308Y-83555337D01*
X140018692Y-83555337D01*
X140716000Y-84252645D01*
X141413308Y-83555337D01*
X141330531Y-83399638D01*
X141145412Y-83296819D01*
X140943791Y-83232089D01*
X140733416Y-83207938D01*
X140522372Y-83225293D01*
X140318769Y-83283488D01*
X140130431Y-83380286D01*
X140101469Y-83399638D01*
X140018692Y-83555337D01*
X132777308Y-83555337D01*
X132694531Y-83399638D01*
X132509412Y-83296819D01*
X132307791Y-83232089D01*
X132097416Y-83207938D01*
X131886372Y-83225293D01*
X131682769Y-83283488D01*
X131494431Y-83380286D01*
X131465469Y-83399638D01*
X131382692Y-83555337D01*
X110225250Y-83555337D01*
X110225250Y-83341907D01*
X110137813Y-82902334D01*
X109966300Y-82488265D01*
X109717302Y-82115613D01*
X109400387Y-81798698D01*
X109027735Y-81549700D01*
X108613666Y-81378187D01*
X108174093Y-81290750D01*
X107725907Y-81290750D01*
X107286334Y-81378187D01*
X106872265Y-81549700D01*
X106499613Y-81798698D01*
X106182698Y-82115613D01*
X105933700Y-82488265D01*
X105762187Y-82902334D01*
X105674750Y-83341907D01*
X101687592Y-83341907D01*
X100372737Y-82027052D01*
X100360211Y-82011789D01*
X100299303Y-81961803D01*
X100229814Y-81924660D01*
X100154414Y-81901788D01*
X100113734Y-81897781D01*
X100092307Y-81865713D01*
X99998287Y-81771693D01*
X99887732Y-81697823D01*
X99764890Y-81646940D01*
X99634482Y-81621000D01*
X99501518Y-81621000D01*
X99371110Y-81646940D01*
X99248268Y-81697823D01*
X99137713Y-81771693D01*
X99043693Y-81865713D01*
X98969823Y-81976268D01*
X98918940Y-82099110D01*
X98893000Y-82229518D01*
X95509076Y-82229518D01*
X95520307Y-82218287D01*
X95594177Y-82107732D01*
X95645060Y-81984890D01*
X95671000Y-81854482D01*
X95671000Y-81721518D01*
X95645060Y-81591110D01*
X95594177Y-81468268D01*
X95520307Y-81357713D01*
X95426287Y-81263693D01*
X95315732Y-81189823D01*
X95192890Y-81138940D01*
X95062482Y-81113000D01*
X94929518Y-81113000D01*
X94799110Y-81138940D01*
X94676268Y-81189823D01*
X94565713Y-81263693D01*
X94471693Y-81357713D01*
X94451456Y-81388000D01*
X92729647Y-81388000D01*
X92710000Y-81386065D01*
X92690353Y-81388000D01*
X92631586Y-81393788D01*
X92556186Y-81416660D01*
X92486697Y-81453803D01*
X92425789Y-81503789D01*
X92413263Y-81519052D01*
X91034208Y-82898107D01*
X90998482Y-82891000D01*
X90865518Y-82891000D01*
X90735110Y-82916940D01*
X90612268Y-82967823D01*
X90501713Y-83041693D01*
X90407693Y-83135713D01*
X90333823Y-83246268D01*
X90282940Y-83369110D01*
X90257000Y-83499518D01*
X76303106Y-83499518D01*
X76285127Y-83492071D01*
X75555805Y-83347000D01*
X74812195Y-83347000D01*
X74082873Y-83492071D01*
X73395867Y-83776638D01*
X72777578Y-84189766D01*
X72251766Y-84715578D01*
X71838638Y-85333867D01*
X71554071Y-86020873D01*
X71409000Y-86750195D01*
X70100000Y-86750195D01*
X70100000Y-80915197D01*
X114953000Y-80915197D01*
X114953000Y-81136803D01*
X114996233Y-81354150D01*
X115081038Y-81558887D01*
X115204156Y-81743145D01*
X115360855Y-81899844D01*
X115545113Y-82022962D01*
X115749850Y-82107767D01*
X115967197Y-82151000D01*
X116188803Y-82151000D01*
X116406150Y-82107767D01*
X116610887Y-82022962D01*
X116795145Y-81899844D01*
X116951844Y-81743145D01*
X117074962Y-81558887D01*
X117159767Y-81354150D01*
X117203000Y-81136803D01*
X117203000Y-80988000D01*
X131003670Y-80988000D01*
X131003670Y-82588000D01*
X131008980Y-82641909D01*
X131024704Y-82693747D01*
X131050240Y-82741521D01*
X131084605Y-82783395D01*
X131126479Y-82817760D01*
X131174253Y-82843296D01*
X131226091Y-82859020D01*
X131280000Y-82864330D01*
X132880000Y-82864330D01*
X132933909Y-82859020D01*
X132985747Y-82843296D01*
X133033521Y-82817760D01*
X133075395Y-82783395D01*
X133109760Y-82741521D01*
X133135296Y-82693747D01*
X133151020Y-82641909D01*
X133156330Y-82588000D01*
X133156330Y-80988000D01*
X133151020Y-80934091D01*
X133135296Y-80882253D01*
X133109760Y-80834479D01*
X133075395Y-80792605D01*
X133033521Y-80758240D01*
X132985747Y-80732704D01*
X132933909Y-80716980D01*
X132880000Y-80711670D01*
X131280000Y-80711670D01*
X131226091Y-80716980D01*
X131174253Y-80732704D01*
X131126479Y-80758240D01*
X131084605Y-80792605D01*
X131050240Y-80834479D01*
X131024704Y-80882253D01*
X131008980Y-80934091D01*
X131003670Y-80988000D01*
X117203000Y-80988000D01*
X117203000Y-80915197D01*
X117159767Y-80697850D01*
X117074962Y-80493113D01*
X116951844Y-80308855D01*
X116795145Y-80152156D01*
X116610887Y-80029038D01*
X116406150Y-79944233D01*
X116188803Y-79901000D01*
X115967197Y-79901000D01*
X115749850Y-79944233D01*
X115545113Y-80029038D01*
X115360855Y-80152156D01*
X115204156Y-80308855D01*
X115081038Y-80493113D01*
X114996233Y-80697850D01*
X114953000Y-80915197D01*
X70100000Y-80915197D01*
X70100000Y-77149518D01*
X93051000Y-77149518D01*
X93051000Y-77282482D01*
X93076940Y-77412890D01*
X93127823Y-77535732D01*
X93201693Y-77646287D01*
X93295713Y-77740307D01*
X93406268Y-77814177D01*
X93529110Y-77865060D01*
X93659518Y-77891000D01*
X93792482Y-77891000D01*
X93922890Y-77865060D01*
X94045732Y-77814177D01*
X94156287Y-77740307D01*
X94250307Y-77646287D01*
X94324177Y-77535732D01*
X94375060Y-77412890D01*
X94401000Y-77282482D01*
X94401000Y-77149518D01*
X94375060Y-77019110D01*
X94324177Y-76896268D01*
X94251000Y-76786750D01*
X94251000Y-76483907D01*
X105674750Y-76483907D01*
X105674750Y-76932093D01*
X105762187Y-77371666D01*
X105933700Y-77785735D01*
X106182698Y-78158387D01*
X106499613Y-78475302D01*
X106872265Y-78724300D01*
X107286334Y-78895813D01*
X107725907Y-78983250D01*
X108174093Y-78983250D01*
X108613666Y-78895813D01*
X109027735Y-78724300D01*
X109400387Y-78475302D01*
X109500492Y-78375197D01*
X114953000Y-78375197D01*
X114953000Y-78596803D01*
X114996233Y-78814150D01*
X115081038Y-79018887D01*
X115204156Y-79203145D01*
X115360855Y-79359844D01*
X115545113Y-79482962D01*
X115749850Y-79567767D01*
X115967197Y-79611000D01*
X116188803Y-79611000D01*
X116406150Y-79567767D01*
X116610887Y-79482962D01*
X116795145Y-79359844D01*
X116951844Y-79203145D01*
X117074962Y-79018887D01*
X117159767Y-78814150D01*
X117188308Y-78670663D01*
X125540692Y-78670663D01*
X125623469Y-78826362D01*
X125808588Y-78929181D01*
X126010209Y-78993911D01*
X126220584Y-79018062D01*
X126431628Y-79000707D01*
X126635231Y-78942512D01*
X126823569Y-78845714D01*
X126852531Y-78826362D01*
X126935308Y-78670663D01*
X126238000Y-77973355D01*
X125540692Y-78670663D01*
X117188308Y-78670663D01*
X117203000Y-78596803D01*
X117203000Y-78375197D01*
X117159767Y-78157850D01*
X117074962Y-77953113D01*
X117053227Y-77920584D01*
X125157938Y-77920584D01*
X125175293Y-78131628D01*
X125233488Y-78335231D01*
X125330286Y-78523569D01*
X125349638Y-78552531D01*
X125505337Y-78635308D01*
X126202645Y-77938000D01*
X126273355Y-77938000D01*
X126970663Y-78635308D01*
X127126362Y-78552531D01*
X127229181Y-78367412D01*
X127293911Y-78165791D01*
X127318062Y-77955416D01*
X127300707Y-77744372D01*
X127242512Y-77540769D01*
X127145714Y-77352431D01*
X127126362Y-77323469D01*
X126970663Y-77240692D01*
X126273355Y-77938000D01*
X126202645Y-77938000D01*
X125505337Y-77240692D01*
X125349638Y-77323469D01*
X125246819Y-77508588D01*
X125182089Y-77710209D01*
X125157938Y-77920584D01*
X117053227Y-77920584D01*
X116951844Y-77768855D01*
X116795145Y-77612156D01*
X116610887Y-77489038D01*
X116406150Y-77404233D01*
X116188803Y-77361000D01*
X115967197Y-77361000D01*
X115749850Y-77404233D01*
X115545113Y-77489038D01*
X115360855Y-77612156D01*
X115204156Y-77768855D01*
X115081038Y-77953113D01*
X114996233Y-78157850D01*
X114953000Y-78375197D01*
X109500492Y-78375197D01*
X109717302Y-78158387D01*
X109966300Y-77785735D01*
X110137813Y-77371666D01*
X110170898Y-77205337D01*
X125540692Y-77205337D01*
X126238000Y-77902645D01*
X126935308Y-77205337D01*
X126852531Y-77049638D01*
X126667412Y-76946819D01*
X126465791Y-76882089D01*
X126255416Y-76857938D01*
X126044372Y-76875293D01*
X125840769Y-76933488D01*
X125652431Y-77030286D01*
X125623469Y-77049638D01*
X125540692Y-77205337D01*
X110170898Y-77205337D01*
X110225250Y-76932093D01*
X110225250Y-76483907D01*
X110137813Y-76044334D01*
X109966300Y-75630265D01*
X109717302Y-75257613D01*
X109555689Y-75096000D01*
X114951670Y-75096000D01*
X114951670Y-76796000D01*
X114956980Y-76849909D01*
X114972704Y-76901747D01*
X114998240Y-76949521D01*
X115032605Y-76991395D01*
X115074479Y-77025760D01*
X115122253Y-77051296D01*
X115174091Y-77067020D01*
X115228000Y-77072330D01*
X116928000Y-77072330D01*
X116981909Y-77067020D01*
X117033747Y-77051296D01*
X117081521Y-77025760D01*
X117123395Y-76991395D01*
X117157760Y-76949521D01*
X117183296Y-76901747D01*
X117199020Y-76849909D01*
X117204330Y-76796000D01*
X117204330Y-75096000D01*
X117199020Y-75042091D01*
X117183296Y-74990253D01*
X117157760Y-74942479D01*
X117123395Y-74900605D01*
X117081521Y-74866240D01*
X117033747Y-74840704D01*
X116981909Y-74824980D01*
X116928000Y-74819670D01*
X115228000Y-74819670D01*
X115174091Y-74824980D01*
X115122253Y-74840704D01*
X115074479Y-74866240D01*
X115032605Y-74900605D01*
X114998240Y-74942479D01*
X114972704Y-74990253D01*
X114956980Y-75042091D01*
X114951670Y-75096000D01*
X109555689Y-75096000D01*
X109400387Y-74940698D01*
X109027735Y-74691700D01*
X108898092Y-74638000D01*
X125161670Y-74638000D01*
X125161670Y-76238000D01*
X125166980Y-76291909D01*
X125182704Y-76343747D01*
X125208240Y-76391521D01*
X125242605Y-76433395D01*
X125284479Y-76467760D01*
X125332253Y-76493296D01*
X125384091Y-76509020D01*
X125438000Y-76514330D01*
X127038000Y-76514330D01*
X127091909Y-76509020D01*
X127143747Y-76493296D01*
X127191521Y-76467760D01*
X127233395Y-76433395D01*
X127267760Y-76391521D01*
X127293296Y-76343747D01*
X127309020Y-76291909D01*
X127314330Y-76238000D01*
X127314330Y-74638000D01*
X127309020Y-74584091D01*
X127293296Y-74532253D01*
X127267760Y-74484479D01*
X127233395Y-74442605D01*
X127191521Y-74408240D01*
X127143747Y-74382704D01*
X127091909Y-74366980D01*
X127038000Y-74361670D01*
X125438000Y-74361670D01*
X125384091Y-74366980D01*
X125332253Y-74382704D01*
X125284479Y-74408240D01*
X125242605Y-74442605D01*
X125208240Y-74484479D01*
X125182704Y-74532253D01*
X125166980Y-74584091D01*
X125161670Y-74638000D01*
X108898092Y-74638000D01*
X108613666Y-74520187D01*
X108174093Y-74432750D01*
X107725907Y-74432750D01*
X107286334Y-74520187D01*
X106872265Y-74691700D01*
X106499613Y-74940698D01*
X106182698Y-75257613D01*
X105933700Y-75630265D01*
X105762187Y-76044334D01*
X105674750Y-76483907D01*
X94251000Y-76483907D01*
X94251000Y-74639461D01*
X96333705Y-72556757D01*
X96462890Y-72531060D01*
X96585732Y-72480177D01*
X96696287Y-72406307D01*
X96790307Y-72312287D01*
X96864177Y-72201732D01*
X96915060Y-72078890D01*
X96941000Y-71948482D01*
X96941000Y-71815518D01*
X96915060Y-71685110D01*
X96864177Y-71562268D01*
X96790307Y-71451713D01*
X96696287Y-71357693D01*
X96585732Y-71283823D01*
X96462890Y-71232940D01*
X96332482Y-71207000D01*
X96199518Y-71207000D01*
X96069110Y-71232940D01*
X95946268Y-71283823D01*
X95835713Y-71357693D01*
X95741693Y-71451713D01*
X95667823Y-71562268D01*
X95616940Y-71685110D01*
X95591243Y-71814295D01*
X93373010Y-74032529D01*
X93352973Y-74048973D01*
X93287367Y-74128914D01*
X93238617Y-74220120D01*
X93208597Y-74319083D01*
X93201000Y-74396213D01*
X93201000Y-74396220D01*
X93198461Y-74422000D01*
X93201000Y-74447780D01*
X93201001Y-76786749D01*
X93127823Y-76896268D01*
X93076940Y-77019110D01*
X93051000Y-77149518D01*
X70100000Y-77149518D01*
X70100000Y-73036273D01*
X86201000Y-73036273D01*
X86201000Y-73267727D01*
X86246155Y-73494735D01*
X86334729Y-73708571D01*
X86463318Y-73901019D01*
X86626981Y-74064682D01*
X86819429Y-74193271D01*
X87033265Y-74281845D01*
X87260273Y-74327000D01*
X87491727Y-74327000D01*
X87718735Y-74281845D01*
X87932571Y-74193271D01*
X88125019Y-74064682D01*
X88288682Y-73901019D01*
X88417271Y-73708571D01*
X88505845Y-73494735D01*
X88551000Y-73267727D01*
X88551000Y-73036273D01*
X91027000Y-73036273D01*
X91027000Y-73267727D01*
X91072155Y-73494735D01*
X91160729Y-73708571D01*
X91289318Y-73901019D01*
X91452981Y-74064682D01*
X91645429Y-74193271D01*
X91859265Y-74281845D01*
X92086273Y-74327000D01*
X92317727Y-74327000D01*
X92544735Y-74281845D01*
X92758571Y-74193271D01*
X92951019Y-74064682D01*
X93114682Y-73901019D01*
X93243271Y-73708571D01*
X93331845Y-73494735D01*
X93377000Y-73267727D01*
X93377000Y-73036273D01*
X93331845Y-72809265D01*
X93243271Y-72595429D01*
X93114682Y-72402981D01*
X92951019Y-72239318D01*
X92758571Y-72110729D01*
X92544735Y-72022155D01*
X92317727Y-71977000D01*
X92086273Y-71977000D01*
X91859265Y-72022155D01*
X91645429Y-72110729D01*
X91452981Y-72239318D01*
X91289318Y-72402981D01*
X91160729Y-72595429D01*
X91072155Y-72809265D01*
X91027000Y-73036273D01*
X88551000Y-73036273D01*
X88505845Y-72809265D01*
X88417271Y-72595429D01*
X88288682Y-72402981D01*
X88125019Y-72239318D01*
X87932571Y-72110729D01*
X87718735Y-72022155D01*
X87491727Y-71977000D01*
X87260273Y-71977000D01*
X87033265Y-72022155D01*
X86819429Y-72110729D01*
X86626981Y-72239318D01*
X86463318Y-72402981D01*
X86334729Y-72595429D01*
X86246155Y-72809265D01*
X86201000Y-73036273D01*
X70100000Y-73036273D01*
X70100000Y-69712000D01*
X86199670Y-69712000D01*
X86199670Y-71512000D01*
X86204980Y-71565909D01*
X86220704Y-71617747D01*
X86246240Y-71665521D01*
X86280605Y-71707395D01*
X86322479Y-71741760D01*
X86370253Y-71767296D01*
X86422091Y-71783020D01*
X86476000Y-71788330D01*
X88276000Y-71788330D01*
X88329909Y-71783020D01*
X88381747Y-71767296D01*
X88429521Y-71741760D01*
X88471395Y-71707395D01*
X88505760Y-71665521D01*
X88531296Y-71617747D01*
X88547020Y-71565909D01*
X88552330Y-71512000D01*
X88552330Y-70001355D01*
X88841685Y-69712000D01*
X91025670Y-69712000D01*
X91025670Y-71512000D01*
X91030980Y-71565909D01*
X91046704Y-71617747D01*
X91072240Y-71665521D01*
X91106605Y-71707395D01*
X91148479Y-71741760D01*
X91196253Y-71767296D01*
X91248091Y-71783020D01*
X91302000Y-71788330D01*
X93102000Y-71788330D01*
X93155909Y-71783020D01*
X93207747Y-71767296D01*
X93255521Y-71741760D01*
X93297395Y-71707395D01*
X93331760Y-71665521D01*
X93357296Y-71617747D01*
X93373020Y-71565909D01*
X93378330Y-71512000D01*
X93378330Y-69712000D01*
X93373020Y-69658091D01*
X93357296Y-69606253D01*
X93331760Y-69558479D01*
X93297395Y-69516605D01*
X93255521Y-69482240D01*
X93207747Y-69456704D01*
X93155909Y-69440980D01*
X93102000Y-69435670D01*
X92602000Y-69435670D01*
X92602000Y-68745685D01*
X92991778Y-68355907D01*
X103388750Y-68355907D01*
X103388750Y-68804093D01*
X103476187Y-69243666D01*
X103647700Y-69657735D01*
X103896698Y-70030387D01*
X104213613Y-70347302D01*
X104586265Y-70596300D01*
X105000334Y-70767813D01*
X105439907Y-70855250D01*
X105888093Y-70855250D01*
X106327666Y-70767813D01*
X106741735Y-70596300D01*
X107114387Y-70347302D01*
X107296095Y-70165594D01*
X109955762Y-70165594D01*
X110182476Y-70444206D01*
X110571596Y-70666592D01*
X110996624Y-70808792D01*
X111441228Y-70865341D01*
X111888320Y-70834065D01*
X112320721Y-70716167D01*
X112721811Y-70516178D01*
X112829524Y-70444206D01*
X113056238Y-70165594D01*
X111506000Y-68615355D01*
X109955762Y-70165594D01*
X107296095Y-70165594D01*
X107431302Y-70030387D01*
X107680300Y-69657735D01*
X107851813Y-69243666D01*
X107939250Y-68804093D01*
X107939250Y-68515228D01*
X109220659Y-68515228D01*
X109251935Y-68962320D01*
X109369833Y-69394721D01*
X109569822Y-69795811D01*
X109641794Y-69903524D01*
X109920406Y-70130238D01*
X111470645Y-68580000D01*
X111541355Y-68580000D01*
X113091594Y-70130238D01*
X113370206Y-69903524D01*
X113486635Y-69699801D01*
X124713000Y-69699801D01*
X124713000Y-70000199D01*
X124771605Y-70294826D01*
X124886562Y-70572358D01*
X125053455Y-70822131D01*
X125265869Y-71034545D01*
X125515642Y-71201438D01*
X125793174Y-71316395D01*
X126087801Y-71375000D01*
X126388199Y-71375000D01*
X126682826Y-71316395D01*
X126960358Y-71201438D01*
X127210131Y-71034545D01*
X127422545Y-70822131D01*
X127589438Y-70572358D01*
X127704395Y-70294826D01*
X127763000Y-70000199D01*
X127763000Y-69699801D01*
X127704395Y-69405174D01*
X127589438Y-69127642D01*
X127422545Y-68877869D01*
X127210131Y-68665455D01*
X126960358Y-68498562D01*
X126682826Y-68383605D01*
X126388199Y-68325000D01*
X126087801Y-68325000D01*
X125793174Y-68383605D01*
X125515642Y-68498562D01*
X125265869Y-68665455D01*
X125053455Y-68877869D01*
X124886562Y-69127642D01*
X124771605Y-69405174D01*
X124713000Y-69699801D01*
X113486635Y-69699801D01*
X113592592Y-69514404D01*
X113734792Y-69089376D01*
X113791341Y-68644772D01*
X113760065Y-68197680D01*
X113642167Y-67765279D01*
X113442178Y-67364189D01*
X113370206Y-67256476D01*
X113091594Y-67029762D01*
X111541355Y-68580000D01*
X111470645Y-68580000D01*
X109920406Y-67029762D01*
X109641794Y-67256476D01*
X109419408Y-67645596D01*
X109277208Y-68070624D01*
X109220659Y-68515228D01*
X107939250Y-68515228D01*
X107939250Y-68355907D01*
X107851813Y-67916334D01*
X107680300Y-67502265D01*
X107431302Y-67129613D01*
X107296095Y-66994406D01*
X109955762Y-66994406D01*
X111506000Y-68544645D01*
X113056238Y-66994406D01*
X112829524Y-66715794D01*
X112440404Y-66493408D01*
X112015376Y-66351208D01*
X111570772Y-66294659D01*
X111123680Y-66325935D01*
X110691279Y-66443833D01*
X110290189Y-66643822D01*
X110182476Y-66715794D01*
X109955762Y-66994406D01*
X107296095Y-66994406D01*
X107114387Y-66812698D01*
X106741735Y-66563700D01*
X106327666Y-66392187D01*
X105888093Y-66304750D01*
X105439907Y-66304750D01*
X105000334Y-66392187D01*
X104586265Y-66563700D01*
X104213613Y-66812698D01*
X103896698Y-67129613D01*
X103647700Y-67502265D01*
X103476187Y-67916334D01*
X103388750Y-68355907D01*
X92991778Y-68355907D01*
X94653686Y-66694000D01*
X94959456Y-66694000D01*
X94979693Y-66724287D01*
X95073713Y-66818307D01*
X95184268Y-66892177D01*
X95307110Y-66943060D01*
X95437518Y-66969000D01*
X95570482Y-66969000D01*
X95700890Y-66943060D01*
X95823732Y-66892177D01*
X95934287Y-66818307D01*
X96012000Y-66740594D01*
X96089713Y-66818307D01*
X96200268Y-66892177D01*
X96323110Y-66943060D01*
X96453518Y-66969000D01*
X96586482Y-66969000D01*
X96716890Y-66943060D01*
X96839732Y-66892177D01*
X96950287Y-66818307D01*
X97044307Y-66724287D01*
X97118177Y-66613732D01*
X97169060Y-66490890D01*
X97195000Y-66360482D01*
X97195000Y-66227518D01*
X97187893Y-66191792D01*
X100495685Y-62884000D01*
X103223764Y-62884000D01*
X103210240Y-62900479D01*
X103184704Y-62948253D01*
X103168980Y-63000091D01*
X103163670Y-63054000D01*
X103163670Y-64454000D01*
X103168980Y-64507909D01*
X103184704Y-64559747D01*
X103210240Y-64607521D01*
X103244605Y-64649395D01*
X103286479Y-64683760D01*
X103334253Y-64709296D01*
X103386091Y-64725020D01*
X103440000Y-64730330D01*
X104840000Y-64730330D01*
X104893909Y-64725020D01*
X104945747Y-64709296D01*
X104993521Y-64683760D01*
X105035395Y-64649395D01*
X105069760Y-64607521D01*
X105095296Y-64559747D01*
X105111020Y-64507909D01*
X105116330Y-64454000D01*
X105116330Y-63657971D01*
X106465000Y-63657971D01*
X106465000Y-63850029D01*
X106502468Y-64038397D01*
X106575966Y-64215836D01*
X106682668Y-64375527D01*
X106818473Y-64511332D01*
X106978164Y-64618034D01*
X107155603Y-64691532D01*
X107343971Y-64729000D01*
X107536029Y-64729000D01*
X107724397Y-64691532D01*
X107901836Y-64618034D01*
X108061527Y-64511332D01*
X108197332Y-64375527D01*
X108304034Y-64215836D01*
X108377532Y-64038397D01*
X108415000Y-63850029D01*
X108415000Y-63657971D01*
X108377532Y-63469603D01*
X108304034Y-63292164D01*
X108197332Y-63132473D01*
X108061527Y-62996668D01*
X107901836Y-62889966D01*
X107724397Y-62816468D01*
X107536029Y-62779000D01*
X107343971Y-62779000D01*
X107155603Y-62816468D01*
X106978164Y-62889966D01*
X106818473Y-62996668D01*
X106682668Y-63132473D01*
X106575966Y-63292164D01*
X106502468Y-63469603D01*
X106465000Y-63657971D01*
X105116330Y-63657971D01*
X105116330Y-63054000D01*
X105111020Y-63000091D01*
X105095296Y-62948253D01*
X105069760Y-62900479D01*
X105056236Y-62884000D01*
X106190354Y-62884000D01*
X106210000Y-62885935D01*
X106229646Y-62884000D01*
X106229647Y-62884000D01*
X106288414Y-62878212D01*
X106363814Y-62855340D01*
X106433303Y-62818197D01*
X106494211Y-62768211D01*
X106506737Y-62752948D01*
X107093767Y-62165918D01*
X107155603Y-62191532D01*
X107343971Y-62229000D01*
X107536029Y-62229000D01*
X107724397Y-62191532D01*
X107901836Y-62118034D01*
X108061527Y-62011332D01*
X108197332Y-61875527D01*
X108304034Y-61715836D01*
X108377532Y-61538397D01*
X108415000Y-61350029D01*
X108415000Y-61157971D01*
X108377532Y-60969603D01*
X108304034Y-60792164D01*
X108197332Y-60632473D01*
X108061527Y-60496668D01*
X107901836Y-60389966D01*
X107724397Y-60316468D01*
X107536029Y-60279000D01*
X107343971Y-60279000D01*
X107155603Y-60316468D01*
X106978164Y-60389966D01*
X106818473Y-60496668D01*
X106682668Y-60632473D01*
X106575966Y-60792164D01*
X106502468Y-60969603D01*
X106465000Y-61157971D01*
X106465000Y-61350029D01*
X106502468Y-61538397D01*
X106528082Y-61600233D01*
X106044315Y-62084000D01*
X104652772Y-62084000D01*
X104761527Y-62011332D01*
X104897332Y-61875527D01*
X105004034Y-61715836D01*
X105077532Y-61538397D01*
X105115000Y-61350029D01*
X105115000Y-61157971D01*
X105077532Y-60969603D01*
X105004034Y-60792164D01*
X104897332Y-60632473D01*
X104761527Y-60496668D01*
X104601836Y-60389966D01*
X104424397Y-60316468D01*
X104236029Y-60279000D01*
X104043971Y-60279000D01*
X103855603Y-60316468D01*
X103678164Y-60389966D01*
X103518473Y-60496668D01*
X103382668Y-60632473D01*
X103275966Y-60792164D01*
X103202468Y-60969603D01*
X103165000Y-61157971D01*
X103165000Y-61350029D01*
X103202468Y-61538397D01*
X103275966Y-61715836D01*
X103382668Y-61875527D01*
X103518473Y-62011332D01*
X103627228Y-62084000D01*
X100349647Y-62084000D01*
X100330000Y-62082065D01*
X100310353Y-62084000D01*
X100251586Y-62089788D01*
X100176186Y-62112660D01*
X100106697Y-62149803D01*
X100045789Y-62199789D01*
X100033265Y-62215050D01*
X96622208Y-65626107D01*
X96586482Y-65619000D01*
X96453518Y-65619000D01*
X96323110Y-65644940D01*
X96200268Y-65695823D01*
X96089713Y-65769693D01*
X96012000Y-65847406D01*
X95934287Y-65769693D01*
X95823732Y-65695823D01*
X95700890Y-65644940D01*
X95570482Y-65619000D01*
X95437518Y-65619000D01*
X95307110Y-65644940D01*
X95184268Y-65695823D01*
X95073713Y-65769693D01*
X94979693Y-65863713D01*
X94959456Y-65894000D01*
X94507635Y-65894000D01*
X94487999Y-65892066D01*
X94468363Y-65894000D01*
X94468353Y-65894000D01*
X94409586Y-65899788D01*
X94334186Y-65922660D01*
X94264697Y-65959803D01*
X94264695Y-65959804D01*
X94264696Y-65959804D01*
X94219049Y-65997265D01*
X94219047Y-65997267D01*
X94203789Y-66009789D01*
X94191267Y-66025047D01*
X91933052Y-68283263D01*
X91917789Y-68295789D01*
X91867803Y-68356698D01*
X91830660Y-68426187D01*
X91808706Y-68498562D01*
X91807788Y-68501587D01*
X91800065Y-68580000D01*
X91802000Y-68599647D01*
X91802000Y-69435670D01*
X91302000Y-69435670D01*
X91248091Y-69440980D01*
X91196253Y-69456704D01*
X91148479Y-69482240D01*
X91106605Y-69516605D01*
X91072240Y-69558479D01*
X91046704Y-69606253D01*
X91030980Y-69658091D01*
X91025670Y-69712000D01*
X88841685Y-69712000D01*
X91859686Y-66694000D01*
X91911456Y-66694000D01*
X91931693Y-66724287D01*
X92025713Y-66818307D01*
X92136268Y-66892177D01*
X92259110Y-66943060D01*
X92389518Y-66969000D01*
X92522482Y-66969000D01*
X92652890Y-66943060D01*
X92775732Y-66892177D01*
X92886287Y-66818307D01*
X92980307Y-66724287D01*
X93054177Y-66613732D01*
X93105060Y-66490890D01*
X93131000Y-66360482D01*
X93131000Y-66227518D01*
X93105060Y-66097110D01*
X93054177Y-65974268D01*
X92980307Y-65863713D01*
X92886287Y-65769693D01*
X92775732Y-65695823D01*
X92652890Y-65644940D01*
X92522482Y-65619000D01*
X92389518Y-65619000D01*
X92259110Y-65644940D01*
X92136268Y-65695823D01*
X92025713Y-65769693D01*
X91931693Y-65863713D01*
X91911456Y-65894000D01*
X91713635Y-65894000D01*
X91693999Y-65892066D01*
X91674363Y-65894000D01*
X91674353Y-65894000D01*
X91615586Y-65899788D01*
X91540186Y-65922660D01*
X91470697Y-65959803D01*
X91470695Y-65959804D01*
X91470696Y-65959804D01*
X91425049Y-65997265D01*
X91425047Y-65997267D01*
X91409789Y-66009789D01*
X91397267Y-66025047D01*
X87986645Y-69435670D01*
X86476000Y-69435670D01*
X86422091Y-69440980D01*
X86370253Y-69456704D01*
X86322479Y-69482240D01*
X86280605Y-69516605D01*
X86246240Y-69558479D01*
X86220704Y-69606253D01*
X86204980Y-69658091D01*
X86199670Y-69712000D01*
X70100000Y-69712000D01*
X70100000Y-64545907D01*
X86624750Y-64545907D01*
X86624750Y-64994093D01*
X86712187Y-65433666D01*
X86883700Y-65847735D01*
X87132698Y-66220387D01*
X87449613Y-66537302D01*
X87822265Y-66786300D01*
X88236334Y-66957813D01*
X88675907Y-67045250D01*
X89124093Y-67045250D01*
X89563666Y-66957813D01*
X89977735Y-66786300D01*
X90350387Y-66537302D01*
X90667302Y-66220387D01*
X90916300Y-65847735D01*
X91087813Y-65433666D01*
X91175250Y-64994093D01*
X91175250Y-64545907D01*
X91087813Y-64106334D01*
X90916300Y-63692265D01*
X90667302Y-63319613D01*
X90350387Y-63002698D01*
X89977735Y-62753700D01*
X89563666Y-62582187D01*
X89124093Y-62494750D01*
X88675907Y-62494750D01*
X88236334Y-62582187D01*
X87822265Y-62753700D01*
X87449613Y-63002698D01*
X87132698Y-63319613D01*
X86883700Y-63692265D01*
X86712187Y-64106334D01*
X86624750Y-64545907D01*
X70100000Y-64545907D01*
X70100000Y-60005594D01*
X80999762Y-60005594D01*
X81226476Y-60284206D01*
X81615596Y-60506592D01*
X82040624Y-60648792D01*
X82485228Y-60705341D01*
X82932320Y-60674065D01*
X83364721Y-60556167D01*
X83765811Y-60356178D01*
X83873524Y-60284206D01*
X84100238Y-60005594D01*
X87349762Y-60005594D01*
X87576476Y-60284206D01*
X87965596Y-60506592D01*
X88390624Y-60648792D01*
X88835228Y-60705341D01*
X89282320Y-60674065D01*
X89714721Y-60556167D01*
X90115811Y-60356178D01*
X90223524Y-60284206D01*
X90450238Y-60005594D01*
X88900000Y-58455355D01*
X87349762Y-60005594D01*
X84100238Y-60005594D01*
X82550000Y-58455355D01*
X80999762Y-60005594D01*
X70100000Y-60005594D01*
X70100000Y-58355228D01*
X80264659Y-58355228D01*
X80295935Y-58802320D01*
X80413833Y-59234721D01*
X80613822Y-59635811D01*
X80685794Y-59743524D01*
X80964406Y-59970238D01*
X82514645Y-58420000D01*
X82585355Y-58420000D01*
X84135594Y-59970238D01*
X84414206Y-59743524D01*
X84636592Y-59354404D01*
X84778792Y-58929376D01*
X84835341Y-58484772D01*
X84826279Y-58355228D01*
X86614659Y-58355228D01*
X86645935Y-58802320D01*
X86763833Y-59234721D01*
X86963822Y-59635811D01*
X87035794Y-59743524D01*
X87314406Y-59970238D01*
X88864645Y-58420000D01*
X88935355Y-58420000D01*
X90485594Y-59970238D01*
X90764206Y-59743524D01*
X90986592Y-59354404D01*
X91128792Y-58929376D01*
X91185341Y-58484772D01*
X91154065Y-58037680D01*
X91036167Y-57605279D01*
X90836178Y-57204189D01*
X90764206Y-57096476D01*
X90485594Y-56869762D01*
X88935355Y-58420000D01*
X88864645Y-58420000D01*
X87314406Y-56869762D01*
X87035794Y-57096476D01*
X86813408Y-57485596D01*
X86671208Y-57910624D01*
X86614659Y-58355228D01*
X84826279Y-58355228D01*
X84804065Y-58037680D01*
X84686167Y-57605279D01*
X84486178Y-57204189D01*
X84414206Y-57096476D01*
X84135594Y-56869762D01*
X82585355Y-58420000D01*
X82514645Y-58420000D01*
X80964406Y-56869762D01*
X80685794Y-57096476D01*
X80463408Y-57485596D01*
X80321208Y-57910624D01*
X80264659Y-58355228D01*
X70100000Y-58355228D01*
X70100000Y-56834406D01*
X80999762Y-56834406D01*
X82550000Y-58384645D01*
X84100238Y-56834406D01*
X87349762Y-56834406D01*
X88900000Y-58384645D01*
X90450238Y-56834406D01*
X90223524Y-56555794D01*
X89834404Y-56333408D01*
X89409376Y-56191208D01*
X88964772Y-56134659D01*
X88517680Y-56165935D01*
X88085279Y-56283833D01*
X87684189Y-56483822D01*
X87576476Y-56555794D01*
X87349762Y-56834406D01*
X84100238Y-56834406D01*
X83873524Y-56555794D01*
X83484404Y-56333408D01*
X83059376Y-56191208D01*
X82614772Y-56134659D01*
X82167680Y-56165935D01*
X81735279Y-56283833D01*
X81334189Y-56483822D01*
X81226476Y-56555794D01*
X80999762Y-56834406D01*
X70100000Y-56834406D01*
X70100000Y-51845907D01*
X80274750Y-51845907D01*
X80274750Y-52294093D01*
X80362187Y-52733666D01*
X80533700Y-53147735D01*
X80782698Y-53520387D01*
X81099613Y-53837302D01*
X81472265Y-54086300D01*
X81886334Y-54257813D01*
X82325907Y-54345250D01*
X82774093Y-54345250D01*
X83213666Y-54257813D01*
X83627735Y-54086300D01*
X84000387Y-53837302D01*
X84317302Y-53520387D01*
X84566300Y-53147735D01*
X84737813Y-52733666D01*
X84825250Y-52294093D01*
X84825250Y-51885329D01*
X87025000Y-51885329D01*
X87025000Y-52254671D01*
X87097056Y-52616917D01*
X87238397Y-52958145D01*
X87443593Y-53265243D01*
X87704757Y-53526407D01*
X88011855Y-53731603D01*
X88353083Y-53872944D01*
X88715329Y-53945000D01*
X89084671Y-53945000D01*
X89446917Y-53872944D01*
X89788145Y-53731603D01*
X90095243Y-53526407D01*
X90356407Y-53265243D01*
X90561603Y-52958145D01*
X90702944Y-52616917D01*
X90775000Y-52254671D01*
X90775000Y-51885329D01*
X90702944Y-51523083D01*
X90561603Y-51181855D01*
X90356407Y-50874757D01*
X90095243Y-50613593D01*
X89880341Y-50470000D01*
X102263670Y-50470000D01*
X102263670Y-53670000D01*
X102268980Y-53723909D01*
X102284704Y-53775747D01*
X102310240Y-53823521D01*
X102344605Y-53865395D01*
X102386479Y-53899760D01*
X102434253Y-53925296D01*
X102486091Y-53941020D01*
X102540000Y-53946330D01*
X103465000Y-53946330D01*
X103465001Y-58050140D01*
X103382668Y-58132473D01*
X103275966Y-58292164D01*
X103202468Y-58469603D01*
X103165000Y-58657971D01*
X103165000Y-58850029D01*
X103202468Y-59038397D01*
X103275966Y-59215836D01*
X103382668Y-59375527D01*
X103518473Y-59511332D01*
X103678164Y-59618034D01*
X103855603Y-59691532D01*
X104043971Y-59729000D01*
X104236029Y-59729000D01*
X104424397Y-59691532D01*
X104601836Y-59618034D01*
X104761527Y-59511332D01*
X104897332Y-59375527D01*
X105004034Y-59215836D01*
X105077532Y-59038397D01*
X105115000Y-58850029D01*
X105115000Y-58657971D01*
X106465000Y-58657971D01*
X106465000Y-58850029D01*
X106502468Y-59038397D01*
X106575966Y-59215836D01*
X106682668Y-59375527D01*
X106818473Y-59511332D01*
X106978164Y-59618034D01*
X107155603Y-59691532D01*
X107343971Y-59729000D01*
X107536029Y-59729000D01*
X107724397Y-59691532D01*
X107901836Y-59618034D01*
X108061527Y-59511332D01*
X108197332Y-59375527D01*
X108304034Y-59215836D01*
X108377532Y-59038397D01*
X108415000Y-58850029D01*
X108415000Y-58657971D01*
X108377532Y-58469603D01*
X108304034Y-58292164D01*
X108197332Y-58132473D01*
X108061527Y-57996668D01*
X107901836Y-57889966D01*
X107724397Y-57816468D01*
X107536029Y-57779000D01*
X107343971Y-57779000D01*
X107155603Y-57816468D01*
X106978164Y-57889966D01*
X106818473Y-57996668D01*
X106682668Y-58132473D01*
X106575966Y-58292164D01*
X106502468Y-58469603D01*
X106465000Y-58657971D01*
X105115000Y-58657971D01*
X105077532Y-58469603D01*
X105004034Y-58292164D01*
X104897332Y-58132473D01*
X104815000Y-58050141D01*
X104815000Y-57699801D01*
X124713000Y-57699801D01*
X124713000Y-58000199D01*
X124771605Y-58294826D01*
X124886562Y-58572358D01*
X125053455Y-58822131D01*
X125265869Y-59034545D01*
X125515642Y-59201438D01*
X125793174Y-59316395D01*
X126087801Y-59375000D01*
X126388199Y-59375000D01*
X126682826Y-59316395D01*
X126960358Y-59201438D01*
X127210131Y-59034545D01*
X127422545Y-58822131D01*
X127589438Y-58572358D01*
X127704395Y-58294826D01*
X127763000Y-58000199D01*
X127763000Y-57699801D01*
X127704395Y-57405174D01*
X127589438Y-57127642D01*
X127422545Y-56877869D01*
X127210131Y-56665455D01*
X126960358Y-56498562D01*
X126682826Y-56383605D01*
X126388199Y-56325000D01*
X126087801Y-56325000D01*
X125793174Y-56383605D01*
X125515642Y-56498562D01*
X125265869Y-56665455D01*
X125053455Y-56877869D01*
X124886562Y-57127642D01*
X124771605Y-57405174D01*
X124713000Y-57699801D01*
X104815000Y-57699801D01*
X104815000Y-53946330D01*
X105740000Y-53946330D01*
X105793909Y-53941020D01*
X105845747Y-53925296D01*
X105893521Y-53899760D01*
X105935395Y-53865395D01*
X105969760Y-53823521D01*
X105995296Y-53775747D01*
X106011020Y-53723909D01*
X106016330Y-53670000D01*
X106016330Y-51123329D01*
X116997000Y-51123329D01*
X116997000Y-51492671D01*
X117069056Y-51854917D01*
X117210397Y-52196145D01*
X117415593Y-52503243D01*
X117676757Y-52764407D01*
X117983855Y-52969603D01*
X118325083Y-53110944D01*
X118687329Y-53183000D01*
X119056671Y-53183000D01*
X119418917Y-53110944D01*
X119760145Y-52969603D01*
X120067243Y-52764407D01*
X120328407Y-52503243D01*
X120533603Y-52196145D01*
X120674944Y-51854917D01*
X120747000Y-51492671D01*
X120747000Y-51308000D01*
X132077202Y-51308000D01*
X132116300Y-51704969D01*
X132232092Y-52086683D01*
X132235670Y-52093377D01*
X132235670Y-52908000D01*
X132240980Y-52961909D01*
X132256704Y-53013747D01*
X132282240Y-53061521D01*
X132316605Y-53103395D01*
X132358479Y-53137760D01*
X132406253Y-53163296D01*
X132458091Y-53179020D01*
X132512000Y-53184330D01*
X133087000Y-53184330D01*
X133087000Y-54458350D01*
X133087001Y-54458360D01*
X133087000Y-72833650D01*
X133082041Y-72884000D01*
X133087000Y-72934350D01*
X133101831Y-73084934D01*
X133160442Y-73278147D01*
X133255620Y-73456215D01*
X133383709Y-73612291D01*
X133422830Y-73644397D01*
X139691001Y-79912570D01*
X139691000Y-80828678D01*
X139686240Y-80834479D01*
X139660704Y-80882253D01*
X139644980Y-80934091D01*
X139639670Y-80988000D01*
X139639670Y-82588000D01*
X139644980Y-82641909D01*
X139660704Y-82693747D01*
X139686240Y-82741521D01*
X139720605Y-82783395D01*
X139762479Y-82817760D01*
X139810253Y-82843296D01*
X139862091Y-82859020D01*
X139916000Y-82864330D01*
X141516000Y-82864330D01*
X141569909Y-82859020D01*
X141621747Y-82843296D01*
X141669521Y-82817760D01*
X141711395Y-82783395D01*
X141745760Y-82741521D01*
X141771296Y-82693747D01*
X141787020Y-82641909D01*
X141792330Y-82588000D01*
X141792330Y-80988000D01*
X141787020Y-80934091D01*
X141771296Y-80882253D01*
X141745760Y-80834479D01*
X141741000Y-80828679D01*
X141741000Y-80547907D01*
X151140750Y-80547907D01*
X151140750Y-80996093D01*
X151228187Y-81435666D01*
X151399700Y-81849735D01*
X151648698Y-82222387D01*
X151965613Y-82539302D01*
X152338265Y-82788300D01*
X152752334Y-82959813D01*
X153191907Y-83047250D01*
X153640093Y-83047250D01*
X154079666Y-82959813D01*
X154493735Y-82788300D01*
X154866387Y-82539302D01*
X155183302Y-82222387D01*
X155432300Y-81849735D01*
X155603813Y-81435666D01*
X155691250Y-80996093D01*
X155691250Y-80547907D01*
X157236750Y-80547907D01*
X157236750Y-80996093D01*
X157324187Y-81435666D01*
X157495700Y-81849735D01*
X157744698Y-82222387D01*
X158061613Y-82539302D01*
X158434265Y-82788300D01*
X158848334Y-82959813D01*
X159287907Y-83047250D01*
X159736093Y-83047250D01*
X160175666Y-82959813D01*
X160589735Y-82788300D01*
X160962387Y-82539302D01*
X161279302Y-82222387D01*
X161528300Y-81849735D01*
X161699813Y-81435666D01*
X161787250Y-80996093D01*
X161787250Y-80547907D01*
X166126750Y-80547907D01*
X166126750Y-80996093D01*
X166214187Y-81435666D01*
X166385700Y-81849735D01*
X166634698Y-82222387D01*
X166951613Y-82539302D01*
X167324265Y-82788300D01*
X167738334Y-82959813D01*
X168177907Y-83047250D01*
X168626093Y-83047250D01*
X169065666Y-82959813D01*
X169479735Y-82788300D01*
X169852387Y-82539302D01*
X170169302Y-82222387D01*
X170418300Y-81849735D01*
X170589813Y-81435666D01*
X170677250Y-80996093D01*
X170677250Y-80547907D01*
X172222750Y-80547907D01*
X172222750Y-80996093D01*
X172310187Y-81435666D01*
X172481700Y-81849735D01*
X172730698Y-82222387D01*
X173047613Y-82539302D01*
X173420265Y-82788300D01*
X173834334Y-82959813D01*
X174273907Y-83047250D01*
X174722093Y-83047250D01*
X175161666Y-82959813D01*
X175575735Y-82788300D01*
X175948387Y-82539302D01*
X176265302Y-82222387D01*
X176514300Y-81849735D01*
X176685813Y-81435666D01*
X176773250Y-80996093D01*
X176773250Y-80547907D01*
X176685813Y-80108334D01*
X176514300Y-79694265D01*
X176265302Y-79321613D01*
X175948387Y-79004698D01*
X175575735Y-78755700D01*
X175161666Y-78584187D01*
X174722093Y-78496750D01*
X174273907Y-78496750D01*
X173834334Y-78584187D01*
X173420265Y-78755700D01*
X173047613Y-79004698D01*
X172730698Y-79321613D01*
X172481700Y-79694265D01*
X172310187Y-80108334D01*
X172222750Y-80547907D01*
X170677250Y-80547907D01*
X170589813Y-80108334D01*
X170418300Y-79694265D01*
X170169302Y-79321613D01*
X169852387Y-79004698D01*
X169479735Y-78755700D01*
X169065666Y-78584187D01*
X168626093Y-78496750D01*
X168177907Y-78496750D01*
X167738334Y-78584187D01*
X167324265Y-78755700D01*
X166951613Y-79004698D01*
X166634698Y-79321613D01*
X166385700Y-79694265D01*
X166214187Y-80108334D01*
X166126750Y-80547907D01*
X161787250Y-80547907D01*
X161699813Y-80108334D01*
X161528300Y-79694265D01*
X161279302Y-79321613D01*
X160962387Y-79004698D01*
X160589735Y-78755700D01*
X160175666Y-78584187D01*
X159736093Y-78496750D01*
X159287907Y-78496750D01*
X158848334Y-78584187D01*
X158434265Y-78755700D01*
X158061613Y-79004698D01*
X157744698Y-79321613D01*
X157495700Y-79694265D01*
X157324187Y-80108334D01*
X157236750Y-80547907D01*
X155691250Y-80547907D01*
X155603813Y-80108334D01*
X155432300Y-79694265D01*
X155183302Y-79321613D01*
X154866387Y-79004698D01*
X154493735Y-78755700D01*
X154079666Y-78584187D01*
X153640093Y-78496750D01*
X153191907Y-78496750D01*
X152752334Y-78584187D01*
X152338265Y-78755700D01*
X151965613Y-79004698D01*
X151648698Y-79321613D01*
X151399700Y-79694265D01*
X151228187Y-80108334D01*
X151140750Y-80547907D01*
X141741000Y-80547907D01*
X141741000Y-79538339D01*
X141745958Y-79487999D01*
X141741000Y-79437659D01*
X141741000Y-79437649D01*
X141726169Y-79287065D01*
X141667558Y-79093852D01*
X141572380Y-78915785D01*
X141444291Y-78759709D01*
X141405181Y-78727612D01*
X136425568Y-73748000D01*
X154829669Y-73748000D01*
X154834979Y-73801910D01*
X154850703Y-73853747D01*
X154876239Y-73901521D01*
X154910604Y-73943396D01*
X154952479Y-73977761D01*
X155000253Y-74003297D01*
X155052090Y-74019021D01*
X155106000Y-74024331D01*
X155862250Y-74023000D01*
X155931000Y-73954250D01*
X155931000Y-72923000D01*
X155981000Y-72923000D01*
X155981000Y-73954250D01*
X156049750Y-74023000D01*
X156806000Y-74024331D01*
X156859910Y-74019021D01*
X156911747Y-74003297D01*
X156959521Y-73977761D01*
X157001396Y-73943396D01*
X157035761Y-73901521D01*
X157061297Y-73853747D01*
X157077021Y-73801910D01*
X157082331Y-73748000D01*
X157081000Y-72991750D01*
X157012250Y-72923000D01*
X155981000Y-72923000D01*
X155931000Y-72923000D01*
X154899750Y-72923000D01*
X154831000Y-72991750D01*
X154829669Y-73748000D01*
X136425568Y-73748000D01*
X135137000Y-72459433D01*
X135137000Y-72048000D01*
X154829669Y-72048000D01*
X154831000Y-72804250D01*
X154899750Y-72873000D01*
X155931000Y-72873000D01*
X155931000Y-71841750D01*
X155981000Y-71841750D01*
X155981000Y-72873000D01*
X157012250Y-72873000D01*
X157081000Y-72804250D01*
X157082331Y-72048000D01*
X157077021Y-71994090D01*
X157061297Y-71942253D01*
X157035761Y-71894479D01*
X157001396Y-71852604D01*
X156959521Y-71818239D01*
X156911747Y-71792703D01*
X156859910Y-71776979D01*
X156806000Y-71771669D01*
X156049750Y-71773000D01*
X155981000Y-71841750D01*
X155931000Y-71841750D01*
X155862250Y-71773000D01*
X155106000Y-71771669D01*
X155052090Y-71776979D01*
X155000253Y-71792703D01*
X154952479Y-71818239D01*
X154910604Y-71852604D01*
X154876239Y-71894479D01*
X154850703Y-71942253D01*
X154834979Y-71994090D01*
X154829669Y-72048000D01*
X135137000Y-72048000D01*
X135137000Y-70247197D01*
X154831000Y-70247197D01*
X154831000Y-70468803D01*
X154874233Y-70686150D01*
X154959038Y-70890887D01*
X155082156Y-71075145D01*
X155238855Y-71231844D01*
X155423113Y-71354962D01*
X155627850Y-71439767D01*
X155845197Y-71483000D01*
X156066803Y-71483000D01*
X156284150Y-71439767D01*
X156488887Y-71354962D01*
X156673145Y-71231844D01*
X156829844Y-71075145D01*
X156952962Y-70890887D01*
X157008006Y-70758000D01*
X161524354Y-70758000D01*
X161544000Y-70759935D01*
X161563646Y-70758000D01*
X161563647Y-70758000D01*
X161622414Y-70752212D01*
X161697814Y-70729340D01*
X161767303Y-70692197D01*
X161828211Y-70642211D01*
X161840737Y-70626948D01*
X162710736Y-69756950D01*
X162710741Y-69756944D01*
X162828948Y-69638737D01*
X162844211Y-69626211D01*
X162894197Y-69565303D01*
X162929504Y-69499249D01*
X163010890Y-69483060D01*
X163133732Y-69432177D01*
X163244287Y-69358307D01*
X163338307Y-69264287D01*
X163412177Y-69153732D01*
X163463060Y-69030890D01*
X163489000Y-68900482D01*
X163489000Y-68767518D01*
X163463060Y-68637110D01*
X163412177Y-68514268D01*
X163338307Y-68403713D01*
X163244287Y-68309693D01*
X163133732Y-68235823D01*
X163010890Y-68184940D01*
X162880482Y-68159000D01*
X162747518Y-68159000D01*
X162617110Y-68184940D01*
X162494268Y-68235823D01*
X162383713Y-68309693D01*
X162289693Y-68403713D01*
X162215823Y-68514268D01*
X162164940Y-68637110D01*
X162139000Y-68767518D01*
X162139000Y-68900482D01*
X162164104Y-69026686D01*
X162158065Y-69088000D01*
X162160000Y-69107646D01*
X162160000Y-69176315D01*
X162145056Y-69191259D01*
X162145050Y-69191264D01*
X161378315Y-69958000D01*
X157008006Y-69958000D01*
X156952962Y-69825113D01*
X156829844Y-69640855D01*
X156673145Y-69484156D01*
X156488887Y-69361038D01*
X156284150Y-69276233D01*
X156066803Y-69233000D01*
X155845197Y-69233000D01*
X155627850Y-69276233D01*
X155423113Y-69361038D01*
X155238855Y-69484156D01*
X155082156Y-69640855D01*
X154959038Y-69825113D01*
X154874233Y-70029850D01*
X154831000Y-70247197D01*
X135137000Y-70247197D01*
X135137000Y-67707197D01*
X154831000Y-67707197D01*
X154831000Y-67928803D01*
X154874233Y-68146150D01*
X154959038Y-68350887D01*
X155082156Y-68535145D01*
X155238855Y-68691844D01*
X155423113Y-68814962D01*
X155627850Y-68899767D01*
X155845197Y-68943000D01*
X156066803Y-68943000D01*
X156284150Y-68899767D01*
X156488887Y-68814962D01*
X156673145Y-68691844D01*
X156829844Y-68535145D01*
X156952962Y-68350887D01*
X157037767Y-68146150D01*
X157081000Y-67928803D01*
X157081000Y-67707197D01*
X157037767Y-67489850D01*
X156952962Y-67285113D01*
X156829844Y-67100855D01*
X156673145Y-66944156D01*
X156488887Y-66821038D01*
X156284150Y-66736233D01*
X156066803Y-66693000D01*
X155845197Y-66693000D01*
X155627850Y-66736233D01*
X155423113Y-66821038D01*
X155238855Y-66944156D01*
X155082156Y-67100855D01*
X154959038Y-67285113D01*
X154874233Y-67489850D01*
X154831000Y-67707197D01*
X135137000Y-67707197D01*
X135137000Y-66227518D01*
X138517000Y-66227518D01*
X138517000Y-66360482D01*
X138542940Y-66490890D01*
X138593823Y-66613732D01*
X138667693Y-66724287D01*
X138761713Y-66818307D01*
X138872268Y-66892177D01*
X138995110Y-66943060D01*
X139125518Y-66969000D01*
X139258482Y-66969000D01*
X139388890Y-66943060D01*
X139511732Y-66892177D01*
X139622287Y-66818307D01*
X139716307Y-66724287D01*
X139790177Y-66613732D01*
X139841060Y-66490890D01*
X139866757Y-66361704D01*
X141273798Y-64954663D01*
X150940692Y-64954663D01*
X151023469Y-65110362D01*
X151208588Y-65213181D01*
X151410209Y-65277911D01*
X151620584Y-65302062D01*
X151831628Y-65284707D01*
X152035231Y-65226512D01*
X152223569Y-65129714D01*
X152252531Y-65110362D01*
X152335308Y-64954663D01*
X151638000Y-64257355D01*
X150940692Y-64954663D01*
X141273798Y-64954663D01*
X142023877Y-64204584D01*
X150557938Y-64204584D01*
X150575293Y-64415628D01*
X150633488Y-64619231D01*
X150730286Y-64807569D01*
X150749638Y-64836531D01*
X150905337Y-64919308D01*
X151602645Y-64222000D01*
X151673355Y-64222000D01*
X152370663Y-64919308D01*
X152526362Y-64836531D01*
X152629181Y-64651412D01*
X152693911Y-64449791D01*
X152718062Y-64239416D01*
X152700707Y-64028372D01*
X152642512Y-63824769D01*
X152545714Y-63636431D01*
X152526362Y-63607469D01*
X152370663Y-63524692D01*
X151673355Y-64222000D01*
X151602645Y-64222000D01*
X150905337Y-63524692D01*
X150749638Y-63607469D01*
X150646819Y-63792588D01*
X150582089Y-63994209D01*
X150557938Y-64204584D01*
X142023877Y-64204584D01*
X142203462Y-64025000D01*
X144350750Y-64025000D01*
X144460268Y-64098177D01*
X144583110Y-64149060D01*
X144713518Y-64175000D01*
X144846482Y-64175000D01*
X144976890Y-64149060D01*
X145099732Y-64098177D01*
X145210287Y-64024307D01*
X145304307Y-63930287D01*
X145378177Y-63819732D01*
X145429060Y-63696890D01*
X145455000Y-63566482D01*
X145455000Y-63433518D01*
X145429060Y-63303110D01*
X145378177Y-63180268D01*
X145304307Y-63069713D01*
X145210287Y-62975693D01*
X145099732Y-62901823D01*
X144976890Y-62850940D01*
X144846482Y-62825000D01*
X144713518Y-62825000D01*
X144583110Y-62850940D01*
X144460268Y-62901823D01*
X144350750Y-62975000D01*
X142011788Y-62975000D01*
X141986000Y-62972460D01*
X141960212Y-62975000D01*
X141883082Y-62982597D01*
X141784119Y-63012617D01*
X141692914Y-63061367D01*
X141612973Y-63126973D01*
X141596534Y-63147004D01*
X139124296Y-65619243D01*
X138995110Y-65644940D01*
X138872268Y-65695823D01*
X138761713Y-65769693D01*
X138667693Y-65863713D01*
X138593823Y-65974268D01*
X138542940Y-66097110D01*
X138517000Y-66227518D01*
X135137000Y-66227518D01*
X135137000Y-53333000D01*
X137247859Y-53333000D01*
X137332093Y-53610683D01*
X137520128Y-53962473D01*
X137621751Y-54086300D01*
X137773182Y-54270819D01*
X137850452Y-54334233D01*
X146740452Y-63224235D01*
X146971526Y-63413872D01*
X147323316Y-63601908D01*
X147705030Y-63717700D01*
X148102000Y-63756797D01*
X148498970Y-63717700D01*
X148880683Y-63601908D01*
X149232473Y-63413872D01*
X149435807Y-63247000D01*
X151183348Y-63247000D01*
X151052431Y-63314286D01*
X151023469Y-63333638D01*
X150940692Y-63489337D01*
X151638000Y-64186645D01*
X152335308Y-63489337D01*
X152252531Y-63333638D01*
X152096545Y-63247000D01*
X164067000Y-63247000D01*
X164067001Y-68300210D01*
X164064461Y-68326000D01*
X164074597Y-68428917D01*
X164104617Y-68527880D01*
X164153367Y-68619085D01*
X164153368Y-68619086D01*
X164171000Y-68640571D01*
X164171000Y-68646482D01*
X164196940Y-68776890D01*
X164247823Y-68899732D01*
X164321693Y-69010287D01*
X164415713Y-69104307D01*
X164526268Y-69178177D01*
X164649110Y-69229060D01*
X164779518Y-69255000D01*
X164912482Y-69255000D01*
X165042890Y-69229060D01*
X165165732Y-69178177D01*
X165276287Y-69104307D01*
X165370307Y-69010287D01*
X165444177Y-68899732D01*
X165495060Y-68776890D01*
X165521000Y-68646482D01*
X165521000Y-68513518D01*
X165495060Y-68383110D01*
X165444177Y-68260268D01*
X165370307Y-68149713D01*
X165276287Y-68055693D01*
X165165732Y-67981823D01*
X165117000Y-67961637D01*
X165117000Y-64954663D01*
X177610692Y-64954663D01*
X177693469Y-65110362D01*
X177878588Y-65213181D01*
X178080209Y-65277911D01*
X178290584Y-65302062D01*
X178501628Y-65284707D01*
X178705231Y-65226512D01*
X178893569Y-65129714D01*
X178922531Y-65110362D01*
X179005308Y-64954663D01*
X178308000Y-64257355D01*
X177610692Y-64954663D01*
X165117000Y-64954663D01*
X165117000Y-64204584D01*
X177227938Y-64204584D01*
X177245293Y-64415628D01*
X177303488Y-64619231D01*
X177400286Y-64807569D01*
X177419638Y-64836531D01*
X177575337Y-64919308D01*
X178272645Y-64222000D01*
X178343355Y-64222000D01*
X179040663Y-64919308D01*
X179196362Y-64836531D01*
X179299181Y-64651412D01*
X179363911Y-64449791D01*
X179388062Y-64239416D01*
X179370707Y-64028372D01*
X179312512Y-63824769D01*
X179215714Y-63636431D01*
X179196362Y-63607469D01*
X179040663Y-63524692D01*
X178343355Y-64222000D01*
X178272645Y-64222000D01*
X177575337Y-63524692D01*
X177419638Y-63607469D01*
X177316819Y-63792588D01*
X177252089Y-63994209D01*
X177227938Y-64204584D01*
X165117000Y-64204584D01*
X165117000Y-63247000D01*
X177853348Y-63247000D01*
X177722431Y-63314286D01*
X177693469Y-63333638D01*
X177610692Y-63489337D01*
X178308000Y-64186645D01*
X179005308Y-63489337D01*
X178922531Y-63333638D01*
X178737412Y-63230819D01*
X178664606Y-63207445D01*
X178894416Y-63137733D01*
X179159344Y-62996126D01*
X179391555Y-62805555D01*
X179582126Y-62573344D01*
X179723733Y-62308416D01*
X179810934Y-62020952D01*
X179840378Y-61722000D01*
X179810934Y-61423048D01*
X179723733Y-61135584D01*
X179582126Y-60870656D01*
X179391555Y-60638445D01*
X179159344Y-60447874D01*
X178894416Y-60306267D01*
X178606952Y-60219066D01*
X178382911Y-60197000D01*
X149440783Y-60197000D01*
X141237000Y-51993219D01*
X141237000Y-51407481D01*
X141246798Y-51308000D01*
X141207700Y-50911031D01*
X141091908Y-50529317D01*
X140903873Y-50177527D01*
X140650819Y-49869181D01*
X140342473Y-49616127D01*
X139990683Y-49428092D01*
X139608969Y-49312300D01*
X139311481Y-49283000D01*
X139212000Y-49273202D01*
X139112519Y-49283000D01*
X134012519Y-49283000D01*
X133715031Y-49312300D01*
X133333317Y-49428092D01*
X133326623Y-49431670D01*
X132512000Y-49431670D01*
X132458091Y-49436980D01*
X132406253Y-49452704D01*
X132358479Y-49478240D01*
X132316605Y-49512605D01*
X132282240Y-49554479D01*
X132256704Y-49602253D01*
X132240980Y-49654091D01*
X132235670Y-49708000D01*
X132235670Y-50522623D01*
X132232092Y-50529317D01*
X132116300Y-50911031D01*
X132077202Y-51308000D01*
X120747000Y-51308000D01*
X120747000Y-51123329D01*
X120674944Y-50761083D01*
X120533603Y-50419855D01*
X120328407Y-50112757D01*
X120067243Y-49851593D01*
X119760145Y-49646397D01*
X119418917Y-49505056D01*
X119056671Y-49433000D01*
X118687329Y-49433000D01*
X118325083Y-49505056D01*
X117983855Y-49646397D01*
X117676757Y-49851593D01*
X117415593Y-50112757D01*
X117210397Y-50419855D01*
X117069056Y-50761083D01*
X116997000Y-51123329D01*
X106016330Y-51123329D01*
X106016330Y-50470000D01*
X106011020Y-50416091D01*
X105995296Y-50364253D01*
X105969760Y-50316479D01*
X105935395Y-50274605D01*
X105893521Y-50240240D01*
X105845747Y-50214704D01*
X105793909Y-50198980D01*
X105740000Y-50193670D01*
X102540000Y-50193670D01*
X102486091Y-50198980D01*
X102434253Y-50214704D01*
X102386479Y-50240240D01*
X102344605Y-50274605D01*
X102310240Y-50316479D01*
X102284704Y-50364253D01*
X102268980Y-50416091D01*
X102263670Y-50470000D01*
X89880341Y-50470000D01*
X89788145Y-50408397D01*
X89446917Y-50267056D01*
X89084671Y-50195000D01*
X88715329Y-50195000D01*
X88353083Y-50267056D01*
X88011855Y-50408397D01*
X87704757Y-50613593D01*
X87443593Y-50874757D01*
X87238397Y-51181855D01*
X87097056Y-51523083D01*
X87025000Y-51885329D01*
X84825250Y-51885329D01*
X84825250Y-51845907D01*
X84737813Y-51406334D01*
X84566300Y-50992265D01*
X84317302Y-50619613D01*
X84000387Y-50302698D01*
X83627735Y-50053700D01*
X83213666Y-49882187D01*
X82774093Y-49794750D01*
X82325907Y-49794750D01*
X81886334Y-49882187D01*
X81472265Y-50053700D01*
X81099613Y-50302698D01*
X80782698Y-50619613D01*
X80533700Y-50992265D01*
X80362187Y-51406334D01*
X80274750Y-51845907D01*
X70100000Y-51845907D01*
X70100000Y-44332195D01*
X71409000Y-44332195D01*
X71409000Y-45075805D01*
X71554071Y-45805127D01*
X71838638Y-46492133D01*
X72251766Y-47110422D01*
X72777578Y-47636234D01*
X73395867Y-48049362D01*
X74082873Y-48333929D01*
X74812195Y-48479000D01*
X75555805Y-48479000D01*
X76285127Y-48333929D01*
X76972133Y-48049362D01*
X77590422Y-47636234D01*
X78116234Y-47110422D01*
X78176714Y-47019907D01*
X150886750Y-47019907D01*
X150886750Y-47468093D01*
X150974187Y-47907666D01*
X151145700Y-48321735D01*
X151394698Y-48694387D01*
X151711613Y-49011302D01*
X152084265Y-49260300D01*
X152498334Y-49431813D01*
X152937907Y-49519250D01*
X153386093Y-49519250D01*
X153825666Y-49431813D01*
X154239735Y-49260300D01*
X154612387Y-49011302D01*
X154929302Y-48694387D01*
X155178300Y-48321735D01*
X155349813Y-47907666D01*
X155437250Y-47468093D01*
X155437250Y-47019907D01*
X155349813Y-46580334D01*
X155178300Y-46166265D01*
X154929302Y-45793613D01*
X154612387Y-45476698D01*
X154239735Y-45227700D01*
X153825666Y-45056187D01*
X153482402Y-44987907D01*
X159522750Y-44987907D01*
X159522750Y-45436093D01*
X159610187Y-45875666D01*
X159781700Y-46289735D01*
X160030698Y-46662387D01*
X160347613Y-46979302D01*
X160720265Y-47228300D01*
X161134334Y-47399813D01*
X161573907Y-47487250D01*
X162022093Y-47487250D01*
X162461666Y-47399813D01*
X162875735Y-47228300D01*
X163248387Y-46979302D01*
X163565302Y-46662387D01*
X163814300Y-46289735D01*
X163985813Y-45875666D01*
X164073250Y-45436093D01*
X164073250Y-44987907D01*
X166126750Y-44987907D01*
X166126750Y-45436093D01*
X166214187Y-45875666D01*
X166385700Y-46289735D01*
X166634698Y-46662387D01*
X166951613Y-46979302D01*
X167324265Y-47228300D01*
X167738334Y-47399813D01*
X168177907Y-47487250D01*
X168626093Y-47487250D01*
X169065666Y-47399813D01*
X169479735Y-47228300D01*
X169791617Y-47019907D01*
X174762750Y-47019907D01*
X174762750Y-47468093D01*
X174850187Y-47907666D01*
X175021700Y-48321735D01*
X175270698Y-48694387D01*
X175587613Y-49011302D01*
X175960265Y-49260300D01*
X176374334Y-49431813D01*
X176813907Y-49519250D01*
X177262093Y-49519250D01*
X177701666Y-49431813D01*
X178115735Y-49260300D01*
X178488387Y-49011302D01*
X178805302Y-48694387D01*
X179054300Y-48321735D01*
X179225813Y-47907666D01*
X179313250Y-47468093D01*
X179313250Y-47019907D01*
X179225813Y-46580334D01*
X179054300Y-46166265D01*
X178805302Y-45793613D01*
X178488387Y-45476698D01*
X178115735Y-45227700D01*
X177701666Y-45056187D01*
X177262093Y-44968750D01*
X176813907Y-44968750D01*
X176374334Y-45056187D01*
X175960265Y-45227700D01*
X175587613Y-45476698D01*
X175270698Y-45793613D01*
X175021700Y-46166265D01*
X174850187Y-46580334D01*
X174762750Y-47019907D01*
X169791617Y-47019907D01*
X169852387Y-46979302D01*
X170169302Y-46662387D01*
X170418300Y-46289735D01*
X170589813Y-45875666D01*
X170677250Y-45436093D01*
X170677250Y-44987907D01*
X170589813Y-44548334D01*
X170500286Y-44332195D01*
X181137000Y-44332195D01*
X181137000Y-45075805D01*
X181282071Y-45805127D01*
X181566638Y-46492133D01*
X181979766Y-47110422D01*
X182505578Y-47636234D01*
X183123867Y-48049362D01*
X183810873Y-48333929D01*
X184540195Y-48479000D01*
X185283805Y-48479000D01*
X186013127Y-48333929D01*
X186700133Y-48049362D01*
X187318422Y-47636234D01*
X187844234Y-47110422D01*
X188257362Y-46492133D01*
X188541929Y-45805127D01*
X188687000Y-45075805D01*
X188687000Y-44332195D01*
X188541929Y-43602873D01*
X188257362Y-42915867D01*
X187844234Y-42297578D01*
X187318422Y-41771766D01*
X186700133Y-41358638D01*
X186013127Y-41074071D01*
X185283805Y-40929000D01*
X184540195Y-40929000D01*
X183810873Y-41074071D01*
X183123867Y-41358638D01*
X182505578Y-41771766D01*
X181979766Y-42297578D01*
X181566638Y-42915867D01*
X181282071Y-43602873D01*
X181137000Y-44332195D01*
X170500286Y-44332195D01*
X170418300Y-44134265D01*
X170169302Y-43761613D01*
X169852387Y-43444698D01*
X169479735Y-43195700D01*
X169065666Y-43024187D01*
X168626093Y-42936750D01*
X168177907Y-42936750D01*
X167738334Y-43024187D01*
X167324265Y-43195700D01*
X166951613Y-43444698D01*
X166634698Y-43761613D01*
X166385700Y-44134265D01*
X166214187Y-44548334D01*
X166126750Y-44987907D01*
X164073250Y-44987907D01*
X163985813Y-44548334D01*
X163814300Y-44134265D01*
X163565302Y-43761613D01*
X163248387Y-43444698D01*
X162875735Y-43195700D01*
X162461666Y-43024187D01*
X162022093Y-42936750D01*
X161573907Y-42936750D01*
X161134334Y-43024187D01*
X160720265Y-43195700D01*
X160347613Y-43444698D01*
X160030698Y-43761613D01*
X159781700Y-44134265D01*
X159610187Y-44548334D01*
X159522750Y-44987907D01*
X153482402Y-44987907D01*
X153386093Y-44968750D01*
X152937907Y-44968750D01*
X152498334Y-45056187D01*
X152084265Y-45227700D01*
X151711613Y-45476698D01*
X151394698Y-45793613D01*
X151145700Y-46166265D01*
X150974187Y-46580334D01*
X150886750Y-47019907D01*
X78176714Y-47019907D01*
X78529362Y-46492133D01*
X78813929Y-45805127D01*
X78959000Y-45075805D01*
X78959000Y-44332195D01*
X78813929Y-43602873D01*
X78529362Y-42915867D01*
X78116234Y-42297578D01*
X77590422Y-41771766D01*
X76972133Y-41358638D01*
X76285127Y-41074071D01*
X75555805Y-40929000D01*
X74812195Y-40929000D01*
X74082873Y-41074071D01*
X73395867Y-41358638D01*
X72777578Y-41771766D01*
X72251766Y-42297578D01*
X71838638Y-42915867D01*
X71554071Y-43602873D01*
X71409000Y-44332195D01*
X70100000Y-44332195D01*
X70100000Y-40255000D01*
X189615000Y-40255000D01*
X189615001Y-91825000D01*
G37*
X189615001Y-91825000D02*
X70100000Y-91825000D01*
X70100000Y-86750195D01*
X71409000Y-86750195D01*
X71409000Y-87493805D01*
X71554071Y-88223127D01*
X71838638Y-88910133D01*
X72251766Y-89528422D01*
X72777578Y-90054234D01*
X73395867Y-90467362D01*
X74082873Y-90751929D01*
X74812195Y-90897000D01*
X75555805Y-90897000D01*
X76285127Y-90751929D01*
X76972133Y-90467362D01*
X77590422Y-90054234D01*
X78116234Y-89528422D01*
X78529362Y-88910133D01*
X78813929Y-88223127D01*
X78959000Y-87493805D01*
X78959000Y-86750195D01*
X78813929Y-86020873D01*
X78529362Y-85333867D01*
X78116234Y-84715578D01*
X77590422Y-84189766D01*
X76972133Y-83776638D01*
X76303106Y-83499518D01*
X90257000Y-83499518D01*
X90257000Y-83632482D01*
X90282940Y-83762890D01*
X90333823Y-83885732D01*
X90407693Y-83996287D01*
X90501713Y-84090307D01*
X90612268Y-84164177D01*
X90735110Y-84215060D01*
X90865518Y-84241000D01*
X90998482Y-84241000D01*
X91128890Y-84215060D01*
X91251732Y-84164177D01*
X91362287Y-84090307D01*
X91456307Y-83996287D01*
X91530177Y-83885732D01*
X91581060Y-83762890D01*
X91607000Y-83632482D01*
X91607000Y-83499518D01*
X91599893Y-83463792D01*
X92875685Y-82188000D01*
X94451456Y-82188000D01*
X94471693Y-82218287D01*
X94565713Y-82312307D01*
X94676268Y-82386177D01*
X94799110Y-82437060D01*
X94929518Y-82463000D01*
X95062482Y-82463000D01*
X95192890Y-82437060D01*
X95315732Y-82386177D01*
X95426287Y-82312307D01*
X95509076Y-82229518D01*
X98893000Y-82229518D01*
X98893000Y-82362482D01*
X98918940Y-82492890D01*
X98969823Y-82615732D01*
X99043693Y-82726287D01*
X99137713Y-82820307D01*
X99248268Y-82894177D01*
X99371110Y-82945060D01*
X99501518Y-82971000D01*
X99634482Y-82971000D01*
X99764890Y-82945060D01*
X99887732Y-82894177D01*
X99998287Y-82820307D01*
X100016455Y-82802140D01*
X103218107Y-86003792D01*
X103211000Y-86039518D01*
X103211000Y-86172482D01*
X103236940Y-86302890D01*
X103287823Y-86425732D01*
X103361693Y-86536287D01*
X103455713Y-86630307D01*
X103566268Y-86704177D01*
X103689110Y-86755060D01*
X103819518Y-86781000D01*
X103952482Y-86781000D01*
X104082890Y-86755060D01*
X104094635Y-86750195D01*
X181137000Y-86750195D01*
X181137000Y-87493805D01*
X181282071Y-88223127D01*
X181566638Y-88910133D01*
X181979766Y-89528422D01*
X182505578Y-90054234D01*
X183123867Y-90467362D01*
X183810873Y-90751929D01*
X184540195Y-90897000D01*
X185283805Y-90897000D01*
X186013127Y-90751929D01*
X186700133Y-90467362D01*
X187318422Y-90054234D01*
X187844234Y-89528422D01*
X188257362Y-88910133D01*
X188541929Y-88223127D01*
X188687000Y-87493805D01*
X188687000Y-86750195D01*
X188541929Y-86020873D01*
X188257362Y-85333867D01*
X187844234Y-84715578D01*
X187318422Y-84189766D01*
X186700133Y-83776638D01*
X186013127Y-83492071D01*
X185283805Y-83347000D01*
X184540195Y-83347000D01*
X183810873Y-83492071D01*
X183123867Y-83776638D01*
X182505578Y-84189766D01*
X181979766Y-84715578D01*
X181566638Y-85333867D01*
X181282071Y-86020873D01*
X181137000Y-86750195D01*
X104094635Y-86750195D01*
X104205732Y-86704177D01*
X104316287Y-86630307D01*
X104410307Y-86536287D01*
X104484177Y-86425732D01*
X104535060Y-86302890D01*
X104561000Y-86172482D01*
X104561000Y-86039518D01*
X104535060Y-85909110D01*
X104484177Y-85786268D01*
X104410307Y-85675713D01*
X104316287Y-85581693D01*
X104205732Y-85507823D01*
X104082890Y-85456940D01*
X103952482Y-85431000D01*
X103819518Y-85431000D01*
X103783792Y-85438107D01*
X101687592Y-83341907D01*
X105674750Y-83341907D01*
X105674750Y-83790093D01*
X105762187Y-84229666D01*
X105933700Y-84643735D01*
X106182698Y-85016387D01*
X106499613Y-85333302D01*
X106872265Y-85582300D01*
X107286334Y-85753813D01*
X107725907Y-85841250D01*
X108174093Y-85841250D01*
X108613666Y-85753813D01*
X109027735Y-85582300D01*
X109400387Y-85333302D01*
X109713026Y-85020663D01*
X131382692Y-85020663D01*
X131465469Y-85176362D01*
X131650588Y-85279181D01*
X131852209Y-85343911D01*
X132062584Y-85368062D01*
X132273628Y-85350707D01*
X132477231Y-85292512D01*
X132665569Y-85195714D01*
X132694531Y-85176362D01*
X132777308Y-85020663D01*
X140018692Y-85020663D01*
X140101469Y-85176362D01*
X140286588Y-85279181D01*
X140488209Y-85343911D01*
X140698584Y-85368062D01*
X140909628Y-85350707D01*
X141113231Y-85292512D01*
X141301569Y-85195714D01*
X141330531Y-85176362D01*
X141413308Y-85020663D01*
X140716000Y-84323355D01*
X140018692Y-85020663D01*
X132777308Y-85020663D01*
X132080000Y-84323355D01*
X131382692Y-85020663D01*
X109713026Y-85020663D01*
X109717302Y-85016387D01*
X109966300Y-84643735D01*
X110120864Y-84270584D01*
X130999938Y-84270584D01*
X131017293Y-84481628D01*
X131075488Y-84685231D01*
X131172286Y-84873569D01*
X131191638Y-84902531D01*
X131347337Y-84985308D01*
X132044645Y-84288000D01*
X132115355Y-84288000D01*
X132812663Y-84985308D01*
X132968362Y-84902531D01*
X133071181Y-84717412D01*
X133135911Y-84515791D01*
X133160062Y-84305416D01*
X133157198Y-84270584D01*
X139635938Y-84270584D01*
X139653293Y-84481628D01*
X139711488Y-84685231D01*
X139808286Y-84873569D01*
X139827638Y-84902531D01*
X139983337Y-84985308D01*
X140680645Y-84288000D01*
X140751355Y-84288000D01*
X141448663Y-84985308D01*
X141604362Y-84902531D01*
X141707181Y-84717412D01*
X141771911Y-84515791D01*
X141796062Y-84305416D01*
X141778707Y-84094372D01*
X141720512Y-83890769D01*
X141623714Y-83702431D01*
X141604362Y-83673469D01*
X141448663Y-83590692D01*
X140751355Y-84288000D01*
X140680645Y-84288000D01*
X139983337Y-83590692D01*
X139827638Y-83673469D01*
X139724819Y-83858588D01*
X139660089Y-84060209D01*
X139635938Y-84270584D01*
X133157198Y-84270584D01*
X133142707Y-84094372D01*
X133084512Y-83890769D01*
X132987714Y-83702431D01*
X132968362Y-83673469D01*
X132812663Y-83590692D01*
X132115355Y-84288000D01*
X132044645Y-84288000D01*
X131347337Y-83590692D01*
X131191638Y-83673469D01*
X131088819Y-83858588D01*
X131024089Y-84060209D01*
X130999938Y-84270584D01*
X110120864Y-84270584D01*
X110137813Y-84229666D01*
X110225250Y-83790093D01*
X110225250Y-83555337D01*
X131382692Y-83555337D01*
X132080000Y-84252645D01*
X132777308Y-83555337D01*
X140018692Y-83555337D01*
X140716000Y-84252645D01*
X141413308Y-83555337D01*
X141330531Y-83399638D01*
X141145412Y-83296819D01*
X140943791Y-83232089D01*
X140733416Y-83207938D01*
X140522372Y-83225293D01*
X140318769Y-83283488D01*
X140130431Y-83380286D01*
X140101469Y-83399638D01*
X140018692Y-83555337D01*
X132777308Y-83555337D01*
X132694531Y-83399638D01*
X132509412Y-83296819D01*
X132307791Y-83232089D01*
X132097416Y-83207938D01*
X131886372Y-83225293D01*
X131682769Y-83283488D01*
X131494431Y-83380286D01*
X131465469Y-83399638D01*
X131382692Y-83555337D01*
X110225250Y-83555337D01*
X110225250Y-83341907D01*
X110137813Y-82902334D01*
X109966300Y-82488265D01*
X109717302Y-82115613D01*
X109400387Y-81798698D01*
X109027735Y-81549700D01*
X108613666Y-81378187D01*
X108174093Y-81290750D01*
X107725907Y-81290750D01*
X107286334Y-81378187D01*
X106872265Y-81549700D01*
X106499613Y-81798698D01*
X106182698Y-82115613D01*
X105933700Y-82488265D01*
X105762187Y-82902334D01*
X105674750Y-83341907D01*
X101687592Y-83341907D01*
X100372737Y-82027052D01*
X100360211Y-82011789D01*
X100299303Y-81961803D01*
X100229814Y-81924660D01*
X100154414Y-81901788D01*
X100113734Y-81897781D01*
X100092307Y-81865713D01*
X99998287Y-81771693D01*
X99887732Y-81697823D01*
X99764890Y-81646940D01*
X99634482Y-81621000D01*
X99501518Y-81621000D01*
X99371110Y-81646940D01*
X99248268Y-81697823D01*
X99137713Y-81771693D01*
X99043693Y-81865713D01*
X98969823Y-81976268D01*
X98918940Y-82099110D01*
X98893000Y-82229518D01*
X95509076Y-82229518D01*
X95520307Y-82218287D01*
X95594177Y-82107732D01*
X95645060Y-81984890D01*
X95671000Y-81854482D01*
X95671000Y-81721518D01*
X95645060Y-81591110D01*
X95594177Y-81468268D01*
X95520307Y-81357713D01*
X95426287Y-81263693D01*
X95315732Y-81189823D01*
X95192890Y-81138940D01*
X95062482Y-81113000D01*
X94929518Y-81113000D01*
X94799110Y-81138940D01*
X94676268Y-81189823D01*
X94565713Y-81263693D01*
X94471693Y-81357713D01*
X94451456Y-81388000D01*
X92729647Y-81388000D01*
X92710000Y-81386065D01*
X92690353Y-81388000D01*
X92631586Y-81393788D01*
X92556186Y-81416660D01*
X92486697Y-81453803D01*
X92425789Y-81503789D01*
X92413263Y-81519052D01*
X91034208Y-82898107D01*
X90998482Y-82891000D01*
X90865518Y-82891000D01*
X90735110Y-82916940D01*
X90612268Y-82967823D01*
X90501713Y-83041693D01*
X90407693Y-83135713D01*
X90333823Y-83246268D01*
X90282940Y-83369110D01*
X90257000Y-83499518D01*
X76303106Y-83499518D01*
X76285127Y-83492071D01*
X75555805Y-83347000D01*
X74812195Y-83347000D01*
X74082873Y-83492071D01*
X73395867Y-83776638D01*
X72777578Y-84189766D01*
X72251766Y-84715578D01*
X71838638Y-85333867D01*
X71554071Y-86020873D01*
X71409000Y-86750195D01*
X70100000Y-86750195D01*
X70100000Y-80915197D01*
X114953000Y-80915197D01*
X114953000Y-81136803D01*
X114996233Y-81354150D01*
X115081038Y-81558887D01*
X115204156Y-81743145D01*
X115360855Y-81899844D01*
X115545113Y-82022962D01*
X115749850Y-82107767D01*
X115967197Y-82151000D01*
X116188803Y-82151000D01*
X116406150Y-82107767D01*
X116610887Y-82022962D01*
X116795145Y-81899844D01*
X116951844Y-81743145D01*
X117074962Y-81558887D01*
X117159767Y-81354150D01*
X117203000Y-81136803D01*
X117203000Y-80988000D01*
X131003670Y-80988000D01*
X131003670Y-82588000D01*
X131008980Y-82641909D01*
X131024704Y-82693747D01*
X131050240Y-82741521D01*
X131084605Y-82783395D01*
X131126479Y-82817760D01*
X131174253Y-82843296D01*
X131226091Y-82859020D01*
X131280000Y-82864330D01*
X132880000Y-82864330D01*
X132933909Y-82859020D01*
X132985747Y-82843296D01*
X133033521Y-82817760D01*
X133075395Y-82783395D01*
X133109760Y-82741521D01*
X133135296Y-82693747D01*
X133151020Y-82641909D01*
X133156330Y-82588000D01*
X133156330Y-80988000D01*
X133151020Y-80934091D01*
X133135296Y-80882253D01*
X133109760Y-80834479D01*
X133075395Y-80792605D01*
X133033521Y-80758240D01*
X132985747Y-80732704D01*
X132933909Y-80716980D01*
X132880000Y-80711670D01*
X131280000Y-80711670D01*
X131226091Y-80716980D01*
X131174253Y-80732704D01*
X131126479Y-80758240D01*
X131084605Y-80792605D01*
X131050240Y-80834479D01*
X131024704Y-80882253D01*
X131008980Y-80934091D01*
X131003670Y-80988000D01*
X117203000Y-80988000D01*
X117203000Y-80915197D01*
X117159767Y-80697850D01*
X117074962Y-80493113D01*
X116951844Y-80308855D01*
X116795145Y-80152156D01*
X116610887Y-80029038D01*
X116406150Y-79944233D01*
X116188803Y-79901000D01*
X115967197Y-79901000D01*
X115749850Y-79944233D01*
X115545113Y-80029038D01*
X115360855Y-80152156D01*
X115204156Y-80308855D01*
X115081038Y-80493113D01*
X114996233Y-80697850D01*
X114953000Y-80915197D01*
X70100000Y-80915197D01*
X70100000Y-77149518D01*
X93051000Y-77149518D01*
X93051000Y-77282482D01*
X93076940Y-77412890D01*
X93127823Y-77535732D01*
X93201693Y-77646287D01*
X93295713Y-77740307D01*
X93406268Y-77814177D01*
X93529110Y-77865060D01*
X93659518Y-77891000D01*
X93792482Y-77891000D01*
X93922890Y-77865060D01*
X94045732Y-77814177D01*
X94156287Y-77740307D01*
X94250307Y-77646287D01*
X94324177Y-77535732D01*
X94375060Y-77412890D01*
X94401000Y-77282482D01*
X94401000Y-77149518D01*
X94375060Y-77019110D01*
X94324177Y-76896268D01*
X94251000Y-76786750D01*
X94251000Y-76483907D01*
X105674750Y-76483907D01*
X105674750Y-76932093D01*
X105762187Y-77371666D01*
X105933700Y-77785735D01*
X106182698Y-78158387D01*
X106499613Y-78475302D01*
X106872265Y-78724300D01*
X107286334Y-78895813D01*
X107725907Y-78983250D01*
X108174093Y-78983250D01*
X108613666Y-78895813D01*
X109027735Y-78724300D01*
X109400387Y-78475302D01*
X109500492Y-78375197D01*
X114953000Y-78375197D01*
X114953000Y-78596803D01*
X114996233Y-78814150D01*
X115081038Y-79018887D01*
X115204156Y-79203145D01*
X115360855Y-79359844D01*
X115545113Y-79482962D01*
X115749850Y-79567767D01*
X115967197Y-79611000D01*
X116188803Y-79611000D01*
X116406150Y-79567767D01*
X116610887Y-79482962D01*
X116795145Y-79359844D01*
X116951844Y-79203145D01*
X117074962Y-79018887D01*
X117159767Y-78814150D01*
X117188308Y-78670663D01*
X125540692Y-78670663D01*
X125623469Y-78826362D01*
X125808588Y-78929181D01*
X126010209Y-78993911D01*
X126220584Y-79018062D01*
X126431628Y-79000707D01*
X126635231Y-78942512D01*
X126823569Y-78845714D01*
X126852531Y-78826362D01*
X126935308Y-78670663D01*
X126238000Y-77973355D01*
X125540692Y-78670663D01*
X117188308Y-78670663D01*
X117203000Y-78596803D01*
X117203000Y-78375197D01*
X117159767Y-78157850D01*
X117074962Y-77953113D01*
X117053227Y-77920584D01*
X125157938Y-77920584D01*
X125175293Y-78131628D01*
X125233488Y-78335231D01*
X125330286Y-78523569D01*
X125349638Y-78552531D01*
X125505337Y-78635308D01*
X126202645Y-77938000D01*
X126273355Y-77938000D01*
X126970663Y-78635308D01*
X127126362Y-78552531D01*
X127229181Y-78367412D01*
X127293911Y-78165791D01*
X127318062Y-77955416D01*
X127300707Y-77744372D01*
X127242512Y-77540769D01*
X127145714Y-77352431D01*
X127126362Y-77323469D01*
X126970663Y-77240692D01*
X126273355Y-77938000D01*
X126202645Y-77938000D01*
X125505337Y-77240692D01*
X125349638Y-77323469D01*
X125246819Y-77508588D01*
X125182089Y-77710209D01*
X125157938Y-77920584D01*
X117053227Y-77920584D01*
X116951844Y-77768855D01*
X116795145Y-77612156D01*
X116610887Y-77489038D01*
X116406150Y-77404233D01*
X116188803Y-77361000D01*
X115967197Y-77361000D01*
X115749850Y-77404233D01*
X115545113Y-77489038D01*
X115360855Y-77612156D01*
X115204156Y-77768855D01*
X115081038Y-77953113D01*
X114996233Y-78157850D01*
X114953000Y-78375197D01*
X109500492Y-78375197D01*
X109717302Y-78158387D01*
X109966300Y-77785735D01*
X110137813Y-77371666D01*
X110170898Y-77205337D01*
X125540692Y-77205337D01*
X126238000Y-77902645D01*
X126935308Y-77205337D01*
X126852531Y-77049638D01*
X126667412Y-76946819D01*
X126465791Y-76882089D01*
X126255416Y-76857938D01*
X126044372Y-76875293D01*
X125840769Y-76933488D01*
X125652431Y-77030286D01*
X125623469Y-77049638D01*
X125540692Y-77205337D01*
X110170898Y-77205337D01*
X110225250Y-76932093D01*
X110225250Y-76483907D01*
X110137813Y-76044334D01*
X109966300Y-75630265D01*
X109717302Y-75257613D01*
X109555689Y-75096000D01*
X114951670Y-75096000D01*
X114951670Y-76796000D01*
X114956980Y-76849909D01*
X114972704Y-76901747D01*
X114998240Y-76949521D01*
X115032605Y-76991395D01*
X115074479Y-77025760D01*
X115122253Y-77051296D01*
X115174091Y-77067020D01*
X115228000Y-77072330D01*
X116928000Y-77072330D01*
X116981909Y-77067020D01*
X117033747Y-77051296D01*
X117081521Y-77025760D01*
X117123395Y-76991395D01*
X117157760Y-76949521D01*
X117183296Y-76901747D01*
X117199020Y-76849909D01*
X117204330Y-76796000D01*
X117204330Y-75096000D01*
X117199020Y-75042091D01*
X117183296Y-74990253D01*
X117157760Y-74942479D01*
X117123395Y-74900605D01*
X117081521Y-74866240D01*
X117033747Y-74840704D01*
X116981909Y-74824980D01*
X116928000Y-74819670D01*
X115228000Y-74819670D01*
X115174091Y-74824980D01*
X115122253Y-74840704D01*
X115074479Y-74866240D01*
X115032605Y-74900605D01*
X114998240Y-74942479D01*
X114972704Y-74990253D01*
X114956980Y-75042091D01*
X114951670Y-75096000D01*
X109555689Y-75096000D01*
X109400387Y-74940698D01*
X109027735Y-74691700D01*
X108898092Y-74638000D01*
X125161670Y-74638000D01*
X125161670Y-76238000D01*
X125166980Y-76291909D01*
X125182704Y-76343747D01*
X125208240Y-76391521D01*
X125242605Y-76433395D01*
X125284479Y-76467760D01*
X125332253Y-76493296D01*
X125384091Y-76509020D01*
X125438000Y-76514330D01*
X127038000Y-76514330D01*
X127091909Y-76509020D01*
X127143747Y-76493296D01*
X127191521Y-76467760D01*
X127233395Y-76433395D01*
X127267760Y-76391521D01*
X127293296Y-76343747D01*
X127309020Y-76291909D01*
X127314330Y-76238000D01*
X127314330Y-74638000D01*
X127309020Y-74584091D01*
X127293296Y-74532253D01*
X127267760Y-74484479D01*
X127233395Y-74442605D01*
X127191521Y-74408240D01*
X127143747Y-74382704D01*
X127091909Y-74366980D01*
X127038000Y-74361670D01*
X125438000Y-74361670D01*
X125384091Y-74366980D01*
X125332253Y-74382704D01*
X125284479Y-74408240D01*
X125242605Y-74442605D01*
X125208240Y-74484479D01*
X125182704Y-74532253D01*
X125166980Y-74584091D01*
X125161670Y-74638000D01*
X108898092Y-74638000D01*
X108613666Y-74520187D01*
X108174093Y-74432750D01*
X107725907Y-74432750D01*
X107286334Y-74520187D01*
X106872265Y-74691700D01*
X106499613Y-74940698D01*
X106182698Y-75257613D01*
X105933700Y-75630265D01*
X105762187Y-76044334D01*
X105674750Y-76483907D01*
X94251000Y-76483907D01*
X94251000Y-74639461D01*
X96333705Y-72556757D01*
X96462890Y-72531060D01*
X96585732Y-72480177D01*
X96696287Y-72406307D01*
X96790307Y-72312287D01*
X96864177Y-72201732D01*
X96915060Y-72078890D01*
X96941000Y-71948482D01*
X96941000Y-71815518D01*
X96915060Y-71685110D01*
X96864177Y-71562268D01*
X96790307Y-71451713D01*
X96696287Y-71357693D01*
X96585732Y-71283823D01*
X96462890Y-71232940D01*
X96332482Y-71207000D01*
X96199518Y-71207000D01*
X96069110Y-71232940D01*
X95946268Y-71283823D01*
X95835713Y-71357693D01*
X95741693Y-71451713D01*
X95667823Y-71562268D01*
X95616940Y-71685110D01*
X95591243Y-71814295D01*
X93373010Y-74032529D01*
X93352973Y-74048973D01*
X93287367Y-74128914D01*
X93238617Y-74220120D01*
X93208597Y-74319083D01*
X93201000Y-74396213D01*
X93201000Y-74396220D01*
X93198461Y-74422000D01*
X93201000Y-74447780D01*
X93201001Y-76786749D01*
X93127823Y-76896268D01*
X93076940Y-77019110D01*
X93051000Y-77149518D01*
X70100000Y-77149518D01*
X70100000Y-73036273D01*
X86201000Y-73036273D01*
X86201000Y-73267727D01*
X86246155Y-73494735D01*
X86334729Y-73708571D01*
X86463318Y-73901019D01*
X86626981Y-74064682D01*
X86819429Y-74193271D01*
X87033265Y-74281845D01*
X87260273Y-74327000D01*
X87491727Y-74327000D01*
X87718735Y-74281845D01*
X87932571Y-74193271D01*
X88125019Y-74064682D01*
X88288682Y-73901019D01*
X88417271Y-73708571D01*
X88505845Y-73494735D01*
X88551000Y-73267727D01*
X88551000Y-73036273D01*
X91027000Y-73036273D01*
X91027000Y-73267727D01*
X91072155Y-73494735D01*
X91160729Y-73708571D01*
X91289318Y-73901019D01*
X91452981Y-74064682D01*
X91645429Y-74193271D01*
X91859265Y-74281845D01*
X92086273Y-74327000D01*
X92317727Y-74327000D01*
X92544735Y-74281845D01*
X92758571Y-74193271D01*
X92951019Y-74064682D01*
X93114682Y-73901019D01*
X93243271Y-73708571D01*
X93331845Y-73494735D01*
X93377000Y-73267727D01*
X93377000Y-73036273D01*
X93331845Y-72809265D01*
X93243271Y-72595429D01*
X93114682Y-72402981D01*
X92951019Y-72239318D01*
X92758571Y-72110729D01*
X92544735Y-72022155D01*
X92317727Y-71977000D01*
X92086273Y-71977000D01*
X91859265Y-72022155D01*
X91645429Y-72110729D01*
X91452981Y-72239318D01*
X91289318Y-72402981D01*
X91160729Y-72595429D01*
X91072155Y-72809265D01*
X91027000Y-73036273D01*
X88551000Y-73036273D01*
X88505845Y-72809265D01*
X88417271Y-72595429D01*
X88288682Y-72402981D01*
X88125019Y-72239318D01*
X87932571Y-72110729D01*
X87718735Y-72022155D01*
X87491727Y-71977000D01*
X87260273Y-71977000D01*
X87033265Y-72022155D01*
X86819429Y-72110729D01*
X86626981Y-72239318D01*
X86463318Y-72402981D01*
X86334729Y-72595429D01*
X86246155Y-72809265D01*
X86201000Y-73036273D01*
X70100000Y-73036273D01*
X70100000Y-69712000D01*
X86199670Y-69712000D01*
X86199670Y-71512000D01*
X86204980Y-71565909D01*
X86220704Y-71617747D01*
X86246240Y-71665521D01*
X86280605Y-71707395D01*
X86322479Y-71741760D01*
X86370253Y-71767296D01*
X86422091Y-71783020D01*
X86476000Y-71788330D01*
X88276000Y-71788330D01*
X88329909Y-71783020D01*
X88381747Y-71767296D01*
X88429521Y-71741760D01*
X88471395Y-71707395D01*
X88505760Y-71665521D01*
X88531296Y-71617747D01*
X88547020Y-71565909D01*
X88552330Y-71512000D01*
X88552330Y-70001355D01*
X88841685Y-69712000D01*
X91025670Y-69712000D01*
X91025670Y-71512000D01*
X91030980Y-71565909D01*
X91046704Y-71617747D01*
X91072240Y-71665521D01*
X91106605Y-71707395D01*
X91148479Y-71741760D01*
X91196253Y-71767296D01*
X91248091Y-71783020D01*
X91302000Y-71788330D01*
X93102000Y-71788330D01*
X93155909Y-71783020D01*
X93207747Y-71767296D01*
X93255521Y-71741760D01*
X93297395Y-71707395D01*
X93331760Y-71665521D01*
X93357296Y-71617747D01*
X93373020Y-71565909D01*
X93378330Y-71512000D01*
X93378330Y-69712000D01*
X93373020Y-69658091D01*
X93357296Y-69606253D01*
X93331760Y-69558479D01*
X93297395Y-69516605D01*
X93255521Y-69482240D01*
X93207747Y-69456704D01*
X93155909Y-69440980D01*
X93102000Y-69435670D01*
X92602000Y-69435670D01*
X92602000Y-68745685D01*
X92991778Y-68355907D01*
X103388750Y-68355907D01*
X103388750Y-68804093D01*
X103476187Y-69243666D01*
X103647700Y-69657735D01*
X103896698Y-70030387D01*
X104213613Y-70347302D01*
X104586265Y-70596300D01*
X105000334Y-70767813D01*
X105439907Y-70855250D01*
X105888093Y-70855250D01*
X106327666Y-70767813D01*
X106741735Y-70596300D01*
X107114387Y-70347302D01*
X107296095Y-70165594D01*
X109955762Y-70165594D01*
X110182476Y-70444206D01*
X110571596Y-70666592D01*
X110996624Y-70808792D01*
X111441228Y-70865341D01*
X111888320Y-70834065D01*
X112320721Y-70716167D01*
X112721811Y-70516178D01*
X112829524Y-70444206D01*
X113056238Y-70165594D01*
X111506000Y-68615355D01*
X109955762Y-70165594D01*
X107296095Y-70165594D01*
X107431302Y-70030387D01*
X107680300Y-69657735D01*
X107851813Y-69243666D01*
X107939250Y-68804093D01*
X107939250Y-68515228D01*
X109220659Y-68515228D01*
X109251935Y-68962320D01*
X109369833Y-69394721D01*
X109569822Y-69795811D01*
X109641794Y-69903524D01*
X109920406Y-70130238D01*
X111470645Y-68580000D01*
X111541355Y-68580000D01*
X113091594Y-70130238D01*
X113370206Y-69903524D01*
X113486635Y-69699801D01*
X124713000Y-69699801D01*
X124713000Y-70000199D01*
X124771605Y-70294826D01*
X124886562Y-70572358D01*
X125053455Y-70822131D01*
X125265869Y-71034545D01*
X125515642Y-71201438D01*
X125793174Y-71316395D01*
X126087801Y-71375000D01*
X126388199Y-71375000D01*
X126682826Y-71316395D01*
X126960358Y-71201438D01*
X127210131Y-71034545D01*
X127422545Y-70822131D01*
X127589438Y-70572358D01*
X127704395Y-70294826D01*
X127763000Y-70000199D01*
X127763000Y-69699801D01*
X127704395Y-69405174D01*
X127589438Y-69127642D01*
X127422545Y-68877869D01*
X127210131Y-68665455D01*
X126960358Y-68498562D01*
X126682826Y-68383605D01*
X126388199Y-68325000D01*
X126087801Y-68325000D01*
X125793174Y-68383605D01*
X125515642Y-68498562D01*
X125265869Y-68665455D01*
X125053455Y-68877869D01*
X124886562Y-69127642D01*
X124771605Y-69405174D01*
X124713000Y-69699801D01*
X113486635Y-69699801D01*
X113592592Y-69514404D01*
X113734792Y-69089376D01*
X113791341Y-68644772D01*
X113760065Y-68197680D01*
X113642167Y-67765279D01*
X113442178Y-67364189D01*
X113370206Y-67256476D01*
X113091594Y-67029762D01*
X111541355Y-68580000D01*
X111470645Y-68580000D01*
X109920406Y-67029762D01*
X109641794Y-67256476D01*
X109419408Y-67645596D01*
X109277208Y-68070624D01*
X109220659Y-68515228D01*
X107939250Y-68515228D01*
X107939250Y-68355907D01*
X107851813Y-67916334D01*
X107680300Y-67502265D01*
X107431302Y-67129613D01*
X107296095Y-66994406D01*
X109955762Y-66994406D01*
X111506000Y-68544645D01*
X113056238Y-66994406D01*
X112829524Y-66715794D01*
X112440404Y-66493408D01*
X112015376Y-66351208D01*
X111570772Y-66294659D01*
X111123680Y-66325935D01*
X110691279Y-66443833D01*
X110290189Y-66643822D01*
X110182476Y-66715794D01*
X109955762Y-66994406D01*
X107296095Y-66994406D01*
X107114387Y-66812698D01*
X106741735Y-66563700D01*
X106327666Y-66392187D01*
X105888093Y-66304750D01*
X105439907Y-66304750D01*
X105000334Y-66392187D01*
X104586265Y-66563700D01*
X104213613Y-66812698D01*
X103896698Y-67129613D01*
X103647700Y-67502265D01*
X103476187Y-67916334D01*
X103388750Y-68355907D01*
X92991778Y-68355907D01*
X94653686Y-66694000D01*
X94959456Y-66694000D01*
X94979693Y-66724287D01*
X95073713Y-66818307D01*
X95184268Y-66892177D01*
X95307110Y-66943060D01*
X95437518Y-66969000D01*
X95570482Y-66969000D01*
X95700890Y-66943060D01*
X95823732Y-66892177D01*
X95934287Y-66818307D01*
X96012000Y-66740594D01*
X96089713Y-66818307D01*
X96200268Y-66892177D01*
X96323110Y-66943060D01*
X96453518Y-66969000D01*
X96586482Y-66969000D01*
X96716890Y-66943060D01*
X96839732Y-66892177D01*
X96950287Y-66818307D01*
X97044307Y-66724287D01*
X97118177Y-66613732D01*
X97169060Y-66490890D01*
X97195000Y-66360482D01*
X97195000Y-66227518D01*
X97187893Y-66191792D01*
X100495685Y-62884000D01*
X103223764Y-62884000D01*
X103210240Y-62900479D01*
X103184704Y-62948253D01*
X103168980Y-63000091D01*
X103163670Y-63054000D01*
X103163670Y-64454000D01*
X103168980Y-64507909D01*
X103184704Y-64559747D01*
X103210240Y-64607521D01*
X103244605Y-64649395D01*
X103286479Y-64683760D01*
X103334253Y-64709296D01*
X103386091Y-64725020D01*
X103440000Y-64730330D01*
X104840000Y-64730330D01*
X104893909Y-64725020D01*
X104945747Y-64709296D01*
X104993521Y-64683760D01*
X105035395Y-64649395D01*
X105069760Y-64607521D01*
X105095296Y-64559747D01*
X105111020Y-64507909D01*
X105116330Y-64454000D01*
X105116330Y-63657971D01*
X106465000Y-63657971D01*
X106465000Y-63850029D01*
X106502468Y-64038397D01*
X106575966Y-64215836D01*
X106682668Y-64375527D01*
X106818473Y-64511332D01*
X106978164Y-64618034D01*
X107155603Y-64691532D01*
X107343971Y-64729000D01*
X107536029Y-64729000D01*
X107724397Y-64691532D01*
X107901836Y-64618034D01*
X108061527Y-64511332D01*
X108197332Y-64375527D01*
X108304034Y-64215836D01*
X108377532Y-64038397D01*
X108415000Y-63850029D01*
X108415000Y-63657971D01*
X108377532Y-63469603D01*
X108304034Y-63292164D01*
X108197332Y-63132473D01*
X108061527Y-62996668D01*
X107901836Y-62889966D01*
X107724397Y-62816468D01*
X107536029Y-62779000D01*
X107343971Y-62779000D01*
X107155603Y-62816468D01*
X106978164Y-62889966D01*
X106818473Y-62996668D01*
X106682668Y-63132473D01*
X106575966Y-63292164D01*
X106502468Y-63469603D01*
X106465000Y-63657971D01*
X105116330Y-63657971D01*
X105116330Y-63054000D01*
X105111020Y-63000091D01*
X105095296Y-62948253D01*
X105069760Y-62900479D01*
X105056236Y-62884000D01*
X106190354Y-62884000D01*
X106210000Y-62885935D01*
X106229646Y-62884000D01*
X106229647Y-62884000D01*
X106288414Y-62878212D01*
X106363814Y-62855340D01*
X106433303Y-62818197D01*
X106494211Y-62768211D01*
X106506737Y-62752948D01*
X107093767Y-62165918D01*
X107155603Y-62191532D01*
X107343971Y-62229000D01*
X107536029Y-62229000D01*
X107724397Y-62191532D01*
X107901836Y-62118034D01*
X108061527Y-62011332D01*
X108197332Y-61875527D01*
X108304034Y-61715836D01*
X108377532Y-61538397D01*
X108415000Y-61350029D01*
X108415000Y-61157971D01*
X108377532Y-60969603D01*
X108304034Y-60792164D01*
X108197332Y-60632473D01*
X108061527Y-60496668D01*
X107901836Y-60389966D01*
X107724397Y-60316468D01*
X107536029Y-60279000D01*
X107343971Y-60279000D01*
X107155603Y-60316468D01*
X106978164Y-60389966D01*
X106818473Y-60496668D01*
X106682668Y-60632473D01*
X106575966Y-60792164D01*
X106502468Y-60969603D01*
X106465000Y-61157971D01*
X106465000Y-61350029D01*
X106502468Y-61538397D01*
X106528082Y-61600233D01*
X106044315Y-62084000D01*
X104652772Y-62084000D01*
X104761527Y-62011332D01*
X104897332Y-61875527D01*
X105004034Y-61715836D01*
X105077532Y-61538397D01*
X105115000Y-61350029D01*
X105115000Y-61157971D01*
X105077532Y-60969603D01*
X105004034Y-60792164D01*
X104897332Y-60632473D01*
X104761527Y-60496668D01*
X104601836Y-60389966D01*
X104424397Y-60316468D01*
X104236029Y-60279000D01*
X104043971Y-60279000D01*
X103855603Y-60316468D01*
X103678164Y-60389966D01*
X103518473Y-60496668D01*
X103382668Y-60632473D01*
X103275966Y-60792164D01*
X103202468Y-60969603D01*
X103165000Y-61157971D01*
X103165000Y-61350029D01*
X103202468Y-61538397D01*
X103275966Y-61715836D01*
X103382668Y-61875527D01*
X103518473Y-62011332D01*
X103627228Y-62084000D01*
X100349647Y-62084000D01*
X100330000Y-62082065D01*
X100310353Y-62084000D01*
X100251586Y-62089788D01*
X100176186Y-62112660D01*
X100106697Y-62149803D01*
X100045789Y-62199789D01*
X100033265Y-62215050D01*
X96622208Y-65626107D01*
X96586482Y-65619000D01*
X96453518Y-65619000D01*
X96323110Y-65644940D01*
X96200268Y-65695823D01*
X96089713Y-65769693D01*
X96012000Y-65847406D01*
X95934287Y-65769693D01*
X95823732Y-65695823D01*
X95700890Y-65644940D01*
X95570482Y-65619000D01*
X95437518Y-65619000D01*
X95307110Y-65644940D01*
X95184268Y-65695823D01*
X95073713Y-65769693D01*
X94979693Y-65863713D01*
X94959456Y-65894000D01*
X94507635Y-65894000D01*
X94487999Y-65892066D01*
X94468363Y-65894000D01*
X94468353Y-65894000D01*
X94409586Y-65899788D01*
X94334186Y-65922660D01*
X94264697Y-65959803D01*
X94264695Y-65959804D01*
X94264696Y-65959804D01*
X94219049Y-65997265D01*
X94219047Y-65997267D01*
X94203789Y-66009789D01*
X94191267Y-66025047D01*
X91933052Y-68283263D01*
X91917789Y-68295789D01*
X91867803Y-68356698D01*
X91830660Y-68426187D01*
X91808706Y-68498562D01*
X91807788Y-68501587D01*
X91800065Y-68580000D01*
X91802000Y-68599647D01*
X91802000Y-69435670D01*
X91302000Y-69435670D01*
X91248091Y-69440980D01*
X91196253Y-69456704D01*
X91148479Y-69482240D01*
X91106605Y-69516605D01*
X91072240Y-69558479D01*
X91046704Y-69606253D01*
X91030980Y-69658091D01*
X91025670Y-69712000D01*
X88841685Y-69712000D01*
X91859686Y-66694000D01*
X91911456Y-66694000D01*
X91931693Y-66724287D01*
X92025713Y-66818307D01*
X92136268Y-66892177D01*
X92259110Y-66943060D01*
X92389518Y-66969000D01*
X92522482Y-66969000D01*
X92652890Y-66943060D01*
X92775732Y-66892177D01*
X92886287Y-66818307D01*
X92980307Y-66724287D01*
X93054177Y-66613732D01*
X93105060Y-66490890D01*
X93131000Y-66360482D01*
X93131000Y-66227518D01*
X93105060Y-66097110D01*
X93054177Y-65974268D01*
X92980307Y-65863713D01*
X92886287Y-65769693D01*
X92775732Y-65695823D01*
X92652890Y-65644940D01*
X92522482Y-65619000D01*
X92389518Y-65619000D01*
X92259110Y-65644940D01*
X92136268Y-65695823D01*
X92025713Y-65769693D01*
X91931693Y-65863713D01*
X91911456Y-65894000D01*
X91713635Y-65894000D01*
X91693999Y-65892066D01*
X91674363Y-65894000D01*
X91674353Y-65894000D01*
X91615586Y-65899788D01*
X91540186Y-65922660D01*
X91470697Y-65959803D01*
X91470695Y-65959804D01*
X91470696Y-65959804D01*
X91425049Y-65997265D01*
X91425047Y-65997267D01*
X91409789Y-66009789D01*
X91397267Y-66025047D01*
X87986645Y-69435670D01*
X86476000Y-69435670D01*
X86422091Y-69440980D01*
X86370253Y-69456704D01*
X86322479Y-69482240D01*
X86280605Y-69516605D01*
X86246240Y-69558479D01*
X86220704Y-69606253D01*
X86204980Y-69658091D01*
X86199670Y-69712000D01*
X70100000Y-69712000D01*
X70100000Y-64545907D01*
X86624750Y-64545907D01*
X86624750Y-64994093D01*
X86712187Y-65433666D01*
X86883700Y-65847735D01*
X87132698Y-66220387D01*
X87449613Y-66537302D01*
X87822265Y-66786300D01*
X88236334Y-66957813D01*
X88675907Y-67045250D01*
X89124093Y-67045250D01*
X89563666Y-66957813D01*
X89977735Y-66786300D01*
X90350387Y-66537302D01*
X90667302Y-66220387D01*
X90916300Y-65847735D01*
X91087813Y-65433666D01*
X91175250Y-64994093D01*
X91175250Y-64545907D01*
X91087813Y-64106334D01*
X90916300Y-63692265D01*
X90667302Y-63319613D01*
X90350387Y-63002698D01*
X89977735Y-62753700D01*
X89563666Y-62582187D01*
X89124093Y-62494750D01*
X88675907Y-62494750D01*
X88236334Y-62582187D01*
X87822265Y-62753700D01*
X87449613Y-63002698D01*
X87132698Y-63319613D01*
X86883700Y-63692265D01*
X86712187Y-64106334D01*
X86624750Y-64545907D01*
X70100000Y-64545907D01*
X70100000Y-60005594D01*
X80999762Y-60005594D01*
X81226476Y-60284206D01*
X81615596Y-60506592D01*
X82040624Y-60648792D01*
X82485228Y-60705341D01*
X82932320Y-60674065D01*
X83364721Y-60556167D01*
X83765811Y-60356178D01*
X83873524Y-60284206D01*
X84100238Y-60005594D01*
X87349762Y-60005594D01*
X87576476Y-60284206D01*
X87965596Y-60506592D01*
X88390624Y-60648792D01*
X88835228Y-60705341D01*
X89282320Y-60674065D01*
X89714721Y-60556167D01*
X90115811Y-60356178D01*
X90223524Y-60284206D01*
X90450238Y-60005594D01*
X88900000Y-58455355D01*
X87349762Y-60005594D01*
X84100238Y-60005594D01*
X82550000Y-58455355D01*
X80999762Y-60005594D01*
X70100000Y-60005594D01*
X70100000Y-58355228D01*
X80264659Y-58355228D01*
X80295935Y-58802320D01*
X80413833Y-59234721D01*
X80613822Y-59635811D01*
X80685794Y-59743524D01*
X80964406Y-59970238D01*
X82514645Y-58420000D01*
X82585355Y-58420000D01*
X84135594Y-59970238D01*
X84414206Y-59743524D01*
X84636592Y-59354404D01*
X84778792Y-58929376D01*
X84835341Y-58484772D01*
X84826279Y-58355228D01*
X86614659Y-58355228D01*
X86645935Y-58802320D01*
X86763833Y-59234721D01*
X86963822Y-59635811D01*
X87035794Y-59743524D01*
X87314406Y-59970238D01*
X88864645Y-58420000D01*
X88935355Y-58420000D01*
X90485594Y-59970238D01*
X90764206Y-59743524D01*
X90986592Y-59354404D01*
X91128792Y-58929376D01*
X91185341Y-58484772D01*
X91154065Y-58037680D01*
X91036167Y-57605279D01*
X90836178Y-57204189D01*
X90764206Y-57096476D01*
X90485594Y-56869762D01*
X88935355Y-58420000D01*
X88864645Y-58420000D01*
X87314406Y-56869762D01*
X87035794Y-57096476D01*
X86813408Y-57485596D01*
X86671208Y-57910624D01*
X86614659Y-58355228D01*
X84826279Y-58355228D01*
X84804065Y-58037680D01*
X84686167Y-57605279D01*
X84486178Y-57204189D01*
X84414206Y-57096476D01*
X84135594Y-56869762D01*
X82585355Y-58420000D01*
X82514645Y-58420000D01*
X80964406Y-56869762D01*
X80685794Y-57096476D01*
X80463408Y-57485596D01*
X80321208Y-57910624D01*
X80264659Y-58355228D01*
X70100000Y-58355228D01*
X70100000Y-56834406D01*
X80999762Y-56834406D01*
X82550000Y-58384645D01*
X84100238Y-56834406D01*
X87349762Y-56834406D01*
X88900000Y-58384645D01*
X90450238Y-56834406D01*
X90223524Y-56555794D01*
X89834404Y-56333408D01*
X89409376Y-56191208D01*
X88964772Y-56134659D01*
X88517680Y-56165935D01*
X88085279Y-56283833D01*
X87684189Y-56483822D01*
X87576476Y-56555794D01*
X87349762Y-56834406D01*
X84100238Y-56834406D01*
X83873524Y-56555794D01*
X83484404Y-56333408D01*
X83059376Y-56191208D01*
X82614772Y-56134659D01*
X82167680Y-56165935D01*
X81735279Y-56283833D01*
X81334189Y-56483822D01*
X81226476Y-56555794D01*
X80999762Y-56834406D01*
X70100000Y-56834406D01*
X70100000Y-51845907D01*
X80274750Y-51845907D01*
X80274750Y-52294093D01*
X80362187Y-52733666D01*
X80533700Y-53147735D01*
X80782698Y-53520387D01*
X81099613Y-53837302D01*
X81472265Y-54086300D01*
X81886334Y-54257813D01*
X82325907Y-54345250D01*
X82774093Y-54345250D01*
X83213666Y-54257813D01*
X83627735Y-54086300D01*
X84000387Y-53837302D01*
X84317302Y-53520387D01*
X84566300Y-53147735D01*
X84737813Y-52733666D01*
X84825250Y-52294093D01*
X84825250Y-51885329D01*
X87025000Y-51885329D01*
X87025000Y-52254671D01*
X87097056Y-52616917D01*
X87238397Y-52958145D01*
X87443593Y-53265243D01*
X87704757Y-53526407D01*
X88011855Y-53731603D01*
X88353083Y-53872944D01*
X88715329Y-53945000D01*
X89084671Y-53945000D01*
X89446917Y-53872944D01*
X89788145Y-53731603D01*
X90095243Y-53526407D01*
X90356407Y-53265243D01*
X90561603Y-52958145D01*
X90702944Y-52616917D01*
X90775000Y-52254671D01*
X90775000Y-51885329D01*
X90702944Y-51523083D01*
X90561603Y-51181855D01*
X90356407Y-50874757D01*
X90095243Y-50613593D01*
X89880341Y-50470000D01*
X102263670Y-50470000D01*
X102263670Y-53670000D01*
X102268980Y-53723909D01*
X102284704Y-53775747D01*
X102310240Y-53823521D01*
X102344605Y-53865395D01*
X102386479Y-53899760D01*
X102434253Y-53925296D01*
X102486091Y-53941020D01*
X102540000Y-53946330D01*
X103465000Y-53946330D01*
X103465001Y-58050140D01*
X103382668Y-58132473D01*
X103275966Y-58292164D01*
X103202468Y-58469603D01*
X103165000Y-58657971D01*
X103165000Y-58850029D01*
X103202468Y-59038397D01*
X103275966Y-59215836D01*
X103382668Y-59375527D01*
X103518473Y-59511332D01*
X103678164Y-59618034D01*
X103855603Y-59691532D01*
X104043971Y-59729000D01*
X104236029Y-59729000D01*
X104424397Y-59691532D01*
X104601836Y-59618034D01*
X104761527Y-59511332D01*
X104897332Y-59375527D01*
X105004034Y-59215836D01*
X105077532Y-59038397D01*
X105115000Y-58850029D01*
X105115000Y-58657971D01*
X106465000Y-58657971D01*
X106465000Y-58850029D01*
X106502468Y-59038397D01*
X106575966Y-59215836D01*
X106682668Y-59375527D01*
X106818473Y-59511332D01*
X106978164Y-59618034D01*
X107155603Y-59691532D01*
X107343971Y-59729000D01*
X107536029Y-59729000D01*
X107724397Y-59691532D01*
X107901836Y-59618034D01*
X108061527Y-59511332D01*
X108197332Y-59375527D01*
X108304034Y-59215836D01*
X108377532Y-59038397D01*
X108415000Y-58850029D01*
X108415000Y-58657971D01*
X108377532Y-58469603D01*
X108304034Y-58292164D01*
X108197332Y-58132473D01*
X108061527Y-57996668D01*
X107901836Y-57889966D01*
X107724397Y-57816468D01*
X107536029Y-57779000D01*
X107343971Y-57779000D01*
X107155603Y-57816468D01*
X106978164Y-57889966D01*
X106818473Y-57996668D01*
X106682668Y-58132473D01*
X106575966Y-58292164D01*
X106502468Y-58469603D01*
X106465000Y-58657971D01*
X105115000Y-58657971D01*
X105077532Y-58469603D01*
X105004034Y-58292164D01*
X104897332Y-58132473D01*
X104815000Y-58050141D01*
X104815000Y-57699801D01*
X124713000Y-57699801D01*
X124713000Y-58000199D01*
X124771605Y-58294826D01*
X124886562Y-58572358D01*
X125053455Y-58822131D01*
X125265869Y-59034545D01*
X125515642Y-59201438D01*
X125793174Y-59316395D01*
X126087801Y-59375000D01*
X126388199Y-59375000D01*
X126682826Y-59316395D01*
X126960358Y-59201438D01*
X127210131Y-59034545D01*
X127422545Y-58822131D01*
X127589438Y-58572358D01*
X127704395Y-58294826D01*
X127763000Y-58000199D01*
X127763000Y-57699801D01*
X127704395Y-57405174D01*
X127589438Y-57127642D01*
X127422545Y-56877869D01*
X127210131Y-56665455D01*
X126960358Y-56498562D01*
X126682826Y-56383605D01*
X126388199Y-56325000D01*
X126087801Y-56325000D01*
X125793174Y-56383605D01*
X125515642Y-56498562D01*
X125265869Y-56665455D01*
X125053455Y-56877869D01*
X124886562Y-57127642D01*
X124771605Y-57405174D01*
X124713000Y-57699801D01*
X104815000Y-57699801D01*
X104815000Y-53946330D01*
X105740000Y-53946330D01*
X105793909Y-53941020D01*
X105845747Y-53925296D01*
X105893521Y-53899760D01*
X105935395Y-53865395D01*
X105969760Y-53823521D01*
X105995296Y-53775747D01*
X106011020Y-53723909D01*
X106016330Y-53670000D01*
X106016330Y-51123329D01*
X116997000Y-51123329D01*
X116997000Y-51492671D01*
X117069056Y-51854917D01*
X117210397Y-52196145D01*
X117415593Y-52503243D01*
X117676757Y-52764407D01*
X117983855Y-52969603D01*
X118325083Y-53110944D01*
X118687329Y-53183000D01*
X119056671Y-53183000D01*
X119418917Y-53110944D01*
X119760145Y-52969603D01*
X120067243Y-52764407D01*
X120328407Y-52503243D01*
X120533603Y-52196145D01*
X120674944Y-51854917D01*
X120747000Y-51492671D01*
X120747000Y-51308000D01*
X132077202Y-51308000D01*
X132116300Y-51704969D01*
X132232092Y-52086683D01*
X132235670Y-52093377D01*
X132235670Y-52908000D01*
X132240980Y-52961909D01*
X132256704Y-53013747D01*
X132282240Y-53061521D01*
X132316605Y-53103395D01*
X132358479Y-53137760D01*
X132406253Y-53163296D01*
X132458091Y-53179020D01*
X132512000Y-53184330D01*
X133087000Y-53184330D01*
X133087000Y-54458350D01*
X133087001Y-54458360D01*
X133087000Y-72833650D01*
X133082041Y-72884000D01*
X133087000Y-72934350D01*
X133101831Y-73084934D01*
X133160442Y-73278147D01*
X133255620Y-73456215D01*
X133383709Y-73612291D01*
X133422830Y-73644397D01*
X139691001Y-79912570D01*
X139691000Y-80828678D01*
X139686240Y-80834479D01*
X139660704Y-80882253D01*
X139644980Y-80934091D01*
X139639670Y-80988000D01*
X139639670Y-82588000D01*
X139644980Y-82641909D01*
X139660704Y-82693747D01*
X139686240Y-82741521D01*
X139720605Y-82783395D01*
X139762479Y-82817760D01*
X139810253Y-82843296D01*
X139862091Y-82859020D01*
X139916000Y-82864330D01*
X141516000Y-82864330D01*
X141569909Y-82859020D01*
X141621747Y-82843296D01*
X141669521Y-82817760D01*
X141711395Y-82783395D01*
X141745760Y-82741521D01*
X141771296Y-82693747D01*
X141787020Y-82641909D01*
X141792330Y-82588000D01*
X141792330Y-80988000D01*
X141787020Y-80934091D01*
X141771296Y-80882253D01*
X141745760Y-80834479D01*
X141741000Y-80828679D01*
X141741000Y-80547907D01*
X151140750Y-80547907D01*
X151140750Y-80996093D01*
X151228187Y-81435666D01*
X151399700Y-81849735D01*
X151648698Y-82222387D01*
X151965613Y-82539302D01*
X152338265Y-82788300D01*
X152752334Y-82959813D01*
X153191907Y-83047250D01*
X153640093Y-83047250D01*
X154079666Y-82959813D01*
X154493735Y-82788300D01*
X154866387Y-82539302D01*
X155183302Y-82222387D01*
X155432300Y-81849735D01*
X155603813Y-81435666D01*
X155691250Y-80996093D01*
X155691250Y-80547907D01*
X157236750Y-80547907D01*
X157236750Y-80996093D01*
X157324187Y-81435666D01*
X157495700Y-81849735D01*
X157744698Y-82222387D01*
X158061613Y-82539302D01*
X158434265Y-82788300D01*
X158848334Y-82959813D01*
X159287907Y-83047250D01*
X159736093Y-83047250D01*
X160175666Y-82959813D01*
X160589735Y-82788300D01*
X160962387Y-82539302D01*
X161279302Y-82222387D01*
X161528300Y-81849735D01*
X161699813Y-81435666D01*
X161787250Y-80996093D01*
X161787250Y-80547907D01*
X166126750Y-80547907D01*
X166126750Y-80996093D01*
X166214187Y-81435666D01*
X166385700Y-81849735D01*
X166634698Y-82222387D01*
X166951613Y-82539302D01*
X167324265Y-82788300D01*
X167738334Y-82959813D01*
X168177907Y-83047250D01*
X168626093Y-83047250D01*
X169065666Y-82959813D01*
X169479735Y-82788300D01*
X169852387Y-82539302D01*
X170169302Y-82222387D01*
X170418300Y-81849735D01*
X170589813Y-81435666D01*
X170677250Y-80996093D01*
X170677250Y-80547907D01*
X172222750Y-80547907D01*
X172222750Y-80996093D01*
X172310187Y-81435666D01*
X172481700Y-81849735D01*
X172730698Y-82222387D01*
X173047613Y-82539302D01*
X173420265Y-82788300D01*
X173834334Y-82959813D01*
X174273907Y-83047250D01*
X174722093Y-83047250D01*
X175161666Y-82959813D01*
X175575735Y-82788300D01*
X175948387Y-82539302D01*
X176265302Y-82222387D01*
X176514300Y-81849735D01*
X176685813Y-81435666D01*
X176773250Y-80996093D01*
X176773250Y-80547907D01*
X176685813Y-80108334D01*
X176514300Y-79694265D01*
X176265302Y-79321613D01*
X175948387Y-79004698D01*
X175575735Y-78755700D01*
X175161666Y-78584187D01*
X174722093Y-78496750D01*
X174273907Y-78496750D01*
X173834334Y-78584187D01*
X173420265Y-78755700D01*
X173047613Y-79004698D01*
X172730698Y-79321613D01*
X172481700Y-79694265D01*
X172310187Y-80108334D01*
X172222750Y-80547907D01*
X170677250Y-80547907D01*
X170589813Y-80108334D01*
X170418300Y-79694265D01*
X170169302Y-79321613D01*
X169852387Y-79004698D01*
X169479735Y-78755700D01*
X169065666Y-78584187D01*
X168626093Y-78496750D01*
X168177907Y-78496750D01*
X167738334Y-78584187D01*
X167324265Y-78755700D01*
X166951613Y-79004698D01*
X166634698Y-79321613D01*
X166385700Y-79694265D01*
X166214187Y-80108334D01*
X166126750Y-80547907D01*
X161787250Y-80547907D01*
X161699813Y-80108334D01*
X161528300Y-79694265D01*
X161279302Y-79321613D01*
X160962387Y-79004698D01*
X160589735Y-78755700D01*
X160175666Y-78584187D01*
X159736093Y-78496750D01*
X159287907Y-78496750D01*
X158848334Y-78584187D01*
X158434265Y-78755700D01*
X158061613Y-79004698D01*
X157744698Y-79321613D01*
X157495700Y-79694265D01*
X157324187Y-80108334D01*
X157236750Y-80547907D01*
X155691250Y-80547907D01*
X155603813Y-80108334D01*
X155432300Y-79694265D01*
X155183302Y-79321613D01*
X154866387Y-79004698D01*
X154493735Y-78755700D01*
X154079666Y-78584187D01*
X153640093Y-78496750D01*
X153191907Y-78496750D01*
X152752334Y-78584187D01*
X152338265Y-78755700D01*
X151965613Y-79004698D01*
X151648698Y-79321613D01*
X151399700Y-79694265D01*
X151228187Y-80108334D01*
X151140750Y-80547907D01*
X141741000Y-80547907D01*
X141741000Y-79538339D01*
X141745958Y-79487999D01*
X141741000Y-79437659D01*
X141741000Y-79437649D01*
X141726169Y-79287065D01*
X141667558Y-79093852D01*
X141572380Y-78915785D01*
X141444291Y-78759709D01*
X141405181Y-78727612D01*
X136425568Y-73748000D01*
X154829669Y-73748000D01*
X154834979Y-73801910D01*
X154850703Y-73853747D01*
X154876239Y-73901521D01*
X154910604Y-73943396D01*
X154952479Y-73977761D01*
X155000253Y-74003297D01*
X155052090Y-74019021D01*
X155106000Y-74024331D01*
X155862250Y-74023000D01*
X155931000Y-73954250D01*
X155931000Y-72923000D01*
X155981000Y-72923000D01*
X155981000Y-73954250D01*
X156049750Y-74023000D01*
X156806000Y-74024331D01*
X156859910Y-74019021D01*
X156911747Y-74003297D01*
X156959521Y-73977761D01*
X157001396Y-73943396D01*
X157035761Y-73901521D01*
X157061297Y-73853747D01*
X157077021Y-73801910D01*
X157082331Y-73748000D01*
X157081000Y-72991750D01*
X157012250Y-72923000D01*
X155981000Y-72923000D01*
X155931000Y-72923000D01*
X154899750Y-72923000D01*
X154831000Y-72991750D01*
X154829669Y-73748000D01*
X136425568Y-73748000D01*
X135137000Y-72459433D01*
X135137000Y-72048000D01*
X154829669Y-72048000D01*
X154831000Y-72804250D01*
X154899750Y-72873000D01*
X155931000Y-72873000D01*
X155931000Y-71841750D01*
X155981000Y-71841750D01*
X155981000Y-72873000D01*
X157012250Y-72873000D01*
X157081000Y-72804250D01*
X157082331Y-72048000D01*
X157077021Y-71994090D01*
X157061297Y-71942253D01*
X157035761Y-71894479D01*
X157001396Y-71852604D01*
X156959521Y-71818239D01*
X156911747Y-71792703D01*
X156859910Y-71776979D01*
X156806000Y-71771669D01*
X156049750Y-71773000D01*
X155981000Y-71841750D01*
X155931000Y-71841750D01*
X155862250Y-71773000D01*
X155106000Y-71771669D01*
X155052090Y-71776979D01*
X155000253Y-71792703D01*
X154952479Y-71818239D01*
X154910604Y-71852604D01*
X154876239Y-71894479D01*
X154850703Y-71942253D01*
X154834979Y-71994090D01*
X154829669Y-72048000D01*
X135137000Y-72048000D01*
X135137000Y-70247197D01*
X154831000Y-70247197D01*
X154831000Y-70468803D01*
X154874233Y-70686150D01*
X154959038Y-70890887D01*
X155082156Y-71075145D01*
X155238855Y-71231844D01*
X155423113Y-71354962D01*
X155627850Y-71439767D01*
X155845197Y-71483000D01*
X156066803Y-71483000D01*
X156284150Y-71439767D01*
X156488887Y-71354962D01*
X156673145Y-71231844D01*
X156829844Y-71075145D01*
X156952962Y-70890887D01*
X157008006Y-70758000D01*
X161524354Y-70758000D01*
X161544000Y-70759935D01*
X161563646Y-70758000D01*
X161563647Y-70758000D01*
X161622414Y-70752212D01*
X161697814Y-70729340D01*
X161767303Y-70692197D01*
X161828211Y-70642211D01*
X161840737Y-70626948D01*
X162710736Y-69756950D01*
X162710741Y-69756944D01*
X162828948Y-69638737D01*
X162844211Y-69626211D01*
X162894197Y-69565303D01*
X162929504Y-69499249D01*
X163010890Y-69483060D01*
X163133732Y-69432177D01*
X163244287Y-69358307D01*
X163338307Y-69264287D01*
X163412177Y-69153732D01*
X163463060Y-69030890D01*
X163489000Y-68900482D01*
X163489000Y-68767518D01*
X163463060Y-68637110D01*
X163412177Y-68514268D01*
X163338307Y-68403713D01*
X163244287Y-68309693D01*
X163133732Y-68235823D01*
X163010890Y-68184940D01*
X162880482Y-68159000D01*
X162747518Y-68159000D01*
X162617110Y-68184940D01*
X162494268Y-68235823D01*
X162383713Y-68309693D01*
X162289693Y-68403713D01*
X162215823Y-68514268D01*
X162164940Y-68637110D01*
X162139000Y-68767518D01*
X162139000Y-68900482D01*
X162164104Y-69026686D01*
X162158065Y-69088000D01*
X162160000Y-69107646D01*
X162160000Y-69176315D01*
X162145056Y-69191259D01*
X162145050Y-69191264D01*
X161378315Y-69958000D01*
X157008006Y-69958000D01*
X156952962Y-69825113D01*
X156829844Y-69640855D01*
X156673145Y-69484156D01*
X156488887Y-69361038D01*
X156284150Y-69276233D01*
X156066803Y-69233000D01*
X155845197Y-69233000D01*
X155627850Y-69276233D01*
X155423113Y-69361038D01*
X155238855Y-69484156D01*
X155082156Y-69640855D01*
X154959038Y-69825113D01*
X154874233Y-70029850D01*
X154831000Y-70247197D01*
X135137000Y-70247197D01*
X135137000Y-67707197D01*
X154831000Y-67707197D01*
X154831000Y-67928803D01*
X154874233Y-68146150D01*
X154959038Y-68350887D01*
X155082156Y-68535145D01*
X155238855Y-68691844D01*
X155423113Y-68814962D01*
X155627850Y-68899767D01*
X155845197Y-68943000D01*
X156066803Y-68943000D01*
X156284150Y-68899767D01*
X156488887Y-68814962D01*
X156673145Y-68691844D01*
X156829844Y-68535145D01*
X156952962Y-68350887D01*
X157037767Y-68146150D01*
X157081000Y-67928803D01*
X157081000Y-67707197D01*
X157037767Y-67489850D01*
X156952962Y-67285113D01*
X156829844Y-67100855D01*
X156673145Y-66944156D01*
X156488887Y-66821038D01*
X156284150Y-66736233D01*
X156066803Y-66693000D01*
X155845197Y-66693000D01*
X155627850Y-66736233D01*
X155423113Y-66821038D01*
X155238855Y-66944156D01*
X155082156Y-67100855D01*
X154959038Y-67285113D01*
X154874233Y-67489850D01*
X154831000Y-67707197D01*
X135137000Y-67707197D01*
X135137000Y-66227518D01*
X138517000Y-66227518D01*
X138517000Y-66360482D01*
X138542940Y-66490890D01*
X138593823Y-66613732D01*
X138667693Y-66724287D01*
X138761713Y-66818307D01*
X138872268Y-66892177D01*
X138995110Y-66943060D01*
X139125518Y-66969000D01*
X139258482Y-66969000D01*
X139388890Y-66943060D01*
X139511732Y-66892177D01*
X139622287Y-66818307D01*
X139716307Y-66724287D01*
X139790177Y-66613732D01*
X139841060Y-66490890D01*
X139866757Y-66361704D01*
X141273798Y-64954663D01*
X150940692Y-64954663D01*
X151023469Y-65110362D01*
X151208588Y-65213181D01*
X151410209Y-65277911D01*
X151620584Y-65302062D01*
X151831628Y-65284707D01*
X152035231Y-65226512D01*
X152223569Y-65129714D01*
X152252531Y-65110362D01*
X152335308Y-64954663D01*
X151638000Y-64257355D01*
X150940692Y-64954663D01*
X141273798Y-64954663D01*
X142023877Y-64204584D01*
X150557938Y-64204584D01*
X150575293Y-64415628D01*
X150633488Y-64619231D01*
X150730286Y-64807569D01*
X150749638Y-64836531D01*
X150905337Y-64919308D01*
X151602645Y-64222000D01*
X151673355Y-64222000D01*
X152370663Y-64919308D01*
X152526362Y-64836531D01*
X152629181Y-64651412D01*
X152693911Y-64449791D01*
X152718062Y-64239416D01*
X152700707Y-64028372D01*
X152642512Y-63824769D01*
X152545714Y-63636431D01*
X152526362Y-63607469D01*
X152370663Y-63524692D01*
X151673355Y-64222000D01*
X151602645Y-64222000D01*
X150905337Y-63524692D01*
X150749638Y-63607469D01*
X150646819Y-63792588D01*
X150582089Y-63994209D01*
X150557938Y-64204584D01*
X142023877Y-64204584D01*
X142203462Y-64025000D01*
X144350750Y-64025000D01*
X144460268Y-64098177D01*
X144583110Y-64149060D01*
X144713518Y-64175000D01*
X144846482Y-64175000D01*
X144976890Y-64149060D01*
X145099732Y-64098177D01*
X145210287Y-64024307D01*
X145304307Y-63930287D01*
X145378177Y-63819732D01*
X145429060Y-63696890D01*
X145455000Y-63566482D01*
X145455000Y-63433518D01*
X145429060Y-63303110D01*
X145378177Y-63180268D01*
X145304307Y-63069713D01*
X145210287Y-62975693D01*
X145099732Y-62901823D01*
X144976890Y-62850940D01*
X144846482Y-62825000D01*
X144713518Y-62825000D01*
X144583110Y-62850940D01*
X144460268Y-62901823D01*
X144350750Y-62975000D01*
X142011788Y-62975000D01*
X141986000Y-62972460D01*
X141960212Y-62975000D01*
X141883082Y-62982597D01*
X141784119Y-63012617D01*
X141692914Y-63061367D01*
X141612973Y-63126973D01*
X141596534Y-63147004D01*
X139124296Y-65619243D01*
X138995110Y-65644940D01*
X138872268Y-65695823D01*
X138761713Y-65769693D01*
X138667693Y-65863713D01*
X138593823Y-65974268D01*
X138542940Y-66097110D01*
X138517000Y-66227518D01*
X135137000Y-66227518D01*
X135137000Y-53333000D01*
X137247859Y-53333000D01*
X137332093Y-53610683D01*
X137520128Y-53962473D01*
X137621751Y-54086300D01*
X137773182Y-54270819D01*
X137850452Y-54334233D01*
X146740452Y-63224235D01*
X146971526Y-63413872D01*
X147323316Y-63601908D01*
X147705030Y-63717700D01*
X148102000Y-63756797D01*
X148498970Y-63717700D01*
X148880683Y-63601908D01*
X149232473Y-63413872D01*
X149435807Y-63247000D01*
X151183348Y-63247000D01*
X151052431Y-63314286D01*
X151023469Y-63333638D01*
X150940692Y-63489337D01*
X151638000Y-64186645D01*
X152335308Y-63489337D01*
X152252531Y-63333638D01*
X152096545Y-63247000D01*
X164067000Y-63247000D01*
X164067001Y-68300210D01*
X164064461Y-68326000D01*
X164074597Y-68428917D01*
X164104617Y-68527880D01*
X164153367Y-68619085D01*
X164153368Y-68619086D01*
X164171000Y-68640571D01*
X164171000Y-68646482D01*
X164196940Y-68776890D01*
X164247823Y-68899732D01*
X164321693Y-69010287D01*
X164415713Y-69104307D01*
X164526268Y-69178177D01*
X164649110Y-69229060D01*
X164779518Y-69255000D01*
X164912482Y-69255000D01*
X165042890Y-69229060D01*
X165165732Y-69178177D01*
X165276287Y-69104307D01*
X165370307Y-69010287D01*
X165444177Y-68899732D01*
X165495060Y-68776890D01*
X165521000Y-68646482D01*
X165521000Y-68513518D01*
X165495060Y-68383110D01*
X165444177Y-68260268D01*
X165370307Y-68149713D01*
X165276287Y-68055693D01*
X165165732Y-67981823D01*
X165117000Y-67961637D01*
X165117000Y-64954663D01*
X177610692Y-64954663D01*
X177693469Y-65110362D01*
X177878588Y-65213181D01*
X178080209Y-65277911D01*
X178290584Y-65302062D01*
X178501628Y-65284707D01*
X178705231Y-65226512D01*
X178893569Y-65129714D01*
X178922531Y-65110362D01*
X179005308Y-64954663D01*
X178308000Y-64257355D01*
X177610692Y-64954663D01*
X165117000Y-64954663D01*
X165117000Y-64204584D01*
X177227938Y-64204584D01*
X177245293Y-64415628D01*
X177303488Y-64619231D01*
X177400286Y-64807569D01*
X177419638Y-64836531D01*
X177575337Y-64919308D01*
X178272645Y-64222000D01*
X178343355Y-64222000D01*
X179040663Y-64919308D01*
X179196362Y-64836531D01*
X179299181Y-64651412D01*
X179363911Y-64449791D01*
X179388062Y-64239416D01*
X179370707Y-64028372D01*
X179312512Y-63824769D01*
X179215714Y-63636431D01*
X179196362Y-63607469D01*
X179040663Y-63524692D01*
X178343355Y-64222000D01*
X178272645Y-64222000D01*
X177575337Y-63524692D01*
X177419638Y-63607469D01*
X177316819Y-63792588D01*
X177252089Y-63994209D01*
X177227938Y-64204584D01*
X165117000Y-64204584D01*
X165117000Y-63247000D01*
X177853348Y-63247000D01*
X177722431Y-63314286D01*
X177693469Y-63333638D01*
X177610692Y-63489337D01*
X178308000Y-64186645D01*
X179005308Y-63489337D01*
X178922531Y-63333638D01*
X178737412Y-63230819D01*
X178664606Y-63207445D01*
X178894416Y-63137733D01*
X179159344Y-62996126D01*
X179391555Y-62805555D01*
X179582126Y-62573344D01*
X179723733Y-62308416D01*
X179810934Y-62020952D01*
X179840378Y-61722000D01*
X179810934Y-61423048D01*
X179723733Y-61135584D01*
X179582126Y-60870656D01*
X179391555Y-60638445D01*
X179159344Y-60447874D01*
X178894416Y-60306267D01*
X178606952Y-60219066D01*
X178382911Y-60197000D01*
X149440783Y-60197000D01*
X141237000Y-51993219D01*
X141237000Y-51407481D01*
X141246798Y-51308000D01*
X141207700Y-50911031D01*
X141091908Y-50529317D01*
X140903873Y-50177527D01*
X140650819Y-49869181D01*
X140342473Y-49616127D01*
X139990683Y-49428092D01*
X139608969Y-49312300D01*
X139311481Y-49283000D01*
X139212000Y-49273202D01*
X139112519Y-49283000D01*
X134012519Y-49283000D01*
X133715031Y-49312300D01*
X133333317Y-49428092D01*
X133326623Y-49431670D01*
X132512000Y-49431670D01*
X132458091Y-49436980D01*
X132406253Y-49452704D01*
X132358479Y-49478240D01*
X132316605Y-49512605D01*
X132282240Y-49554479D01*
X132256704Y-49602253D01*
X132240980Y-49654091D01*
X132235670Y-49708000D01*
X132235670Y-50522623D01*
X132232092Y-50529317D01*
X132116300Y-50911031D01*
X132077202Y-51308000D01*
X120747000Y-51308000D01*
X120747000Y-51123329D01*
X120674944Y-50761083D01*
X120533603Y-50419855D01*
X120328407Y-50112757D01*
X120067243Y-49851593D01*
X119760145Y-49646397D01*
X119418917Y-49505056D01*
X119056671Y-49433000D01*
X118687329Y-49433000D01*
X118325083Y-49505056D01*
X117983855Y-49646397D01*
X117676757Y-49851593D01*
X117415593Y-50112757D01*
X117210397Y-50419855D01*
X117069056Y-50761083D01*
X116997000Y-51123329D01*
X106016330Y-51123329D01*
X106016330Y-50470000D01*
X106011020Y-50416091D01*
X105995296Y-50364253D01*
X105969760Y-50316479D01*
X105935395Y-50274605D01*
X105893521Y-50240240D01*
X105845747Y-50214704D01*
X105793909Y-50198980D01*
X105740000Y-50193670D01*
X102540000Y-50193670D01*
X102486091Y-50198980D01*
X102434253Y-50214704D01*
X102386479Y-50240240D01*
X102344605Y-50274605D01*
X102310240Y-50316479D01*
X102284704Y-50364253D01*
X102268980Y-50416091D01*
X102263670Y-50470000D01*
X89880341Y-50470000D01*
X89788145Y-50408397D01*
X89446917Y-50267056D01*
X89084671Y-50195000D01*
X88715329Y-50195000D01*
X88353083Y-50267056D01*
X88011855Y-50408397D01*
X87704757Y-50613593D01*
X87443593Y-50874757D01*
X87238397Y-51181855D01*
X87097056Y-51523083D01*
X87025000Y-51885329D01*
X84825250Y-51885329D01*
X84825250Y-51845907D01*
X84737813Y-51406334D01*
X84566300Y-50992265D01*
X84317302Y-50619613D01*
X84000387Y-50302698D01*
X83627735Y-50053700D01*
X83213666Y-49882187D01*
X82774093Y-49794750D01*
X82325907Y-49794750D01*
X81886334Y-49882187D01*
X81472265Y-50053700D01*
X81099613Y-50302698D01*
X80782698Y-50619613D01*
X80533700Y-50992265D01*
X80362187Y-51406334D01*
X80274750Y-51845907D01*
X70100000Y-51845907D01*
X70100000Y-44332195D01*
X71409000Y-44332195D01*
X71409000Y-45075805D01*
X71554071Y-45805127D01*
X71838638Y-46492133D01*
X72251766Y-47110422D01*
X72777578Y-47636234D01*
X73395867Y-48049362D01*
X74082873Y-48333929D01*
X74812195Y-48479000D01*
X75555805Y-48479000D01*
X76285127Y-48333929D01*
X76972133Y-48049362D01*
X77590422Y-47636234D01*
X78116234Y-47110422D01*
X78176714Y-47019907D01*
X150886750Y-47019907D01*
X150886750Y-47468093D01*
X150974187Y-47907666D01*
X151145700Y-48321735D01*
X151394698Y-48694387D01*
X151711613Y-49011302D01*
X152084265Y-49260300D01*
X152498334Y-49431813D01*
X152937907Y-49519250D01*
X153386093Y-49519250D01*
X153825666Y-49431813D01*
X154239735Y-49260300D01*
X154612387Y-49011302D01*
X154929302Y-48694387D01*
X155178300Y-48321735D01*
X155349813Y-47907666D01*
X155437250Y-47468093D01*
X155437250Y-47019907D01*
X155349813Y-46580334D01*
X155178300Y-46166265D01*
X154929302Y-45793613D01*
X154612387Y-45476698D01*
X154239735Y-45227700D01*
X153825666Y-45056187D01*
X153482402Y-44987907D01*
X159522750Y-44987907D01*
X159522750Y-45436093D01*
X159610187Y-45875666D01*
X159781700Y-46289735D01*
X160030698Y-46662387D01*
X160347613Y-46979302D01*
X160720265Y-47228300D01*
X161134334Y-47399813D01*
X161573907Y-47487250D01*
X162022093Y-47487250D01*
X162461666Y-47399813D01*
X162875735Y-47228300D01*
X163248387Y-46979302D01*
X163565302Y-46662387D01*
X163814300Y-46289735D01*
X163985813Y-45875666D01*
X164073250Y-45436093D01*
X164073250Y-44987907D01*
X166126750Y-44987907D01*
X166126750Y-45436093D01*
X166214187Y-45875666D01*
X166385700Y-46289735D01*
X166634698Y-46662387D01*
X166951613Y-46979302D01*
X167324265Y-47228300D01*
X167738334Y-47399813D01*
X168177907Y-47487250D01*
X168626093Y-47487250D01*
X169065666Y-47399813D01*
X169479735Y-47228300D01*
X169791617Y-47019907D01*
X174762750Y-47019907D01*
X174762750Y-47468093D01*
X174850187Y-47907666D01*
X175021700Y-48321735D01*
X175270698Y-48694387D01*
X175587613Y-49011302D01*
X175960265Y-49260300D01*
X176374334Y-49431813D01*
X176813907Y-49519250D01*
X177262093Y-49519250D01*
X177701666Y-49431813D01*
X178115735Y-49260300D01*
X178488387Y-49011302D01*
X178805302Y-48694387D01*
X179054300Y-48321735D01*
X179225813Y-47907666D01*
X179313250Y-47468093D01*
X179313250Y-47019907D01*
X179225813Y-46580334D01*
X179054300Y-46166265D01*
X178805302Y-45793613D01*
X178488387Y-45476698D01*
X178115735Y-45227700D01*
X177701666Y-45056187D01*
X177262093Y-44968750D01*
X176813907Y-44968750D01*
X176374334Y-45056187D01*
X175960265Y-45227700D01*
X175587613Y-45476698D01*
X175270698Y-45793613D01*
X175021700Y-46166265D01*
X174850187Y-46580334D01*
X174762750Y-47019907D01*
X169791617Y-47019907D01*
X169852387Y-46979302D01*
X170169302Y-46662387D01*
X170418300Y-46289735D01*
X170589813Y-45875666D01*
X170677250Y-45436093D01*
X170677250Y-44987907D01*
X170589813Y-44548334D01*
X170500286Y-44332195D01*
X181137000Y-44332195D01*
X181137000Y-45075805D01*
X181282071Y-45805127D01*
X181566638Y-46492133D01*
X181979766Y-47110422D01*
X182505578Y-47636234D01*
X183123867Y-48049362D01*
X183810873Y-48333929D01*
X184540195Y-48479000D01*
X185283805Y-48479000D01*
X186013127Y-48333929D01*
X186700133Y-48049362D01*
X187318422Y-47636234D01*
X187844234Y-47110422D01*
X188257362Y-46492133D01*
X188541929Y-45805127D01*
X188687000Y-45075805D01*
X188687000Y-44332195D01*
X188541929Y-43602873D01*
X188257362Y-42915867D01*
X187844234Y-42297578D01*
X187318422Y-41771766D01*
X186700133Y-41358638D01*
X186013127Y-41074071D01*
X185283805Y-40929000D01*
X184540195Y-40929000D01*
X183810873Y-41074071D01*
X183123867Y-41358638D01*
X182505578Y-41771766D01*
X181979766Y-42297578D01*
X181566638Y-42915867D01*
X181282071Y-43602873D01*
X181137000Y-44332195D01*
X170500286Y-44332195D01*
X170418300Y-44134265D01*
X170169302Y-43761613D01*
X169852387Y-43444698D01*
X169479735Y-43195700D01*
X169065666Y-43024187D01*
X168626093Y-42936750D01*
X168177907Y-42936750D01*
X167738334Y-43024187D01*
X167324265Y-43195700D01*
X166951613Y-43444698D01*
X166634698Y-43761613D01*
X166385700Y-44134265D01*
X166214187Y-44548334D01*
X166126750Y-44987907D01*
X164073250Y-44987907D01*
X163985813Y-44548334D01*
X163814300Y-44134265D01*
X163565302Y-43761613D01*
X163248387Y-43444698D01*
X162875735Y-43195700D01*
X162461666Y-43024187D01*
X162022093Y-42936750D01*
X161573907Y-42936750D01*
X161134334Y-43024187D01*
X160720265Y-43195700D01*
X160347613Y-43444698D01*
X160030698Y-43761613D01*
X159781700Y-44134265D01*
X159610187Y-44548334D01*
X159522750Y-44987907D01*
X153482402Y-44987907D01*
X153386093Y-44968750D01*
X152937907Y-44968750D01*
X152498334Y-45056187D01*
X152084265Y-45227700D01*
X151711613Y-45476698D01*
X151394698Y-45793613D01*
X151145700Y-46166265D01*
X150974187Y-46580334D01*
X150886750Y-47019907D01*
X78176714Y-47019907D01*
X78529362Y-46492133D01*
X78813929Y-45805127D01*
X78959000Y-45075805D01*
X78959000Y-44332195D01*
X78813929Y-43602873D01*
X78529362Y-42915867D01*
X78116234Y-42297578D01*
X77590422Y-41771766D01*
X76972133Y-41358638D01*
X76285127Y-41074071D01*
X75555805Y-40929000D01*
X74812195Y-40929000D01*
X74082873Y-41074071D01*
X73395867Y-41358638D01*
X72777578Y-41771766D01*
X72251766Y-42297578D01*
X71838638Y-42915867D01*
X71554071Y-43602873D01*
X71409000Y-44332195D01*
X70100000Y-44332195D01*
X70100000Y-40255000D01*
X189615000Y-40255000D01*
X189615001Y-91825000D01*
M02*
