G04 #@! TF.GenerationSoftware,KiCad,Pcbnew,(5.1.5)-3*
G04 #@! TF.CreationDate,2020-04-26T20:45:37-05:00*
G04 #@! TF.ProjectId,SolarBTSpeaker,536f6c61-7242-4545-9370-65616b65722e,1.0*
G04 #@! TF.SameCoordinates,Original*
G04 #@! TF.FileFunction,Soldermask,Bot*
G04 #@! TF.FilePolarity,Negative*
%FSLAX46Y46*%
G04 Gerber Fmt 4.6, Leading zero omitted, Abs format (unit mm)*
G04 Created by KiCad (PCBNEW (5.1.5)-3) date 2020-04-26 20:45:37*
%MOMM*%
%LPD*%
G04 APERTURE LIST*
%ADD10C,0.050000*%
%ADD11C,0.150000*%
G04 APERTURE END LIST*
D10*
X88138000Y-72263000D02*
X208153000Y-72263000D01*
X88138000Y-124333000D02*
X88138000Y-72263000D01*
X208153000Y-124333000D02*
X88138000Y-124333000D01*
X208153000Y-72263000D02*
X208153000Y-124333000D01*
D11*
G36*
X204235787Y-115965462D02*
G01*
X204327667Y-116003520D01*
X204882029Y-116233144D01*
X205463631Y-116621758D01*
X205958242Y-117116369D01*
X206346856Y-117697971D01*
X206461541Y-117974845D01*
X206614538Y-118344213D01*
X206751000Y-119030256D01*
X206751000Y-119729744D01*
X206614538Y-120415787D01*
X206614537Y-120415789D01*
X206346856Y-121062029D01*
X205958242Y-121643631D01*
X205463631Y-122138242D01*
X204882029Y-122526856D01*
X204425068Y-122716135D01*
X204235787Y-122794538D01*
X203549744Y-122931000D01*
X202850256Y-122931000D01*
X202164213Y-122794538D01*
X201974932Y-122716135D01*
X201517971Y-122526856D01*
X200936369Y-122138242D01*
X200441758Y-121643631D01*
X200053144Y-121062029D01*
X199785463Y-120415789D01*
X199785462Y-120415787D01*
X199649000Y-119729744D01*
X199649000Y-119030256D01*
X199785462Y-118344213D01*
X199938459Y-117974845D01*
X200053144Y-117697971D01*
X200441758Y-117116369D01*
X200936369Y-116621758D01*
X201517971Y-116233144D01*
X202072333Y-116003520D01*
X202164213Y-115965462D01*
X202850256Y-115829000D01*
X203549744Y-115829000D01*
X204235787Y-115965462D01*
G37*
G36*
X94507787Y-115965462D02*
G01*
X94599667Y-116003520D01*
X95154029Y-116233144D01*
X95735631Y-116621758D01*
X96230242Y-117116369D01*
X96618856Y-117697971D01*
X96733541Y-117974845D01*
X96886538Y-118344213D01*
X97023000Y-119030256D01*
X97023000Y-119729744D01*
X96886538Y-120415787D01*
X96886537Y-120415789D01*
X96618856Y-121062029D01*
X96230242Y-121643631D01*
X95735631Y-122138242D01*
X95154029Y-122526856D01*
X94697068Y-122716135D01*
X94507787Y-122794538D01*
X93821744Y-122931000D01*
X93122256Y-122931000D01*
X92436213Y-122794538D01*
X92246932Y-122716135D01*
X91789971Y-122526856D01*
X91208369Y-122138242D01*
X90713758Y-121643631D01*
X90325144Y-121062029D01*
X90057463Y-120415789D01*
X90057462Y-120415787D01*
X89921000Y-119729744D01*
X89921000Y-119030256D01*
X90057462Y-118344213D01*
X90210459Y-117974845D01*
X90325144Y-117697971D01*
X90713758Y-117116369D01*
X91208369Y-116621758D01*
X91789971Y-116233144D01*
X92344333Y-116003520D01*
X92436213Y-115965462D01*
X93122256Y-115829000D01*
X93821744Y-115829000D01*
X94507787Y-115965462D01*
G37*
G36*
X126836326Y-113851578D02*
G01*
X127198586Y-114001631D01*
X127209631Y-114006206D01*
X127545596Y-114230690D01*
X127831310Y-114516404D01*
X128055794Y-114852369D01*
X128055795Y-114852371D01*
X128210422Y-115225674D01*
X128289250Y-115621968D01*
X128289250Y-116026032D01*
X128210422Y-116422326D01*
X128124477Y-116629815D01*
X128055794Y-116795631D01*
X127831310Y-117131596D01*
X127545596Y-117417310D01*
X127209631Y-117641794D01*
X127209630Y-117641795D01*
X127209629Y-117641795D01*
X126836326Y-117796422D01*
X126440032Y-117875250D01*
X126035968Y-117875250D01*
X125639674Y-117796422D01*
X125266371Y-117641795D01*
X125266370Y-117641795D01*
X125266369Y-117641794D01*
X124930404Y-117417310D01*
X124644690Y-117131596D01*
X124420206Y-116795631D01*
X124351523Y-116629815D01*
X124265578Y-116422326D01*
X124186750Y-116026032D01*
X124186750Y-115621968D01*
X124265578Y-115225674D01*
X124420205Y-114852371D01*
X124420206Y-114852369D01*
X124644690Y-114516404D01*
X124930404Y-114230690D01*
X125266369Y-114006206D01*
X125277414Y-114001631D01*
X125639674Y-113851578D01*
X126035968Y-113772750D01*
X126440032Y-113772750D01*
X126836326Y-113851578D01*
G37*
G36*
X150616228Y-115727703D02*
G01*
X150771100Y-115791853D01*
X150910481Y-115884985D01*
X151029015Y-116003519D01*
X151122147Y-116142900D01*
X151186297Y-116297772D01*
X151219000Y-116462184D01*
X151219000Y-116629816D01*
X151186297Y-116794228D01*
X151122147Y-116949100D01*
X151029015Y-117088481D01*
X150910481Y-117207015D01*
X150771100Y-117300147D01*
X150616228Y-117364297D01*
X150451816Y-117397000D01*
X150284184Y-117397000D01*
X150119772Y-117364297D01*
X149964900Y-117300147D01*
X149825519Y-117207015D01*
X149706985Y-117088481D01*
X149613853Y-116949100D01*
X149549703Y-116794228D01*
X149517000Y-116629816D01*
X149517000Y-116462184D01*
X149549703Y-116297772D01*
X149613853Y-116142900D01*
X149706985Y-116003519D01*
X149825519Y-115884985D01*
X149964900Y-115791853D01*
X150119772Y-115727703D01*
X150284184Y-115695000D01*
X150451816Y-115695000D01*
X150616228Y-115727703D01*
G37*
G36*
X159252228Y-115727703D02*
G01*
X159407100Y-115791853D01*
X159546481Y-115884985D01*
X159665015Y-116003519D01*
X159758147Y-116142900D01*
X159822297Y-116297772D01*
X159855000Y-116462184D01*
X159855000Y-116629816D01*
X159822297Y-116794228D01*
X159758147Y-116949100D01*
X159665015Y-117088481D01*
X159546481Y-117207015D01*
X159407100Y-117300147D01*
X159252228Y-117364297D01*
X159087816Y-117397000D01*
X158920184Y-117397000D01*
X158755772Y-117364297D01*
X158600900Y-117300147D01*
X158461519Y-117207015D01*
X158342985Y-117088481D01*
X158249853Y-116949100D01*
X158185703Y-116794228D01*
X158153000Y-116629816D01*
X158153000Y-116462184D01*
X158185703Y-116297772D01*
X158249853Y-116142900D01*
X158342985Y-116003519D01*
X158461519Y-115884985D01*
X158600900Y-115791853D01*
X158755772Y-115727703D01*
X158920184Y-115695000D01*
X159087816Y-115695000D01*
X159252228Y-115727703D01*
G37*
G36*
X172302326Y-111057578D02*
G01*
X172675629Y-111212205D01*
X172675631Y-111212206D01*
X173011596Y-111436690D01*
X173297310Y-111722404D01*
X173521794Y-112058369D01*
X173521795Y-112058371D01*
X173676422Y-112431674D01*
X173755250Y-112827968D01*
X173755250Y-113232032D01*
X173676422Y-113628326D01*
X173642267Y-113710784D01*
X173521794Y-114001631D01*
X173297310Y-114337596D01*
X173011596Y-114623310D01*
X172675631Y-114847794D01*
X172675630Y-114847795D01*
X172675629Y-114847795D01*
X172302326Y-115002422D01*
X171906032Y-115081250D01*
X171501968Y-115081250D01*
X171105674Y-115002422D01*
X170732371Y-114847795D01*
X170732370Y-114847795D01*
X170732369Y-114847794D01*
X170396404Y-114623310D01*
X170110690Y-114337596D01*
X169886206Y-114001631D01*
X169765733Y-113710784D01*
X169731578Y-113628326D01*
X169652750Y-113232032D01*
X169652750Y-112827968D01*
X169731578Y-112431674D01*
X169886205Y-112058371D01*
X169886206Y-112058369D01*
X170110690Y-111722404D01*
X170396404Y-111436690D01*
X170732369Y-111212206D01*
X170732371Y-111212205D01*
X171105674Y-111057578D01*
X171501968Y-110978750D01*
X171906032Y-110978750D01*
X172302326Y-111057578D01*
G37*
G36*
X178398326Y-111057578D02*
G01*
X178771629Y-111212205D01*
X178771631Y-111212206D01*
X179107596Y-111436690D01*
X179393310Y-111722404D01*
X179617794Y-112058369D01*
X179617795Y-112058371D01*
X179772422Y-112431674D01*
X179851250Y-112827968D01*
X179851250Y-113232032D01*
X179772422Y-113628326D01*
X179738267Y-113710784D01*
X179617794Y-114001631D01*
X179393310Y-114337596D01*
X179107596Y-114623310D01*
X178771631Y-114847794D01*
X178771630Y-114847795D01*
X178771629Y-114847795D01*
X178398326Y-115002422D01*
X178002032Y-115081250D01*
X177597968Y-115081250D01*
X177201674Y-115002422D01*
X176828371Y-114847795D01*
X176828370Y-114847795D01*
X176828369Y-114847794D01*
X176492404Y-114623310D01*
X176206690Y-114337596D01*
X175982206Y-114001631D01*
X175861733Y-113710784D01*
X175827578Y-113628326D01*
X175748750Y-113232032D01*
X175748750Y-112827968D01*
X175827578Y-112431674D01*
X175982205Y-112058371D01*
X175982206Y-112058369D01*
X176206690Y-111722404D01*
X176492404Y-111436690D01*
X176828369Y-111212206D01*
X176828371Y-111212205D01*
X177201674Y-111057578D01*
X177597968Y-110978750D01*
X178002032Y-110978750D01*
X178398326Y-111057578D01*
G37*
G36*
X187288326Y-111057578D02*
G01*
X187661629Y-111212205D01*
X187661631Y-111212206D01*
X187997596Y-111436690D01*
X188283310Y-111722404D01*
X188507794Y-112058369D01*
X188507795Y-112058371D01*
X188662422Y-112431674D01*
X188741250Y-112827968D01*
X188741250Y-113232032D01*
X188662422Y-113628326D01*
X188628267Y-113710784D01*
X188507794Y-114001631D01*
X188283310Y-114337596D01*
X187997596Y-114623310D01*
X187661631Y-114847794D01*
X187661630Y-114847795D01*
X187661629Y-114847795D01*
X187288326Y-115002422D01*
X186892032Y-115081250D01*
X186487968Y-115081250D01*
X186091674Y-115002422D01*
X185718371Y-114847795D01*
X185718370Y-114847795D01*
X185718369Y-114847794D01*
X185382404Y-114623310D01*
X185096690Y-114337596D01*
X184872206Y-114001631D01*
X184751733Y-113710784D01*
X184717578Y-113628326D01*
X184638750Y-113232032D01*
X184638750Y-112827968D01*
X184717578Y-112431674D01*
X184872205Y-112058371D01*
X184872206Y-112058369D01*
X185096690Y-111722404D01*
X185382404Y-111436690D01*
X185718369Y-111212206D01*
X185718371Y-111212205D01*
X186091674Y-111057578D01*
X186487968Y-110978750D01*
X186892032Y-110978750D01*
X187288326Y-111057578D01*
G37*
G36*
X193384326Y-111057578D02*
G01*
X193757629Y-111212205D01*
X193757631Y-111212206D01*
X194093596Y-111436690D01*
X194379310Y-111722404D01*
X194603794Y-112058369D01*
X194603795Y-112058371D01*
X194758422Y-112431674D01*
X194837250Y-112827968D01*
X194837250Y-113232032D01*
X194758422Y-113628326D01*
X194724267Y-113710784D01*
X194603794Y-114001631D01*
X194379310Y-114337596D01*
X194093596Y-114623310D01*
X193757631Y-114847794D01*
X193757630Y-114847795D01*
X193757629Y-114847795D01*
X193384326Y-115002422D01*
X192988032Y-115081250D01*
X192583968Y-115081250D01*
X192187674Y-115002422D01*
X191814371Y-114847795D01*
X191814370Y-114847795D01*
X191814369Y-114847794D01*
X191478404Y-114623310D01*
X191192690Y-114337596D01*
X190968206Y-114001631D01*
X190847733Y-113710784D01*
X190813578Y-113628326D01*
X190734750Y-113232032D01*
X190734750Y-112827968D01*
X190813578Y-112431674D01*
X190968205Y-112058371D01*
X190968206Y-112058369D01*
X191192690Y-111722404D01*
X191478404Y-111436690D01*
X191814369Y-111212206D01*
X191814371Y-111212205D01*
X192187674Y-111057578D01*
X192583968Y-110978750D01*
X192988032Y-110978750D01*
X193384326Y-111057578D01*
G37*
G36*
X159855000Y-114897000D02*
G01*
X158153000Y-114897000D01*
X158153000Y-113195000D01*
X159855000Y-113195000D01*
X159855000Y-114897000D01*
G37*
G36*
X151219000Y-114897000D02*
G01*
X149517000Y-114897000D01*
X149517000Y-113195000D01*
X151219000Y-113195000D01*
X151219000Y-114897000D01*
G37*
G36*
X134479512Y-112387927D02*
G01*
X134628812Y-112417624D01*
X134792784Y-112485544D01*
X134940354Y-112584147D01*
X135065853Y-112709646D01*
X135164456Y-112857216D01*
X135232376Y-113021188D01*
X135262073Y-113170488D01*
X135266949Y-113195000D01*
X135267000Y-113195259D01*
X135267000Y-113372741D01*
X135232376Y-113546812D01*
X135164456Y-113710784D01*
X135065853Y-113858354D01*
X134940354Y-113983853D01*
X134792784Y-114082456D01*
X134628812Y-114150376D01*
X134479512Y-114180073D01*
X134454742Y-114185000D01*
X134277258Y-114185000D01*
X134252488Y-114180073D01*
X134103188Y-114150376D01*
X133939216Y-114082456D01*
X133791646Y-113983853D01*
X133666147Y-113858354D01*
X133567544Y-113710784D01*
X133499624Y-113546812D01*
X133465000Y-113372741D01*
X133465000Y-113195259D01*
X133465052Y-113195000D01*
X133469927Y-113170488D01*
X133499624Y-113021188D01*
X133567544Y-112857216D01*
X133666147Y-112709646D01*
X133791646Y-112584147D01*
X133939216Y-112485544D01*
X134103188Y-112417624D01*
X134252488Y-112387927D01*
X134277258Y-112383000D01*
X134454742Y-112383000D01*
X134479512Y-112387927D01*
G37*
G36*
X134479512Y-109847927D02*
G01*
X134628812Y-109877624D01*
X134792784Y-109945544D01*
X134940354Y-110044147D01*
X135065853Y-110169646D01*
X135164456Y-110317216D01*
X135232376Y-110481188D01*
X135267000Y-110655259D01*
X135267000Y-110832741D01*
X135232376Y-111006812D01*
X135164456Y-111170784D01*
X135065853Y-111318354D01*
X134940354Y-111443853D01*
X134792784Y-111542456D01*
X134628812Y-111610376D01*
X134479512Y-111640073D01*
X134454742Y-111645000D01*
X134277258Y-111645000D01*
X134252488Y-111640073D01*
X134103188Y-111610376D01*
X133939216Y-111542456D01*
X133791646Y-111443853D01*
X133666147Y-111318354D01*
X133567544Y-111170784D01*
X133499624Y-111006812D01*
X133465000Y-110832741D01*
X133465000Y-110655259D01*
X133499624Y-110481188D01*
X133567544Y-110317216D01*
X133666147Y-110169646D01*
X133791646Y-110044147D01*
X133939216Y-109945544D01*
X134103188Y-109877624D01*
X134252488Y-109847927D01*
X134277258Y-109843000D01*
X134454742Y-109843000D01*
X134479512Y-109847927D01*
G37*
G36*
X144774228Y-109377703D02*
G01*
X144929100Y-109441853D01*
X145068481Y-109534985D01*
X145187015Y-109653519D01*
X145280147Y-109792900D01*
X145344297Y-109947772D01*
X145377000Y-110112184D01*
X145377000Y-110279816D01*
X145344297Y-110444228D01*
X145280147Y-110599100D01*
X145187015Y-110738481D01*
X145068481Y-110857015D01*
X144929100Y-110950147D01*
X144774228Y-111014297D01*
X144609816Y-111047000D01*
X144442184Y-111047000D01*
X144277772Y-111014297D01*
X144122900Y-110950147D01*
X143983519Y-110857015D01*
X143864985Y-110738481D01*
X143771853Y-110599100D01*
X143707703Y-110444228D01*
X143675000Y-110279816D01*
X143675000Y-110112184D01*
X143707703Y-109947772D01*
X143771853Y-109792900D01*
X143864985Y-109653519D01*
X143983519Y-109534985D01*
X144122900Y-109441853D01*
X144277772Y-109377703D01*
X144442184Y-109345000D01*
X144609816Y-109345000D01*
X144774228Y-109377703D01*
G37*
G36*
X126836326Y-106993578D02*
G01*
X126836329Y-106993579D01*
X126836328Y-106993579D01*
X127209631Y-107148206D01*
X127545596Y-107372690D01*
X127831310Y-107658404D01*
X128055794Y-107994369D01*
X128055795Y-107994371D01*
X128210422Y-108367674D01*
X128289250Y-108763968D01*
X128289250Y-109168032D01*
X128210422Y-109564326D01*
X128080650Y-109877624D01*
X128055794Y-109937631D01*
X127831310Y-110273596D01*
X127545596Y-110559310D01*
X127209631Y-110783794D01*
X127209630Y-110783795D01*
X127209629Y-110783795D01*
X126836326Y-110938422D01*
X126440032Y-111017250D01*
X126035968Y-111017250D01*
X125639674Y-110938422D01*
X125266371Y-110783795D01*
X125266370Y-110783795D01*
X125266369Y-110783794D01*
X124930404Y-110559310D01*
X124644690Y-110273596D01*
X124420206Y-109937631D01*
X124395350Y-109877624D01*
X124265578Y-109564326D01*
X124186750Y-109168032D01*
X124186750Y-108763968D01*
X124265578Y-108367674D01*
X124420205Y-107994371D01*
X124420206Y-107994369D01*
X124644690Y-107658404D01*
X124930404Y-107372690D01*
X125266369Y-107148206D01*
X125639672Y-106993579D01*
X125639671Y-106993579D01*
X125639674Y-106993578D01*
X126035968Y-106914750D01*
X126440032Y-106914750D01*
X126836326Y-106993578D01*
G37*
G36*
X135267000Y-109105000D02*
G01*
X133465000Y-109105000D01*
X133465000Y-107303000D01*
X135267000Y-107303000D01*
X135267000Y-109105000D01*
G37*
G36*
X145377000Y-108547000D02*
G01*
X143675000Y-108547000D01*
X143675000Y-106845000D01*
X145377000Y-106845000D01*
X145377000Y-108547000D01*
G37*
G36*
X110767395Y-104495546D02*
G01*
X110940466Y-104567234D01*
X110940467Y-104567235D01*
X111096227Y-104671310D01*
X111228690Y-104803773D01*
X111228691Y-104803775D01*
X111332766Y-104959534D01*
X111404454Y-105132605D01*
X111441000Y-105316333D01*
X111441000Y-105503667D01*
X111404454Y-105687395D01*
X111332766Y-105860466D01*
X111332765Y-105860467D01*
X111228690Y-106016227D01*
X111096227Y-106148690D01*
X111017818Y-106201081D01*
X110940466Y-106252766D01*
X110767395Y-106324454D01*
X110583667Y-106361000D01*
X110396333Y-106361000D01*
X110212605Y-106324454D01*
X110039534Y-106252766D01*
X109962182Y-106201081D01*
X109883773Y-106148690D01*
X109751310Y-106016227D01*
X109647235Y-105860467D01*
X109647234Y-105860466D01*
X109575546Y-105687395D01*
X109539000Y-105503667D01*
X109539000Y-105316333D01*
X109575546Y-105132605D01*
X109647234Y-104959534D01*
X109751309Y-104803775D01*
X109751310Y-104803773D01*
X109883773Y-104671310D01*
X110039533Y-104567235D01*
X110039534Y-104567234D01*
X110212605Y-104495546D01*
X110396333Y-104459000D01*
X110583667Y-104459000D01*
X110767395Y-104495546D01*
G37*
G36*
X105941395Y-104495546D02*
G01*
X106114466Y-104567234D01*
X106114467Y-104567235D01*
X106270227Y-104671310D01*
X106402690Y-104803773D01*
X106402691Y-104803775D01*
X106506766Y-104959534D01*
X106578454Y-105132605D01*
X106615000Y-105316333D01*
X106615000Y-105503667D01*
X106578454Y-105687395D01*
X106506766Y-105860466D01*
X106506765Y-105860467D01*
X106402690Y-106016227D01*
X106270227Y-106148690D01*
X106191818Y-106201081D01*
X106114466Y-106252766D01*
X105941395Y-106324454D01*
X105757667Y-106361000D01*
X105570333Y-106361000D01*
X105386605Y-106324454D01*
X105213534Y-106252766D01*
X105136182Y-106201081D01*
X105057773Y-106148690D01*
X104925310Y-106016227D01*
X104821235Y-105860467D01*
X104821234Y-105860466D01*
X104749546Y-105687395D01*
X104713000Y-105503667D01*
X104713000Y-105316333D01*
X104749546Y-105132605D01*
X104821234Y-104959534D01*
X104925309Y-104803775D01*
X104925310Y-104803773D01*
X105057773Y-104671310D01*
X105213533Y-104567235D01*
X105213534Y-104567234D01*
X105386605Y-104495546D01*
X105570333Y-104459000D01*
X105757667Y-104459000D01*
X105941395Y-104495546D01*
G37*
G36*
X175145000Y-106057000D02*
G01*
X173343000Y-106057000D01*
X173343000Y-104255000D01*
X175145000Y-104255000D01*
X175145000Y-106057000D01*
G37*
G36*
X106615000Y-103821000D02*
G01*
X104713000Y-103821000D01*
X104713000Y-101919000D01*
X106615000Y-101919000D01*
X106615000Y-103821000D01*
G37*
G36*
X111441000Y-103821000D02*
G01*
X109539000Y-103821000D01*
X109539000Y-101919000D01*
X111441000Y-101919000D01*
X111441000Y-103821000D01*
G37*
G36*
X174357512Y-101719927D02*
G01*
X174506812Y-101749624D01*
X174670784Y-101817544D01*
X174818354Y-101916147D01*
X174943853Y-102041646D01*
X175042456Y-102189216D01*
X175110376Y-102353188D01*
X175145000Y-102527259D01*
X175145000Y-102704741D01*
X175110376Y-102878812D01*
X175042456Y-103042784D01*
X174943853Y-103190354D01*
X174818354Y-103315853D01*
X174670784Y-103414456D01*
X174506812Y-103482376D01*
X174357512Y-103512073D01*
X174332742Y-103517000D01*
X174155258Y-103517000D01*
X174130488Y-103512073D01*
X173981188Y-103482376D01*
X173817216Y-103414456D01*
X173669646Y-103315853D01*
X173544147Y-103190354D01*
X173445544Y-103042784D01*
X173377624Y-102878812D01*
X173343000Y-102704741D01*
X173343000Y-102527259D01*
X173377624Y-102353188D01*
X173445544Y-102189216D01*
X173544147Y-102041646D01*
X173669646Y-101916147D01*
X173817216Y-101817544D01*
X173981188Y-101749624D01*
X174130488Y-101719927D01*
X174155258Y-101715000D01*
X174332742Y-101715000D01*
X174357512Y-101719927D01*
G37*
G36*
X144905487Y-100856996D02*
G01*
X145142253Y-100955068D01*
X145142255Y-100955069D01*
X145355339Y-101097447D01*
X145536553Y-101278661D01*
X145641903Y-101436328D01*
X145678932Y-101491747D01*
X145777004Y-101728513D01*
X145827000Y-101979861D01*
X145827000Y-102236139D01*
X145777004Y-102487487D01*
X145707288Y-102655795D01*
X145678931Y-102724255D01*
X145536553Y-102937339D01*
X145355339Y-103118553D01*
X145142255Y-103260931D01*
X145142254Y-103260932D01*
X145142253Y-103260932D01*
X144905487Y-103359004D01*
X144654139Y-103409000D01*
X144397861Y-103409000D01*
X144146513Y-103359004D01*
X143909747Y-103260932D01*
X143909746Y-103260932D01*
X143909745Y-103260931D01*
X143696661Y-103118553D01*
X143515447Y-102937339D01*
X143373069Y-102724255D01*
X143344712Y-102655795D01*
X143274996Y-102487487D01*
X143225000Y-102236139D01*
X143225000Y-101979861D01*
X143274996Y-101728513D01*
X143373068Y-101491747D01*
X143410098Y-101436328D01*
X143515447Y-101278661D01*
X143696661Y-101097447D01*
X143909745Y-100955069D01*
X143909747Y-100955068D01*
X144146513Y-100856996D01*
X144397861Y-100807000D01*
X144654139Y-100807000D01*
X144905487Y-100856996D01*
G37*
G36*
X124550326Y-98865578D02*
G01*
X124923629Y-99020205D01*
X124923631Y-99020206D01*
X125259596Y-99244690D01*
X125545310Y-99530404D01*
X125734260Y-99813189D01*
X125769795Y-99866371D01*
X125924422Y-100239674D01*
X126003250Y-100635968D01*
X126003250Y-101040032D01*
X125924422Y-101436326D01*
X125803395Y-101728512D01*
X125769794Y-101809631D01*
X125545310Y-102145596D01*
X125259596Y-102431310D01*
X124923631Y-102655794D01*
X124923630Y-102655795D01*
X124923629Y-102655795D01*
X124550326Y-102810422D01*
X124154032Y-102889250D01*
X123749968Y-102889250D01*
X123353674Y-102810422D01*
X122980371Y-102655795D01*
X122980370Y-102655795D01*
X122980369Y-102655794D01*
X122644404Y-102431310D01*
X122358690Y-102145596D01*
X122134206Y-101809631D01*
X122100605Y-101728512D01*
X121979578Y-101436326D01*
X121900750Y-101040032D01*
X121900750Y-100635968D01*
X121979578Y-100239674D01*
X122134205Y-99866371D01*
X122169740Y-99813189D01*
X122358690Y-99530404D01*
X122644404Y-99244690D01*
X122980369Y-99020206D01*
X122980371Y-99020205D01*
X123353674Y-98865578D01*
X123749968Y-98786750D01*
X124154032Y-98786750D01*
X124550326Y-98865578D01*
G37*
G36*
X130392326Y-98865578D02*
G01*
X130765629Y-99020205D01*
X130765631Y-99020206D01*
X131101596Y-99244690D01*
X131387310Y-99530404D01*
X131576260Y-99813189D01*
X131611795Y-99866371D01*
X131766422Y-100239674D01*
X131845250Y-100635968D01*
X131845250Y-101040032D01*
X131766422Y-101436326D01*
X131645395Y-101728512D01*
X131611794Y-101809631D01*
X131387310Y-102145596D01*
X131101596Y-102431310D01*
X130765631Y-102655794D01*
X130765630Y-102655795D01*
X130765629Y-102655795D01*
X130392326Y-102810422D01*
X129996032Y-102889250D01*
X129591968Y-102889250D01*
X129195674Y-102810422D01*
X128822371Y-102655795D01*
X128822370Y-102655795D01*
X128822369Y-102655794D01*
X128486404Y-102431310D01*
X128200690Y-102145596D01*
X127976206Y-101809631D01*
X127942605Y-101728512D01*
X127821578Y-101436326D01*
X127742750Y-101040032D01*
X127742750Y-100635968D01*
X127821578Y-100239674D01*
X127976205Y-99866371D01*
X128011740Y-99813189D01*
X128200690Y-99530404D01*
X128486404Y-99244690D01*
X128822369Y-99020206D01*
X128822371Y-99020205D01*
X129195674Y-98865578D01*
X129591968Y-98786750D01*
X129996032Y-98786750D01*
X130392326Y-98865578D01*
G37*
G36*
X174357512Y-99179927D02*
G01*
X174506812Y-99209624D01*
X174670784Y-99277544D01*
X174818354Y-99376147D01*
X174943853Y-99501646D01*
X175042456Y-99649216D01*
X175110376Y-99813188D01*
X175145000Y-99987259D01*
X175145000Y-100164741D01*
X175110376Y-100338812D01*
X175042456Y-100502784D01*
X174943853Y-100650354D01*
X174818354Y-100775853D01*
X174670784Y-100874456D01*
X174506812Y-100942376D01*
X174357512Y-100972073D01*
X174332742Y-100977000D01*
X174155258Y-100977000D01*
X174130488Y-100972073D01*
X173981188Y-100942376D01*
X173817216Y-100874456D01*
X173669646Y-100775853D01*
X173544147Y-100650354D01*
X173445544Y-100502784D01*
X173377624Y-100338812D01*
X173343000Y-100164741D01*
X173343000Y-99987259D01*
X173377624Y-99813188D01*
X173445544Y-99649216D01*
X173544147Y-99501646D01*
X173669646Y-99376147D01*
X173817216Y-99277544D01*
X173981188Y-99209624D01*
X174130488Y-99179927D01*
X174155258Y-99175000D01*
X174332742Y-99175000D01*
X174357512Y-99179927D01*
G37*
G36*
X107786326Y-95055578D02*
G01*
X107786329Y-95055579D01*
X107786328Y-95055579D01*
X108159631Y-95210206D01*
X108495596Y-95434690D01*
X108781310Y-95720404D01*
X109005794Y-96056369D01*
X109005795Y-96056371D01*
X109160422Y-96429674D01*
X109239250Y-96825968D01*
X109239250Y-97230032D01*
X109160422Y-97626326D01*
X109160421Y-97626328D01*
X109005794Y-97999631D01*
X108781310Y-98335596D01*
X108495596Y-98621310D01*
X108159631Y-98845794D01*
X108159630Y-98845795D01*
X108159629Y-98845795D01*
X107786326Y-99000422D01*
X107390032Y-99079250D01*
X106985968Y-99079250D01*
X106589674Y-99000422D01*
X106216371Y-98845795D01*
X106216370Y-98845795D01*
X106216369Y-98845794D01*
X105880404Y-98621310D01*
X105594690Y-98335596D01*
X105370206Y-97999631D01*
X105215579Y-97626328D01*
X105215578Y-97626326D01*
X105136750Y-97230032D01*
X105136750Y-96825968D01*
X105215578Y-96429674D01*
X105370205Y-96056371D01*
X105370206Y-96056369D01*
X105594690Y-95720404D01*
X105880404Y-95434690D01*
X106216369Y-95210206D01*
X106589672Y-95055579D01*
X106589671Y-95055579D01*
X106589674Y-95055578D01*
X106985968Y-94976750D01*
X107390032Y-94976750D01*
X107786326Y-95055578D01*
G37*
G36*
X170174228Y-95661703D02*
G01*
X170329100Y-95725853D01*
X170468481Y-95818985D01*
X170587015Y-95937519D01*
X170680147Y-96076900D01*
X170744297Y-96231772D01*
X170777000Y-96396184D01*
X170777000Y-96563816D01*
X170744297Y-96728228D01*
X170680147Y-96883100D01*
X170587015Y-97022481D01*
X170468481Y-97141015D01*
X170329100Y-97234147D01*
X170174228Y-97298297D01*
X170009816Y-97331000D01*
X169842184Y-97331000D01*
X169677772Y-97298297D01*
X169522900Y-97234147D01*
X169383519Y-97141015D01*
X169264985Y-97022481D01*
X169171853Y-96883100D01*
X169107703Y-96728228D01*
X169075000Y-96563816D01*
X169075000Y-96396184D01*
X169107703Y-96231772D01*
X169171853Y-96076900D01*
X169264985Y-95937519D01*
X169383519Y-95818985D01*
X169522900Y-95725853D01*
X169677772Y-95661703D01*
X169842184Y-95629000D01*
X170009816Y-95629000D01*
X170174228Y-95661703D01*
G37*
G36*
X196844228Y-95661703D02*
G01*
X196999100Y-95725853D01*
X197138481Y-95818985D01*
X197257015Y-95937519D01*
X197350147Y-96076900D01*
X197414297Y-96231772D01*
X197447000Y-96396184D01*
X197447000Y-96563816D01*
X197414297Y-96728228D01*
X197350147Y-96883100D01*
X197257015Y-97022481D01*
X197138481Y-97141015D01*
X196999100Y-97234147D01*
X196844228Y-97298297D01*
X196679816Y-97331000D01*
X196512184Y-97331000D01*
X196347772Y-97298297D01*
X196192900Y-97234147D01*
X196053519Y-97141015D01*
X195934985Y-97022481D01*
X195841853Y-96883100D01*
X195777703Y-96728228D01*
X195745000Y-96563816D01*
X195745000Y-96396184D01*
X195777703Y-96231772D01*
X195841853Y-96076900D01*
X195934985Y-95937519D01*
X196053519Y-95818985D01*
X196192900Y-95725853D01*
X196347772Y-95661703D01*
X196512184Y-95629000D01*
X196679816Y-95629000D01*
X196844228Y-95661703D01*
G37*
G36*
X125947059Y-95289860D02*
G01*
X126083732Y-95346472D01*
X126206735Y-95428660D01*
X126311340Y-95533265D01*
X126393528Y-95656268D01*
X126450140Y-95792941D01*
X126479000Y-95938033D01*
X126479000Y-96085967D01*
X126450140Y-96231059D01*
X126393528Y-96367732D01*
X126311340Y-96490735D01*
X126206735Y-96595340D01*
X126083732Y-96677528D01*
X126083731Y-96677529D01*
X126083730Y-96677529D01*
X125947059Y-96734140D01*
X125801968Y-96763000D01*
X125654032Y-96763000D01*
X125508941Y-96734140D01*
X125372270Y-96677529D01*
X125372269Y-96677529D01*
X125372268Y-96677528D01*
X125249265Y-96595340D01*
X125144660Y-96490735D01*
X125062472Y-96367732D01*
X125005860Y-96231059D01*
X124977000Y-96085967D01*
X124977000Y-95938033D01*
X125005860Y-95792941D01*
X125062472Y-95656268D01*
X125144660Y-95533265D01*
X125249265Y-95428660D01*
X125372268Y-95346472D01*
X125508941Y-95289860D01*
X125654032Y-95261000D01*
X125801968Y-95261000D01*
X125947059Y-95289860D01*
G37*
G36*
X123179000Y-96763000D02*
G01*
X121677000Y-96763000D01*
X121677000Y-95261000D01*
X123179000Y-95261000D01*
X123179000Y-96763000D01*
G37*
G36*
X197447000Y-94831000D02*
G01*
X195745000Y-94831000D01*
X195745000Y-93129000D01*
X197447000Y-93129000D01*
X197447000Y-94831000D01*
G37*
G36*
X170777000Y-94831000D02*
G01*
X169075000Y-94831000D01*
X169075000Y-93129000D01*
X170777000Y-93129000D01*
X170777000Y-94831000D01*
G37*
G36*
X125947059Y-92789860D02*
G01*
X126083732Y-92846472D01*
X126206735Y-92928660D01*
X126311340Y-93033265D01*
X126393528Y-93156268D01*
X126450140Y-93292941D01*
X126479000Y-93438033D01*
X126479000Y-93585967D01*
X126450140Y-93731059D01*
X126393528Y-93867732D01*
X126311340Y-93990735D01*
X126206735Y-94095340D01*
X126083732Y-94177528D01*
X126083731Y-94177529D01*
X126083730Y-94177529D01*
X125947059Y-94234140D01*
X125801968Y-94263000D01*
X125654032Y-94263000D01*
X125508941Y-94234140D01*
X125372270Y-94177529D01*
X125372269Y-94177529D01*
X125372268Y-94177528D01*
X125249265Y-94095340D01*
X125144660Y-93990735D01*
X125062472Y-93867732D01*
X125005860Y-93731059D01*
X124977000Y-93585967D01*
X124977000Y-93438033D01*
X125005860Y-93292941D01*
X125062472Y-93156268D01*
X125144660Y-93033265D01*
X125249265Y-92928660D01*
X125372268Y-92846472D01*
X125508941Y-92789860D01*
X125654032Y-92761000D01*
X125801968Y-92761000D01*
X125947059Y-92789860D01*
G37*
G36*
X122647059Y-92789860D02*
G01*
X122783732Y-92846472D01*
X122906735Y-92928660D01*
X123011340Y-93033265D01*
X123093528Y-93156268D01*
X123150140Y-93292941D01*
X123179000Y-93438033D01*
X123179000Y-93585967D01*
X123150140Y-93731059D01*
X123093528Y-93867732D01*
X123011340Y-93990735D01*
X122906735Y-94095340D01*
X122783732Y-94177528D01*
X122783731Y-94177529D01*
X122783730Y-94177529D01*
X122647059Y-94234140D01*
X122501968Y-94263000D01*
X122354032Y-94263000D01*
X122208941Y-94234140D01*
X122072270Y-94177529D01*
X122072269Y-94177529D01*
X122072268Y-94177528D01*
X121949265Y-94095340D01*
X121844660Y-93990735D01*
X121762472Y-93867732D01*
X121705860Y-93731059D01*
X121677000Y-93585967D01*
X121677000Y-93438033D01*
X121705860Y-93292941D01*
X121762472Y-93156268D01*
X121844660Y-93033265D01*
X121949265Y-92928660D01*
X122072268Y-92846472D01*
X122208941Y-92789860D01*
X122354032Y-92761000D01*
X122501968Y-92761000D01*
X122647059Y-92789860D01*
G37*
G36*
X107786326Y-88705578D02*
G01*
X108151884Y-88856997D01*
X108159631Y-88860206D01*
X108495596Y-89084690D01*
X108781310Y-89370404D01*
X109005794Y-89706369D01*
X109005795Y-89706371D01*
X109160422Y-90079674D01*
X109239250Y-90475968D01*
X109239250Y-90880032D01*
X109160422Y-91276326D01*
X109160421Y-91276328D01*
X109005794Y-91649631D01*
X108781310Y-91985596D01*
X108495596Y-92271310D01*
X108159631Y-92495794D01*
X108159630Y-92495795D01*
X108159629Y-92495795D01*
X107786326Y-92650422D01*
X107390032Y-92729250D01*
X106985968Y-92729250D01*
X106589674Y-92650422D01*
X106216371Y-92495795D01*
X106216370Y-92495795D01*
X106216369Y-92495794D01*
X105880404Y-92271310D01*
X105594690Y-91985596D01*
X105370206Y-91649631D01*
X105215579Y-91276328D01*
X105215578Y-91276326D01*
X105136750Y-90880032D01*
X105136750Y-90475968D01*
X105215578Y-90079674D01*
X105370205Y-89706371D01*
X105370206Y-89706369D01*
X105594690Y-89370404D01*
X105880404Y-89084690D01*
X106216369Y-88860206D01*
X106224116Y-88856997D01*
X106589674Y-88705578D01*
X106985968Y-88626750D01*
X107390032Y-88626750D01*
X107786326Y-88705578D01*
G37*
G36*
X101436326Y-88705578D02*
G01*
X101801884Y-88856997D01*
X101809631Y-88860206D01*
X102145596Y-89084690D01*
X102431310Y-89370404D01*
X102655794Y-89706369D01*
X102655795Y-89706371D01*
X102810422Y-90079674D01*
X102889250Y-90475968D01*
X102889250Y-90880032D01*
X102810422Y-91276326D01*
X102810421Y-91276328D01*
X102655794Y-91649631D01*
X102431310Y-91985596D01*
X102145596Y-92271310D01*
X101809631Y-92495794D01*
X101809630Y-92495795D01*
X101809629Y-92495795D01*
X101436326Y-92650422D01*
X101040032Y-92729250D01*
X100635968Y-92729250D01*
X100239674Y-92650422D01*
X99866371Y-92495795D01*
X99866370Y-92495795D01*
X99866369Y-92495794D01*
X99530404Y-92271310D01*
X99244690Y-91985596D01*
X99020206Y-91649631D01*
X98865579Y-91276328D01*
X98865578Y-91276326D01*
X98786750Y-90880032D01*
X98786750Y-90475968D01*
X98865578Y-90079674D01*
X99020205Y-89706371D01*
X99020206Y-89706369D01*
X99244690Y-89370404D01*
X99530404Y-89084690D01*
X99866369Y-88860206D01*
X99874116Y-88856997D01*
X100239674Y-88705578D01*
X100635968Y-88626750D01*
X101040032Y-88626750D01*
X101436326Y-88705578D01*
G37*
G36*
X122647059Y-90289860D02*
G01*
X122783732Y-90346472D01*
X122906735Y-90428660D01*
X123011340Y-90533265D01*
X123011341Y-90533267D01*
X123093529Y-90656270D01*
X123150140Y-90792941D01*
X123179000Y-90938032D01*
X123179000Y-91085968D01*
X123150140Y-91231059D01*
X123093528Y-91367732D01*
X123011340Y-91490735D01*
X122906735Y-91595340D01*
X122783732Y-91677528D01*
X122783731Y-91677529D01*
X122783730Y-91677529D01*
X122647059Y-91734140D01*
X122501968Y-91763000D01*
X122354032Y-91763000D01*
X122208941Y-91734140D01*
X122072270Y-91677529D01*
X122072269Y-91677529D01*
X122072268Y-91677528D01*
X121949265Y-91595340D01*
X121844660Y-91490735D01*
X121762472Y-91367732D01*
X121705860Y-91231059D01*
X121677000Y-91085968D01*
X121677000Y-90938032D01*
X121705860Y-90792941D01*
X121762471Y-90656270D01*
X121844659Y-90533267D01*
X121844660Y-90533265D01*
X121949265Y-90428660D01*
X122072268Y-90346472D01*
X122208941Y-90289860D01*
X122354032Y-90261000D01*
X122501968Y-90261000D01*
X122647059Y-90289860D01*
G37*
G36*
X125947059Y-90289860D02*
G01*
X126083732Y-90346472D01*
X126206735Y-90428660D01*
X126311340Y-90533265D01*
X126311341Y-90533267D01*
X126393529Y-90656270D01*
X126450140Y-90792941D01*
X126479000Y-90938032D01*
X126479000Y-91085968D01*
X126450140Y-91231059D01*
X126393528Y-91367732D01*
X126311340Y-91490735D01*
X126206735Y-91595340D01*
X126083732Y-91677528D01*
X126083731Y-91677529D01*
X126083730Y-91677529D01*
X125947059Y-91734140D01*
X125801968Y-91763000D01*
X125654032Y-91763000D01*
X125508941Y-91734140D01*
X125372270Y-91677529D01*
X125372269Y-91677529D01*
X125372268Y-91677528D01*
X125249265Y-91595340D01*
X125144660Y-91490735D01*
X125062472Y-91367732D01*
X125005860Y-91231059D01*
X124977000Y-91085968D01*
X124977000Y-90938032D01*
X125005860Y-90792941D01*
X125062471Y-90656270D01*
X125144659Y-90533267D01*
X125144660Y-90533265D01*
X125249265Y-90428660D01*
X125372268Y-90346472D01*
X125508941Y-90289860D01*
X125654032Y-90261000D01*
X125801968Y-90261000D01*
X125947059Y-90289860D01*
G37*
G36*
X144905487Y-88856996D02*
G01*
X145142253Y-88955068D01*
X145142255Y-88955069D01*
X145355339Y-89097447D01*
X145536553Y-89278661D01*
X145597854Y-89370404D01*
X145678932Y-89491747D01*
X145777004Y-89728513D01*
X145827000Y-89979861D01*
X145827000Y-90236139D01*
X145777004Y-90487487D01*
X145678932Y-90724253D01*
X145678931Y-90724255D01*
X145536553Y-90937339D01*
X145355339Y-91118553D01*
X145142255Y-91260931D01*
X145142254Y-91260932D01*
X145142253Y-91260932D01*
X144905487Y-91359004D01*
X144654139Y-91409000D01*
X144397861Y-91409000D01*
X144146513Y-91359004D01*
X143909747Y-91260932D01*
X143909746Y-91260932D01*
X143909745Y-91260931D01*
X143696661Y-91118553D01*
X143515447Y-90937339D01*
X143373069Y-90724255D01*
X143373068Y-90724253D01*
X143274996Y-90487487D01*
X143225000Y-90236139D01*
X143225000Y-89979861D01*
X143274996Y-89728513D01*
X143373068Y-89491747D01*
X143454147Y-89370404D01*
X143515447Y-89278661D01*
X143696661Y-89097447D01*
X143909745Y-88955069D01*
X143909747Y-88955068D01*
X144146513Y-88856996D01*
X144397861Y-88807000D01*
X144654139Y-88807000D01*
X144905487Y-88856996D01*
G37*
G36*
X101436326Y-82355578D02*
G01*
X101436329Y-82355579D01*
X101436328Y-82355579D01*
X101809631Y-82510206D01*
X102145596Y-82734690D01*
X102431310Y-83020404D01*
X102474085Y-83084422D01*
X102655795Y-83356371D01*
X102810422Y-83729674D01*
X102889250Y-84125968D01*
X102889250Y-84530032D01*
X102810422Y-84926326D01*
X102690021Y-85217000D01*
X102655794Y-85299631D01*
X102431310Y-85635596D01*
X102145596Y-85921310D01*
X101809631Y-86145794D01*
X101809630Y-86145795D01*
X101809629Y-86145795D01*
X101436326Y-86300422D01*
X101040032Y-86379250D01*
X100635968Y-86379250D01*
X100239674Y-86300422D01*
X99866371Y-86145795D01*
X99866370Y-86145795D01*
X99866369Y-86145794D01*
X99530404Y-85921310D01*
X99244690Y-85635596D01*
X99020206Y-85299631D01*
X98985979Y-85217000D01*
X98865578Y-84926326D01*
X98786750Y-84530032D01*
X98786750Y-84125968D01*
X98865578Y-83729674D01*
X99020205Y-83356371D01*
X99201915Y-83084422D01*
X99244690Y-83020404D01*
X99530404Y-82734690D01*
X99866369Y-82510206D01*
X100239672Y-82355579D01*
X100239671Y-82355579D01*
X100239674Y-82355578D01*
X100635968Y-82276750D01*
X101040032Y-82276750D01*
X101436326Y-82355578D01*
G37*
G36*
X107563256Y-82719298D02*
G01*
X107669579Y-82740447D01*
X107970042Y-82864903D01*
X108240451Y-83045585D01*
X108470415Y-83275549D01*
X108651097Y-83545958D01*
X108726754Y-83728609D01*
X108775553Y-83846422D01*
X108839000Y-84165389D01*
X108839000Y-84490611D01*
X108813571Y-84618449D01*
X108775553Y-84809579D01*
X108651097Y-85110042D01*
X108470415Y-85380451D01*
X108240451Y-85610415D01*
X107970042Y-85791097D01*
X107669579Y-85915553D01*
X107563256Y-85936702D01*
X107350611Y-85979000D01*
X107025389Y-85979000D01*
X106812744Y-85936702D01*
X106706421Y-85915553D01*
X106405958Y-85791097D01*
X106135549Y-85610415D01*
X105905585Y-85380451D01*
X105724903Y-85110042D01*
X105600447Y-84809579D01*
X105562429Y-84618449D01*
X105537000Y-84490611D01*
X105537000Y-84165389D01*
X105600447Y-83846422D01*
X105649247Y-83728609D01*
X105724903Y-83545958D01*
X105905585Y-83275549D01*
X106135549Y-83045585D01*
X106405958Y-82864903D01*
X106706421Y-82740447D01*
X106812744Y-82719298D01*
X107025389Y-82677000D01*
X107350611Y-82677000D01*
X107563256Y-82719298D01*
G37*
G36*
X124079000Y-85979000D02*
G01*
X120777000Y-85979000D01*
X120777000Y-82677000D01*
X124079000Y-82677000D01*
X124079000Y-85979000D01*
G37*
G36*
X137535256Y-81957298D02*
G01*
X137641579Y-81978447D01*
X137942042Y-82102903D01*
X138212451Y-82283585D01*
X138442415Y-82513549D01*
X138623097Y-82783958D01*
X138731467Y-83045585D01*
X138747553Y-83084422D01*
X138811000Y-83403389D01*
X138811000Y-83728611D01*
X138787566Y-83846421D01*
X138747553Y-84047579D01*
X138623097Y-84348042D01*
X138442415Y-84618451D01*
X138212451Y-84848415D01*
X137942042Y-85029097D01*
X137641579Y-85153553D01*
X137535256Y-85174702D01*
X137322611Y-85217000D01*
X136997389Y-85217000D01*
X136784744Y-85174702D01*
X136678421Y-85153553D01*
X136377958Y-85029097D01*
X136107549Y-84848415D01*
X135877585Y-84618451D01*
X135696903Y-84348042D01*
X135572447Y-84047579D01*
X135532434Y-83846421D01*
X135509000Y-83728611D01*
X135509000Y-83403389D01*
X135572447Y-83084422D01*
X135588534Y-83045585D01*
X135696903Y-82783958D01*
X135877585Y-82513549D01*
X136107549Y-82283585D01*
X136377958Y-82102903D01*
X136678421Y-81978447D01*
X136784744Y-81957298D01*
X136997389Y-81915000D01*
X137322611Y-81915000D01*
X137535256Y-81957298D01*
G37*
G36*
X154051000Y-85217000D02*
G01*
X150749000Y-85217000D01*
X150749000Y-81915000D01*
X154051000Y-81915000D01*
X154051000Y-85217000D01*
G37*
G36*
X172048326Y-77529578D02*
G01*
X172421629Y-77684205D01*
X172421631Y-77684206D01*
X172757596Y-77908690D01*
X173043310Y-78194404D01*
X173158738Y-78367155D01*
X173267795Y-78530371D01*
X173422422Y-78903674D01*
X173501250Y-79299968D01*
X173501250Y-79704032D01*
X173422422Y-80100326D01*
X173422421Y-80100328D01*
X173267794Y-80473631D01*
X173043310Y-80809596D01*
X172757596Y-81095310D01*
X172421631Y-81319794D01*
X172421630Y-81319795D01*
X172421629Y-81319795D01*
X172048326Y-81474422D01*
X171652032Y-81553250D01*
X171247968Y-81553250D01*
X170851674Y-81474422D01*
X170478371Y-81319795D01*
X170478370Y-81319795D01*
X170478369Y-81319794D01*
X170142404Y-81095310D01*
X169856690Y-80809596D01*
X169632206Y-80473631D01*
X169477579Y-80100328D01*
X169477578Y-80100326D01*
X169398750Y-79704032D01*
X169398750Y-79299968D01*
X169477578Y-78903674D01*
X169632205Y-78530371D01*
X169741262Y-78367155D01*
X169856690Y-78194404D01*
X170142404Y-77908690D01*
X170478369Y-77684206D01*
X170478371Y-77684205D01*
X170851674Y-77529578D01*
X171247968Y-77450750D01*
X171652032Y-77450750D01*
X172048326Y-77529578D01*
G37*
G36*
X195924326Y-77529578D02*
G01*
X196297629Y-77684205D01*
X196297631Y-77684206D01*
X196633596Y-77908690D01*
X196919310Y-78194404D01*
X197034738Y-78367155D01*
X197143795Y-78530371D01*
X197298422Y-78903674D01*
X197377250Y-79299968D01*
X197377250Y-79704032D01*
X197298422Y-80100326D01*
X197298421Y-80100328D01*
X197143794Y-80473631D01*
X196919310Y-80809596D01*
X196633596Y-81095310D01*
X196297631Y-81319794D01*
X196297630Y-81319795D01*
X196297629Y-81319795D01*
X195924326Y-81474422D01*
X195528032Y-81553250D01*
X195123968Y-81553250D01*
X194727674Y-81474422D01*
X194354371Y-81319795D01*
X194354370Y-81319795D01*
X194354369Y-81319794D01*
X194018404Y-81095310D01*
X193732690Y-80809596D01*
X193508206Y-80473631D01*
X193353579Y-80100328D01*
X193353578Y-80100326D01*
X193274750Y-79704032D01*
X193274750Y-79299968D01*
X193353578Y-78903674D01*
X193508205Y-78530371D01*
X193617262Y-78367155D01*
X193732690Y-78194404D01*
X194018404Y-77908690D01*
X194354369Y-77684206D01*
X194354371Y-77684205D01*
X194727674Y-77529578D01*
X195123968Y-77450750D01*
X195528032Y-77450750D01*
X195924326Y-77529578D01*
G37*
G36*
X204235787Y-73547462D02*
G01*
X204235790Y-73547463D01*
X204235789Y-73547463D01*
X204882029Y-73815144D01*
X205463631Y-74203758D01*
X205958242Y-74698369D01*
X206346856Y-75279971D01*
X206536135Y-75736932D01*
X206614538Y-75926213D01*
X206751000Y-76612256D01*
X206751000Y-77311744D01*
X206614538Y-77997787D01*
X206614537Y-77997789D01*
X206346856Y-78644029D01*
X205958242Y-79225631D01*
X205463631Y-79720242D01*
X204882029Y-80108856D01*
X204425068Y-80298135D01*
X204235787Y-80376538D01*
X203549744Y-80513000D01*
X202850256Y-80513000D01*
X202164213Y-80376538D01*
X201974932Y-80298135D01*
X201517971Y-80108856D01*
X200936369Y-79720242D01*
X200441758Y-79225631D01*
X200053144Y-78644029D01*
X199785463Y-77997789D01*
X199785462Y-77997787D01*
X199649000Y-77311744D01*
X199649000Y-76612256D01*
X199785462Y-75926213D01*
X199863865Y-75736932D01*
X200053144Y-75279971D01*
X200441758Y-74698369D01*
X200936369Y-74203758D01*
X201517971Y-73815144D01*
X202164211Y-73547463D01*
X202164210Y-73547463D01*
X202164213Y-73547462D01*
X202850256Y-73411000D01*
X203549744Y-73411000D01*
X204235787Y-73547462D01*
G37*
G36*
X94507787Y-73547462D02*
G01*
X94507790Y-73547463D01*
X94507789Y-73547463D01*
X95154029Y-73815144D01*
X95735631Y-74203758D01*
X96230242Y-74698369D01*
X96618856Y-75279971D01*
X96808135Y-75736932D01*
X96886538Y-75926213D01*
X97023000Y-76612256D01*
X97023000Y-77311744D01*
X96886538Y-77997787D01*
X96886537Y-77997789D01*
X96618856Y-78644029D01*
X96230242Y-79225631D01*
X95735631Y-79720242D01*
X95154029Y-80108856D01*
X94697068Y-80298135D01*
X94507787Y-80376538D01*
X93821744Y-80513000D01*
X93122256Y-80513000D01*
X92436213Y-80376538D01*
X92246932Y-80298135D01*
X91789971Y-80108856D01*
X91208369Y-79720242D01*
X90713758Y-79225631D01*
X90325144Y-78644029D01*
X90057463Y-77997789D01*
X90057462Y-77997787D01*
X89921000Y-77311744D01*
X89921000Y-76612256D01*
X90057462Y-75926213D01*
X90135865Y-75736932D01*
X90325144Y-75279971D01*
X90713758Y-74698369D01*
X91208369Y-74203758D01*
X91789971Y-73815144D01*
X92436211Y-73547463D01*
X92436210Y-73547463D01*
X92436213Y-73547462D01*
X93122256Y-73411000D01*
X93821744Y-73411000D01*
X94507787Y-73547462D01*
G37*
G36*
X180684326Y-75497578D02*
G01*
X180684329Y-75497579D01*
X180684328Y-75497579D01*
X181057631Y-75652206D01*
X181393596Y-75876690D01*
X181679310Y-76162404D01*
X181903794Y-76498369D01*
X181903795Y-76498371D01*
X182058422Y-76871674D01*
X182137250Y-77267968D01*
X182137250Y-77672032D01*
X182058422Y-78068326D01*
X182058421Y-78068328D01*
X181903794Y-78441631D01*
X181679310Y-78777596D01*
X181393596Y-79063310D01*
X181057631Y-79287794D01*
X181057630Y-79287795D01*
X181057629Y-79287795D01*
X180684326Y-79442422D01*
X180288032Y-79521250D01*
X179883968Y-79521250D01*
X179487674Y-79442422D01*
X179114371Y-79287795D01*
X179114370Y-79287795D01*
X179114369Y-79287794D01*
X178778404Y-79063310D01*
X178492690Y-78777596D01*
X178268206Y-78441631D01*
X178113579Y-78068328D01*
X178113578Y-78068326D01*
X178034750Y-77672032D01*
X178034750Y-77267968D01*
X178113578Y-76871674D01*
X178268205Y-76498371D01*
X178268206Y-76498369D01*
X178492690Y-76162404D01*
X178778404Y-75876690D01*
X179114369Y-75652206D01*
X179487672Y-75497579D01*
X179487671Y-75497579D01*
X179487674Y-75497578D01*
X179883968Y-75418750D01*
X180288032Y-75418750D01*
X180684326Y-75497578D01*
G37*
G36*
X187288326Y-75497578D02*
G01*
X187288329Y-75497579D01*
X187288328Y-75497579D01*
X187661631Y-75652206D01*
X187997596Y-75876690D01*
X188283310Y-76162404D01*
X188507794Y-76498369D01*
X188507795Y-76498371D01*
X188662422Y-76871674D01*
X188741250Y-77267968D01*
X188741250Y-77672032D01*
X188662422Y-78068326D01*
X188662421Y-78068328D01*
X188507794Y-78441631D01*
X188283310Y-78777596D01*
X187997596Y-79063310D01*
X187661631Y-79287794D01*
X187661630Y-79287795D01*
X187661629Y-79287795D01*
X187288326Y-79442422D01*
X186892032Y-79521250D01*
X186487968Y-79521250D01*
X186091674Y-79442422D01*
X185718371Y-79287795D01*
X185718370Y-79287795D01*
X185718369Y-79287794D01*
X185382404Y-79063310D01*
X185096690Y-78777596D01*
X184872206Y-78441631D01*
X184717579Y-78068328D01*
X184717578Y-78068326D01*
X184638750Y-77672032D01*
X184638750Y-77267968D01*
X184717578Y-76871674D01*
X184872205Y-76498371D01*
X184872206Y-76498369D01*
X185096690Y-76162404D01*
X185382404Y-75876690D01*
X185718369Y-75652206D01*
X186091672Y-75497579D01*
X186091671Y-75497579D01*
X186091674Y-75497578D01*
X186487968Y-75418750D01*
X186892032Y-75418750D01*
X187288326Y-75497578D01*
G37*
M02*
