M48
; DRILL file {KiCad (5.1.5)-3} date 4/26/2020 6:29:52 PM
; FORMAT={-:-/ absolute / inch / decimal}
; #@! TF.CreationDate,2020-04-26T18:29:52-05:00
; #@! TF.GenerationSoftware,Kicad,Pcbnew,(5.1.5)-3
FMAT,2
INCH
T1C0.0157
T2C0.0197
T3C0.0315
T4C0.0354
T5C0.0394
T6C0.0591
T7C0.0591
T8C0.0630
T9C0.1378
%
G90
G05
T1
X3.58Y-3.29
X3.64Y-2.61
X3.69Y-3.04
X3.74Y-3.22
X3.76Y-2.61
X3.79Y-2.83
X3.8Y-2.61
X3.92Y-3.24
X4.09Y-3.39
X5.48Y-2.61
X5.7Y-2.5
X6.41Y-2.71
X6.49Y-2.7
T2
X2.8567Y-3.43
X2.8869Y-3.3569
X2.8869Y-3.5031
X2.96Y-3.3267
X2.96Y-3.5333
X3.0331Y-3.3569
X3.0331Y-3.5031
X3.0633Y-3.43
X7.1767Y-3.43
X7.2069Y-3.3569
X7.2069Y-3.5031
X7.28Y-3.3267
X7.28Y-3.5333
X7.3531Y-3.3569
X7.3531Y-3.5031
X7.3833Y-3.43
X7.1767Y-1.76
X7.2069Y-1.6869
X7.2069Y-1.8331
X7.28Y-1.6567
X7.28Y-1.8633
X7.3531Y-1.6869
X7.3531Y-1.8331
X7.3833Y-1.76
X2.8567Y-1.76
X2.8869Y-1.6869
X2.8869Y-1.8331
X2.96Y-1.6567
X2.96Y-1.8633
X3.0331Y-1.6869
X3.0331Y-1.8331
X3.0633Y-1.76
T3
X4.97Y-2.97
X4.97Y-3.0684
X5.54Y-3.22
X5.54Y-3.3184
X5.2Y-3.22
X5.2Y-3.3184
X5.97Y-2.43
X5.97Y-2.5284
X7.02Y-2.43
X7.02Y-2.5284
T4
X3.44Y-2.78
X3.44Y-2.88
X4.1Y-2.3131
X4.1Y-2.4116
X4.1Y-2.51
X4.2299Y-2.3131
X4.2299Y-2.4116
X4.2299Y-2.51
X3.63Y-2.78
X3.63Y-2.88
T5
X4.57Y-2.99
X4.57Y-3.09
X4.57Y-3.19
X6.14Y-2.67
X6.14Y-2.77
X6.14Y-2.87
T6
X4.97Y-2.2776
X4.97Y-2.75
T7
X6.63Y-3.18
X6.97Y-1.86
X4.39Y-2.7
X3.5Y-2.3
X6.28Y-3.18
X3.25Y-2.3
X6.63Y-1.78
X4.25Y-3.02
X4.16Y-2.7
X6.87Y-3.18
X3.5Y-2.55
X6.04Y-3.18
X4.25Y-3.29
X6.37Y-1.78
X6.03Y-1.86
X3.25Y-2.05
T8
X4.68Y-2.02
X5.28Y-2.02
X3.5Y-2.05
X4.1Y-2.05
T9
X2.96Y-3.43
X7.28Y-3.43
X7.28Y-1.76
X2.96Y-1.76
T0
M30
